M48
; DRILL file {KiCad (5.1.7)-1} date 03/01/21 21:41:41
; FORMAT={3:3/ absolute / metric / suppress leading zeros}
; #@! TF.CreationDate,2021-03-01T21:41:41+01:00
; #@! TF.GenerationSoftware,Kicad,Pcbnew,(5.1.7)-1
FMAT,2
METRIC,TZ
T1C0.300
T2C0.500
T3C0.800
T4C0.950
T5C1.000
T6C1.020
T7C1.100
T8C1.500
T9C1.700
T10C2.500
T11C3.300
%
G90
G05
T1
X39218Y-86512
X39726Y-85242
X40640Y-86157
X40996Y-84836
X41961Y-85700
X42367Y-84176
X42558Y-86843
X43180Y-85090
X43332Y-83617
X43498Y-105727
X43878Y-101346
X45150Y-105726
X45720Y-101346
X52908Y-111138
X53467Y-108496
X55003Y-104762
X55499Y-108966
X55563Y-110426
X58001Y-104762
X59779Y-109118
X63128Y-107832
X63696Y-99741
X64643Y-99187
X65484Y-98303
X65699Y-108026
X66568Y-100858
X67056Y-108001
X67399Y-100203
X68072Y-94437
X68199Y-99441
X68580Y-101092
X69723Y-112014
X69875Y-100640
X70815Y-86817
X70866Y-98044
X71628Y-92964
X71628Y-94234
X71628Y-98349
X71704Y-85801
X72581Y-94234
X72581Y-93027
X72705Y-112651
X74016Y-105399
X74816Y-85801
X74879Y-101752
X75032Y-105359
X75235Y-90272
X76505Y-101498
X76530Y-90272
X76979Y-94463
X77470Y-87376
X77470Y-91034
X79273Y-93167
X79273Y-94463
X83820Y-103835
X84709Y-93345
X84742Y-91969
X90746Y-108077
T2
X19994Y-83414
X20544Y-82088
X20544Y-84739
X21869Y-81539
X21869Y-85289
X23195Y-82088
X23195Y-84739
X23744Y-83414
X19994Y-160452
X20544Y-159126
X20544Y-161778
X21869Y-158577
X21869Y-162327
X23195Y-159126
X23195Y-161778
X23744Y-160452
X87990Y-160452
X88539Y-159126
X88539Y-161778
X89865Y-158577
X89865Y-162327
X91191Y-159126
X91191Y-161778
X91740Y-160452
X87990Y-83439
X88539Y-82113
X88539Y-84765
X89865Y-81564
X89865Y-85314
X91191Y-82113
X91191Y-84765
X91740Y-83439
T3
X44896Y-82979
X44896Y-84979
X44896Y-86979
X44896Y-88979
X44896Y-90979
X44896Y-92979
X44896Y-94979
X44896Y-96979
X58895Y-82979
X58895Y-84979
X58895Y-86979
X58895Y-88979
X58895Y-90979
X58895Y-92979
X58895Y-94979
X58895Y-96979
X23914Y-98108
X23914Y-100648
X23914Y-103188
X23914Y-105727
T4
X87757Y-99140
X87757Y-101640
X87757Y-104140
T5
X76683Y-108356
X76683Y-110896
X79223Y-108356
X79223Y-110896
X81763Y-108356
X81763Y-110896
X72847Y-108356
X72847Y-110896
X86868Y-88849
X86868Y-91389
X86868Y-93929
X89408Y-88849
X89408Y-91389
X89408Y-93929
X69291Y-82652
X71831Y-82652
X74371Y-82652
X76911Y-82652
X79451Y-82652
X81991Y-82652
X35712Y-109576
X35712Y-112116
X44501Y-109576
X44501Y-112116
T6
X83060Y-134745
X83060Y-149735
T7
X88138Y-150241
X88138Y-134239
X28067Y-150241
X28067Y-134239
T8
X37465Y-85979
T9
X34925Y-83439
X34925Y-88519
X40005Y-83439
X40005Y-88519
T10
X21869Y-160452
X89865Y-160452
X89865Y-83439
X21869Y-83414
T11
X55880Y-134745
X55880Y-149735
T0
M30
