%TF.GenerationSoftware,KiCad,Pcbnew,(5.1.10-1-10_14)*%
%TF.CreationDate,2021-08-31T00:30:18+02:00*%
%TF.ProjectId,mfm-v3-smd,6d666d2d-7633-42d7-936d-642e6b696361,rev?*%
%TF.SameCoordinates,Original*%
%TF.FileFunction,Legend,Top*%
%TF.FilePolarity,Positive*%
%FSLAX46Y46*%
G04 Gerber Fmt 4.6, Leading zero omitted, Abs format (unit mm)*
G04 Created by KiCad (PCBNEW (5.1.10-1-10_14)) date 2021-08-31 00:30:18*
%MOMM*%
%LPD*%
G01*
G04 APERTURE LIST*
%ADD10C,0.100000*%
%ADD11C,0.300000*%
%ADD12C,0.050000*%
%ADD13C,0.150000*%
%ADD14C,0.120000*%
%ADD15C,0.127000*%
G04 APERTURE END LIST*
D10*
X28146952Y-97369380D02*
X28146952Y-98083666D01*
X28099333Y-98226523D01*
X28004095Y-98321761D01*
X27861238Y-98369380D01*
X27766000Y-98369380D01*
X29099333Y-98369380D02*
X28623142Y-98369380D01*
X28623142Y-97369380D01*
X30004095Y-98274142D02*
X29956476Y-98321761D01*
X29813619Y-98369380D01*
X29718380Y-98369380D01*
X29575523Y-98321761D01*
X29480285Y-98226523D01*
X29432666Y-98131285D01*
X29385047Y-97940809D01*
X29385047Y-97797952D01*
X29432666Y-97607476D01*
X29480285Y-97512238D01*
X29575523Y-97417000D01*
X29718380Y-97369380D01*
X29813619Y-97369380D01*
X29956476Y-97417000D01*
X30004095Y-97464619D01*
X30718380Y-97369380D02*
X30718380Y-98083666D01*
X30670761Y-98226523D01*
X30575523Y-98321761D01*
X30432666Y-98369380D01*
X30337428Y-98369380D01*
X31670761Y-98369380D02*
X31194571Y-98369380D01*
X31194571Y-97369380D01*
X32575523Y-98274142D02*
X32527904Y-98321761D01*
X32385047Y-98369380D01*
X32289809Y-98369380D01*
X32146952Y-98321761D01*
X32051714Y-98226523D01*
X32004095Y-98131285D01*
X31956476Y-97940809D01*
X31956476Y-97797952D01*
X32004095Y-97607476D01*
X32051714Y-97512238D01*
X32146952Y-97417000D01*
X32289809Y-97369380D01*
X32385047Y-97369380D01*
X32527904Y-97417000D01*
X32575523Y-97464619D01*
X33289809Y-97369380D02*
X33289809Y-98083666D01*
X33242190Y-98226523D01*
X33146952Y-98321761D01*
X33004095Y-98369380D01*
X32908857Y-98369380D01*
X34242190Y-98369380D02*
X33766000Y-98369380D01*
X33766000Y-97369380D01*
X35146952Y-98274142D02*
X35099333Y-98321761D01*
X34956476Y-98369380D01*
X34861238Y-98369380D01*
X34718380Y-98321761D01*
X34623142Y-98226523D01*
X34575523Y-98131285D01*
X34527904Y-97940809D01*
X34527904Y-97797952D01*
X34575523Y-97607476D01*
X34623142Y-97512238D01*
X34718380Y-97417000D01*
X34861238Y-97369380D01*
X34956476Y-97369380D01*
X35099333Y-97417000D01*
X35146952Y-97464619D01*
X35861238Y-97369380D02*
X35861238Y-98083666D01*
X35813619Y-98226523D01*
X35718380Y-98321761D01*
X35575523Y-98369380D01*
X35480285Y-98369380D01*
X36813619Y-98369380D02*
X36337428Y-98369380D01*
X36337428Y-97369380D01*
X37718380Y-98274142D02*
X37670761Y-98321761D01*
X37527904Y-98369380D01*
X37432666Y-98369380D01*
X37289809Y-98321761D01*
X37194571Y-98226523D01*
X37146952Y-98131285D01*
X37099333Y-97940809D01*
X37099333Y-97797952D01*
X37146952Y-97607476D01*
X37194571Y-97512238D01*
X37289809Y-97417000D01*
X37432666Y-97369380D01*
X37527904Y-97369380D01*
X37670761Y-97417000D01*
X37718380Y-97464619D01*
D11*
X22860000Y-131599714D02*
X22931428Y-131671142D01*
X22860000Y-131742571D01*
X22788571Y-131671142D01*
X22860000Y-131599714D01*
X22860000Y-131742571D01*
X24066500Y-130075714D02*
X24137928Y-130147142D01*
X24066500Y-130218571D01*
X23995071Y-130147142D01*
X24066500Y-130075714D01*
X24066500Y-130218571D01*
D12*
X24447547Y-135008928D02*
X25209452Y-135008928D01*
X24828500Y-135389880D02*
X24828500Y-134627976D01*
D11*
X25527000Y-106580714D02*
X25598428Y-106652142D01*
X25527000Y-106723571D01*
X25455571Y-106652142D01*
X25527000Y-106580714D01*
X25527000Y-106723571D01*
X25527000Y-122519214D02*
X25598428Y-122590642D01*
X25527000Y-122662071D01*
X25455571Y-122590642D01*
X25527000Y-122519214D01*
X25527000Y-122662071D01*
X26606500Y-113756214D02*
X26677928Y-113827642D01*
X26606500Y-113899071D01*
X26535071Y-113827642D01*
X26606500Y-113756214D01*
X26606500Y-113899071D01*
D12*
X48006047Y-92781428D02*
X48767952Y-92781428D01*
X48387000Y-93162380D02*
X48387000Y-92400476D01*
X48006047Y-99512428D02*
X48767952Y-99512428D01*
X48387000Y-99893380D02*
X48387000Y-99131476D01*
D11*
X21542238Y-146780880D02*
X21542238Y-147161833D01*
X21447000Y-147352309D01*
X21256523Y-147542785D01*
X20875571Y-147638023D01*
X20208904Y-147638023D01*
X19827952Y-147542785D01*
X19637476Y-147352309D01*
X19542238Y-147161833D01*
X19542238Y-146780880D01*
X19637476Y-146590404D01*
X19827952Y-146399928D01*
X20208904Y-146304690D01*
X20875571Y-146304690D01*
X21256523Y-146399928D01*
X21447000Y-146590404D01*
X21542238Y-146780880D01*
X19542238Y-148495166D02*
X21542238Y-148495166D01*
X19542238Y-149638023D01*
X21542238Y-149638023D01*
X21637476Y-152018976D02*
X19066047Y-150304690D01*
X21542238Y-153066595D02*
X21542238Y-153447547D01*
X21447000Y-153638023D01*
X21256523Y-153828500D01*
X20875571Y-153923738D01*
X20208904Y-153923738D01*
X19827952Y-153828500D01*
X19637476Y-153638023D01*
X19542238Y-153447547D01*
X19542238Y-153066595D01*
X19637476Y-152876119D01*
X19827952Y-152685642D01*
X20208904Y-152590404D01*
X20875571Y-152590404D01*
X21256523Y-152685642D01*
X21447000Y-152876119D01*
X21542238Y-153066595D01*
X20589857Y-155447547D02*
X20589857Y-154780880D01*
X19542238Y-154780880D02*
X21542238Y-154780880D01*
X21542238Y-155733261D01*
X20589857Y-157161833D02*
X20589857Y-156495166D01*
X19542238Y-156495166D02*
X21542238Y-156495166D01*
X21542238Y-157447547D01*
D13*
X49791880Y-92328833D02*
X48791880Y-92328833D01*
X48791880Y-91947880D01*
X48839500Y-91852642D01*
X48887119Y-91805023D01*
X48982357Y-91757404D01*
X49125214Y-91757404D01*
X49220452Y-91805023D01*
X49268071Y-91852642D01*
X49315690Y-91947880D01*
X49315690Y-92328833D01*
X48791880Y-91424071D02*
X49791880Y-91185976D01*
X49077595Y-90995500D01*
X49791880Y-90805023D01*
X48791880Y-90566928D01*
X49791880Y-89614547D02*
X49315690Y-89947880D01*
X49791880Y-90185976D02*
X48791880Y-90185976D01*
X48791880Y-89805023D01*
X48839500Y-89709785D01*
X48887119Y-89662166D01*
X48982357Y-89614547D01*
X49125214Y-89614547D01*
X49220452Y-89662166D01*
X49268071Y-89709785D01*
X49315690Y-89805023D01*
X49315690Y-90185976D01*
X50061761Y-102552190D02*
X50109380Y-102409333D01*
X50109380Y-102171238D01*
X50061761Y-102076000D01*
X50014142Y-102028380D01*
X49918904Y-101980761D01*
X49823666Y-101980761D01*
X49728428Y-102028380D01*
X49680809Y-102076000D01*
X49633190Y-102171238D01*
X49585571Y-102361714D01*
X49537952Y-102456952D01*
X49490333Y-102504571D01*
X49395095Y-102552190D01*
X49299857Y-102552190D01*
X49204619Y-102504571D01*
X49157000Y-102456952D01*
X49109380Y-102361714D01*
X49109380Y-102123619D01*
X49157000Y-101980761D01*
X49109380Y-101695047D02*
X49109380Y-101123619D01*
X50109380Y-101409333D02*
X49109380Y-101409333D01*
X49823666Y-100837904D02*
X49823666Y-100361714D01*
X50109380Y-100933142D02*
X49109380Y-100599809D01*
X50109380Y-100266476D01*
X49109380Y-100076000D02*
X49109380Y-99504571D01*
X50109380Y-99790285D02*
X49109380Y-99790285D01*
X49109380Y-99171238D02*
X49918904Y-99171238D01*
X50014142Y-99123619D01*
X50061761Y-99076000D01*
X50109380Y-98980761D01*
X50109380Y-98790285D01*
X50061761Y-98695047D01*
X50014142Y-98647428D01*
X49918904Y-98599809D01*
X49109380Y-98599809D01*
X50061761Y-98171238D02*
X50109380Y-98028380D01*
X50109380Y-97790285D01*
X50061761Y-97695047D01*
X50014142Y-97647428D01*
X49918904Y-97599809D01*
X49823666Y-97599809D01*
X49728428Y-97647428D01*
X49680809Y-97695047D01*
X49633190Y-97790285D01*
X49585571Y-97980761D01*
X49537952Y-98076000D01*
X49490333Y-98123619D01*
X49395095Y-98171238D01*
X49299857Y-98171238D01*
X49204619Y-98123619D01*
X49157000Y-98076000D01*
X49109380Y-97980761D01*
X49109380Y-97742666D01*
X49157000Y-97599809D01*
D14*
X32085000Y-80036500D02*
X32085000Y-81911500D01*
X28560000Y-80036500D02*
X32085000Y-80036500D01*
X28560000Y-81936500D02*
X28560000Y-80036500D01*
D13*
X28883809Y-81338880D02*
X28883809Y-80338880D01*
X29931428Y-81243642D02*
X29883809Y-81291261D01*
X29740952Y-81338880D01*
X29645714Y-81338880D01*
X29502857Y-81291261D01*
X29407619Y-81196023D01*
X29360000Y-81100785D01*
X29312380Y-80910309D01*
X29312380Y-80767452D01*
X29360000Y-80576976D01*
X29407619Y-80481738D01*
X29502857Y-80386500D01*
X29645714Y-80338880D01*
X29740952Y-80338880D01*
X29883809Y-80386500D01*
X29931428Y-80434119D01*
X30312380Y-81291261D02*
X30455238Y-81338880D01*
X30693333Y-81338880D01*
X30788571Y-81291261D01*
X30836190Y-81243642D01*
X30883809Y-81148404D01*
X30883809Y-81053166D01*
X30836190Y-80957928D01*
X30788571Y-80910309D01*
X30693333Y-80862690D01*
X30502857Y-80815071D01*
X30407619Y-80767452D01*
X30360000Y-80719833D01*
X30312380Y-80624595D01*
X30312380Y-80529357D01*
X30360000Y-80434119D01*
X30407619Y-80386500D01*
X30502857Y-80338880D01*
X30740952Y-80338880D01*
X30883809Y-80386500D01*
X31312380Y-81338880D02*
X31312380Y-80338880D01*
X31693333Y-80338880D01*
X31788571Y-80386500D01*
X31836190Y-80434119D01*
X31883809Y-80529357D01*
X31883809Y-80672214D01*
X31836190Y-80767452D01*
X31788571Y-80815071D01*
X31693333Y-80862690D01*
X31312380Y-80862690D01*
X89900807Y-150284488D02*
X90662712Y-150284488D01*
X90281760Y-150665440D02*
X90281760Y-149903536D01*
X91105952Y-134203571D02*
X90344047Y-134203571D01*
X24090261Y-100520166D02*
X24137880Y-100377309D01*
X24137880Y-100139214D01*
X24090261Y-100043976D01*
X24042642Y-99996357D01*
X23947404Y-99948738D01*
X23852166Y-99948738D01*
X23756928Y-99996357D01*
X23709309Y-100043976D01*
X23661690Y-100139214D01*
X23614071Y-100329690D01*
X23566452Y-100424928D01*
X23518833Y-100472547D01*
X23423595Y-100520166D01*
X23328357Y-100520166D01*
X23233119Y-100472547D01*
X23185500Y-100424928D01*
X23137880Y-100329690D01*
X23137880Y-100091595D01*
X23185500Y-99948738D01*
X23137880Y-99615404D02*
X24137880Y-98948738D01*
X23137880Y-98948738D02*
X24137880Y-99615404D01*
X24137880Y-98043976D02*
X24137880Y-98615404D01*
X24137880Y-98329690D02*
X23137880Y-98329690D01*
X23280738Y-98424928D01*
X23375976Y-98520166D01*
X23423595Y-98615404D01*
X23233119Y-97663023D02*
X23185500Y-97615404D01*
X23137880Y-97520166D01*
X23137880Y-97282071D01*
X23185500Y-97186833D01*
X23233119Y-97139214D01*
X23328357Y-97091595D01*
X23423595Y-97091595D01*
X23566452Y-97139214D01*
X24137880Y-97710642D01*
X24137880Y-97091595D01*
X23137880Y-96758261D02*
X23137880Y-96091595D01*
X24137880Y-96520166D01*
X23137880Y-95282071D02*
X23137880Y-95472547D01*
X23185500Y-95567785D01*
X23233119Y-95615404D01*
X23375976Y-95710642D01*
X23566452Y-95758261D01*
X23947404Y-95758261D01*
X24042642Y-95710642D01*
X24090261Y-95663023D01*
X24137880Y-95567785D01*
X24137880Y-95377309D01*
X24090261Y-95282071D01*
X24042642Y-95234452D01*
X23947404Y-95186833D01*
X23709309Y-95186833D01*
X23614071Y-95234452D01*
X23566452Y-95282071D01*
X23518833Y-95377309D01*
X23518833Y-95567785D01*
X23566452Y-95663023D01*
X23614071Y-95710642D01*
X23709309Y-95758261D01*
D14*
%TO.C,C10*%
X37584748Y-125693500D02*
X38107252Y-125693500D01*
X37584748Y-127163500D02*
X38107252Y-127163500D01*
%TO.C,C5*%
X38107252Y-110399500D02*
X37584748Y-110399500D01*
X38107252Y-108929500D02*
X37584748Y-108929500D01*
%TO.C,R6*%
X48690000Y-109554242D02*
X48690000Y-110028758D01*
X49735000Y-109554242D02*
X49735000Y-110028758D01*
%TO.C,R3*%
X35320500Y-108728742D02*
X35320500Y-109203258D01*
X34275500Y-108728742D02*
X34275500Y-109203258D01*
D15*
%TO.C,J11*%
X38807200Y-80637500D02*
X40807200Y-80637500D01*
X38807200Y-87637500D02*
X40807200Y-87637500D01*
D14*
%TO.C,J5*%
X82105500Y-81791500D02*
X82105500Y-84451500D01*
X82105500Y-81791500D02*
X76965500Y-81791500D01*
X76965500Y-81791500D02*
X76965500Y-84451500D01*
X82105500Y-84451500D02*
X76965500Y-84451500D01*
X84705500Y-84451500D02*
X83375500Y-84451500D01*
X84705500Y-83121500D02*
X84705500Y-84451500D01*
%TO.C,BT1*%
X79664500Y-163120000D02*
X79664500Y-160580000D01*
X86039500Y-163120000D02*
X79664500Y-163120000D01*
X86039500Y-132540000D02*
X86039500Y-163120000D01*
X79664500Y-132540000D02*
X79664500Y-135080000D01*
X86039500Y-132540000D02*
X79664500Y-132540000D01*
X35214500Y-160580000D02*
X47914500Y-160580000D01*
X35214500Y-163120000D02*
X35214500Y-160580000D01*
X28869500Y-163120000D02*
X35214500Y-163120000D01*
X28869500Y-132540000D02*
X28869500Y-163120000D01*
X35214500Y-132540000D02*
X28869500Y-132540000D01*
X35214500Y-135080000D02*
X35214500Y-132540000D01*
X35214500Y-135080000D02*
X47914500Y-135080000D01*
X79664500Y-160580000D02*
X66964500Y-160580000D01*
X47914500Y-132540000D02*
X47914500Y-135080000D01*
X66964500Y-132540000D02*
X47914500Y-132540000D01*
X66964500Y-135080000D02*
X66964500Y-132540000D01*
X79664500Y-135080000D02*
X66964500Y-135080000D01*
X66964500Y-163120000D02*
X66964500Y-160580000D01*
X47914500Y-163120000D02*
X66964500Y-163120000D01*
X47914500Y-160580000D02*
X47914500Y-163120000D01*
X86039500Y-148084000D02*
X28869500Y-148084000D01*
X28869500Y-147576000D02*
X86039500Y-147576000D01*
X66964500Y-137795000D02*
X66964500Y-139065000D01*
X49184500Y-137795000D02*
X66964500Y-137795000D01*
X49184500Y-139065000D02*
X49184500Y-137795000D01*
X47914500Y-139065000D02*
X49184500Y-139065000D01*
X47914500Y-141605000D02*
X47914500Y-139065000D01*
X49184500Y-141605000D02*
X47914500Y-141605000D01*
X49184500Y-142875000D02*
X49184500Y-141605000D01*
X66964500Y-142875000D02*
X49184500Y-142875000D01*
X66964500Y-139065000D02*
X66964500Y-142875000D01*
X65694500Y-157865000D02*
X47914500Y-157865000D01*
X65694500Y-156595000D02*
X65694500Y-157865000D01*
X66964500Y-156595000D02*
X65694500Y-156595000D01*
X66964500Y-154055000D02*
X66964500Y-156595000D01*
X65694500Y-154055000D02*
X66964500Y-154055000D01*
X65694500Y-152785000D02*
X65694500Y-154055000D01*
X47914500Y-152785000D02*
X65694500Y-152785000D01*
X47914500Y-157865000D02*
X47914500Y-152785000D01*
X87309500Y-131270000D02*
X27599500Y-131270000D01*
X27599500Y-131270000D02*
X27599500Y-164390000D01*
X27599500Y-164390000D02*
X87309500Y-164390000D01*
X87309500Y-164390000D02*
X87309500Y-131270000D01*
%TO.C,Q1*%
X19248000Y-132776500D02*
X19248000Y-131316500D01*
X22408000Y-132776500D02*
X22408000Y-130616500D01*
X22408000Y-132776500D02*
X21478000Y-132776500D01*
X19248000Y-132776500D02*
X20178000Y-132776500D01*
%TO.C,C7*%
X22274920Y-124652500D02*
X22556080Y-124652500D01*
X22274920Y-123632500D02*
X22556080Y-123632500D01*
D13*
%TO.C,U3*%
X28500000Y-112781500D02*
X28500000Y-113356500D01*
X38850000Y-112781500D02*
X38850000Y-113456500D01*
X38850000Y-123131500D02*
X38850000Y-122456500D01*
X28500000Y-123131500D02*
X28500000Y-122456500D01*
X28500000Y-112781500D02*
X29175000Y-112781500D01*
X28500000Y-123131500D02*
X29175000Y-123131500D01*
X38850000Y-123131500D02*
X38175000Y-123131500D01*
X38850000Y-112781500D02*
X38175000Y-112781500D01*
X28500000Y-113356500D02*
X27225000Y-113356500D01*
D14*
%TO.C,SW4*%
X45653000Y-102485500D02*
X44323000Y-102485500D01*
X45653000Y-101155500D02*
X45653000Y-102485500D01*
X45653000Y-99885500D02*
X42993000Y-99885500D01*
X42993000Y-99885500D02*
X42993000Y-97285500D01*
X45653000Y-99885500D02*
X45653000Y-97285500D01*
X45653000Y-97285500D02*
X42993000Y-97285500D01*
%TO.C,SW3*%
X42993000Y-89919500D02*
X44323000Y-89919500D01*
X42993000Y-91249500D02*
X42993000Y-89919500D01*
X42993000Y-92519500D02*
X45653000Y-92519500D01*
X45653000Y-92519500D02*
X45653000Y-95119500D01*
X42993000Y-92519500D02*
X42993000Y-95119500D01*
X42993000Y-95119500D02*
X45653000Y-95119500D01*
%TO.C,SW1*%
X25714000Y-155000000D02*
X24384000Y-155000000D01*
X25714000Y-153670000D02*
X25714000Y-155000000D01*
X25714000Y-152400000D02*
X23054000Y-152400000D01*
X23054000Y-152400000D02*
X23054000Y-149800000D01*
X25714000Y-152400000D02*
X25714000Y-149800000D01*
X25714000Y-149800000D02*
X23054000Y-149800000D01*
%TO.C,J10*%
X32826000Y-81918500D02*
X32826000Y-83248500D01*
X31496000Y-81918500D02*
X32826000Y-81918500D01*
X32826000Y-84518500D02*
X32826000Y-87118500D01*
X30226000Y-84518500D02*
X32826000Y-84518500D01*
X30226000Y-81918500D02*
X30226000Y-84518500D01*
X32826000Y-87118500D02*
X25086000Y-87118500D01*
X30226000Y-81918500D02*
X25086000Y-81918500D01*
X25086000Y-81918500D02*
X25086000Y-87118500D01*
%TO.C,J7*%
X47760000Y-111795500D02*
X46430000Y-111795500D01*
X47760000Y-110465500D02*
X47760000Y-111795500D01*
X45160000Y-111795500D02*
X42560000Y-111795500D01*
X45160000Y-109195500D02*
X45160000Y-111795500D01*
X47760000Y-109195500D02*
X45160000Y-109195500D01*
X42560000Y-111795500D02*
X42560000Y-104055500D01*
X47760000Y-109195500D02*
X47760000Y-104055500D01*
X47760000Y-104055500D02*
X42560000Y-104055500D01*
%TO.C,C11*%
X40942500Y-117552080D02*
X40942500Y-117270920D01*
X41962500Y-117552080D02*
X41962500Y-117270920D01*
%TO.C,C9*%
X32700500Y-108825420D02*
X32700500Y-109106580D01*
X33720500Y-108825420D02*
X33720500Y-109106580D01*
%TO.C,C8*%
X20512500Y-118441080D02*
X20512500Y-118159920D01*
X19492500Y-118441080D02*
X19492500Y-118159920D01*
%TO.C,C2*%
X24572500Y-125144920D02*
X24572500Y-125426080D01*
X25592500Y-125144920D02*
X25592500Y-125426080D01*
%TO.C,C1*%
X25592500Y-128537580D02*
X25592500Y-128256420D01*
X24572500Y-128537580D02*
X24572500Y-128256420D01*
%TO.C,J9*%
X26787800Y-129209800D02*
X26787800Y-127879800D01*
X26787800Y-127879800D02*
X28117800Y-127879800D01*
X29387800Y-127879800D02*
X42147800Y-127879800D01*
X42147800Y-130539800D02*
X42147800Y-127879800D01*
X29387800Y-130539800D02*
X42147800Y-130539800D01*
X29387800Y-130539800D02*
X29387800Y-127879800D01*
%TO.C,C3*%
X32650820Y-125550200D02*
X32931980Y-125550200D01*
X32650820Y-126570200D02*
X32931980Y-126570200D01*
%TO.C,C4*%
X26545000Y-117171080D02*
X26545000Y-116889920D01*
X25525000Y-117171080D02*
X25525000Y-116889920D01*
%TO.C,C6*%
X40955500Y-120727080D02*
X40955500Y-120445920D01*
X41975500Y-120727080D02*
X41975500Y-120445920D01*
%TO.C,C12*%
X18663500Y-144277500D02*
X21613500Y-144277500D01*
X27183500Y-144277500D02*
X24233500Y-144277500D01*
X27183500Y-136821937D02*
X27183500Y-144277500D01*
X18663500Y-136821937D02*
X18663500Y-144277500D01*
X19727937Y-135757500D02*
X21613500Y-135757500D01*
X26119063Y-135757500D02*
X24233500Y-135757500D01*
X26119063Y-135757500D02*
X27183500Y-136821937D01*
X19727937Y-135757500D02*
X18663500Y-136821937D01*
%TO.C,J6*%
X84705500Y-125031500D02*
X84705500Y-126361500D01*
X84705500Y-126361500D02*
X83375500Y-126361500D01*
X82105500Y-126361500D02*
X76965500Y-126361500D01*
X76965500Y-123701500D02*
X76965500Y-126361500D01*
X82105500Y-123701500D02*
X76965500Y-123701500D01*
X82105500Y-123701500D02*
X82105500Y-126361500D01*
%TO.C,SW2*%
X22678000Y-106616500D02*
X22678000Y-112585500D01*
X22669500Y-112585500D02*
X18986500Y-112585500D01*
X18978000Y-112585500D02*
X18986500Y-106616500D01*
X18986500Y-106616500D02*
X22678000Y-106616500D01*
%TO.C,Y1*%
X24850500Y-120915000D02*
X25090500Y-120915000D01*
X24850500Y-119115000D02*
X24850500Y-120915000D01*
X21250500Y-120915000D02*
X21250500Y-119115000D01*
X22650500Y-117315000D02*
X23450500Y-117315000D01*
X23450500Y-122715000D02*
X22650500Y-122715000D01*
X23450500Y-123115000D02*
X23450500Y-122715000D01*
%TO.C,D1*%
X46474500Y-89437500D02*
X46474500Y-92122500D01*
X48394500Y-89437500D02*
X46474500Y-89437500D01*
X48394500Y-92122500D02*
X48394500Y-89437500D01*
%TO.C,D2*%
X48394500Y-102904000D02*
X48394500Y-100219000D01*
X46474500Y-102904000D02*
X48394500Y-102904000D01*
X46474500Y-100219000D02*
X46474500Y-102904000D01*
%TO.C,R1*%
X46721500Y-94725258D02*
X46721500Y-94250742D01*
X47766500Y-94725258D02*
X47766500Y-94250742D01*
%TO.C,R2*%
X46658000Y-97552742D02*
X46658000Y-98027258D01*
X47703000Y-97552742D02*
X47703000Y-98027258D01*
%TO.C,R4*%
X20493758Y-102982500D02*
X20019242Y-102982500D01*
X20493758Y-104027500D02*
X20019242Y-104027500D01*
%TO.C,R5*%
X31100500Y-109203258D02*
X31100500Y-108728742D01*
X32145500Y-109203258D02*
X32145500Y-108728742D01*
%TO.C,R7*%
X29513000Y-109203258D02*
X29513000Y-108728742D01*
X30558000Y-109203258D02*
X30558000Y-108728742D01*
%TO.C,R8*%
X28653000Y-109203258D02*
X28653000Y-108728742D01*
X27608000Y-109203258D02*
X27608000Y-108728742D01*
%TO.C,R9*%
X49735000Y-106315242D02*
X49735000Y-106789758D01*
X48690000Y-106315242D02*
X48690000Y-106789758D01*
%TO.C,U1*%
X22713500Y-125275000D02*
X22713500Y-125505000D01*
X22713500Y-129995000D02*
X22713500Y-129765000D01*
X22713500Y-129995000D02*
X19993500Y-129995000D01*
X19993500Y-129995000D02*
X19993500Y-128685000D01*
X23853500Y-129765000D02*
X22713500Y-129765000D01*
X19993500Y-125275000D02*
X22713500Y-125275000D01*
X19993500Y-126585000D02*
X19993500Y-125275000D01*
%TO.C,U2*%
X25031800Y-105995200D02*
X25031800Y-106895200D01*
X24681800Y-105995200D02*
X25031800Y-105995200D01*
X40881800Y-89795200D02*
X40481800Y-89795200D01*
X40881800Y-105995200D02*
X40881800Y-89795200D01*
X40481800Y-105995200D02*
X40881800Y-105995200D01*
X24681800Y-89795200D02*
X25081800Y-89795200D01*
X24681800Y-105995200D02*
X24681800Y-89795200D01*
%TO.C,J11*%
D13*
X44854880Y-84947023D02*
X45569166Y-84947023D01*
X45712023Y-84994642D01*
X45807261Y-85089880D01*
X45854880Y-85232738D01*
X45854880Y-85327976D01*
X45854880Y-83947023D02*
X45854880Y-84518452D01*
X45854880Y-84232738D02*
X44854880Y-84232738D01*
X44997738Y-84327976D01*
X45092976Y-84423214D01*
X45140595Y-84518452D01*
X45854880Y-82994642D02*
X45854880Y-83566071D01*
X45854880Y-83280357D02*
X44854880Y-83280357D01*
X44997738Y-83375595D01*
X45092976Y-83470833D01*
X45140595Y-83566071D01*
%TO.C,J5*%
X75168166Y-82573880D02*
X75168166Y-83288166D01*
X75120547Y-83431023D01*
X75025309Y-83526261D01*
X74882452Y-83573880D01*
X74787214Y-83573880D01*
X76120547Y-82573880D02*
X75644357Y-82573880D01*
X75596738Y-83050071D01*
X75644357Y-83002452D01*
X75739595Y-82954833D01*
X75977690Y-82954833D01*
X76072928Y-83002452D01*
X76120547Y-83050071D01*
X76168166Y-83145309D01*
X76168166Y-83383404D01*
X76120547Y-83478642D01*
X76072928Y-83526261D01*
X75977690Y-83573880D01*
X75739595Y-83573880D01*
X75644357Y-83526261D01*
X75596738Y-83478642D01*
%TO.C,BT1*%
X29718071Y-157269642D02*
X30860928Y-157269642D01*
X29718071Y-142220142D02*
X30860928Y-142220142D01*
X30289500Y-142791571D02*
X30289500Y-141648714D01*
X46073071Y-155432142D02*
X47215928Y-155432142D01*
X67663071Y-155432142D02*
X68805928Y-155432142D01*
X68234500Y-156003571D02*
X68234500Y-154860714D01*
X46073071Y-140442142D02*
X47215928Y-140442142D01*
X46644500Y-141013571D02*
X46644500Y-139870714D01*
X67663071Y-140442142D02*
X68805928Y-140442142D01*
%TO.C,SW4*%
X42251261Y-101409333D02*
X42298880Y-101266476D01*
X42298880Y-101028380D01*
X42251261Y-100933142D01*
X42203642Y-100885523D01*
X42108404Y-100837904D01*
X42013166Y-100837904D01*
X41917928Y-100885523D01*
X41870309Y-100933142D01*
X41822690Y-101028380D01*
X41775071Y-101218857D01*
X41727452Y-101314095D01*
X41679833Y-101361714D01*
X41584595Y-101409333D01*
X41489357Y-101409333D01*
X41394119Y-101361714D01*
X41346500Y-101314095D01*
X41298880Y-101218857D01*
X41298880Y-100980761D01*
X41346500Y-100837904D01*
X41298880Y-100504571D02*
X42298880Y-100266476D01*
X41584595Y-100076000D01*
X42298880Y-99885523D01*
X41298880Y-99647428D01*
X41632214Y-98837904D02*
X42298880Y-98837904D01*
X41251261Y-99076000D02*
X41965547Y-99314095D01*
X41965547Y-98695047D01*
%TO.C,SW3*%
X42251261Y-93789333D02*
X42298880Y-93646476D01*
X42298880Y-93408380D01*
X42251261Y-93313142D01*
X42203642Y-93265523D01*
X42108404Y-93217904D01*
X42013166Y-93217904D01*
X41917928Y-93265523D01*
X41870309Y-93313142D01*
X41822690Y-93408380D01*
X41775071Y-93598857D01*
X41727452Y-93694095D01*
X41679833Y-93741714D01*
X41584595Y-93789333D01*
X41489357Y-93789333D01*
X41394119Y-93741714D01*
X41346500Y-93694095D01*
X41298880Y-93598857D01*
X41298880Y-93360761D01*
X41346500Y-93217904D01*
X41298880Y-92884571D02*
X42298880Y-92646476D01*
X41584595Y-92456000D01*
X42298880Y-92265523D01*
X41298880Y-92027428D01*
X41298880Y-91741714D02*
X41298880Y-91122666D01*
X41679833Y-91456000D01*
X41679833Y-91313142D01*
X41727452Y-91217904D01*
X41775071Y-91170285D01*
X41870309Y-91122666D01*
X42108404Y-91122666D01*
X42203642Y-91170285D01*
X42251261Y-91217904D01*
X42298880Y-91313142D01*
X42298880Y-91598857D01*
X42251261Y-91694095D01*
X42203642Y-91741714D01*
%TO.C,SW1*%
X23050666Y-148931261D02*
X23193523Y-148978880D01*
X23431619Y-148978880D01*
X23526857Y-148931261D01*
X23574476Y-148883642D01*
X23622095Y-148788404D01*
X23622095Y-148693166D01*
X23574476Y-148597928D01*
X23526857Y-148550309D01*
X23431619Y-148502690D01*
X23241142Y-148455071D01*
X23145904Y-148407452D01*
X23098285Y-148359833D01*
X23050666Y-148264595D01*
X23050666Y-148169357D01*
X23098285Y-148074119D01*
X23145904Y-148026500D01*
X23241142Y-147978880D01*
X23479238Y-147978880D01*
X23622095Y-148026500D01*
X23955428Y-147978880D02*
X24193523Y-148978880D01*
X24384000Y-148264595D01*
X24574476Y-148978880D01*
X24812571Y-147978880D01*
X25717333Y-148978880D02*
X25145904Y-148978880D01*
X25431619Y-148978880D02*
X25431619Y-147978880D01*
X25336380Y-148121738D01*
X25241142Y-148216976D01*
X25145904Y-148264595D01*
%TO.C,J10*%
X25034976Y-80224380D02*
X25034976Y-80938666D01*
X24987357Y-81081523D01*
X24892119Y-81176761D01*
X24749261Y-81224380D01*
X24654023Y-81224380D01*
X26034976Y-81224380D02*
X25463547Y-81224380D01*
X25749261Y-81224380D02*
X25749261Y-80224380D01*
X25654023Y-80367238D01*
X25558785Y-80462476D01*
X25463547Y-80510095D01*
X26654023Y-80224380D02*
X26749261Y-80224380D01*
X26844500Y-80272000D01*
X26892119Y-80319619D01*
X26939738Y-80414857D01*
X26987357Y-80605333D01*
X26987357Y-80843428D01*
X26939738Y-81033904D01*
X26892119Y-81129142D01*
X26844500Y-81176761D01*
X26749261Y-81224380D01*
X26654023Y-81224380D01*
X26558785Y-81176761D01*
X26511166Y-81129142D01*
X26463547Y-81033904D01*
X26415928Y-80843428D01*
X26415928Y-80605333D01*
X26463547Y-80414857D01*
X26511166Y-80319619D01*
X26558785Y-80272000D01*
X26654023Y-80224380D01*
%TO.C,J7*%
X44751666Y-112609380D02*
X44751666Y-113323666D01*
X44704047Y-113466523D01*
X44608809Y-113561761D01*
X44465952Y-113609380D01*
X44370714Y-113609380D01*
X45132619Y-112609380D02*
X45799285Y-112609380D01*
X45370714Y-113609380D01*
%TO.C,J9*%
X29117966Y-126185680D02*
X29117966Y-126899966D01*
X29070347Y-127042823D01*
X28975109Y-127138061D01*
X28832252Y-127185680D01*
X28737014Y-127185680D01*
X29641776Y-127185680D02*
X29832252Y-127185680D01*
X29927490Y-127138061D01*
X29975109Y-127090442D01*
X30070347Y-126947585D01*
X30117966Y-126757109D01*
X30117966Y-126376157D01*
X30070347Y-126280919D01*
X30022728Y-126233300D01*
X29927490Y-126185680D01*
X29737014Y-126185680D01*
X29641776Y-126233300D01*
X29594157Y-126280919D01*
X29546538Y-126376157D01*
X29546538Y-126614252D01*
X29594157Y-126709490D01*
X29641776Y-126757109D01*
X29737014Y-126804728D01*
X29927490Y-126804728D01*
X30022728Y-126757109D01*
X30070347Y-126709490D01*
X30117966Y-126614252D01*
%TO.C,J6*%
X75168166Y-124420380D02*
X75168166Y-125134666D01*
X75120547Y-125277523D01*
X75025309Y-125372761D01*
X74882452Y-125420380D01*
X74787214Y-125420380D01*
X76072928Y-124420380D02*
X75882452Y-124420380D01*
X75787214Y-124468000D01*
X75739595Y-124515619D01*
X75644357Y-124658476D01*
X75596738Y-124848952D01*
X75596738Y-125229904D01*
X75644357Y-125325142D01*
X75691976Y-125372761D01*
X75787214Y-125420380D01*
X75977690Y-125420380D01*
X76072928Y-125372761D01*
X76120547Y-125325142D01*
X76168166Y-125229904D01*
X76168166Y-124991809D01*
X76120547Y-124896571D01*
X76072928Y-124848952D01*
X75977690Y-124801333D01*
X75787214Y-124801333D01*
X75691976Y-124848952D01*
X75644357Y-124896571D01*
X75596738Y-124991809D01*
%TO.C,SW2*%
X24090261Y-109092833D02*
X24137880Y-108949976D01*
X24137880Y-108711880D01*
X24090261Y-108616642D01*
X24042642Y-108569023D01*
X23947404Y-108521404D01*
X23852166Y-108521404D01*
X23756928Y-108569023D01*
X23709309Y-108616642D01*
X23661690Y-108711880D01*
X23614071Y-108902357D01*
X23566452Y-108997595D01*
X23518833Y-109045214D01*
X23423595Y-109092833D01*
X23328357Y-109092833D01*
X23233119Y-109045214D01*
X23185500Y-108997595D01*
X23137880Y-108902357D01*
X23137880Y-108664261D01*
X23185500Y-108521404D01*
X23137880Y-108188071D02*
X24137880Y-107949976D01*
X23423595Y-107759500D01*
X24137880Y-107569023D01*
X23137880Y-107330928D01*
X23233119Y-106997595D02*
X23185500Y-106949976D01*
X23137880Y-106854738D01*
X23137880Y-106616642D01*
X23185500Y-106521404D01*
X23233119Y-106473785D01*
X23328357Y-106426166D01*
X23423595Y-106426166D01*
X23566452Y-106473785D01*
X24137880Y-107045214D01*
X24137880Y-106426166D01*
X24137880Y-113974380D02*
X23661690Y-114307714D01*
X24137880Y-114545809D02*
X23137880Y-114545809D01*
X23137880Y-114164857D01*
X23185500Y-114069619D01*
X23233119Y-114022000D01*
X23328357Y-113974380D01*
X23471214Y-113974380D01*
X23566452Y-114022000D01*
X23614071Y-114069619D01*
X23661690Y-114164857D01*
X23661690Y-114545809D01*
X23614071Y-113545809D02*
X23614071Y-113212476D01*
X24137880Y-113069619D02*
X24137880Y-113545809D01*
X23137880Y-113545809D01*
X23137880Y-113069619D01*
X24090261Y-112688666D02*
X24137880Y-112545809D01*
X24137880Y-112307714D01*
X24090261Y-112212476D01*
X24042642Y-112164857D01*
X23947404Y-112117238D01*
X23852166Y-112117238D01*
X23756928Y-112164857D01*
X23709309Y-112212476D01*
X23661690Y-112307714D01*
X23614071Y-112498190D01*
X23566452Y-112593428D01*
X23518833Y-112641047D01*
X23423595Y-112688666D01*
X23328357Y-112688666D01*
X23233119Y-112641047D01*
X23185500Y-112593428D01*
X23137880Y-112498190D01*
X23137880Y-112260095D01*
X23185500Y-112117238D01*
X23614071Y-111688666D02*
X23614071Y-111355333D01*
X24137880Y-111212476D02*
X24137880Y-111688666D01*
X23137880Y-111688666D01*
X23137880Y-111212476D01*
X23137880Y-110926761D02*
X23137880Y-110355333D01*
X24137880Y-110641047D02*
X23137880Y-110641047D01*
%TO.C,U2*%
X23201380Y-91376404D02*
X24010904Y-91376404D01*
X24106142Y-91328785D01*
X24153761Y-91281166D01*
X24201380Y-91185928D01*
X24201380Y-90995452D01*
X24153761Y-90900214D01*
X24106142Y-90852595D01*
X24010904Y-90804976D01*
X23201380Y-90804976D01*
X23296619Y-90376404D02*
X23249000Y-90328785D01*
X23201380Y-90233547D01*
X23201380Y-89995452D01*
X23249000Y-89900214D01*
X23296619Y-89852595D01*
X23391857Y-89804976D01*
X23487095Y-89804976D01*
X23629952Y-89852595D01*
X24201380Y-90424023D01*
X24201380Y-89804976D01*
%TD*%
M02*
