M48
; DRILL file {KiCad (5.1.9-0-10_14)} date Thursday, April 08, 2021 at 04:23:06 PM
; FORMAT={2:4/ absolute / inch / suppress leading zeros}
; #@! TF.CreationDate,2021-04-08T16:23:06+02:00
; #@! TF.GenerationSoftware,Kicad,Pcbnew,(5.1.9-0-10_14)
FMAT,2
INCH,TZ
T1C0.0118
T2C0.0197
T3C0.0315
T4C0.0374
T5C0.0394
T6C0.0402
T7C0.0433
T8C0.0591
T9C0.0669
T10C0.0984
T11C0.1299
%
G90
G05
T1
X15440Y-34060
X15640Y-33560
X16000Y-33920
X16140Y-33400
X16520Y-33740
X16680Y-33140
X16755Y-34190
X17000Y-33500
X17060Y-32920
X17125Y-41625
X17275Y-39900
X17776Y-41624
X18000Y-39900
X20830Y-43755
X21050Y-42715
X21655Y-41245
X21850Y-42900
X21875Y-43475
X22835Y-41245
X23535Y-42960
X24854Y-42454
X24980Y-39260
X25450Y-39050
X25800Y-38680
X25866Y-42530
X25980Y-39780
X26400Y-42520
X26535Y-39450
X26640Y-39060
X26800Y-37180
X27000Y-39800
X27450Y-44100
X27510Y-39622
X27880Y-34180
X27900Y-38600
X28200Y-36600
X28200Y-37100
X28230Y-33780
X28300Y-38700
X28575Y-37100
X28575Y-36625
X28624Y-44351
X29140Y-41496
X29455Y-33780
X29480Y-40060
X29540Y-41480
X29620Y-35540
X30120Y-39960
X30130Y-35540
X30307Y-37190
X30500Y-34400
X30500Y-35840
X31210Y-36680
X31210Y-37190
X33000Y-40880
X33350Y-36750
X33363Y-36208
X35727Y-42550
T2
X7872Y-32840
X7872Y-63170
X8088Y-32318
X8088Y-33362
X8088Y-62648
X8088Y-63692
X8610Y-32102
X8610Y-33578
X8610Y-62432
X8610Y-63908
X9132Y-32318
X9132Y-33362
X9132Y-62648
X9132Y-63692
X9348Y-32840
X9348Y-63170
X34642Y-32850
X34642Y-63170
X34858Y-32328
X34858Y-33372
X34858Y-62648
X34858Y-63692
X35380Y-32112
X35380Y-33588
X35380Y-62432
X35380Y-63908
X35902Y-32328
X35902Y-33372
X35902Y-62648
X35902Y-63692
X36118Y-32850
X36118Y-63170
T3
X9415Y-38625
X9415Y-39625
X9415Y-40625
X9415Y-41625
X17675Y-32669
X17675Y-33456
X17675Y-34244
X17675Y-35031
X17675Y-35818
X17675Y-36606
X17675Y-37393
X17675Y-38181
X23187Y-32669
X23187Y-33456
X23187Y-34244
X23187Y-35031
X23187Y-35818
X23187Y-36606
X23187Y-37393
X23187Y-38181
T4
X34550Y-39031
X34550Y-40016
X34550Y-41000
T5
X14060Y-43140
X14060Y-44140
X17520Y-43140
X17520Y-44140
X27280Y-32540
X28280Y-32540
X28680Y-42660
X28680Y-43660
X29280Y-32540
X30190Y-42660
X30190Y-43660
X30280Y-32540
X31190Y-42660
X31190Y-43660
X31280Y-32540
X32190Y-42660
X32190Y-43660
X32280Y-32540
X34200Y-34980
X34200Y-35980
X34200Y-36980
X35200Y-34980
X35200Y-35980
X35200Y-36980
T6
X32701Y-53049
X32701Y-58951
T7
X11050Y-52850
X11050Y-59150
X34700Y-52850
X34700Y-59150
T8
X14750Y-33850
T9
X13750Y-32850
X13750Y-34850
X15750Y-32850
X15750Y-34850
T10
X8610Y-32840
X8610Y-63170
X35380Y-32850
X35380Y-63170
T11
X22000Y-53049
X22000Y-58951
T0
M30
