%TF.GenerationSoftware,KiCad,Pcbnew,(5.1.9-0-10_14)*%
%TF.CreationDate,2021-05-24T21:37:01+02:00*%
%TF.ProjectId,mfm-v3-smd,6d666d2d-7633-42d7-936d-642e6b696361,rev?*%
%TF.SameCoordinates,Original*%
%TF.FileFunction,Copper,L2,Bot*%
%TF.FilePolarity,Positive*%
%FSLAX46Y46*%
G04 Gerber Fmt 4.6, Leading zero omitted, Abs format (unit mm)*
G04 Created by KiCad (PCBNEW (5.1.9-0-10_14)) date 2021-05-24 21:37:01*
%MOMM*%
%LPD*%
G01*
G04 APERTURE LIST*
%TA.AperFunction,ComponentPad*%
%ADD10O,1.700000X1.700000*%
%TD*%
%TA.AperFunction,ComponentPad*%
%ADD11R,1.700000X1.700000*%
%TD*%
%TA.AperFunction,ComponentPad*%
%ADD12C,2.000000*%
%TD*%
%TA.AperFunction,ComponentPad*%
%ADD13R,2.000000X2.000000*%
%TD*%
%TA.AperFunction,ComponentPad*%
%ADD14O,1.200000X2.000000*%
%TD*%
%TA.AperFunction,ViaPad*%
%ADD15C,0.600000*%
%TD*%
%TA.AperFunction,Conductor*%
%ADD16C,0.300000*%
%TD*%
%TA.AperFunction,Conductor*%
%ADD17C,0.150000*%
%TD*%
%TA.AperFunction,Conductor*%
%ADD18C,0.254000*%
%TD*%
%TA.AperFunction,Conductor*%
%ADD19C,0.100000*%
%TD*%
G04 APERTURE END LIST*
D10*
%TO.P,J5,3*%
%TO.N,SMBALERT*%
X78295500Y-83121500D03*
%TO.P,J5,2*%
%TO.N,I2C_SDA*%
X80835500Y-83121500D03*
D11*
%TO.P,J5,1*%
%TO.N,I2C_SCL*%
X83375500Y-83121500D03*
%TD*%
D12*
%TO.P,BT1,2*%
%TO.N,GND*%
X30289500Y-155325000D03*
D13*
%TO.P,BT1,1*%
%TO.N,Net-(BT1-Pad1)*%
X30289500Y-140335000D03*
%TD*%
D14*
%TO.P,U2,16*%
%TO.N,RADIO_DIO2*%
X25807200Y-90742800D03*
%TO.P,U2,1*%
%TO.N,GND*%
X25807200Y-104742800D03*
%TO.P,U2,15*%
%TO.N,RADIO_DIO1*%
X27807200Y-90742800D03*
%TO.P,U2,2*%
%TO.N,SPI_MISO*%
X27807200Y-104742800D03*
%TO.P,U2,14*%
%TO.N,RADIO_DIO0*%
X29807200Y-90742800D03*
%TO.P,U2,3*%
%TO.N,SPI_MOSI*%
X29807200Y-104742800D03*
%TO.P,U2,13*%
%TO.N,+3V3*%
X31807200Y-90742800D03*
%TO.P,U2,4*%
%TO.N,SPI_SCK*%
X31807200Y-104742800D03*
%TO.P,U2,12*%
%TO.N,RADIO_DIO4*%
X33807200Y-90742800D03*
%TO.P,U2,5*%
%TO.N,RADIO_NSS*%
X33807200Y-104742800D03*
%TO.P,U2,11*%
%TO.N,RADIO_DIO3*%
X35807200Y-90742800D03*
%TO.P,U2,6*%
%TO.N,RADIO_RST*%
X35807200Y-104742800D03*
%TO.P,U2,10*%
%TO.N,GND*%
X37807200Y-90742800D03*
%TO.P,U2,7*%
%TO.N,RADIO_DIO5*%
X37807200Y-104742800D03*
%TO.P,U2,9*%
%TO.N,Net-(J11-Pad1)*%
X39807200Y-90742800D03*
%TO.P,U2,8*%
%TO.N,GND*%
X39807200Y-104742800D03*
%TD*%
D10*
%TO.P,SW4,2*%
%TO.N,GND*%
X44323000Y-98615500D03*
D11*
%TO.P,SW4,1*%
%TO.N,Net-(D2-Pad1)*%
X44323000Y-101155500D03*
%TD*%
D10*
%TO.P,SW3,2*%
%TO.N,GND*%
X44323000Y-93789500D03*
D11*
%TO.P,SW3,1*%
%TO.N,Net-(D1-Pad1)*%
X44323000Y-91249500D03*
%TD*%
D10*
%TO.P,SW1,2*%
%TO.N,VBAT*%
X24384000Y-151130000D03*
D11*
%TO.P,SW1,1*%
%TO.N,Net-(BT1-Pad1)*%
X24384000Y-153670000D03*
%TD*%
D10*
%TO.P,J10,6*%
%TO.N,GND*%
X26924000Y-85788500D03*
%TO.P,J10,5*%
%TO.N,NRST*%
X26924000Y-83248500D03*
%TO.P,J10,4*%
%TO.N,AVR_MOSI*%
X29464000Y-85788500D03*
%TO.P,J10,3*%
%TO.N,AVR_SCK*%
X29464000Y-83248500D03*
%TO.P,J10,2*%
%TO.N,+3V3*%
X32004000Y-85788500D03*
D11*
%TO.P,J10,1*%
%TO.N,AVR_MISO*%
X32004000Y-83248500D03*
%TD*%
D10*
%TO.P,J7,6*%
%TO.N,I2C_SCL*%
X43890000Y-105385500D03*
%TO.P,J7,5*%
%TO.N,VBAT*%
X46430000Y-105385500D03*
%TO.P,J7,4*%
%TO.N,I2C_SDA*%
X43890000Y-107925500D03*
%TO.P,J7,3*%
%TO.N,GND*%
X46430000Y-107925500D03*
%TO.P,J7,2*%
%TO.N,SMBALERT*%
X43890000Y-110465500D03*
D11*
%TO.P,J7,1*%
%TO.N,+3V3*%
X46430000Y-110465500D03*
%TD*%
%TO.P,J9,1*%
%TO.N,N/C*%
X28130500Y-129095500D03*
D10*
%TO.P,J9,2*%
%TO.N,AVR_TX0*%
X30670500Y-129095500D03*
%TO.P,J9,3*%
%TO.N,AVR_RX0*%
X33210500Y-129095500D03*
%TO.P,J9,4*%
%TO.N,N/C*%
X35750500Y-129095500D03*
%TO.P,J9,5*%
X38290500Y-129095500D03*
%TO.P,J9,6*%
%TO.N,GND*%
X40830500Y-129095500D03*
%TD*%
%TO.P,J4,1*%
%TO.N,VBAT*%
%TA.AperFunction,ComponentPad*%
G36*
G01*
X89587498Y-151567500D02*
X91387502Y-151567500D01*
G75*
G02*
X91637500Y-151817498I0J-249998D01*
G01*
X91637500Y-153617502D01*
G75*
G02*
X91387502Y-153867500I-249998J0D01*
G01*
X89587498Y-153867500D01*
G75*
G02*
X89337500Y-153617502I0J249998D01*
G01*
X89337500Y-151817498D01*
G75*
G02*
X89587498Y-151567500I249998J0D01*
G01*
G37*
%TD.AperFunction*%
%TD*%
%TO.P,J3,1*%
%TO.N,Net-(J2-Pad1)*%
%TA.AperFunction,ComponentPad*%
G36*
G01*
X29516498Y-151567500D02*
X31316502Y-151567500D01*
G75*
G02*
X31566500Y-151817498I0J-249998D01*
G01*
X31566500Y-153617502D01*
G75*
G02*
X31316502Y-153867500I-249998J0D01*
G01*
X29516498Y-153867500D01*
G75*
G02*
X29266500Y-153617502I0J249998D01*
G01*
X29266500Y-151817498D01*
G75*
G02*
X29516498Y-151567500I249998J0D01*
G01*
G37*
%TD.AperFunction*%
%TD*%
%TO.P,J2,1*%
%TO.N,Net-(J2-Pad1)*%
%TA.AperFunction,ComponentPad*%
G36*
G01*
X29516498Y-135565500D02*
X31316502Y-135565500D01*
G75*
G02*
X31566500Y-135815498I0J-249998D01*
G01*
X31566500Y-137615502D01*
G75*
G02*
X31316502Y-137865500I-249998J0D01*
G01*
X29516498Y-137865500D01*
G75*
G02*
X29266500Y-137615502I0J249998D01*
G01*
X29266500Y-135815498D01*
G75*
G02*
X29516498Y-135565500I249998J0D01*
G01*
G37*
%TD.AperFunction*%
%TD*%
%TO.P,J1,1*%
%TO.N,GND*%
%TA.AperFunction,ComponentPad*%
G36*
G01*
X89587498Y-135565500D02*
X91387502Y-135565500D01*
G75*
G02*
X91637500Y-135815498I0J-249998D01*
G01*
X91637500Y-137615502D01*
G75*
G02*
X91387502Y-137865500I-249998J0D01*
G01*
X89587498Y-137865500D01*
G75*
G02*
X89337500Y-137615502I0J249998D01*
G01*
X89337500Y-135815498D01*
G75*
G02*
X89587498Y-135565500I249998J0D01*
G01*
G37*
%TD.AperFunction*%
%TD*%
D11*
%TO.P,J6,1*%
%TO.N,+3V3*%
X83375500Y-125031500D03*
D10*
%TO.P,J6,2*%
%TO.N,VBAT*%
X80835500Y-125031500D03*
%TO.P,J6,3*%
%TO.N,GND*%
X78295500Y-125031500D03*
%TD*%
D15*
%TO.N,GND*%
X40435000Y-86286500D03*
X39185000Y-86886500D03*
X40435000Y-87486500D03*
X39185000Y-88086500D03*
X40435000Y-88686500D03*
X39185000Y-89286500D03*
X38798500Y-109601000D03*
X34475000Y-122168491D03*
X29464000Y-117983000D03*
X20828000Y-115189000D03*
X32766000Y-108902500D03*
X21336000Y-144907000D03*
X24511000Y-144907000D03*
X22923540Y-146367500D03*
X39814500Y-126111000D03*
X35306000Y-126792490D03*
X41465500Y-122237500D03*
X42926000Y-84899500D03*
X36703000Y-84899500D03*
X25082500Y-123571000D03*
X20701000Y-124142500D03*
X20828000Y-122047000D03*
X20002500Y-120015000D03*
X26035000Y-118664490D03*
X25082500Y-130048000D03*
X23304500Y-130048000D03*
X22606000Y-131064000D03*
X24257000Y-116855510D03*
X42198990Y-118161499D03*
%TO.N,+3V3*%
X42291000Y-119824500D03*
X44767500Y-119888000D03*
X38861998Y-108080500D03*
X40812045Y-108140506D03*
%TO.N,I2C_SDA*%
X42223190Y-107886500D03*
%TO.N,SMBALERT*%
X42164000Y-109283500D03*
%TO.N,AVR_MOSI*%
X27051000Y-111633000D03*
X27876501Y-108775499D03*
%TO.N,AVR_SCK*%
X28870511Y-111654989D03*
X30035500Y-108775508D03*
%TO.N,AVR_MISO*%
X27965400Y-111645700D03*
X28956000Y-108775500D03*
%TD*%
D16*
%TO.N,+3V3*%
X42291000Y-119824500D02*
X44704000Y-119824500D01*
X44704000Y-119824500D02*
X44767500Y-119888000D01*
X40812045Y-108140506D02*
X38922004Y-108140506D01*
X38922004Y-108140506D02*
X38861998Y-108080500D01*
D17*
%TO.N,I2C_SDA*%
X42262190Y-107925500D02*
X42223190Y-107886500D01*
X43890000Y-107925500D02*
X42262190Y-107925500D01*
%TO.N,SMBALERT*%
X43890000Y-110465500D02*
X42708000Y-109283500D01*
X42708000Y-109283500D02*
X42164000Y-109283500D01*
%TO.N,AVR_MOSI*%
X27051000Y-111633000D02*
X27051000Y-109601000D01*
X27051000Y-109601000D02*
X27876501Y-108775499D01*
%TO.N,AVR_SCK*%
X28870511Y-109940497D02*
X30035500Y-108775508D01*
X28870511Y-111654989D02*
X28870511Y-109940497D01*
%TO.N,AVR_MISO*%
X27965400Y-111645700D02*
X27965400Y-109766100D01*
X27965400Y-109766100D02*
X28956000Y-108775500D01*
%TD*%
D18*
%TO.N,GND*%
X92791801Y-164369000D02*
X18948419Y-164369000D01*
X18948419Y-160281705D01*
X20142400Y-160281705D01*
X20142400Y-160621895D01*
X20208768Y-160955547D01*
X20338953Y-161269841D01*
X20527952Y-161552698D01*
X20768502Y-161793248D01*
X21051359Y-161982247D01*
X21365653Y-162112432D01*
X21699305Y-162178800D01*
X22039495Y-162178800D01*
X22373147Y-162112432D01*
X22687441Y-161982247D01*
X22970298Y-161793248D01*
X23210848Y-161552698D01*
X23399847Y-161269841D01*
X23530032Y-160955547D01*
X23596400Y-160621895D01*
X23596400Y-160281705D01*
X88138200Y-160281705D01*
X88138200Y-160621895D01*
X88204568Y-160955547D01*
X88334753Y-161269841D01*
X88523752Y-161552698D01*
X88764302Y-161793248D01*
X89047159Y-161982247D01*
X89361453Y-162112432D01*
X89695105Y-162178800D01*
X90035295Y-162178800D01*
X90368947Y-162112432D01*
X90683241Y-161982247D01*
X90966098Y-161793248D01*
X91206648Y-161552698D01*
X91395647Y-161269841D01*
X91525832Y-160955547D01*
X91592200Y-160621895D01*
X91592200Y-160281705D01*
X91525832Y-159948053D01*
X91395647Y-159633759D01*
X91206648Y-159350902D01*
X90966098Y-159110352D01*
X90683241Y-158921353D01*
X90368947Y-158791168D01*
X90035295Y-158724800D01*
X89695105Y-158724800D01*
X89361453Y-158791168D01*
X89047159Y-158921353D01*
X88764302Y-159110352D01*
X88523752Y-159350902D01*
X88334753Y-159633759D01*
X88204568Y-159948053D01*
X88138200Y-160281705D01*
X23596400Y-160281705D01*
X23530032Y-159948053D01*
X23399847Y-159633759D01*
X23210848Y-159350902D01*
X22970298Y-159110352D01*
X22687441Y-158921353D01*
X22373147Y-158791168D01*
X22039495Y-158724800D01*
X21699305Y-158724800D01*
X21365653Y-158791168D01*
X21051359Y-158921353D01*
X20768502Y-159110352D01*
X20527952Y-159350902D01*
X20338953Y-159633759D01*
X20208768Y-159948053D01*
X20142400Y-160281705D01*
X18948419Y-160281705D01*
X18948419Y-156460413D01*
X29333692Y-156460413D01*
X29429456Y-156724814D01*
X29719071Y-156865704D01*
X30030608Y-156947384D01*
X30352095Y-156966718D01*
X30671175Y-156922961D01*
X30975588Y-156817795D01*
X31149544Y-156724814D01*
X31245308Y-156460413D01*
X30289500Y-155504605D01*
X29333692Y-156460413D01*
X18948419Y-156460413D01*
X18948419Y-155387595D01*
X28647782Y-155387595D01*
X28691539Y-155706675D01*
X28796705Y-156011088D01*
X28889686Y-156185044D01*
X29154087Y-156280808D01*
X30109895Y-155325000D01*
X29154087Y-154369192D01*
X28889686Y-154464956D01*
X28748796Y-154754571D01*
X28667116Y-155066108D01*
X28647782Y-155387595D01*
X18948419Y-155387595D01*
X18948419Y-152820000D01*
X23155176Y-152820000D01*
X23155176Y-154520000D01*
X23162455Y-154593905D01*
X23184012Y-154664970D01*
X23219019Y-154730463D01*
X23266131Y-154787869D01*
X23323537Y-154834981D01*
X23389030Y-154869988D01*
X23460095Y-154891545D01*
X23534000Y-154898824D01*
X25234000Y-154898824D01*
X25307905Y-154891545D01*
X25378970Y-154869988D01*
X25444463Y-154834981D01*
X25501869Y-154787869D01*
X25548981Y-154730463D01*
X25583988Y-154664970D01*
X25605545Y-154593905D01*
X25612824Y-154520000D01*
X25612824Y-152820000D01*
X25605545Y-152746095D01*
X25583988Y-152675030D01*
X25548981Y-152609537D01*
X25501869Y-152552131D01*
X25444463Y-152505019D01*
X25378970Y-152470012D01*
X25307905Y-152448455D01*
X25234000Y-152441176D01*
X23534000Y-152441176D01*
X23460095Y-152448455D01*
X23389030Y-152470012D01*
X23323537Y-152505019D01*
X23266131Y-152552131D01*
X23219019Y-152609537D01*
X23184012Y-152675030D01*
X23162455Y-152746095D01*
X23155176Y-152820000D01*
X18948419Y-152820000D01*
X18948419Y-151009151D01*
X23157000Y-151009151D01*
X23157000Y-151250849D01*
X23204153Y-151487903D01*
X23296647Y-151711202D01*
X23430927Y-151912167D01*
X23601833Y-152083073D01*
X23802798Y-152217353D01*
X24026097Y-152309847D01*
X24263151Y-152357000D01*
X24504849Y-152357000D01*
X24741903Y-152309847D01*
X24965202Y-152217353D01*
X25166167Y-152083073D01*
X25337073Y-151912167D01*
X25400328Y-151817498D01*
X28887676Y-151817498D01*
X28887676Y-153617502D01*
X28899759Y-153740179D01*
X28935542Y-153858142D01*
X28993652Y-153966857D01*
X29071854Y-154062146D01*
X29167143Y-154140348D01*
X29275858Y-154198458D01*
X29371608Y-154227503D01*
X30289500Y-155145395D01*
X30303643Y-155131253D01*
X30483248Y-155310858D01*
X30469105Y-155325000D01*
X31424913Y-156280808D01*
X31689314Y-156185044D01*
X31830204Y-155895429D01*
X31911884Y-155583892D01*
X31931218Y-155262405D01*
X31912425Y-155125358D01*
X55427500Y-155125358D01*
X55427500Y-155524642D01*
X55505396Y-155916254D01*
X55658196Y-156285145D01*
X55880026Y-156617137D01*
X56162363Y-156899474D01*
X56494355Y-157121304D01*
X56863246Y-157274104D01*
X57254858Y-157352000D01*
X57654142Y-157352000D01*
X58045754Y-157274104D01*
X58414645Y-157121304D01*
X58746637Y-156899474D01*
X59028974Y-156617137D01*
X59250804Y-156285145D01*
X59403604Y-155916254D01*
X59481500Y-155524642D01*
X59481500Y-155125358D01*
X59403604Y-154733746D01*
X59250804Y-154364855D01*
X59028974Y-154032863D01*
X58746637Y-153750526D01*
X58414645Y-153528696D01*
X58045754Y-153375896D01*
X57654142Y-153298000D01*
X57254858Y-153298000D01*
X56863246Y-153375896D01*
X56494355Y-153528696D01*
X56162363Y-153750526D01*
X55880026Y-154032863D01*
X55658196Y-154364855D01*
X55505396Y-154733746D01*
X55427500Y-155125358D01*
X31912425Y-155125358D01*
X31887461Y-154943325D01*
X31782295Y-154638912D01*
X31689314Y-154464956D01*
X31424915Y-154369193D01*
X31540583Y-154253525D01*
X31502186Y-154215128D01*
X31557142Y-154198458D01*
X31665857Y-154140348D01*
X31761146Y-154062146D01*
X31839348Y-153966857D01*
X31897458Y-153858142D01*
X31933241Y-153740179D01*
X31945324Y-153617502D01*
X31945324Y-151817498D01*
X88958676Y-151817498D01*
X88958676Y-153617502D01*
X88970759Y-153740179D01*
X89006542Y-153858142D01*
X89064652Y-153966857D01*
X89142854Y-154062146D01*
X89238143Y-154140348D01*
X89346858Y-154198458D01*
X89464821Y-154234241D01*
X89587498Y-154246324D01*
X91387502Y-154246324D01*
X91510179Y-154234241D01*
X91628142Y-154198458D01*
X91736857Y-154140348D01*
X91832146Y-154062146D01*
X91910348Y-153966857D01*
X91968458Y-153858142D01*
X92004241Y-153740179D01*
X92016324Y-153617502D01*
X92016324Y-151817498D01*
X92004241Y-151694821D01*
X91968458Y-151576858D01*
X91910348Y-151468143D01*
X91832146Y-151372854D01*
X91736857Y-151294652D01*
X91628142Y-151236542D01*
X91510179Y-151200759D01*
X91387502Y-151188676D01*
X89587498Y-151188676D01*
X89464821Y-151200759D01*
X89346858Y-151236542D01*
X89238143Y-151294652D01*
X89142854Y-151372854D01*
X89064652Y-151468143D01*
X89006542Y-151576858D01*
X88970759Y-151694821D01*
X88958676Y-151817498D01*
X31945324Y-151817498D01*
X31933241Y-151694821D01*
X31897458Y-151576858D01*
X31839348Y-151468143D01*
X31761146Y-151372854D01*
X31665857Y-151294652D01*
X31557142Y-151236542D01*
X31439179Y-151200759D01*
X31316502Y-151188676D01*
X29516498Y-151188676D01*
X29393821Y-151200759D01*
X29275858Y-151236542D01*
X29167143Y-151294652D01*
X29071854Y-151372854D01*
X28993652Y-151468143D01*
X28935542Y-151576858D01*
X28899759Y-151694821D01*
X28887676Y-151817498D01*
X25400328Y-151817498D01*
X25471353Y-151711202D01*
X25563847Y-151487903D01*
X25611000Y-151250849D01*
X25611000Y-151009151D01*
X25563847Y-150772097D01*
X25471353Y-150548798D01*
X25337073Y-150347833D01*
X25166167Y-150176927D01*
X24965202Y-150042647D01*
X24741903Y-149950153D01*
X24504849Y-149903000D01*
X24263151Y-149903000D01*
X24026097Y-149950153D01*
X23802798Y-150042647D01*
X23601833Y-150176927D01*
X23430927Y-150347833D01*
X23296647Y-150548798D01*
X23204153Y-150772097D01*
X23157000Y-151009151D01*
X18948419Y-151009151D01*
X18948419Y-139335000D01*
X28910676Y-139335000D01*
X28910676Y-141335000D01*
X28917955Y-141408905D01*
X28939512Y-141479970D01*
X28974519Y-141545463D01*
X29021631Y-141602869D01*
X29079037Y-141649981D01*
X29144530Y-141684988D01*
X29215595Y-141706545D01*
X29289500Y-141713824D01*
X31289500Y-141713824D01*
X31363405Y-141706545D01*
X31434470Y-141684988D01*
X31499963Y-141649981D01*
X31557369Y-141602869D01*
X31604481Y-141545463D01*
X31639488Y-141479970D01*
X31661045Y-141408905D01*
X31668324Y-141335000D01*
X31668324Y-140135358D01*
X55427500Y-140135358D01*
X55427500Y-140534642D01*
X55505396Y-140926254D01*
X55658196Y-141295145D01*
X55880026Y-141627137D01*
X56162363Y-141909474D01*
X56494355Y-142131304D01*
X56863246Y-142284104D01*
X57254858Y-142362000D01*
X57654142Y-142362000D01*
X58045754Y-142284104D01*
X58414645Y-142131304D01*
X58746637Y-141909474D01*
X59028974Y-141627137D01*
X59250804Y-141295145D01*
X59403604Y-140926254D01*
X59481500Y-140534642D01*
X59481500Y-140135358D01*
X59403604Y-139743746D01*
X59250804Y-139374855D01*
X59028974Y-139042863D01*
X58746637Y-138760526D01*
X58414645Y-138538696D01*
X58045754Y-138385896D01*
X57654142Y-138308000D01*
X57254858Y-138308000D01*
X56863246Y-138385896D01*
X56494355Y-138538696D01*
X56162363Y-138760526D01*
X55880026Y-139042863D01*
X55658196Y-139374855D01*
X55505396Y-139743746D01*
X55427500Y-140135358D01*
X31668324Y-140135358D01*
X31668324Y-139335000D01*
X31661045Y-139261095D01*
X31639488Y-139190030D01*
X31604481Y-139124537D01*
X31557369Y-139067131D01*
X31499963Y-139020019D01*
X31434470Y-138985012D01*
X31363405Y-138963455D01*
X31289500Y-138956176D01*
X29289500Y-138956176D01*
X29215595Y-138963455D01*
X29144530Y-138985012D01*
X29079037Y-139020019D01*
X29021631Y-139067131D01*
X28974519Y-139124537D01*
X28939512Y-139190030D01*
X28917955Y-139261095D01*
X28910676Y-139335000D01*
X18948419Y-139335000D01*
X18948419Y-135815498D01*
X28887676Y-135815498D01*
X28887676Y-137615502D01*
X28899759Y-137738179D01*
X28935542Y-137856142D01*
X28993652Y-137964857D01*
X29071854Y-138060146D01*
X29167143Y-138138348D01*
X29275858Y-138196458D01*
X29393821Y-138232241D01*
X29516498Y-138244324D01*
X31316502Y-138244324D01*
X31439179Y-138232241D01*
X31557142Y-138196458D01*
X31665857Y-138138348D01*
X31761146Y-138060146D01*
X31839348Y-137964857D01*
X31892455Y-137865500D01*
X88699428Y-137865500D01*
X88711688Y-137989982D01*
X88747998Y-138109680D01*
X88806963Y-138219994D01*
X88886315Y-138316685D01*
X88983006Y-138396037D01*
X89093320Y-138455002D01*
X89213018Y-138491312D01*
X89337500Y-138503572D01*
X90201750Y-138500500D01*
X90360500Y-138341750D01*
X90360500Y-136842500D01*
X90614500Y-136842500D01*
X90614500Y-138341750D01*
X90773250Y-138500500D01*
X91637500Y-138503572D01*
X91761982Y-138491312D01*
X91881680Y-138455002D01*
X91991994Y-138396037D01*
X92088685Y-138316685D01*
X92168037Y-138219994D01*
X92227002Y-138109680D01*
X92263312Y-137989982D01*
X92275572Y-137865500D01*
X92272500Y-137001250D01*
X92113750Y-136842500D01*
X90614500Y-136842500D01*
X90360500Y-136842500D01*
X88861250Y-136842500D01*
X88702500Y-137001250D01*
X88699428Y-137865500D01*
X31892455Y-137865500D01*
X31897458Y-137856142D01*
X31933241Y-137738179D01*
X31945324Y-137615502D01*
X31945324Y-135815498D01*
X31933241Y-135692821D01*
X31897458Y-135574858D01*
X31892456Y-135565500D01*
X88699428Y-135565500D01*
X88702500Y-136429750D01*
X88861250Y-136588500D01*
X90360500Y-136588500D01*
X90360500Y-135089250D01*
X90614500Y-135089250D01*
X90614500Y-136588500D01*
X92113750Y-136588500D01*
X92272500Y-136429750D01*
X92275572Y-135565500D01*
X92263312Y-135441018D01*
X92227002Y-135321320D01*
X92168037Y-135211006D01*
X92088685Y-135114315D01*
X91991994Y-135034963D01*
X91881680Y-134975998D01*
X91761982Y-134939688D01*
X91637500Y-134927428D01*
X90773250Y-134930500D01*
X90614500Y-135089250D01*
X90360500Y-135089250D01*
X90201750Y-134930500D01*
X89337500Y-134927428D01*
X89213018Y-134939688D01*
X89093320Y-134975998D01*
X88983006Y-135034963D01*
X88886315Y-135114315D01*
X88806963Y-135211006D01*
X88747998Y-135321320D01*
X88711688Y-135441018D01*
X88699428Y-135565500D01*
X31892456Y-135565500D01*
X31839348Y-135466143D01*
X31761146Y-135370854D01*
X31665857Y-135292652D01*
X31557142Y-135234542D01*
X31439179Y-135198759D01*
X31316502Y-135186676D01*
X29516498Y-135186676D01*
X29393821Y-135198759D01*
X29275858Y-135234542D01*
X29167143Y-135292652D01*
X29071854Y-135370854D01*
X28993652Y-135466143D01*
X28935542Y-135574858D01*
X28899759Y-135692821D01*
X28887676Y-135815498D01*
X18948419Y-135815498D01*
X18948419Y-128245500D01*
X26901676Y-128245500D01*
X26901676Y-129945500D01*
X26908955Y-130019405D01*
X26930512Y-130090470D01*
X26965519Y-130155963D01*
X27012631Y-130213369D01*
X27070037Y-130260481D01*
X27135530Y-130295488D01*
X27206595Y-130317045D01*
X27280500Y-130324324D01*
X28980500Y-130324324D01*
X29054405Y-130317045D01*
X29125470Y-130295488D01*
X29190963Y-130260481D01*
X29248369Y-130213369D01*
X29295481Y-130155963D01*
X29330488Y-130090470D01*
X29352045Y-130019405D01*
X29359324Y-129945500D01*
X29359324Y-128974651D01*
X29443500Y-128974651D01*
X29443500Y-129216349D01*
X29490653Y-129453403D01*
X29583147Y-129676702D01*
X29717427Y-129877667D01*
X29888333Y-130048573D01*
X30089298Y-130182853D01*
X30312597Y-130275347D01*
X30549651Y-130322500D01*
X30791349Y-130322500D01*
X31028403Y-130275347D01*
X31251702Y-130182853D01*
X31452667Y-130048573D01*
X31623573Y-129877667D01*
X31757853Y-129676702D01*
X31850347Y-129453403D01*
X31897500Y-129216349D01*
X31897500Y-128974651D01*
X31983500Y-128974651D01*
X31983500Y-129216349D01*
X32030653Y-129453403D01*
X32123147Y-129676702D01*
X32257427Y-129877667D01*
X32428333Y-130048573D01*
X32629298Y-130182853D01*
X32852597Y-130275347D01*
X33089651Y-130322500D01*
X33331349Y-130322500D01*
X33568403Y-130275347D01*
X33791702Y-130182853D01*
X33992667Y-130048573D01*
X34163573Y-129877667D01*
X34297853Y-129676702D01*
X34390347Y-129453403D01*
X34437500Y-129216349D01*
X34437500Y-128974651D01*
X34523500Y-128974651D01*
X34523500Y-129216349D01*
X34570653Y-129453403D01*
X34663147Y-129676702D01*
X34797427Y-129877667D01*
X34968333Y-130048573D01*
X35169298Y-130182853D01*
X35392597Y-130275347D01*
X35629651Y-130322500D01*
X35871349Y-130322500D01*
X36108403Y-130275347D01*
X36331702Y-130182853D01*
X36532667Y-130048573D01*
X36703573Y-129877667D01*
X36837853Y-129676702D01*
X36930347Y-129453403D01*
X36977500Y-129216349D01*
X36977500Y-128974651D01*
X37063500Y-128974651D01*
X37063500Y-129216349D01*
X37110653Y-129453403D01*
X37203147Y-129676702D01*
X37337427Y-129877667D01*
X37508333Y-130048573D01*
X37709298Y-130182853D01*
X37932597Y-130275347D01*
X38169651Y-130322500D01*
X38411349Y-130322500D01*
X38648403Y-130275347D01*
X38871702Y-130182853D01*
X39072667Y-130048573D01*
X39243573Y-129877667D01*
X39377853Y-129676702D01*
X39426731Y-129558702D01*
X39486343Y-129726752D01*
X39635322Y-129976855D01*
X39830231Y-130193088D01*
X40063580Y-130367141D01*
X40326401Y-130492325D01*
X40473610Y-130536976D01*
X40703500Y-130415655D01*
X40703500Y-129222500D01*
X40957500Y-129222500D01*
X40957500Y-130415655D01*
X41187390Y-130536976D01*
X41334599Y-130492325D01*
X41597420Y-130367141D01*
X41830769Y-130193088D01*
X42025678Y-129976855D01*
X42174657Y-129726752D01*
X42271981Y-129452391D01*
X42151314Y-129222500D01*
X40957500Y-129222500D01*
X40703500Y-129222500D01*
X40683500Y-129222500D01*
X40683500Y-128968500D01*
X40703500Y-128968500D01*
X40703500Y-127775345D01*
X40957500Y-127775345D01*
X40957500Y-128968500D01*
X42151314Y-128968500D01*
X42271981Y-128738609D01*
X42174657Y-128464248D01*
X42025678Y-128214145D01*
X41830769Y-127997912D01*
X41597420Y-127823859D01*
X41334599Y-127698675D01*
X41187390Y-127654024D01*
X40957500Y-127775345D01*
X40703500Y-127775345D01*
X40473610Y-127654024D01*
X40326401Y-127698675D01*
X40063580Y-127823859D01*
X39830231Y-127997912D01*
X39635322Y-128214145D01*
X39486343Y-128464248D01*
X39426731Y-128632298D01*
X39377853Y-128514298D01*
X39243573Y-128313333D01*
X39072667Y-128142427D01*
X38871702Y-128008147D01*
X38648403Y-127915653D01*
X38411349Y-127868500D01*
X38169651Y-127868500D01*
X37932597Y-127915653D01*
X37709298Y-128008147D01*
X37508333Y-128142427D01*
X37337427Y-128313333D01*
X37203147Y-128514298D01*
X37110653Y-128737597D01*
X37063500Y-128974651D01*
X36977500Y-128974651D01*
X36930347Y-128737597D01*
X36837853Y-128514298D01*
X36703573Y-128313333D01*
X36532667Y-128142427D01*
X36331702Y-128008147D01*
X36108403Y-127915653D01*
X35871349Y-127868500D01*
X35629651Y-127868500D01*
X35392597Y-127915653D01*
X35169298Y-128008147D01*
X34968333Y-128142427D01*
X34797427Y-128313333D01*
X34663147Y-128514298D01*
X34570653Y-128737597D01*
X34523500Y-128974651D01*
X34437500Y-128974651D01*
X34390347Y-128737597D01*
X34297853Y-128514298D01*
X34163573Y-128313333D01*
X33992667Y-128142427D01*
X33791702Y-128008147D01*
X33568403Y-127915653D01*
X33331349Y-127868500D01*
X33089651Y-127868500D01*
X32852597Y-127915653D01*
X32629298Y-128008147D01*
X32428333Y-128142427D01*
X32257427Y-128313333D01*
X32123147Y-128514298D01*
X32030653Y-128737597D01*
X31983500Y-128974651D01*
X31897500Y-128974651D01*
X31850347Y-128737597D01*
X31757853Y-128514298D01*
X31623573Y-128313333D01*
X31452667Y-128142427D01*
X31251702Y-128008147D01*
X31028403Y-127915653D01*
X30791349Y-127868500D01*
X30549651Y-127868500D01*
X30312597Y-127915653D01*
X30089298Y-128008147D01*
X29888333Y-128142427D01*
X29717427Y-128313333D01*
X29583147Y-128514298D01*
X29490653Y-128737597D01*
X29443500Y-128974651D01*
X29359324Y-128974651D01*
X29359324Y-128245500D01*
X29352045Y-128171595D01*
X29330488Y-128100530D01*
X29295481Y-128035037D01*
X29248369Y-127977631D01*
X29190963Y-127930519D01*
X29125470Y-127895512D01*
X29054405Y-127873955D01*
X28980500Y-127866676D01*
X27280500Y-127866676D01*
X27206595Y-127873955D01*
X27135530Y-127895512D01*
X27070037Y-127930519D01*
X27012631Y-127977631D01*
X26965519Y-128035037D01*
X26930512Y-128100530D01*
X26908955Y-128171595D01*
X26901676Y-128245500D01*
X18948419Y-128245500D01*
X18948419Y-127651000D01*
X42796693Y-127651000D01*
X42799000Y-127674423D01*
X42799001Y-130627567D01*
X42796693Y-130651000D01*
X42805903Y-130744508D01*
X42833178Y-130834423D01*
X42877471Y-130917289D01*
X42937079Y-130989921D01*
X43009711Y-131049529D01*
X43092577Y-131093822D01*
X43182492Y-131121097D01*
X43252577Y-131128000D01*
X43252578Y-131128000D01*
X43276000Y-131130307D01*
X43299423Y-131128000D01*
X67802577Y-131128000D01*
X67826000Y-131130307D01*
X67849422Y-131128000D01*
X67849423Y-131128000D01*
X67919508Y-131121097D01*
X68009423Y-131093822D01*
X68092289Y-131049529D01*
X68164921Y-130989921D01*
X68224529Y-130917289D01*
X68268822Y-130834423D01*
X68296097Y-130744508D01*
X68305307Y-130651000D01*
X68303000Y-130627577D01*
X68303000Y-127674423D01*
X68305307Y-127651000D01*
X68296097Y-127557492D01*
X68268822Y-127467577D01*
X68224529Y-127384711D01*
X68164921Y-127312079D01*
X68092289Y-127252471D01*
X68009423Y-127208178D01*
X67919508Y-127180903D01*
X67849423Y-127174000D01*
X67826000Y-127171693D01*
X67802578Y-127174000D01*
X43299422Y-127174000D01*
X43276000Y-127171693D01*
X43252577Y-127174000D01*
X43182492Y-127180903D01*
X43092577Y-127208178D01*
X43009711Y-127252471D01*
X42937079Y-127312079D01*
X42877471Y-127384711D01*
X42833178Y-127467577D01*
X42805903Y-127557492D01*
X42796693Y-127651000D01*
X18948419Y-127651000D01*
X18948419Y-125388391D01*
X76854019Y-125388391D01*
X76951343Y-125662752D01*
X77100322Y-125912855D01*
X77295231Y-126129088D01*
X77528580Y-126303141D01*
X77791401Y-126428325D01*
X77938610Y-126472976D01*
X78168500Y-126351655D01*
X78168500Y-125158500D01*
X76974686Y-125158500D01*
X76854019Y-125388391D01*
X18948419Y-125388391D01*
X18948419Y-124674609D01*
X76854019Y-124674609D01*
X76974686Y-124904500D01*
X78168500Y-124904500D01*
X78168500Y-123711345D01*
X78422500Y-123711345D01*
X78422500Y-124904500D01*
X78442500Y-124904500D01*
X78442500Y-125158500D01*
X78422500Y-125158500D01*
X78422500Y-126351655D01*
X78652390Y-126472976D01*
X78799599Y-126428325D01*
X79062420Y-126303141D01*
X79295769Y-126129088D01*
X79490678Y-125912855D01*
X79639657Y-125662752D01*
X79699269Y-125494702D01*
X79748147Y-125612702D01*
X79882427Y-125813667D01*
X80053333Y-125984573D01*
X80254298Y-126118853D01*
X80477597Y-126211347D01*
X80714651Y-126258500D01*
X80956349Y-126258500D01*
X81193403Y-126211347D01*
X81416702Y-126118853D01*
X81617667Y-125984573D01*
X81788573Y-125813667D01*
X81922853Y-125612702D01*
X82015347Y-125389403D01*
X82062500Y-125152349D01*
X82062500Y-124910651D01*
X82015347Y-124673597D01*
X81922853Y-124450298D01*
X81788573Y-124249333D01*
X81720740Y-124181500D01*
X82146676Y-124181500D01*
X82146676Y-125881500D01*
X82153955Y-125955405D01*
X82175512Y-126026470D01*
X82210519Y-126091963D01*
X82257631Y-126149369D01*
X82315037Y-126196481D01*
X82380530Y-126231488D01*
X82451595Y-126253045D01*
X82525500Y-126260324D01*
X84225500Y-126260324D01*
X84299405Y-126253045D01*
X84370470Y-126231488D01*
X84435963Y-126196481D01*
X84493369Y-126149369D01*
X84540481Y-126091963D01*
X84575488Y-126026470D01*
X84597045Y-125955405D01*
X84604324Y-125881500D01*
X84604324Y-124181500D01*
X84597045Y-124107595D01*
X84575488Y-124036530D01*
X84540481Y-123971037D01*
X84493369Y-123913631D01*
X84435963Y-123866519D01*
X84370470Y-123831512D01*
X84299405Y-123809955D01*
X84225500Y-123802676D01*
X82525500Y-123802676D01*
X82451595Y-123809955D01*
X82380530Y-123831512D01*
X82315037Y-123866519D01*
X82257631Y-123913631D01*
X82210519Y-123971037D01*
X82175512Y-124036530D01*
X82153955Y-124107595D01*
X82146676Y-124181500D01*
X81720740Y-124181500D01*
X81617667Y-124078427D01*
X81416702Y-123944147D01*
X81193403Y-123851653D01*
X80956349Y-123804500D01*
X80714651Y-123804500D01*
X80477597Y-123851653D01*
X80254298Y-123944147D01*
X80053333Y-124078427D01*
X79882427Y-124249333D01*
X79748147Y-124450298D01*
X79699269Y-124568298D01*
X79639657Y-124400248D01*
X79490678Y-124150145D01*
X79295769Y-123933912D01*
X79062420Y-123759859D01*
X78799599Y-123634675D01*
X78652390Y-123590024D01*
X78422500Y-123711345D01*
X78168500Y-123711345D01*
X77938610Y-123590024D01*
X77791401Y-123634675D01*
X77528580Y-123759859D01*
X77295231Y-123933912D01*
X77100322Y-124150145D01*
X76951343Y-124400248D01*
X76854019Y-124674609D01*
X18948419Y-124674609D01*
X18948419Y-119757821D01*
X41614000Y-119757821D01*
X41614000Y-119891179D01*
X41640016Y-120021974D01*
X41691050Y-120145180D01*
X41765140Y-120256063D01*
X41859437Y-120350360D01*
X41970320Y-120424450D01*
X42093526Y-120475484D01*
X42224321Y-120501500D01*
X42357679Y-120501500D01*
X42488474Y-120475484D01*
X42611680Y-120424450D01*
X42720857Y-120351500D01*
X44273577Y-120351500D01*
X44335937Y-120413860D01*
X44446820Y-120487950D01*
X44570026Y-120538984D01*
X44700821Y-120565000D01*
X44834179Y-120565000D01*
X44964974Y-120538984D01*
X45088180Y-120487950D01*
X45199063Y-120413860D01*
X45293360Y-120319563D01*
X45367450Y-120208680D01*
X45418484Y-120085474D01*
X45444500Y-119954679D01*
X45444500Y-119821321D01*
X45418484Y-119690526D01*
X45367450Y-119567320D01*
X45293360Y-119456437D01*
X45199063Y-119362140D01*
X45088180Y-119288050D01*
X44964974Y-119237016D01*
X44834179Y-119211000D01*
X44700821Y-119211000D01*
X44570026Y-119237016D01*
X44446820Y-119288050D01*
X44432677Y-119297500D01*
X42720857Y-119297500D01*
X42611680Y-119224550D01*
X42488474Y-119173516D01*
X42357679Y-119147500D01*
X42224321Y-119147500D01*
X42093526Y-119173516D01*
X41970320Y-119224550D01*
X41859437Y-119298640D01*
X41765140Y-119392937D01*
X41691050Y-119503820D01*
X41640016Y-119627026D01*
X41614000Y-119757821D01*
X18948419Y-119757821D01*
X18948419Y-111566321D01*
X26374000Y-111566321D01*
X26374000Y-111699679D01*
X26400016Y-111830474D01*
X26451050Y-111953680D01*
X26525140Y-112064563D01*
X26619437Y-112158860D01*
X26730320Y-112232950D01*
X26853526Y-112283984D01*
X26984321Y-112310000D01*
X27117679Y-112310000D01*
X27248474Y-112283984D01*
X27371680Y-112232950D01*
X27482563Y-112158860D01*
X27501850Y-112139573D01*
X27533837Y-112171560D01*
X27644720Y-112245650D01*
X27767926Y-112296684D01*
X27898721Y-112322700D01*
X28032079Y-112322700D01*
X28162874Y-112296684D01*
X28286080Y-112245650D01*
X28396963Y-112171560D01*
X28413311Y-112155212D01*
X28438948Y-112180849D01*
X28549831Y-112254939D01*
X28673037Y-112305973D01*
X28803832Y-112331989D01*
X28937190Y-112331989D01*
X29067985Y-112305973D01*
X29191191Y-112254939D01*
X29302074Y-112180849D01*
X29396371Y-112086552D01*
X29470461Y-111975669D01*
X29521495Y-111852463D01*
X29547511Y-111721668D01*
X29547511Y-111588310D01*
X29521495Y-111457515D01*
X29470461Y-111334309D01*
X29396371Y-111223426D01*
X29322511Y-111149566D01*
X29322511Y-110127720D01*
X29997724Y-109452508D01*
X30102179Y-109452508D01*
X30232974Y-109426492D01*
X30356180Y-109375458D01*
X30467063Y-109301368D01*
X30551610Y-109216821D01*
X41487000Y-109216821D01*
X41487000Y-109350179D01*
X41513016Y-109480974D01*
X41564050Y-109604180D01*
X41638140Y-109715063D01*
X41732437Y-109809360D01*
X41843320Y-109883450D01*
X41966526Y-109934484D01*
X42097321Y-109960500D01*
X42230679Y-109960500D01*
X42361474Y-109934484D01*
X42484680Y-109883450D01*
X42595008Y-109809731D01*
X42763671Y-109978394D01*
X42710153Y-110107597D01*
X42663000Y-110344651D01*
X42663000Y-110586349D01*
X42710153Y-110823403D01*
X42802647Y-111046702D01*
X42936927Y-111247667D01*
X43107833Y-111418573D01*
X43308798Y-111552853D01*
X43532097Y-111645347D01*
X43769151Y-111692500D01*
X44010849Y-111692500D01*
X44247903Y-111645347D01*
X44471202Y-111552853D01*
X44672167Y-111418573D01*
X44843073Y-111247667D01*
X44977353Y-111046702D01*
X45069847Y-110823403D01*
X45117000Y-110586349D01*
X45117000Y-110344651D01*
X45069847Y-110107597D01*
X44977353Y-109884298D01*
X44843073Y-109683333D01*
X44672167Y-109512427D01*
X44471202Y-109378147D01*
X44247903Y-109285653D01*
X44010849Y-109238500D01*
X43769151Y-109238500D01*
X43532097Y-109285653D01*
X43402894Y-109339171D01*
X43043323Y-108979600D01*
X43029159Y-108962341D01*
X42960333Y-108905857D01*
X42881810Y-108863886D01*
X42796607Y-108838040D01*
X42730205Y-108831500D01*
X42708000Y-108829313D01*
X42685795Y-108831500D01*
X42669423Y-108831500D01*
X42595563Y-108757640D01*
X42484680Y-108683550D01*
X42361474Y-108632516D01*
X42230679Y-108606500D01*
X42097321Y-108606500D01*
X41966526Y-108632516D01*
X41843320Y-108683550D01*
X41732437Y-108757640D01*
X41638140Y-108851937D01*
X41564050Y-108962820D01*
X41513016Y-109086026D01*
X41487000Y-109216821D01*
X30551610Y-109216821D01*
X30561360Y-109207071D01*
X30635450Y-109096188D01*
X30686484Y-108972982D01*
X30712500Y-108842187D01*
X30712500Y-108708829D01*
X30686484Y-108578034D01*
X30635450Y-108454828D01*
X30561360Y-108343945D01*
X30467063Y-108249648D01*
X30356180Y-108175558D01*
X30232974Y-108124524D01*
X30102179Y-108098508D01*
X29968821Y-108098508D01*
X29838026Y-108124524D01*
X29714820Y-108175558D01*
X29603937Y-108249648D01*
X29509640Y-108343945D01*
X29495753Y-108364729D01*
X29481860Y-108343937D01*
X29387563Y-108249640D01*
X29276680Y-108175550D01*
X29153474Y-108124516D01*
X29022679Y-108098500D01*
X28889321Y-108098500D01*
X28758526Y-108124516D01*
X28635320Y-108175550D01*
X28524437Y-108249640D01*
X28430140Y-108343937D01*
X28416251Y-108364724D01*
X28402361Y-108343936D01*
X28308064Y-108249639D01*
X28197181Y-108175549D01*
X28073975Y-108124515D01*
X27943180Y-108098499D01*
X27809822Y-108098499D01*
X27679027Y-108124515D01*
X27555821Y-108175549D01*
X27444938Y-108249639D01*
X27350641Y-108343936D01*
X27276551Y-108454819D01*
X27225517Y-108578025D01*
X27199501Y-108708820D01*
X27199501Y-108813275D01*
X26747096Y-109265681D01*
X26729842Y-109279841D01*
X26675148Y-109346486D01*
X26673358Y-109348667D01*
X26631386Y-109427191D01*
X26605540Y-109512393D01*
X26596813Y-109601000D01*
X26599001Y-109623215D01*
X26599000Y-111127577D01*
X26525140Y-111201437D01*
X26451050Y-111312320D01*
X26400016Y-111435526D01*
X26374000Y-111566321D01*
X18948419Y-111566321D01*
X18948419Y-108013821D01*
X38184998Y-108013821D01*
X38184998Y-108147179D01*
X38211014Y-108277974D01*
X38262048Y-108401180D01*
X38336138Y-108512063D01*
X38430435Y-108606360D01*
X38541318Y-108680450D01*
X38664524Y-108731484D01*
X38795319Y-108757500D01*
X38928677Y-108757500D01*
X39059472Y-108731484D01*
X39182678Y-108680450D01*
X39202050Y-108667506D01*
X40382188Y-108667506D01*
X40491365Y-108740456D01*
X40614571Y-108791490D01*
X40745366Y-108817506D01*
X40878724Y-108817506D01*
X41009519Y-108791490D01*
X41132725Y-108740456D01*
X41243608Y-108666366D01*
X41337905Y-108572069D01*
X41411995Y-108461186D01*
X41463029Y-108337980D01*
X41489045Y-108207185D01*
X41489045Y-108073827D01*
X41463029Y-107943032D01*
X41411995Y-107819826D01*
X41411992Y-107819821D01*
X41546190Y-107819821D01*
X41546190Y-107953179D01*
X41572206Y-108083974D01*
X41623240Y-108207180D01*
X41697330Y-108318063D01*
X41791627Y-108412360D01*
X41902510Y-108486450D01*
X42025716Y-108537484D01*
X42156511Y-108563500D01*
X42289869Y-108563500D01*
X42420664Y-108537484D01*
X42543870Y-108486450D01*
X42654753Y-108412360D01*
X42689613Y-108377500D01*
X42749129Y-108377500D01*
X42802647Y-108506702D01*
X42936927Y-108707667D01*
X43107833Y-108878573D01*
X43308798Y-109012853D01*
X43532097Y-109105347D01*
X43769151Y-109152500D01*
X44010849Y-109152500D01*
X44247903Y-109105347D01*
X44471202Y-109012853D01*
X44672167Y-108878573D01*
X44843073Y-108707667D01*
X44977353Y-108506702D01*
X45023078Y-108396312D01*
X45033175Y-108429599D01*
X45158359Y-108692420D01*
X45332412Y-108925769D01*
X45548645Y-109120678D01*
X45743380Y-109236676D01*
X45580000Y-109236676D01*
X45506095Y-109243955D01*
X45435030Y-109265512D01*
X45369537Y-109300519D01*
X45312131Y-109347631D01*
X45265019Y-109405037D01*
X45230012Y-109470530D01*
X45208455Y-109541595D01*
X45201176Y-109615500D01*
X45201176Y-111315500D01*
X45208455Y-111389405D01*
X45230012Y-111460470D01*
X45265019Y-111525963D01*
X45312131Y-111583369D01*
X45369537Y-111630481D01*
X45435030Y-111665488D01*
X45506095Y-111687045D01*
X45580000Y-111694324D01*
X47280000Y-111694324D01*
X47353905Y-111687045D01*
X47424970Y-111665488D01*
X47490463Y-111630481D01*
X47547869Y-111583369D01*
X47594981Y-111525963D01*
X47629988Y-111460470D01*
X47651545Y-111389405D01*
X47658824Y-111315500D01*
X47658824Y-109615500D01*
X47651545Y-109541595D01*
X47629988Y-109470530D01*
X47594981Y-109405037D01*
X47547869Y-109347631D01*
X47490463Y-109300519D01*
X47424970Y-109265512D01*
X47353905Y-109243955D01*
X47280000Y-109236676D01*
X47116620Y-109236676D01*
X47311355Y-109120678D01*
X47527588Y-108925769D01*
X47701641Y-108692420D01*
X47826825Y-108429599D01*
X47871476Y-108282390D01*
X47750155Y-108052500D01*
X46557000Y-108052500D01*
X46557000Y-108072500D01*
X46303000Y-108072500D01*
X46303000Y-108052500D01*
X46283000Y-108052500D01*
X46283000Y-107798500D01*
X46303000Y-107798500D01*
X46303000Y-107778500D01*
X46557000Y-107778500D01*
X46557000Y-107798500D01*
X47750155Y-107798500D01*
X47871476Y-107568610D01*
X47826825Y-107421401D01*
X47701641Y-107158580D01*
X47527588Y-106925231D01*
X47311355Y-106730322D01*
X47061252Y-106581343D01*
X46893202Y-106521731D01*
X47011202Y-106472853D01*
X47212167Y-106338573D01*
X47383073Y-106167667D01*
X47517353Y-105966702D01*
X47609847Y-105743403D01*
X47657000Y-105506349D01*
X47657000Y-105264651D01*
X47609847Y-105027597D01*
X47517353Y-104804298D01*
X47383073Y-104603333D01*
X47212167Y-104432427D01*
X47011202Y-104298147D01*
X46787903Y-104205653D01*
X46550849Y-104158500D01*
X46309151Y-104158500D01*
X46072097Y-104205653D01*
X45848798Y-104298147D01*
X45647833Y-104432427D01*
X45476927Y-104603333D01*
X45342647Y-104804298D01*
X45250153Y-105027597D01*
X45203000Y-105264651D01*
X45203000Y-105506349D01*
X45250153Y-105743403D01*
X45342647Y-105966702D01*
X45476927Y-106167667D01*
X45647833Y-106338573D01*
X45848798Y-106472853D01*
X45966798Y-106521731D01*
X45798748Y-106581343D01*
X45548645Y-106730322D01*
X45332412Y-106925231D01*
X45158359Y-107158580D01*
X45033175Y-107421401D01*
X45023078Y-107454688D01*
X44977353Y-107344298D01*
X44843073Y-107143333D01*
X44672167Y-106972427D01*
X44471202Y-106838147D01*
X44247903Y-106745653D01*
X44010849Y-106698500D01*
X43769151Y-106698500D01*
X43532097Y-106745653D01*
X43308798Y-106838147D01*
X43107833Y-106972427D01*
X42936927Y-107143333D01*
X42802647Y-107344298D01*
X42753846Y-107462114D01*
X42749050Y-107454937D01*
X42654753Y-107360640D01*
X42543870Y-107286550D01*
X42420664Y-107235516D01*
X42289869Y-107209500D01*
X42156511Y-107209500D01*
X42025716Y-107235516D01*
X41902510Y-107286550D01*
X41791627Y-107360640D01*
X41697330Y-107454937D01*
X41623240Y-107565820D01*
X41572206Y-107689026D01*
X41546190Y-107819821D01*
X41411992Y-107819821D01*
X41337905Y-107708943D01*
X41243608Y-107614646D01*
X41132725Y-107540556D01*
X41009519Y-107489522D01*
X40878724Y-107463506D01*
X40745366Y-107463506D01*
X40614571Y-107489522D01*
X40491365Y-107540556D01*
X40382188Y-107613506D01*
X39352427Y-107613506D01*
X39293561Y-107554640D01*
X39182678Y-107480550D01*
X39059472Y-107429516D01*
X38928677Y-107403500D01*
X38795319Y-107403500D01*
X38664524Y-107429516D01*
X38541318Y-107480550D01*
X38430435Y-107554640D01*
X38336138Y-107648937D01*
X38262048Y-107759820D01*
X38211014Y-107883026D01*
X38184998Y-108013821D01*
X18948419Y-108013821D01*
X18948419Y-104869800D01*
X24572200Y-104869800D01*
X24572200Y-105269800D01*
X24620707Y-105508296D01*
X24714810Y-105732746D01*
X24850893Y-105934525D01*
X25023726Y-106105878D01*
X25226667Y-106240221D01*
X25451918Y-106332391D01*
X25489591Y-106336262D01*
X25680200Y-106211531D01*
X25680200Y-104869800D01*
X24572200Y-104869800D01*
X18948419Y-104869800D01*
X18948419Y-104215800D01*
X24572200Y-104215800D01*
X24572200Y-104615800D01*
X25680200Y-104615800D01*
X25680200Y-103274069D01*
X25934200Y-103274069D01*
X25934200Y-104615800D01*
X25954200Y-104615800D01*
X25954200Y-104869800D01*
X25934200Y-104869800D01*
X25934200Y-106211531D01*
X26124809Y-106336262D01*
X26162482Y-106332391D01*
X26387733Y-106240221D01*
X26590674Y-106105878D01*
X26763507Y-105934525D01*
X26899590Y-105732746D01*
X26950202Y-105612030D01*
X26990925Y-105688218D01*
X27113015Y-105836986D01*
X27261783Y-105959076D01*
X27431510Y-106049797D01*
X27615676Y-106105663D01*
X27807200Y-106124527D01*
X27998725Y-106105663D01*
X28182891Y-106049797D01*
X28352618Y-105959076D01*
X28501386Y-105836986D01*
X28623476Y-105688218D01*
X28714197Y-105518491D01*
X28770063Y-105334324D01*
X28784200Y-105190792D01*
X28784200Y-104294808D01*
X28830200Y-104294808D01*
X28830200Y-105190793D01*
X28844338Y-105334325D01*
X28900204Y-105518491D01*
X28990925Y-105688218D01*
X29113015Y-105836986D01*
X29261783Y-105959076D01*
X29431510Y-106049797D01*
X29615676Y-106105663D01*
X29807200Y-106124527D01*
X29998725Y-106105663D01*
X30182891Y-106049797D01*
X30352618Y-105959076D01*
X30501386Y-105836986D01*
X30623476Y-105688218D01*
X30714197Y-105518491D01*
X30770063Y-105334324D01*
X30784200Y-105190792D01*
X30784200Y-104294808D01*
X30830200Y-104294808D01*
X30830200Y-105190793D01*
X30844338Y-105334325D01*
X30900204Y-105518491D01*
X30990925Y-105688218D01*
X31113015Y-105836986D01*
X31261783Y-105959076D01*
X31431510Y-106049797D01*
X31615676Y-106105663D01*
X31807200Y-106124527D01*
X31998725Y-106105663D01*
X32182891Y-106049797D01*
X32352618Y-105959076D01*
X32501386Y-105836986D01*
X32623476Y-105688218D01*
X32714197Y-105518491D01*
X32770063Y-105334324D01*
X32784200Y-105190792D01*
X32784200Y-104294808D01*
X32830200Y-104294808D01*
X32830200Y-105190793D01*
X32844338Y-105334325D01*
X32900204Y-105518491D01*
X32990925Y-105688218D01*
X33113015Y-105836986D01*
X33261783Y-105959076D01*
X33431510Y-106049797D01*
X33615676Y-106105663D01*
X33807200Y-106124527D01*
X33998725Y-106105663D01*
X34182891Y-106049797D01*
X34352618Y-105959076D01*
X34501386Y-105836986D01*
X34623476Y-105688218D01*
X34714197Y-105518491D01*
X34770063Y-105334324D01*
X34784200Y-105190792D01*
X34784200Y-104294808D01*
X34830200Y-104294808D01*
X34830200Y-105190793D01*
X34844338Y-105334325D01*
X34900204Y-105518491D01*
X34990925Y-105688218D01*
X35113015Y-105836986D01*
X35261783Y-105959076D01*
X35431510Y-106049797D01*
X35615676Y-106105663D01*
X35807200Y-106124527D01*
X35998725Y-106105663D01*
X36182891Y-106049797D01*
X36352618Y-105959076D01*
X36501386Y-105836986D01*
X36623476Y-105688218D01*
X36714197Y-105518491D01*
X36770063Y-105334324D01*
X36784200Y-105190792D01*
X36784200Y-104294808D01*
X36830200Y-104294808D01*
X36830200Y-105190793D01*
X36844338Y-105334325D01*
X36900204Y-105518491D01*
X36990925Y-105688218D01*
X37113015Y-105836986D01*
X37261783Y-105959076D01*
X37431510Y-106049797D01*
X37615676Y-106105663D01*
X37807200Y-106124527D01*
X37998725Y-106105663D01*
X38182891Y-106049797D01*
X38352618Y-105959076D01*
X38501386Y-105836986D01*
X38623476Y-105688218D01*
X38664199Y-105612031D01*
X38714810Y-105732746D01*
X38850893Y-105934525D01*
X39023726Y-106105878D01*
X39226667Y-106240221D01*
X39451918Y-106332391D01*
X39489591Y-106336262D01*
X39680200Y-106211531D01*
X39680200Y-104869800D01*
X39934200Y-104869800D01*
X39934200Y-106211531D01*
X40124809Y-106336262D01*
X40162482Y-106332391D01*
X40387733Y-106240221D01*
X40590674Y-106105878D01*
X40763507Y-105934525D01*
X40899590Y-105732746D01*
X40993693Y-105508296D01*
X41042200Y-105269800D01*
X41042200Y-105264651D01*
X42663000Y-105264651D01*
X42663000Y-105506349D01*
X42710153Y-105743403D01*
X42802647Y-105966702D01*
X42936927Y-106167667D01*
X43107833Y-106338573D01*
X43308798Y-106472853D01*
X43532097Y-106565347D01*
X43769151Y-106612500D01*
X44010849Y-106612500D01*
X44247903Y-106565347D01*
X44471202Y-106472853D01*
X44672167Y-106338573D01*
X44843073Y-106167667D01*
X44977353Y-105966702D01*
X45069847Y-105743403D01*
X45117000Y-105506349D01*
X45117000Y-105264651D01*
X45069847Y-105027597D01*
X44977353Y-104804298D01*
X44843073Y-104603333D01*
X44672167Y-104432427D01*
X44471202Y-104298147D01*
X44247903Y-104205653D01*
X44010849Y-104158500D01*
X43769151Y-104158500D01*
X43532097Y-104205653D01*
X43308798Y-104298147D01*
X43107833Y-104432427D01*
X42936927Y-104603333D01*
X42802647Y-104804298D01*
X42710153Y-105027597D01*
X42663000Y-105264651D01*
X41042200Y-105264651D01*
X41042200Y-104869800D01*
X39934200Y-104869800D01*
X39680200Y-104869800D01*
X39660200Y-104869800D01*
X39660200Y-104615800D01*
X39680200Y-104615800D01*
X39680200Y-103274069D01*
X39934200Y-103274069D01*
X39934200Y-104615800D01*
X41042200Y-104615800D01*
X41042200Y-104215800D01*
X40993693Y-103977304D01*
X40899590Y-103752854D01*
X40763507Y-103551075D01*
X40590674Y-103379722D01*
X40387733Y-103245379D01*
X40162482Y-103153209D01*
X40124809Y-103149338D01*
X39934200Y-103274069D01*
X39680200Y-103274069D01*
X39489591Y-103149338D01*
X39451918Y-103153209D01*
X39226667Y-103245379D01*
X39023726Y-103379722D01*
X38850893Y-103551075D01*
X38714810Y-103752854D01*
X38664199Y-103873569D01*
X38623476Y-103797382D01*
X38501386Y-103648614D01*
X38352618Y-103526524D01*
X38182890Y-103435803D01*
X37998724Y-103379937D01*
X37807200Y-103361073D01*
X37615675Y-103379937D01*
X37431509Y-103435803D01*
X37261782Y-103526524D01*
X37113014Y-103648614D01*
X36990924Y-103797382D01*
X36900203Y-103967110D01*
X36844337Y-104151276D01*
X36830200Y-104294808D01*
X36784200Y-104294808D01*
X36784200Y-104294807D01*
X36770063Y-104151275D01*
X36714197Y-103967109D01*
X36623476Y-103797382D01*
X36501386Y-103648614D01*
X36352618Y-103526524D01*
X36182890Y-103435803D01*
X35998724Y-103379937D01*
X35807200Y-103361073D01*
X35615675Y-103379937D01*
X35431509Y-103435803D01*
X35261782Y-103526524D01*
X35113014Y-103648614D01*
X34990924Y-103797382D01*
X34900203Y-103967110D01*
X34844337Y-104151276D01*
X34830200Y-104294808D01*
X34784200Y-104294808D01*
X34784200Y-104294807D01*
X34770063Y-104151275D01*
X34714197Y-103967109D01*
X34623476Y-103797382D01*
X34501386Y-103648614D01*
X34352618Y-103526524D01*
X34182890Y-103435803D01*
X33998724Y-103379937D01*
X33807200Y-103361073D01*
X33615675Y-103379937D01*
X33431509Y-103435803D01*
X33261782Y-103526524D01*
X33113014Y-103648614D01*
X32990924Y-103797382D01*
X32900203Y-103967110D01*
X32844337Y-104151276D01*
X32830200Y-104294808D01*
X32784200Y-104294808D01*
X32784200Y-104294807D01*
X32770063Y-104151275D01*
X32714197Y-103967109D01*
X32623476Y-103797382D01*
X32501386Y-103648614D01*
X32352618Y-103526524D01*
X32182890Y-103435803D01*
X31998724Y-103379937D01*
X31807200Y-103361073D01*
X31615675Y-103379937D01*
X31431509Y-103435803D01*
X31261782Y-103526524D01*
X31113014Y-103648614D01*
X30990924Y-103797382D01*
X30900203Y-103967110D01*
X30844337Y-104151276D01*
X30830200Y-104294808D01*
X30784200Y-104294808D01*
X30784200Y-104294807D01*
X30770063Y-104151275D01*
X30714197Y-103967109D01*
X30623476Y-103797382D01*
X30501386Y-103648614D01*
X30352618Y-103526524D01*
X30182890Y-103435803D01*
X29998724Y-103379937D01*
X29807200Y-103361073D01*
X29615675Y-103379937D01*
X29431509Y-103435803D01*
X29261782Y-103526524D01*
X29113014Y-103648614D01*
X28990924Y-103797382D01*
X28900203Y-103967110D01*
X28844337Y-104151276D01*
X28830200Y-104294808D01*
X28784200Y-104294808D01*
X28784200Y-104294807D01*
X28770063Y-104151275D01*
X28714197Y-103967109D01*
X28623476Y-103797382D01*
X28501386Y-103648614D01*
X28352618Y-103526524D01*
X28182890Y-103435803D01*
X27998724Y-103379937D01*
X27807200Y-103361073D01*
X27615675Y-103379937D01*
X27431509Y-103435803D01*
X27261782Y-103526524D01*
X27113014Y-103648614D01*
X26990924Y-103797382D01*
X26950201Y-103873569D01*
X26899590Y-103752854D01*
X26763507Y-103551075D01*
X26590674Y-103379722D01*
X26387733Y-103245379D01*
X26162482Y-103153209D01*
X26124809Y-103149338D01*
X25934200Y-103274069D01*
X25680200Y-103274069D01*
X25489591Y-103149338D01*
X25451918Y-103153209D01*
X25226667Y-103245379D01*
X25023726Y-103379722D01*
X24850893Y-103551075D01*
X24714810Y-103752854D01*
X24620707Y-103977304D01*
X24572200Y-104215800D01*
X18948419Y-104215800D01*
X18948419Y-98972390D01*
X42881524Y-98972390D01*
X42926175Y-99119599D01*
X43051359Y-99382420D01*
X43225412Y-99615769D01*
X43441645Y-99810678D01*
X43636380Y-99926676D01*
X43473000Y-99926676D01*
X43399095Y-99933955D01*
X43328030Y-99955512D01*
X43262537Y-99990519D01*
X43205131Y-100037631D01*
X43158019Y-100095037D01*
X43123012Y-100160530D01*
X43101455Y-100231595D01*
X43094176Y-100305500D01*
X43094176Y-102005500D01*
X43101455Y-102079405D01*
X43123012Y-102150470D01*
X43158019Y-102215963D01*
X43205131Y-102273369D01*
X43262537Y-102320481D01*
X43328030Y-102355488D01*
X43399095Y-102377045D01*
X43473000Y-102384324D01*
X45173000Y-102384324D01*
X45246905Y-102377045D01*
X45317970Y-102355488D01*
X45383463Y-102320481D01*
X45440869Y-102273369D01*
X45487981Y-102215963D01*
X45522988Y-102150470D01*
X45544545Y-102079405D01*
X45551824Y-102005500D01*
X45551824Y-100305500D01*
X45544545Y-100231595D01*
X45522988Y-100160530D01*
X45487981Y-100095037D01*
X45440869Y-100037631D01*
X45383463Y-99990519D01*
X45317970Y-99955512D01*
X45246905Y-99933955D01*
X45173000Y-99926676D01*
X45009620Y-99926676D01*
X45204355Y-99810678D01*
X45420588Y-99615769D01*
X45594641Y-99382420D01*
X45719825Y-99119599D01*
X45764476Y-98972390D01*
X45643155Y-98742500D01*
X44450000Y-98742500D01*
X44450000Y-98762500D01*
X44196000Y-98762500D01*
X44196000Y-98742500D01*
X43002845Y-98742500D01*
X42881524Y-98972390D01*
X18948419Y-98972390D01*
X18948419Y-98258610D01*
X42881524Y-98258610D01*
X43002845Y-98488500D01*
X44196000Y-98488500D01*
X44196000Y-97294686D01*
X44450000Y-97294686D01*
X44450000Y-98488500D01*
X45643155Y-98488500D01*
X45764476Y-98258610D01*
X45719825Y-98111401D01*
X45594641Y-97848580D01*
X45420588Y-97615231D01*
X45204355Y-97420322D01*
X44954252Y-97271343D01*
X44679891Y-97174019D01*
X44450000Y-97294686D01*
X44196000Y-97294686D01*
X43966109Y-97174019D01*
X43691748Y-97271343D01*
X43441645Y-97420322D01*
X43225412Y-97615231D01*
X43051359Y-97848580D01*
X42926175Y-98111401D01*
X42881524Y-98258610D01*
X18948419Y-98258610D01*
X18948419Y-94146390D01*
X42881524Y-94146390D01*
X42926175Y-94293599D01*
X43051359Y-94556420D01*
X43225412Y-94789769D01*
X43441645Y-94984678D01*
X43691748Y-95133657D01*
X43966109Y-95230981D01*
X44196000Y-95110314D01*
X44196000Y-93916500D01*
X44450000Y-93916500D01*
X44450000Y-95110314D01*
X44679891Y-95230981D01*
X44954252Y-95133657D01*
X45204355Y-94984678D01*
X45420588Y-94789769D01*
X45594641Y-94556420D01*
X45719825Y-94293599D01*
X45764476Y-94146390D01*
X45643155Y-93916500D01*
X44450000Y-93916500D01*
X44196000Y-93916500D01*
X43002845Y-93916500D01*
X42881524Y-94146390D01*
X18948419Y-94146390D01*
X18948419Y-93432610D01*
X42881524Y-93432610D01*
X43002845Y-93662500D01*
X44196000Y-93662500D01*
X44196000Y-93642500D01*
X44450000Y-93642500D01*
X44450000Y-93662500D01*
X45643155Y-93662500D01*
X45764476Y-93432610D01*
X45719825Y-93285401D01*
X45594641Y-93022580D01*
X45420588Y-92789231D01*
X45204355Y-92594322D01*
X45009620Y-92478324D01*
X45173000Y-92478324D01*
X45246905Y-92471045D01*
X45317970Y-92449488D01*
X45383463Y-92414481D01*
X45440869Y-92367369D01*
X45487981Y-92309963D01*
X45522988Y-92244470D01*
X45544545Y-92173405D01*
X45551824Y-92099500D01*
X45551824Y-90399500D01*
X45544545Y-90325595D01*
X45522988Y-90254530D01*
X45487981Y-90189037D01*
X45440869Y-90131631D01*
X45383463Y-90084519D01*
X45317970Y-90049512D01*
X45246905Y-90027955D01*
X45173000Y-90020676D01*
X43473000Y-90020676D01*
X43399095Y-90027955D01*
X43328030Y-90049512D01*
X43262537Y-90084519D01*
X43205131Y-90131631D01*
X43158019Y-90189037D01*
X43123012Y-90254530D01*
X43101455Y-90325595D01*
X43094176Y-90399500D01*
X43094176Y-92099500D01*
X43101455Y-92173405D01*
X43123012Y-92244470D01*
X43158019Y-92309963D01*
X43205131Y-92367369D01*
X43262537Y-92414481D01*
X43328030Y-92449488D01*
X43399095Y-92471045D01*
X43473000Y-92478324D01*
X43636380Y-92478324D01*
X43441645Y-92594322D01*
X43225412Y-92789231D01*
X43051359Y-93022580D01*
X42926175Y-93285401D01*
X42881524Y-93432610D01*
X18948419Y-93432610D01*
X18948419Y-90294808D01*
X24830200Y-90294808D01*
X24830200Y-91190793D01*
X24844338Y-91334325D01*
X24900204Y-91518491D01*
X24990925Y-91688218D01*
X25113015Y-91836986D01*
X25261783Y-91959076D01*
X25431510Y-92049797D01*
X25615676Y-92105663D01*
X25807200Y-92124527D01*
X25998725Y-92105663D01*
X26182891Y-92049797D01*
X26352618Y-91959076D01*
X26501386Y-91836986D01*
X26623476Y-91688218D01*
X26714197Y-91518491D01*
X26770063Y-91334324D01*
X26784200Y-91190792D01*
X26784200Y-90294808D01*
X26830200Y-90294808D01*
X26830200Y-91190793D01*
X26844338Y-91334325D01*
X26900204Y-91518491D01*
X26990925Y-91688218D01*
X27113015Y-91836986D01*
X27261783Y-91959076D01*
X27431510Y-92049797D01*
X27615676Y-92105663D01*
X27807200Y-92124527D01*
X27998725Y-92105663D01*
X28182891Y-92049797D01*
X28352618Y-91959076D01*
X28501386Y-91836986D01*
X28623476Y-91688218D01*
X28714197Y-91518491D01*
X28770063Y-91334324D01*
X28784200Y-91190792D01*
X28784200Y-90294808D01*
X28830200Y-90294808D01*
X28830200Y-91190793D01*
X28844338Y-91334325D01*
X28900204Y-91518491D01*
X28990925Y-91688218D01*
X29113015Y-91836986D01*
X29261783Y-91959076D01*
X29431510Y-92049797D01*
X29615676Y-92105663D01*
X29807200Y-92124527D01*
X29998725Y-92105663D01*
X30182891Y-92049797D01*
X30352618Y-91959076D01*
X30501386Y-91836986D01*
X30623476Y-91688218D01*
X30714197Y-91518491D01*
X30770063Y-91334324D01*
X30784200Y-91190792D01*
X30784200Y-90294808D01*
X30830200Y-90294808D01*
X30830200Y-91190793D01*
X30844338Y-91334325D01*
X30900204Y-91518491D01*
X30990925Y-91688218D01*
X31113015Y-91836986D01*
X31261783Y-91959076D01*
X31431510Y-92049797D01*
X31615676Y-92105663D01*
X31807200Y-92124527D01*
X31998725Y-92105663D01*
X32182891Y-92049797D01*
X32352618Y-91959076D01*
X32501386Y-91836986D01*
X32623476Y-91688218D01*
X32714197Y-91518491D01*
X32770063Y-91334324D01*
X32784200Y-91190792D01*
X32784200Y-90294808D01*
X32830200Y-90294808D01*
X32830200Y-91190793D01*
X32844338Y-91334325D01*
X32900204Y-91518491D01*
X32990925Y-91688218D01*
X33113015Y-91836986D01*
X33261783Y-91959076D01*
X33431510Y-92049797D01*
X33615676Y-92105663D01*
X33807200Y-92124527D01*
X33998725Y-92105663D01*
X34182891Y-92049797D01*
X34352618Y-91959076D01*
X34501386Y-91836986D01*
X34623476Y-91688218D01*
X34714197Y-91518491D01*
X34770063Y-91334324D01*
X34784200Y-91190792D01*
X34784200Y-90294808D01*
X34830200Y-90294808D01*
X34830200Y-91190793D01*
X34844338Y-91334325D01*
X34900204Y-91518491D01*
X34990925Y-91688218D01*
X35113015Y-91836986D01*
X35261783Y-91959076D01*
X35431510Y-92049797D01*
X35615676Y-92105663D01*
X35807200Y-92124527D01*
X35998725Y-92105663D01*
X36182891Y-92049797D01*
X36352618Y-91959076D01*
X36501386Y-91836986D01*
X36623476Y-91688218D01*
X36664199Y-91612031D01*
X36714810Y-91732746D01*
X36850893Y-91934525D01*
X37023726Y-92105878D01*
X37226667Y-92240221D01*
X37451918Y-92332391D01*
X37489591Y-92336262D01*
X37680200Y-92211531D01*
X37680200Y-90869800D01*
X37660200Y-90869800D01*
X37660200Y-90615800D01*
X37680200Y-90615800D01*
X37680200Y-89274069D01*
X37934200Y-89274069D01*
X37934200Y-90615800D01*
X37954200Y-90615800D01*
X37954200Y-90869800D01*
X37934200Y-90869800D01*
X37934200Y-92211531D01*
X38124809Y-92336262D01*
X38162482Y-92332391D01*
X38387733Y-92240221D01*
X38590674Y-92105878D01*
X38763507Y-91934525D01*
X38899590Y-91732746D01*
X38950202Y-91612030D01*
X38990925Y-91688218D01*
X39113015Y-91836986D01*
X39261783Y-91959076D01*
X39431510Y-92049797D01*
X39615676Y-92105663D01*
X39807200Y-92124527D01*
X39998725Y-92105663D01*
X40182891Y-92049797D01*
X40352618Y-91959076D01*
X40501386Y-91836986D01*
X40623476Y-91688218D01*
X40714197Y-91518491D01*
X40770063Y-91334324D01*
X40784200Y-91190792D01*
X40784200Y-90294807D01*
X40770063Y-90151275D01*
X40714197Y-89967109D01*
X40623476Y-89797382D01*
X40501386Y-89648614D01*
X40352618Y-89526524D01*
X40182890Y-89435803D01*
X39998724Y-89379937D01*
X39807200Y-89361073D01*
X39615675Y-89379937D01*
X39431509Y-89435803D01*
X39261782Y-89526524D01*
X39113014Y-89648614D01*
X38990924Y-89797382D01*
X38950201Y-89873569D01*
X38899590Y-89752854D01*
X38763507Y-89551075D01*
X38590674Y-89379722D01*
X38387733Y-89245379D01*
X38162482Y-89153209D01*
X38124809Y-89149338D01*
X37934200Y-89274069D01*
X37680200Y-89274069D01*
X37489591Y-89149338D01*
X37451918Y-89153209D01*
X37226667Y-89245379D01*
X37023726Y-89379722D01*
X36850893Y-89551075D01*
X36714810Y-89752854D01*
X36664199Y-89873569D01*
X36623476Y-89797382D01*
X36501386Y-89648614D01*
X36352618Y-89526524D01*
X36182890Y-89435803D01*
X35998724Y-89379937D01*
X35807200Y-89361073D01*
X35615675Y-89379937D01*
X35431509Y-89435803D01*
X35261782Y-89526524D01*
X35113014Y-89648614D01*
X34990924Y-89797382D01*
X34900203Y-89967110D01*
X34844337Y-90151276D01*
X34830200Y-90294808D01*
X34784200Y-90294808D01*
X34784200Y-90294807D01*
X34770063Y-90151275D01*
X34714197Y-89967109D01*
X34623476Y-89797382D01*
X34501386Y-89648614D01*
X34352618Y-89526524D01*
X34182890Y-89435803D01*
X33998724Y-89379937D01*
X33807200Y-89361073D01*
X33615675Y-89379937D01*
X33431509Y-89435803D01*
X33261782Y-89526524D01*
X33113014Y-89648614D01*
X32990924Y-89797382D01*
X32900203Y-89967110D01*
X32844337Y-90151276D01*
X32830200Y-90294808D01*
X32784200Y-90294808D01*
X32784200Y-90294807D01*
X32770063Y-90151275D01*
X32714197Y-89967109D01*
X32623476Y-89797382D01*
X32501386Y-89648614D01*
X32352618Y-89526524D01*
X32182890Y-89435803D01*
X31998724Y-89379937D01*
X31807200Y-89361073D01*
X31615675Y-89379937D01*
X31431509Y-89435803D01*
X31261782Y-89526524D01*
X31113014Y-89648614D01*
X30990924Y-89797382D01*
X30900203Y-89967110D01*
X30844337Y-90151276D01*
X30830200Y-90294808D01*
X30784200Y-90294808D01*
X30784200Y-90294807D01*
X30770063Y-90151275D01*
X30714197Y-89967109D01*
X30623476Y-89797382D01*
X30501386Y-89648614D01*
X30352618Y-89526524D01*
X30182890Y-89435803D01*
X29998724Y-89379937D01*
X29807200Y-89361073D01*
X29615675Y-89379937D01*
X29431509Y-89435803D01*
X29261782Y-89526524D01*
X29113014Y-89648614D01*
X28990924Y-89797382D01*
X28900203Y-89967110D01*
X28844337Y-90151276D01*
X28830200Y-90294808D01*
X28784200Y-90294808D01*
X28784200Y-90294807D01*
X28770063Y-90151275D01*
X28714197Y-89967109D01*
X28623476Y-89797382D01*
X28501386Y-89648614D01*
X28352618Y-89526524D01*
X28182890Y-89435803D01*
X27998724Y-89379937D01*
X27807200Y-89361073D01*
X27615675Y-89379937D01*
X27431509Y-89435803D01*
X27261782Y-89526524D01*
X27113014Y-89648614D01*
X26990924Y-89797382D01*
X26900203Y-89967110D01*
X26844337Y-90151276D01*
X26830200Y-90294808D01*
X26784200Y-90294808D01*
X26784200Y-90294807D01*
X26770063Y-90151275D01*
X26714197Y-89967109D01*
X26623476Y-89797382D01*
X26501386Y-89648614D01*
X26352618Y-89526524D01*
X26182890Y-89435803D01*
X25998724Y-89379937D01*
X25807200Y-89361073D01*
X25615675Y-89379937D01*
X25431509Y-89435803D01*
X25261782Y-89526524D01*
X25113014Y-89648614D01*
X24990924Y-89797382D01*
X24900203Y-89967110D01*
X24844337Y-90151276D01*
X24830200Y-90294808D01*
X18948419Y-90294808D01*
X18948419Y-86145391D01*
X25482519Y-86145391D01*
X25579843Y-86419752D01*
X25728822Y-86669855D01*
X25923731Y-86886088D01*
X26157080Y-87060141D01*
X26419901Y-87185325D01*
X26567110Y-87229976D01*
X26797000Y-87108655D01*
X26797000Y-85915500D01*
X25603186Y-85915500D01*
X25482519Y-86145391D01*
X18948419Y-86145391D01*
X18948419Y-85431609D01*
X25482519Y-85431609D01*
X25603186Y-85661500D01*
X26797000Y-85661500D01*
X26797000Y-85641500D01*
X27051000Y-85641500D01*
X27051000Y-85661500D01*
X27071000Y-85661500D01*
X27071000Y-85915500D01*
X27051000Y-85915500D01*
X27051000Y-87108655D01*
X27280890Y-87229976D01*
X27428099Y-87185325D01*
X27690920Y-87060141D01*
X27924269Y-86886088D01*
X28119178Y-86669855D01*
X28268157Y-86419752D01*
X28327769Y-86251702D01*
X28376647Y-86369702D01*
X28510927Y-86570667D01*
X28681833Y-86741573D01*
X28882798Y-86875853D01*
X29106097Y-86968347D01*
X29343151Y-87015500D01*
X29584849Y-87015500D01*
X29821903Y-86968347D01*
X30045202Y-86875853D01*
X30246167Y-86741573D01*
X30417073Y-86570667D01*
X30551353Y-86369702D01*
X30643847Y-86146403D01*
X30691000Y-85909349D01*
X30691000Y-85667651D01*
X30777000Y-85667651D01*
X30777000Y-85909349D01*
X30824153Y-86146403D01*
X30916647Y-86369702D01*
X31050927Y-86570667D01*
X31221833Y-86741573D01*
X31422798Y-86875853D01*
X31646097Y-86968347D01*
X31883151Y-87015500D01*
X32124849Y-87015500D01*
X32361903Y-86968347D01*
X32585202Y-86875853D01*
X32786167Y-86741573D01*
X32957073Y-86570667D01*
X33091353Y-86369702D01*
X33183847Y-86146403D01*
X33231000Y-85909349D01*
X33231000Y-85667651D01*
X33183847Y-85430597D01*
X33091353Y-85207298D01*
X32957073Y-85006333D01*
X32786167Y-84835427D01*
X32585202Y-84701147D01*
X32361903Y-84608653D01*
X32124849Y-84561500D01*
X31883151Y-84561500D01*
X31646097Y-84608653D01*
X31422798Y-84701147D01*
X31221833Y-84835427D01*
X31050927Y-85006333D01*
X30916647Y-85207298D01*
X30824153Y-85430597D01*
X30777000Y-85667651D01*
X30691000Y-85667651D01*
X30643847Y-85430597D01*
X30551353Y-85207298D01*
X30417073Y-85006333D01*
X30246167Y-84835427D01*
X30045202Y-84701147D01*
X29821903Y-84608653D01*
X29584849Y-84561500D01*
X29343151Y-84561500D01*
X29106097Y-84608653D01*
X28882798Y-84701147D01*
X28681833Y-84835427D01*
X28510927Y-85006333D01*
X28376647Y-85207298D01*
X28327769Y-85325298D01*
X28268157Y-85157248D01*
X28119178Y-84907145D01*
X27924269Y-84690912D01*
X27690920Y-84516859D01*
X27428099Y-84391675D01*
X27394812Y-84381578D01*
X27505202Y-84335853D01*
X27706167Y-84201573D01*
X27877073Y-84030667D01*
X28011353Y-83829702D01*
X28103847Y-83606403D01*
X28151000Y-83369349D01*
X28151000Y-83127651D01*
X28237000Y-83127651D01*
X28237000Y-83369349D01*
X28284153Y-83606403D01*
X28376647Y-83829702D01*
X28510927Y-84030667D01*
X28681833Y-84201573D01*
X28882798Y-84335853D01*
X29106097Y-84428347D01*
X29343151Y-84475500D01*
X29584849Y-84475500D01*
X29821903Y-84428347D01*
X30045202Y-84335853D01*
X30246167Y-84201573D01*
X30417073Y-84030667D01*
X30551353Y-83829702D01*
X30643847Y-83606403D01*
X30691000Y-83369349D01*
X30691000Y-83127651D01*
X30643847Y-82890597D01*
X30551353Y-82667298D01*
X30417073Y-82466333D01*
X30349240Y-82398500D01*
X30775176Y-82398500D01*
X30775176Y-84098500D01*
X30782455Y-84172405D01*
X30804012Y-84243470D01*
X30839019Y-84308963D01*
X30886131Y-84366369D01*
X30943537Y-84413481D01*
X31009030Y-84448488D01*
X31080095Y-84470045D01*
X31154000Y-84477324D01*
X32854000Y-84477324D01*
X32927905Y-84470045D01*
X32998970Y-84448488D01*
X33064463Y-84413481D01*
X33121869Y-84366369D01*
X33168981Y-84308963D01*
X33203988Y-84243470D01*
X33225545Y-84172405D01*
X33232824Y-84098500D01*
X33232824Y-83000651D01*
X77068500Y-83000651D01*
X77068500Y-83242349D01*
X77115653Y-83479403D01*
X77208147Y-83702702D01*
X77342427Y-83903667D01*
X77513333Y-84074573D01*
X77714298Y-84208853D01*
X77937597Y-84301347D01*
X78174651Y-84348500D01*
X78416349Y-84348500D01*
X78653403Y-84301347D01*
X78876702Y-84208853D01*
X79077667Y-84074573D01*
X79248573Y-83903667D01*
X79382853Y-83702702D01*
X79475347Y-83479403D01*
X79522500Y-83242349D01*
X79522500Y-83000651D01*
X79608500Y-83000651D01*
X79608500Y-83242349D01*
X79655653Y-83479403D01*
X79748147Y-83702702D01*
X79882427Y-83903667D01*
X80053333Y-84074573D01*
X80254298Y-84208853D01*
X80477597Y-84301347D01*
X80714651Y-84348500D01*
X80956349Y-84348500D01*
X81193403Y-84301347D01*
X81416702Y-84208853D01*
X81617667Y-84074573D01*
X81788573Y-83903667D01*
X81922853Y-83702702D01*
X82015347Y-83479403D01*
X82062500Y-83242349D01*
X82062500Y-83000651D01*
X82015347Y-82763597D01*
X81922853Y-82540298D01*
X81788573Y-82339333D01*
X81720740Y-82271500D01*
X82146676Y-82271500D01*
X82146676Y-83971500D01*
X82153955Y-84045405D01*
X82175512Y-84116470D01*
X82210519Y-84181963D01*
X82257631Y-84239369D01*
X82315037Y-84286481D01*
X82380530Y-84321488D01*
X82451595Y-84343045D01*
X82525500Y-84350324D01*
X84225500Y-84350324D01*
X84299405Y-84343045D01*
X84370470Y-84321488D01*
X84435963Y-84286481D01*
X84493369Y-84239369D01*
X84540481Y-84181963D01*
X84575488Y-84116470D01*
X84597045Y-84045405D01*
X84604324Y-83971500D01*
X84604324Y-83268905D01*
X88138200Y-83268905D01*
X88138200Y-83609095D01*
X88204568Y-83942747D01*
X88334753Y-84257041D01*
X88523752Y-84539898D01*
X88764302Y-84780448D01*
X89047159Y-84969447D01*
X89361453Y-85099632D01*
X89695105Y-85166000D01*
X90035295Y-85166000D01*
X90368947Y-85099632D01*
X90683241Y-84969447D01*
X90966098Y-84780448D01*
X91206648Y-84539898D01*
X91395647Y-84257041D01*
X91525832Y-83942747D01*
X91592200Y-83609095D01*
X91592200Y-83268905D01*
X91525832Y-82935253D01*
X91395647Y-82620959D01*
X91206648Y-82338102D01*
X90966098Y-82097552D01*
X90683241Y-81908553D01*
X90368947Y-81778368D01*
X90035295Y-81712000D01*
X89695105Y-81712000D01*
X89361453Y-81778368D01*
X89047159Y-81908553D01*
X88764302Y-82097552D01*
X88523752Y-82338102D01*
X88334753Y-82620959D01*
X88204568Y-82935253D01*
X88138200Y-83268905D01*
X84604324Y-83268905D01*
X84604324Y-82271500D01*
X84597045Y-82197595D01*
X84575488Y-82126530D01*
X84540481Y-82061037D01*
X84493369Y-82003631D01*
X84435963Y-81956519D01*
X84370470Y-81921512D01*
X84299405Y-81899955D01*
X84225500Y-81892676D01*
X82525500Y-81892676D01*
X82451595Y-81899955D01*
X82380530Y-81921512D01*
X82315037Y-81956519D01*
X82257631Y-82003631D01*
X82210519Y-82061037D01*
X82175512Y-82126530D01*
X82153955Y-82197595D01*
X82146676Y-82271500D01*
X81720740Y-82271500D01*
X81617667Y-82168427D01*
X81416702Y-82034147D01*
X81193403Y-81941653D01*
X80956349Y-81894500D01*
X80714651Y-81894500D01*
X80477597Y-81941653D01*
X80254298Y-82034147D01*
X80053333Y-82168427D01*
X79882427Y-82339333D01*
X79748147Y-82540298D01*
X79655653Y-82763597D01*
X79608500Y-83000651D01*
X79522500Y-83000651D01*
X79475347Y-82763597D01*
X79382853Y-82540298D01*
X79248573Y-82339333D01*
X79077667Y-82168427D01*
X78876702Y-82034147D01*
X78653403Y-81941653D01*
X78416349Y-81894500D01*
X78174651Y-81894500D01*
X77937597Y-81941653D01*
X77714298Y-82034147D01*
X77513333Y-82168427D01*
X77342427Y-82339333D01*
X77208147Y-82540298D01*
X77115653Y-82763597D01*
X77068500Y-83000651D01*
X33232824Y-83000651D01*
X33232824Y-82398500D01*
X33225545Y-82324595D01*
X33203988Y-82253530D01*
X33168981Y-82188037D01*
X33121869Y-82130631D01*
X33064463Y-82083519D01*
X32998970Y-82048512D01*
X32927905Y-82026955D01*
X32854000Y-82019676D01*
X31154000Y-82019676D01*
X31080095Y-82026955D01*
X31009030Y-82048512D01*
X30943537Y-82083519D01*
X30886131Y-82130631D01*
X30839019Y-82188037D01*
X30804012Y-82253530D01*
X30782455Y-82324595D01*
X30775176Y-82398500D01*
X30349240Y-82398500D01*
X30246167Y-82295427D01*
X30045202Y-82161147D01*
X29821903Y-82068653D01*
X29584849Y-82021500D01*
X29343151Y-82021500D01*
X29106097Y-82068653D01*
X28882798Y-82161147D01*
X28681833Y-82295427D01*
X28510927Y-82466333D01*
X28376647Y-82667298D01*
X28284153Y-82890597D01*
X28237000Y-83127651D01*
X28151000Y-83127651D01*
X28103847Y-82890597D01*
X28011353Y-82667298D01*
X27877073Y-82466333D01*
X27706167Y-82295427D01*
X27505202Y-82161147D01*
X27281903Y-82068653D01*
X27044849Y-82021500D01*
X26803151Y-82021500D01*
X26566097Y-82068653D01*
X26342798Y-82161147D01*
X26141833Y-82295427D01*
X25970927Y-82466333D01*
X25836647Y-82667298D01*
X25744153Y-82890597D01*
X25697000Y-83127651D01*
X25697000Y-83369349D01*
X25744153Y-83606403D01*
X25836647Y-83829702D01*
X25970927Y-84030667D01*
X26141833Y-84201573D01*
X26342798Y-84335853D01*
X26453188Y-84381578D01*
X26419901Y-84391675D01*
X26157080Y-84516859D01*
X25923731Y-84690912D01*
X25728822Y-84907145D01*
X25579843Y-85157248D01*
X25482519Y-85431609D01*
X18948419Y-85431609D01*
X18948419Y-83243505D01*
X20142400Y-83243505D01*
X20142400Y-83583695D01*
X20208768Y-83917347D01*
X20338953Y-84231641D01*
X20527952Y-84514498D01*
X20768502Y-84755048D01*
X21051359Y-84944047D01*
X21365653Y-85074232D01*
X21699305Y-85140600D01*
X22039495Y-85140600D01*
X22373147Y-85074232D01*
X22687441Y-84944047D01*
X22970298Y-84755048D01*
X23210848Y-84514498D01*
X23399847Y-84231641D01*
X23530032Y-83917347D01*
X23596400Y-83583695D01*
X23596400Y-83243505D01*
X23530032Y-82909853D01*
X23399847Y-82595559D01*
X23210848Y-82312702D01*
X22970298Y-82072152D01*
X22687441Y-81883153D01*
X22373147Y-81752968D01*
X22039495Y-81686600D01*
X21699305Y-81686600D01*
X21365653Y-81752968D01*
X21051359Y-81883153D01*
X20768502Y-82072152D01*
X20527952Y-82312702D01*
X20338953Y-82595559D01*
X20208768Y-82909853D01*
X20142400Y-83243505D01*
X18948419Y-83243505D01*
X18948419Y-79525619D01*
X92791800Y-79525619D01*
X92791801Y-164369000D01*
%TA.AperFunction,Conductor*%
D19*
G36*
X92791801Y-164369000D02*
G01*
X18948419Y-164369000D01*
X18948419Y-160281705D01*
X20142400Y-160281705D01*
X20142400Y-160621895D01*
X20208768Y-160955547D01*
X20338953Y-161269841D01*
X20527952Y-161552698D01*
X20768502Y-161793248D01*
X21051359Y-161982247D01*
X21365653Y-162112432D01*
X21699305Y-162178800D01*
X22039495Y-162178800D01*
X22373147Y-162112432D01*
X22687441Y-161982247D01*
X22970298Y-161793248D01*
X23210848Y-161552698D01*
X23399847Y-161269841D01*
X23530032Y-160955547D01*
X23596400Y-160621895D01*
X23596400Y-160281705D01*
X88138200Y-160281705D01*
X88138200Y-160621895D01*
X88204568Y-160955547D01*
X88334753Y-161269841D01*
X88523752Y-161552698D01*
X88764302Y-161793248D01*
X89047159Y-161982247D01*
X89361453Y-162112432D01*
X89695105Y-162178800D01*
X90035295Y-162178800D01*
X90368947Y-162112432D01*
X90683241Y-161982247D01*
X90966098Y-161793248D01*
X91206648Y-161552698D01*
X91395647Y-161269841D01*
X91525832Y-160955547D01*
X91592200Y-160621895D01*
X91592200Y-160281705D01*
X91525832Y-159948053D01*
X91395647Y-159633759D01*
X91206648Y-159350902D01*
X90966098Y-159110352D01*
X90683241Y-158921353D01*
X90368947Y-158791168D01*
X90035295Y-158724800D01*
X89695105Y-158724800D01*
X89361453Y-158791168D01*
X89047159Y-158921353D01*
X88764302Y-159110352D01*
X88523752Y-159350902D01*
X88334753Y-159633759D01*
X88204568Y-159948053D01*
X88138200Y-160281705D01*
X23596400Y-160281705D01*
X23530032Y-159948053D01*
X23399847Y-159633759D01*
X23210848Y-159350902D01*
X22970298Y-159110352D01*
X22687441Y-158921353D01*
X22373147Y-158791168D01*
X22039495Y-158724800D01*
X21699305Y-158724800D01*
X21365653Y-158791168D01*
X21051359Y-158921353D01*
X20768502Y-159110352D01*
X20527952Y-159350902D01*
X20338953Y-159633759D01*
X20208768Y-159948053D01*
X20142400Y-160281705D01*
X18948419Y-160281705D01*
X18948419Y-156460413D01*
X29333692Y-156460413D01*
X29429456Y-156724814D01*
X29719071Y-156865704D01*
X30030608Y-156947384D01*
X30352095Y-156966718D01*
X30671175Y-156922961D01*
X30975588Y-156817795D01*
X31149544Y-156724814D01*
X31245308Y-156460413D01*
X30289500Y-155504605D01*
X29333692Y-156460413D01*
X18948419Y-156460413D01*
X18948419Y-155387595D01*
X28647782Y-155387595D01*
X28691539Y-155706675D01*
X28796705Y-156011088D01*
X28889686Y-156185044D01*
X29154087Y-156280808D01*
X30109895Y-155325000D01*
X29154087Y-154369192D01*
X28889686Y-154464956D01*
X28748796Y-154754571D01*
X28667116Y-155066108D01*
X28647782Y-155387595D01*
X18948419Y-155387595D01*
X18948419Y-152820000D01*
X23155176Y-152820000D01*
X23155176Y-154520000D01*
X23162455Y-154593905D01*
X23184012Y-154664970D01*
X23219019Y-154730463D01*
X23266131Y-154787869D01*
X23323537Y-154834981D01*
X23389030Y-154869988D01*
X23460095Y-154891545D01*
X23534000Y-154898824D01*
X25234000Y-154898824D01*
X25307905Y-154891545D01*
X25378970Y-154869988D01*
X25444463Y-154834981D01*
X25501869Y-154787869D01*
X25548981Y-154730463D01*
X25583988Y-154664970D01*
X25605545Y-154593905D01*
X25612824Y-154520000D01*
X25612824Y-152820000D01*
X25605545Y-152746095D01*
X25583988Y-152675030D01*
X25548981Y-152609537D01*
X25501869Y-152552131D01*
X25444463Y-152505019D01*
X25378970Y-152470012D01*
X25307905Y-152448455D01*
X25234000Y-152441176D01*
X23534000Y-152441176D01*
X23460095Y-152448455D01*
X23389030Y-152470012D01*
X23323537Y-152505019D01*
X23266131Y-152552131D01*
X23219019Y-152609537D01*
X23184012Y-152675030D01*
X23162455Y-152746095D01*
X23155176Y-152820000D01*
X18948419Y-152820000D01*
X18948419Y-151009151D01*
X23157000Y-151009151D01*
X23157000Y-151250849D01*
X23204153Y-151487903D01*
X23296647Y-151711202D01*
X23430927Y-151912167D01*
X23601833Y-152083073D01*
X23802798Y-152217353D01*
X24026097Y-152309847D01*
X24263151Y-152357000D01*
X24504849Y-152357000D01*
X24741903Y-152309847D01*
X24965202Y-152217353D01*
X25166167Y-152083073D01*
X25337073Y-151912167D01*
X25400328Y-151817498D01*
X28887676Y-151817498D01*
X28887676Y-153617502D01*
X28899759Y-153740179D01*
X28935542Y-153858142D01*
X28993652Y-153966857D01*
X29071854Y-154062146D01*
X29167143Y-154140348D01*
X29275858Y-154198458D01*
X29371608Y-154227503D01*
X30289500Y-155145395D01*
X30303643Y-155131253D01*
X30483248Y-155310858D01*
X30469105Y-155325000D01*
X31424913Y-156280808D01*
X31689314Y-156185044D01*
X31830204Y-155895429D01*
X31911884Y-155583892D01*
X31931218Y-155262405D01*
X31912425Y-155125358D01*
X55427500Y-155125358D01*
X55427500Y-155524642D01*
X55505396Y-155916254D01*
X55658196Y-156285145D01*
X55880026Y-156617137D01*
X56162363Y-156899474D01*
X56494355Y-157121304D01*
X56863246Y-157274104D01*
X57254858Y-157352000D01*
X57654142Y-157352000D01*
X58045754Y-157274104D01*
X58414645Y-157121304D01*
X58746637Y-156899474D01*
X59028974Y-156617137D01*
X59250804Y-156285145D01*
X59403604Y-155916254D01*
X59481500Y-155524642D01*
X59481500Y-155125358D01*
X59403604Y-154733746D01*
X59250804Y-154364855D01*
X59028974Y-154032863D01*
X58746637Y-153750526D01*
X58414645Y-153528696D01*
X58045754Y-153375896D01*
X57654142Y-153298000D01*
X57254858Y-153298000D01*
X56863246Y-153375896D01*
X56494355Y-153528696D01*
X56162363Y-153750526D01*
X55880026Y-154032863D01*
X55658196Y-154364855D01*
X55505396Y-154733746D01*
X55427500Y-155125358D01*
X31912425Y-155125358D01*
X31887461Y-154943325D01*
X31782295Y-154638912D01*
X31689314Y-154464956D01*
X31424915Y-154369193D01*
X31540583Y-154253525D01*
X31502186Y-154215128D01*
X31557142Y-154198458D01*
X31665857Y-154140348D01*
X31761146Y-154062146D01*
X31839348Y-153966857D01*
X31897458Y-153858142D01*
X31933241Y-153740179D01*
X31945324Y-153617502D01*
X31945324Y-151817498D01*
X88958676Y-151817498D01*
X88958676Y-153617502D01*
X88970759Y-153740179D01*
X89006542Y-153858142D01*
X89064652Y-153966857D01*
X89142854Y-154062146D01*
X89238143Y-154140348D01*
X89346858Y-154198458D01*
X89464821Y-154234241D01*
X89587498Y-154246324D01*
X91387502Y-154246324D01*
X91510179Y-154234241D01*
X91628142Y-154198458D01*
X91736857Y-154140348D01*
X91832146Y-154062146D01*
X91910348Y-153966857D01*
X91968458Y-153858142D01*
X92004241Y-153740179D01*
X92016324Y-153617502D01*
X92016324Y-151817498D01*
X92004241Y-151694821D01*
X91968458Y-151576858D01*
X91910348Y-151468143D01*
X91832146Y-151372854D01*
X91736857Y-151294652D01*
X91628142Y-151236542D01*
X91510179Y-151200759D01*
X91387502Y-151188676D01*
X89587498Y-151188676D01*
X89464821Y-151200759D01*
X89346858Y-151236542D01*
X89238143Y-151294652D01*
X89142854Y-151372854D01*
X89064652Y-151468143D01*
X89006542Y-151576858D01*
X88970759Y-151694821D01*
X88958676Y-151817498D01*
X31945324Y-151817498D01*
X31933241Y-151694821D01*
X31897458Y-151576858D01*
X31839348Y-151468143D01*
X31761146Y-151372854D01*
X31665857Y-151294652D01*
X31557142Y-151236542D01*
X31439179Y-151200759D01*
X31316502Y-151188676D01*
X29516498Y-151188676D01*
X29393821Y-151200759D01*
X29275858Y-151236542D01*
X29167143Y-151294652D01*
X29071854Y-151372854D01*
X28993652Y-151468143D01*
X28935542Y-151576858D01*
X28899759Y-151694821D01*
X28887676Y-151817498D01*
X25400328Y-151817498D01*
X25471353Y-151711202D01*
X25563847Y-151487903D01*
X25611000Y-151250849D01*
X25611000Y-151009151D01*
X25563847Y-150772097D01*
X25471353Y-150548798D01*
X25337073Y-150347833D01*
X25166167Y-150176927D01*
X24965202Y-150042647D01*
X24741903Y-149950153D01*
X24504849Y-149903000D01*
X24263151Y-149903000D01*
X24026097Y-149950153D01*
X23802798Y-150042647D01*
X23601833Y-150176927D01*
X23430927Y-150347833D01*
X23296647Y-150548798D01*
X23204153Y-150772097D01*
X23157000Y-151009151D01*
X18948419Y-151009151D01*
X18948419Y-139335000D01*
X28910676Y-139335000D01*
X28910676Y-141335000D01*
X28917955Y-141408905D01*
X28939512Y-141479970D01*
X28974519Y-141545463D01*
X29021631Y-141602869D01*
X29079037Y-141649981D01*
X29144530Y-141684988D01*
X29215595Y-141706545D01*
X29289500Y-141713824D01*
X31289500Y-141713824D01*
X31363405Y-141706545D01*
X31434470Y-141684988D01*
X31499963Y-141649981D01*
X31557369Y-141602869D01*
X31604481Y-141545463D01*
X31639488Y-141479970D01*
X31661045Y-141408905D01*
X31668324Y-141335000D01*
X31668324Y-140135358D01*
X55427500Y-140135358D01*
X55427500Y-140534642D01*
X55505396Y-140926254D01*
X55658196Y-141295145D01*
X55880026Y-141627137D01*
X56162363Y-141909474D01*
X56494355Y-142131304D01*
X56863246Y-142284104D01*
X57254858Y-142362000D01*
X57654142Y-142362000D01*
X58045754Y-142284104D01*
X58414645Y-142131304D01*
X58746637Y-141909474D01*
X59028974Y-141627137D01*
X59250804Y-141295145D01*
X59403604Y-140926254D01*
X59481500Y-140534642D01*
X59481500Y-140135358D01*
X59403604Y-139743746D01*
X59250804Y-139374855D01*
X59028974Y-139042863D01*
X58746637Y-138760526D01*
X58414645Y-138538696D01*
X58045754Y-138385896D01*
X57654142Y-138308000D01*
X57254858Y-138308000D01*
X56863246Y-138385896D01*
X56494355Y-138538696D01*
X56162363Y-138760526D01*
X55880026Y-139042863D01*
X55658196Y-139374855D01*
X55505396Y-139743746D01*
X55427500Y-140135358D01*
X31668324Y-140135358D01*
X31668324Y-139335000D01*
X31661045Y-139261095D01*
X31639488Y-139190030D01*
X31604481Y-139124537D01*
X31557369Y-139067131D01*
X31499963Y-139020019D01*
X31434470Y-138985012D01*
X31363405Y-138963455D01*
X31289500Y-138956176D01*
X29289500Y-138956176D01*
X29215595Y-138963455D01*
X29144530Y-138985012D01*
X29079037Y-139020019D01*
X29021631Y-139067131D01*
X28974519Y-139124537D01*
X28939512Y-139190030D01*
X28917955Y-139261095D01*
X28910676Y-139335000D01*
X18948419Y-139335000D01*
X18948419Y-135815498D01*
X28887676Y-135815498D01*
X28887676Y-137615502D01*
X28899759Y-137738179D01*
X28935542Y-137856142D01*
X28993652Y-137964857D01*
X29071854Y-138060146D01*
X29167143Y-138138348D01*
X29275858Y-138196458D01*
X29393821Y-138232241D01*
X29516498Y-138244324D01*
X31316502Y-138244324D01*
X31439179Y-138232241D01*
X31557142Y-138196458D01*
X31665857Y-138138348D01*
X31761146Y-138060146D01*
X31839348Y-137964857D01*
X31892455Y-137865500D01*
X88699428Y-137865500D01*
X88711688Y-137989982D01*
X88747998Y-138109680D01*
X88806963Y-138219994D01*
X88886315Y-138316685D01*
X88983006Y-138396037D01*
X89093320Y-138455002D01*
X89213018Y-138491312D01*
X89337500Y-138503572D01*
X90201750Y-138500500D01*
X90360500Y-138341750D01*
X90360500Y-136842500D01*
X90614500Y-136842500D01*
X90614500Y-138341750D01*
X90773250Y-138500500D01*
X91637500Y-138503572D01*
X91761982Y-138491312D01*
X91881680Y-138455002D01*
X91991994Y-138396037D01*
X92088685Y-138316685D01*
X92168037Y-138219994D01*
X92227002Y-138109680D01*
X92263312Y-137989982D01*
X92275572Y-137865500D01*
X92272500Y-137001250D01*
X92113750Y-136842500D01*
X90614500Y-136842500D01*
X90360500Y-136842500D01*
X88861250Y-136842500D01*
X88702500Y-137001250D01*
X88699428Y-137865500D01*
X31892455Y-137865500D01*
X31897458Y-137856142D01*
X31933241Y-137738179D01*
X31945324Y-137615502D01*
X31945324Y-135815498D01*
X31933241Y-135692821D01*
X31897458Y-135574858D01*
X31892456Y-135565500D01*
X88699428Y-135565500D01*
X88702500Y-136429750D01*
X88861250Y-136588500D01*
X90360500Y-136588500D01*
X90360500Y-135089250D01*
X90614500Y-135089250D01*
X90614500Y-136588500D01*
X92113750Y-136588500D01*
X92272500Y-136429750D01*
X92275572Y-135565500D01*
X92263312Y-135441018D01*
X92227002Y-135321320D01*
X92168037Y-135211006D01*
X92088685Y-135114315D01*
X91991994Y-135034963D01*
X91881680Y-134975998D01*
X91761982Y-134939688D01*
X91637500Y-134927428D01*
X90773250Y-134930500D01*
X90614500Y-135089250D01*
X90360500Y-135089250D01*
X90201750Y-134930500D01*
X89337500Y-134927428D01*
X89213018Y-134939688D01*
X89093320Y-134975998D01*
X88983006Y-135034963D01*
X88886315Y-135114315D01*
X88806963Y-135211006D01*
X88747998Y-135321320D01*
X88711688Y-135441018D01*
X88699428Y-135565500D01*
X31892456Y-135565500D01*
X31839348Y-135466143D01*
X31761146Y-135370854D01*
X31665857Y-135292652D01*
X31557142Y-135234542D01*
X31439179Y-135198759D01*
X31316502Y-135186676D01*
X29516498Y-135186676D01*
X29393821Y-135198759D01*
X29275858Y-135234542D01*
X29167143Y-135292652D01*
X29071854Y-135370854D01*
X28993652Y-135466143D01*
X28935542Y-135574858D01*
X28899759Y-135692821D01*
X28887676Y-135815498D01*
X18948419Y-135815498D01*
X18948419Y-128245500D01*
X26901676Y-128245500D01*
X26901676Y-129945500D01*
X26908955Y-130019405D01*
X26930512Y-130090470D01*
X26965519Y-130155963D01*
X27012631Y-130213369D01*
X27070037Y-130260481D01*
X27135530Y-130295488D01*
X27206595Y-130317045D01*
X27280500Y-130324324D01*
X28980500Y-130324324D01*
X29054405Y-130317045D01*
X29125470Y-130295488D01*
X29190963Y-130260481D01*
X29248369Y-130213369D01*
X29295481Y-130155963D01*
X29330488Y-130090470D01*
X29352045Y-130019405D01*
X29359324Y-129945500D01*
X29359324Y-128974651D01*
X29443500Y-128974651D01*
X29443500Y-129216349D01*
X29490653Y-129453403D01*
X29583147Y-129676702D01*
X29717427Y-129877667D01*
X29888333Y-130048573D01*
X30089298Y-130182853D01*
X30312597Y-130275347D01*
X30549651Y-130322500D01*
X30791349Y-130322500D01*
X31028403Y-130275347D01*
X31251702Y-130182853D01*
X31452667Y-130048573D01*
X31623573Y-129877667D01*
X31757853Y-129676702D01*
X31850347Y-129453403D01*
X31897500Y-129216349D01*
X31897500Y-128974651D01*
X31983500Y-128974651D01*
X31983500Y-129216349D01*
X32030653Y-129453403D01*
X32123147Y-129676702D01*
X32257427Y-129877667D01*
X32428333Y-130048573D01*
X32629298Y-130182853D01*
X32852597Y-130275347D01*
X33089651Y-130322500D01*
X33331349Y-130322500D01*
X33568403Y-130275347D01*
X33791702Y-130182853D01*
X33992667Y-130048573D01*
X34163573Y-129877667D01*
X34297853Y-129676702D01*
X34390347Y-129453403D01*
X34437500Y-129216349D01*
X34437500Y-128974651D01*
X34523500Y-128974651D01*
X34523500Y-129216349D01*
X34570653Y-129453403D01*
X34663147Y-129676702D01*
X34797427Y-129877667D01*
X34968333Y-130048573D01*
X35169298Y-130182853D01*
X35392597Y-130275347D01*
X35629651Y-130322500D01*
X35871349Y-130322500D01*
X36108403Y-130275347D01*
X36331702Y-130182853D01*
X36532667Y-130048573D01*
X36703573Y-129877667D01*
X36837853Y-129676702D01*
X36930347Y-129453403D01*
X36977500Y-129216349D01*
X36977500Y-128974651D01*
X37063500Y-128974651D01*
X37063500Y-129216349D01*
X37110653Y-129453403D01*
X37203147Y-129676702D01*
X37337427Y-129877667D01*
X37508333Y-130048573D01*
X37709298Y-130182853D01*
X37932597Y-130275347D01*
X38169651Y-130322500D01*
X38411349Y-130322500D01*
X38648403Y-130275347D01*
X38871702Y-130182853D01*
X39072667Y-130048573D01*
X39243573Y-129877667D01*
X39377853Y-129676702D01*
X39426731Y-129558702D01*
X39486343Y-129726752D01*
X39635322Y-129976855D01*
X39830231Y-130193088D01*
X40063580Y-130367141D01*
X40326401Y-130492325D01*
X40473610Y-130536976D01*
X40703500Y-130415655D01*
X40703500Y-129222500D01*
X40957500Y-129222500D01*
X40957500Y-130415655D01*
X41187390Y-130536976D01*
X41334599Y-130492325D01*
X41597420Y-130367141D01*
X41830769Y-130193088D01*
X42025678Y-129976855D01*
X42174657Y-129726752D01*
X42271981Y-129452391D01*
X42151314Y-129222500D01*
X40957500Y-129222500D01*
X40703500Y-129222500D01*
X40683500Y-129222500D01*
X40683500Y-128968500D01*
X40703500Y-128968500D01*
X40703500Y-127775345D01*
X40957500Y-127775345D01*
X40957500Y-128968500D01*
X42151314Y-128968500D01*
X42271981Y-128738609D01*
X42174657Y-128464248D01*
X42025678Y-128214145D01*
X41830769Y-127997912D01*
X41597420Y-127823859D01*
X41334599Y-127698675D01*
X41187390Y-127654024D01*
X40957500Y-127775345D01*
X40703500Y-127775345D01*
X40473610Y-127654024D01*
X40326401Y-127698675D01*
X40063580Y-127823859D01*
X39830231Y-127997912D01*
X39635322Y-128214145D01*
X39486343Y-128464248D01*
X39426731Y-128632298D01*
X39377853Y-128514298D01*
X39243573Y-128313333D01*
X39072667Y-128142427D01*
X38871702Y-128008147D01*
X38648403Y-127915653D01*
X38411349Y-127868500D01*
X38169651Y-127868500D01*
X37932597Y-127915653D01*
X37709298Y-128008147D01*
X37508333Y-128142427D01*
X37337427Y-128313333D01*
X37203147Y-128514298D01*
X37110653Y-128737597D01*
X37063500Y-128974651D01*
X36977500Y-128974651D01*
X36930347Y-128737597D01*
X36837853Y-128514298D01*
X36703573Y-128313333D01*
X36532667Y-128142427D01*
X36331702Y-128008147D01*
X36108403Y-127915653D01*
X35871349Y-127868500D01*
X35629651Y-127868500D01*
X35392597Y-127915653D01*
X35169298Y-128008147D01*
X34968333Y-128142427D01*
X34797427Y-128313333D01*
X34663147Y-128514298D01*
X34570653Y-128737597D01*
X34523500Y-128974651D01*
X34437500Y-128974651D01*
X34390347Y-128737597D01*
X34297853Y-128514298D01*
X34163573Y-128313333D01*
X33992667Y-128142427D01*
X33791702Y-128008147D01*
X33568403Y-127915653D01*
X33331349Y-127868500D01*
X33089651Y-127868500D01*
X32852597Y-127915653D01*
X32629298Y-128008147D01*
X32428333Y-128142427D01*
X32257427Y-128313333D01*
X32123147Y-128514298D01*
X32030653Y-128737597D01*
X31983500Y-128974651D01*
X31897500Y-128974651D01*
X31850347Y-128737597D01*
X31757853Y-128514298D01*
X31623573Y-128313333D01*
X31452667Y-128142427D01*
X31251702Y-128008147D01*
X31028403Y-127915653D01*
X30791349Y-127868500D01*
X30549651Y-127868500D01*
X30312597Y-127915653D01*
X30089298Y-128008147D01*
X29888333Y-128142427D01*
X29717427Y-128313333D01*
X29583147Y-128514298D01*
X29490653Y-128737597D01*
X29443500Y-128974651D01*
X29359324Y-128974651D01*
X29359324Y-128245500D01*
X29352045Y-128171595D01*
X29330488Y-128100530D01*
X29295481Y-128035037D01*
X29248369Y-127977631D01*
X29190963Y-127930519D01*
X29125470Y-127895512D01*
X29054405Y-127873955D01*
X28980500Y-127866676D01*
X27280500Y-127866676D01*
X27206595Y-127873955D01*
X27135530Y-127895512D01*
X27070037Y-127930519D01*
X27012631Y-127977631D01*
X26965519Y-128035037D01*
X26930512Y-128100530D01*
X26908955Y-128171595D01*
X26901676Y-128245500D01*
X18948419Y-128245500D01*
X18948419Y-127651000D01*
X42796693Y-127651000D01*
X42799000Y-127674423D01*
X42799001Y-130627567D01*
X42796693Y-130651000D01*
X42805903Y-130744508D01*
X42833178Y-130834423D01*
X42877471Y-130917289D01*
X42937079Y-130989921D01*
X43009711Y-131049529D01*
X43092577Y-131093822D01*
X43182492Y-131121097D01*
X43252577Y-131128000D01*
X43252578Y-131128000D01*
X43276000Y-131130307D01*
X43299423Y-131128000D01*
X67802577Y-131128000D01*
X67826000Y-131130307D01*
X67849422Y-131128000D01*
X67849423Y-131128000D01*
X67919508Y-131121097D01*
X68009423Y-131093822D01*
X68092289Y-131049529D01*
X68164921Y-130989921D01*
X68224529Y-130917289D01*
X68268822Y-130834423D01*
X68296097Y-130744508D01*
X68305307Y-130651000D01*
X68303000Y-130627577D01*
X68303000Y-127674423D01*
X68305307Y-127651000D01*
X68296097Y-127557492D01*
X68268822Y-127467577D01*
X68224529Y-127384711D01*
X68164921Y-127312079D01*
X68092289Y-127252471D01*
X68009423Y-127208178D01*
X67919508Y-127180903D01*
X67849423Y-127174000D01*
X67826000Y-127171693D01*
X67802578Y-127174000D01*
X43299422Y-127174000D01*
X43276000Y-127171693D01*
X43252577Y-127174000D01*
X43182492Y-127180903D01*
X43092577Y-127208178D01*
X43009711Y-127252471D01*
X42937079Y-127312079D01*
X42877471Y-127384711D01*
X42833178Y-127467577D01*
X42805903Y-127557492D01*
X42796693Y-127651000D01*
X18948419Y-127651000D01*
X18948419Y-125388391D01*
X76854019Y-125388391D01*
X76951343Y-125662752D01*
X77100322Y-125912855D01*
X77295231Y-126129088D01*
X77528580Y-126303141D01*
X77791401Y-126428325D01*
X77938610Y-126472976D01*
X78168500Y-126351655D01*
X78168500Y-125158500D01*
X76974686Y-125158500D01*
X76854019Y-125388391D01*
X18948419Y-125388391D01*
X18948419Y-124674609D01*
X76854019Y-124674609D01*
X76974686Y-124904500D01*
X78168500Y-124904500D01*
X78168500Y-123711345D01*
X78422500Y-123711345D01*
X78422500Y-124904500D01*
X78442500Y-124904500D01*
X78442500Y-125158500D01*
X78422500Y-125158500D01*
X78422500Y-126351655D01*
X78652390Y-126472976D01*
X78799599Y-126428325D01*
X79062420Y-126303141D01*
X79295769Y-126129088D01*
X79490678Y-125912855D01*
X79639657Y-125662752D01*
X79699269Y-125494702D01*
X79748147Y-125612702D01*
X79882427Y-125813667D01*
X80053333Y-125984573D01*
X80254298Y-126118853D01*
X80477597Y-126211347D01*
X80714651Y-126258500D01*
X80956349Y-126258500D01*
X81193403Y-126211347D01*
X81416702Y-126118853D01*
X81617667Y-125984573D01*
X81788573Y-125813667D01*
X81922853Y-125612702D01*
X82015347Y-125389403D01*
X82062500Y-125152349D01*
X82062500Y-124910651D01*
X82015347Y-124673597D01*
X81922853Y-124450298D01*
X81788573Y-124249333D01*
X81720740Y-124181500D01*
X82146676Y-124181500D01*
X82146676Y-125881500D01*
X82153955Y-125955405D01*
X82175512Y-126026470D01*
X82210519Y-126091963D01*
X82257631Y-126149369D01*
X82315037Y-126196481D01*
X82380530Y-126231488D01*
X82451595Y-126253045D01*
X82525500Y-126260324D01*
X84225500Y-126260324D01*
X84299405Y-126253045D01*
X84370470Y-126231488D01*
X84435963Y-126196481D01*
X84493369Y-126149369D01*
X84540481Y-126091963D01*
X84575488Y-126026470D01*
X84597045Y-125955405D01*
X84604324Y-125881500D01*
X84604324Y-124181500D01*
X84597045Y-124107595D01*
X84575488Y-124036530D01*
X84540481Y-123971037D01*
X84493369Y-123913631D01*
X84435963Y-123866519D01*
X84370470Y-123831512D01*
X84299405Y-123809955D01*
X84225500Y-123802676D01*
X82525500Y-123802676D01*
X82451595Y-123809955D01*
X82380530Y-123831512D01*
X82315037Y-123866519D01*
X82257631Y-123913631D01*
X82210519Y-123971037D01*
X82175512Y-124036530D01*
X82153955Y-124107595D01*
X82146676Y-124181500D01*
X81720740Y-124181500D01*
X81617667Y-124078427D01*
X81416702Y-123944147D01*
X81193403Y-123851653D01*
X80956349Y-123804500D01*
X80714651Y-123804500D01*
X80477597Y-123851653D01*
X80254298Y-123944147D01*
X80053333Y-124078427D01*
X79882427Y-124249333D01*
X79748147Y-124450298D01*
X79699269Y-124568298D01*
X79639657Y-124400248D01*
X79490678Y-124150145D01*
X79295769Y-123933912D01*
X79062420Y-123759859D01*
X78799599Y-123634675D01*
X78652390Y-123590024D01*
X78422500Y-123711345D01*
X78168500Y-123711345D01*
X77938610Y-123590024D01*
X77791401Y-123634675D01*
X77528580Y-123759859D01*
X77295231Y-123933912D01*
X77100322Y-124150145D01*
X76951343Y-124400248D01*
X76854019Y-124674609D01*
X18948419Y-124674609D01*
X18948419Y-119757821D01*
X41614000Y-119757821D01*
X41614000Y-119891179D01*
X41640016Y-120021974D01*
X41691050Y-120145180D01*
X41765140Y-120256063D01*
X41859437Y-120350360D01*
X41970320Y-120424450D01*
X42093526Y-120475484D01*
X42224321Y-120501500D01*
X42357679Y-120501500D01*
X42488474Y-120475484D01*
X42611680Y-120424450D01*
X42720857Y-120351500D01*
X44273577Y-120351500D01*
X44335937Y-120413860D01*
X44446820Y-120487950D01*
X44570026Y-120538984D01*
X44700821Y-120565000D01*
X44834179Y-120565000D01*
X44964974Y-120538984D01*
X45088180Y-120487950D01*
X45199063Y-120413860D01*
X45293360Y-120319563D01*
X45367450Y-120208680D01*
X45418484Y-120085474D01*
X45444500Y-119954679D01*
X45444500Y-119821321D01*
X45418484Y-119690526D01*
X45367450Y-119567320D01*
X45293360Y-119456437D01*
X45199063Y-119362140D01*
X45088180Y-119288050D01*
X44964974Y-119237016D01*
X44834179Y-119211000D01*
X44700821Y-119211000D01*
X44570026Y-119237016D01*
X44446820Y-119288050D01*
X44432677Y-119297500D01*
X42720857Y-119297500D01*
X42611680Y-119224550D01*
X42488474Y-119173516D01*
X42357679Y-119147500D01*
X42224321Y-119147500D01*
X42093526Y-119173516D01*
X41970320Y-119224550D01*
X41859437Y-119298640D01*
X41765140Y-119392937D01*
X41691050Y-119503820D01*
X41640016Y-119627026D01*
X41614000Y-119757821D01*
X18948419Y-119757821D01*
X18948419Y-111566321D01*
X26374000Y-111566321D01*
X26374000Y-111699679D01*
X26400016Y-111830474D01*
X26451050Y-111953680D01*
X26525140Y-112064563D01*
X26619437Y-112158860D01*
X26730320Y-112232950D01*
X26853526Y-112283984D01*
X26984321Y-112310000D01*
X27117679Y-112310000D01*
X27248474Y-112283984D01*
X27371680Y-112232950D01*
X27482563Y-112158860D01*
X27501850Y-112139573D01*
X27533837Y-112171560D01*
X27644720Y-112245650D01*
X27767926Y-112296684D01*
X27898721Y-112322700D01*
X28032079Y-112322700D01*
X28162874Y-112296684D01*
X28286080Y-112245650D01*
X28396963Y-112171560D01*
X28413311Y-112155212D01*
X28438948Y-112180849D01*
X28549831Y-112254939D01*
X28673037Y-112305973D01*
X28803832Y-112331989D01*
X28937190Y-112331989D01*
X29067985Y-112305973D01*
X29191191Y-112254939D01*
X29302074Y-112180849D01*
X29396371Y-112086552D01*
X29470461Y-111975669D01*
X29521495Y-111852463D01*
X29547511Y-111721668D01*
X29547511Y-111588310D01*
X29521495Y-111457515D01*
X29470461Y-111334309D01*
X29396371Y-111223426D01*
X29322511Y-111149566D01*
X29322511Y-110127720D01*
X29997724Y-109452508D01*
X30102179Y-109452508D01*
X30232974Y-109426492D01*
X30356180Y-109375458D01*
X30467063Y-109301368D01*
X30551610Y-109216821D01*
X41487000Y-109216821D01*
X41487000Y-109350179D01*
X41513016Y-109480974D01*
X41564050Y-109604180D01*
X41638140Y-109715063D01*
X41732437Y-109809360D01*
X41843320Y-109883450D01*
X41966526Y-109934484D01*
X42097321Y-109960500D01*
X42230679Y-109960500D01*
X42361474Y-109934484D01*
X42484680Y-109883450D01*
X42595008Y-109809731D01*
X42763671Y-109978394D01*
X42710153Y-110107597D01*
X42663000Y-110344651D01*
X42663000Y-110586349D01*
X42710153Y-110823403D01*
X42802647Y-111046702D01*
X42936927Y-111247667D01*
X43107833Y-111418573D01*
X43308798Y-111552853D01*
X43532097Y-111645347D01*
X43769151Y-111692500D01*
X44010849Y-111692500D01*
X44247903Y-111645347D01*
X44471202Y-111552853D01*
X44672167Y-111418573D01*
X44843073Y-111247667D01*
X44977353Y-111046702D01*
X45069847Y-110823403D01*
X45117000Y-110586349D01*
X45117000Y-110344651D01*
X45069847Y-110107597D01*
X44977353Y-109884298D01*
X44843073Y-109683333D01*
X44672167Y-109512427D01*
X44471202Y-109378147D01*
X44247903Y-109285653D01*
X44010849Y-109238500D01*
X43769151Y-109238500D01*
X43532097Y-109285653D01*
X43402894Y-109339171D01*
X43043323Y-108979600D01*
X43029159Y-108962341D01*
X42960333Y-108905857D01*
X42881810Y-108863886D01*
X42796607Y-108838040D01*
X42730205Y-108831500D01*
X42708000Y-108829313D01*
X42685795Y-108831500D01*
X42669423Y-108831500D01*
X42595563Y-108757640D01*
X42484680Y-108683550D01*
X42361474Y-108632516D01*
X42230679Y-108606500D01*
X42097321Y-108606500D01*
X41966526Y-108632516D01*
X41843320Y-108683550D01*
X41732437Y-108757640D01*
X41638140Y-108851937D01*
X41564050Y-108962820D01*
X41513016Y-109086026D01*
X41487000Y-109216821D01*
X30551610Y-109216821D01*
X30561360Y-109207071D01*
X30635450Y-109096188D01*
X30686484Y-108972982D01*
X30712500Y-108842187D01*
X30712500Y-108708829D01*
X30686484Y-108578034D01*
X30635450Y-108454828D01*
X30561360Y-108343945D01*
X30467063Y-108249648D01*
X30356180Y-108175558D01*
X30232974Y-108124524D01*
X30102179Y-108098508D01*
X29968821Y-108098508D01*
X29838026Y-108124524D01*
X29714820Y-108175558D01*
X29603937Y-108249648D01*
X29509640Y-108343945D01*
X29495753Y-108364729D01*
X29481860Y-108343937D01*
X29387563Y-108249640D01*
X29276680Y-108175550D01*
X29153474Y-108124516D01*
X29022679Y-108098500D01*
X28889321Y-108098500D01*
X28758526Y-108124516D01*
X28635320Y-108175550D01*
X28524437Y-108249640D01*
X28430140Y-108343937D01*
X28416251Y-108364724D01*
X28402361Y-108343936D01*
X28308064Y-108249639D01*
X28197181Y-108175549D01*
X28073975Y-108124515D01*
X27943180Y-108098499D01*
X27809822Y-108098499D01*
X27679027Y-108124515D01*
X27555821Y-108175549D01*
X27444938Y-108249639D01*
X27350641Y-108343936D01*
X27276551Y-108454819D01*
X27225517Y-108578025D01*
X27199501Y-108708820D01*
X27199501Y-108813275D01*
X26747096Y-109265681D01*
X26729842Y-109279841D01*
X26675148Y-109346486D01*
X26673358Y-109348667D01*
X26631386Y-109427191D01*
X26605540Y-109512393D01*
X26596813Y-109601000D01*
X26599001Y-109623215D01*
X26599000Y-111127577D01*
X26525140Y-111201437D01*
X26451050Y-111312320D01*
X26400016Y-111435526D01*
X26374000Y-111566321D01*
X18948419Y-111566321D01*
X18948419Y-108013821D01*
X38184998Y-108013821D01*
X38184998Y-108147179D01*
X38211014Y-108277974D01*
X38262048Y-108401180D01*
X38336138Y-108512063D01*
X38430435Y-108606360D01*
X38541318Y-108680450D01*
X38664524Y-108731484D01*
X38795319Y-108757500D01*
X38928677Y-108757500D01*
X39059472Y-108731484D01*
X39182678Y-108680450D01*
X39202050Y-108667506D01*
X40382188Y-108667506D01*
X40491365Y-108740456D01*
X40614571Y-108791490D01*
X40745366Y-108817506D01*
X40878724Y-108817506D01*
X41009519Y-108791490D01*
X41132725Y-108740456D01*
X41243608Y-108666366D01*
X41337905Y-108572069D01*
X41411995Y-108461186D01*
X41463029Y-108337980D01*
X41489045Y-108207185D01*
X41489045Y-108073827D01*
X41463029Y-107943032D01*
X41411995Y-107819826D01*
X41411992Y-107819821D01*
X41546190Y-107819821D01*
X41546190Y-107953179D01*
X41572206Y-108083974D01*
X41623240Y-108207180D01*
X41697330Y-108318063D01*
X41791627Y-108412360D01*
X41902510Y-108486450D01*
X42025716Y-108537484D01*
X42156511Y-108563500D01*
X42289869Y-108563500D01*
X42420664Y-108537484D01*
X42543870Y-108486450D01*
X42654753Y-108412360D01*
X42689613Y-108377500D01*
X42749129Y-108377500D01*
X42802647Y-108506702D01*
X42936927Y-108707667D01*
X43107833Y-108878573D01*
X43308798Y-109012853D01*
X43532097Y-109105347D01*
X43769151Y-109152500D01*
X44010849Y-109152500D01*
X44247903Y-109105347D01*
X44471202Y-109012853D01*
X44672167Y-108878573D01*
X44843073Y-108707667D01*
X44977353Y-108506702D01*
X45023078Y-108396312D01*
X45033175Y-108429599D01*
X45158359Y-108692420D01*
X45332412Y-108925769D01*
X45548645Y-109120678D01*
X45743380Y-109236676D01*
X45580000Y-109236676D01*
X45506095Y-109243955D01*
X45435030Y-109265512D01*
X45369537Y-109300519D01*
X45312131Y-109347631D01*
X45265019Y-109405037D01*
X45230012Y-109470530D01*
X45208455Y-109541595D01*
X45201176Y-109615500D01*
X45201176Y-111315500D01*
X45208455Y-111389405D01*
X45230012Y-111460470D01*
X45265019Y-111525963D01*
X45312131Y-111583369D01*
X45369537Y-111630481D01*
X45435030Y-111665488D01*
X45506095Y-111687045D01*
X45580000Y-111694324D01*
X47280000Y-111694324D01*
X47353905Y-111687045D01*
X47424970Y-111665488D01*
X47490463Y-111630481D01*
X47547869Y-111583369D01*
X47594981Y-111525963D01*
X47629988Y-111460470D01*
X47651545Y-111389405D01*
X47658824Y-111315500D01*
X47658824Y-109615500D01*
X47651545Y-109541595D01*
X47629988Y-109470530D01*
X47594981Y-109405037D01*
X47547869Y-109347631D01*
X47490463Y-109300519D01*
X47424970Y-109265512D01*
X47353905Y-109243955D01*
X47280000Y-109236676D01*
X47116620Y-109236676D01*
X47311355Y-109120678D01*
X47527588Y-108925769D01*
X47701641Y-108692420D01*
X47826825Y-108429599D01*
X47871476Y-108282390D01*
X47750155Y-108052500D01*
X46557000Y-108052500D01*
X46557000Y-108072500D01*
X46303000Y-108072500D01*
X46303000Y-108052500D01*
X46283000Y-108052500D01*
X46283000Y-107798500D01*
X46303000Y-107798500D01*
X46303000Y-107778500D01*
X46557000Y-107778500D01*
X46557000Y-107798500D01*
X47750155Y-107798500D01*
X47871476Y-107568610D01*
X47826825Y-107421401D01*
X47701641Y-107158580D01*
X47527588Y-106925231D01*
X47311355Y-106730322D01*
X47061252Y-106581343D01*
X46893202Y-106521731D01*
X47011202Y-106472853D01*
X47212167Y-106338573D01*
X47383073Y-106167667D01*
X47517353Y-105966702D01*
X47609847Y-105743403D01*
X47657000Y-105506349D01*
X47657000Y-105264651D01*
X47609847Y-105027597D01*
X47517353Y-104804298D01*
X47383073Y-104603333D01*
X47212167Y-104432427D01*
X47011202Y-104298147D01*
X46787903Y-104205653D01*
X46550849Y-104158500D01*
X46309151Y-104158500D01*
X46072097Y-104205653D01*
X45848798Y-104298147D01*
X45647833Y-104432427D01*
X45476927Y-104603333D01*
X45342647Y-104804298D01*
X45250153Y-105027597D01*
X45203000Y-105264651D01*
X45203000Y-105506349D01*
X45250153Y-105743403D01*
X45342647Y-105966702D01*
X45476927Y-106167667D01*
X45647833Y-106338573D01*
X45848798Y-106472853D01*
X45966798Y-106521731D01*
X45798748Y-106581343D01*
X45548645Y-106730322D01*
X45332412Y-106925231D01*
X45158359Y-107158580D01*
X45033175Y-107421401D01*
X45023078Y-107454688D01*
X44977353Y-107344298D01*
X44843073Y-107143333D01*
X44672167Y-106972427D01*
X44471202Y-106838147D01*
X44247903Y-106745653D01*
X44010849Y-106698500D01*
X43769151Y-106698500D01*
X43532097Y-106745653D01*
X43308798Y-106838147D01*
X43107833Y-106972427D01*
X42936927Y-107143333D01*
X42802647Y-107344298D01*
X42753846Y-107462114D01*
X42749050Y-107454937D01*
X42654753Y-107360640D01*
X42543870Y-107286550D01*
X42420664Y-107235516D01*
X42289869Y-107209500D01*
X42156511Y-107209500D01*
X42025716Y-107235516D01*
X41902510Y-107286550D01*
X41791627Y-107360640D01*
X41697330Y-107454937D01*
X41623240Y-107565820D01*
X41572206Y-107689026D01*
X41546190Y-107819821D01*
X41411992Y-107819821D01*
X41337905Y-107708943D01*
X41243608Y-107614646D01*
X41132725Y-107540556D01*
X41009519Y-107489522D01*
X40878724Y-107463506D01*
X40745366Y-107463506D01*
X40614571Y-107489522D01*
X40491365Y-107540556D01*
X40382188Y-107613506D01*
X39352427Y-107613506D01*
X39293561Y-107554640D01*
X39182678Y-107480550D01*
X39059472Y-107429516D01*
X38928677Y-107403500D01*
X38795319Y-107403500D01*
X38664524Y-107429516D01*
X38541318Y-107480550D01*
X38430435Y-107554640D01*
X38336138Y-107648937D01*
X38262048Y-107759820D01*
X38211014Y-107883026D01*
X38184998Y-108013821D01*
X18948419Y-108013821D01*
X18948419Y-104869800D01*
X24572200Y-104869800D01*
X24572200Y-105269800D01*
X24620707Y-105508296D01*
X24714810Y-105732746D01*
X24850893Y-105934525D01*
X25023726Y-106105878D01*
X25226667Y-106240221D01*
X25451918Y-106332391D01*
X25489591Y-106336262D01*
X25680200Y-106211531D01*
X25680200Y-104869800D01*
X24572200Y-104869800D01*
X18948419Y-104869800D01*
X18948419Y-104215800D01*
X24572200Y-104215800D01*
X24572200Y-104615800D01*
X25680200Y-104615800D01*
X25680200Y-103274069D01*
X25934200Y-103274069D01*
X25934200Y-104615800D01*
X25954200Y-104615800D01*
X25954200Y-104869800D01*
X25934200Y-104869800D01*
X25934200Y-106211531D01*
X26124809Y-106336262D01*
X26162482Y-106332391D01*
X26387733Y-106240221D01*
X26590674Y-106105878D01*
X26763507Y-105934525D01*
X26899590Y-105732746D01*
X26950202Y-105612030D01*
X26990925Y-105688218D01*
X27113015Y-105836986D01*
X27261783Y-105959076D01*
X27431510Y-106049797D01*
X27615676Y-106105663D01*
X27807200Y-106124527D01*
X27998725Y-106105663D01*
X28182891Y-106049797D01*
X28352618Y-105959076D01*
X28501386Y-105836986D01*
X28623476Y-105688218D01*
X28714197Y-105518491D01*
X28770063Y-105334324D01*
X28784200Y-105190792D01*
X28784200Y-104294808D01*
X28830200Y-104294808D01*
X28830200Y-105190793D01*
X28844338Y-105334325D01*
X28900204Y-105518491D01*
X28990925Y-105688218D01*
X29113015Y-105836986D01*
X29261783Y-105959076D01*
X29431510Y-106049797D01*
X29615676Y-106105663D01*
X29807200Y-106124527D01*
X29998725Y-106105663D01*
X30182891Y-106049797D01*
X30352618Y-105959076D01*
X30501386Y-105836986D01*
X30623476Y-105688218D01*
X30714197Y-105518491D01*
X30770063Y-105334324D01*
X30784200Y-105190792D01*
X30784200Y-104294808D01*
X30830200Y-104294808D01*
X30830200Y-105190793D01*
X30844338Y-105334325D01*
X30900204Y-105518491D01*
X30990925Y-105688218D01*
X31113015Y-105836986D01*
X31261783Y-105959076D01*
X31431510Y-106049797D01*
X31615676Y-106105663D01*
X31807200Y-106124527D01*
X31998725Y-106105663D01*
X32182891Y-106049797D01*
X32352618Y-105959076D01*
X32501386Y-105836986D01*
X32623476Y-105688218D01*
X32714197Y-105518491D01*
X32770063Y-105334324D01*
X32784200Y-105190792D01*
X32784200Y-104294808D01*
X32830200Y-104294808D01*
X32830200Y-105190793D01*
X32844338Y-105334325D01*
X32900204Y-105518491D01*
X32990925Y-105688218D01*
X33113015Y-105836986D01*
X33261783Y-105959076D01*
X33431510Y-106049797D01*
X33615676Y-106105663D01*
X33807200Y-106124527D01*
X33998725Y-106105663D01*
X34182891Y-106049797D01*
X34352618Y-105959076D01*
X34501386Y-105836986D01*
X34623476Y-105688218D01*
X34714197Y-105518491D01*
X34770063Y-105334324D01*
X34784200Y-105190792D01*
X34784200Y-104294808D01*
X34830200Y-104294808D01*
X34830200Y-105190793D01*
X34844338Y-105334325D01*
X34900204Y-105518491D01*
X34990925Y-105688218D01*
X35113015Y-105836986D01*
X35261783Y-105959076D01*
X35431510Y-106049797D01*
X35615676Y-106105663D01*
X35807200Y-106124527D01*
X35998725Y-106105663D01*
X36182891Y-106049797D01*
X36352618Y-105959076D01*
X36501386Y-105836986D01*
X36623476Y-105688218D01*
X36714197Y-105518491D01*
X36770063Y-105334324D01*
X36784200Y-105190792D01*
X36784200Y-104294808D01*
X36830200Y-104294808D01*
X36830200Y-105190793D01*
X36844338Y-105334325D01*
X36900204Y-105518491D01*
X36990925Y-105688218D01*
X37113015Y-105836986D01*
X37261783Y-105959076D01*
X37431510Y-106049797D01*
X37615676Y-106105663D01*
X37807200Y-106124527D01*
X37998725Y-106105663D01*
X38182891Y-106049797D01*
X38352618Y-105959076D01*
X38501386Y-105836986D01*
X38623476Y-105688218D01*
X38664199Y-105612031D01*
X38714810Y-105732746D01*
X38850893Y-105934525D01*
X39023726Y-106105878D01*
X39226667Y-106240221D01*
X39451918Y-106332391D01*
X39489591Y-106336262D01*
X39680200Y-106211531D01*
X39680200Y-104869800D01*
X39934200Y-104869800D01*
X39934200Y-106211531D01*
X40124809Y-106336262D01*
X40162482Y-106332391D01*
X40387733Y-106240221D01*
X40590674Y-106105878D01*
X40763507Y-105934525D01*
X40899590Y-105732746D01*
X40993693Y-105508296D01*
X41042200Y-105269800D01*
X41042200Y-105264651D01*
X42663000Y-105264651D01*
X42663000Y-105506349D01*
X42710153Y-105743403D01*
X42802647Y-105966702D01*
X42936927Y-106167667D01*
X43107833Y-106338573D01*
X43308798Y-106472853D01*
X43532097Y-106565347D01*
X43769151Y-106612500D01*
X44010849Y-106612500D01*
X44247903Y-106565347D01*
X44471202Y-106472853D01*
X44672167Y-106338573D01*
X44843073Y-106167667D01*
X44977353Y-105966702D01*
X45069847Y-105743403D01*
X45117000Y-105506349D01*
X45117000Y-105264651D01*
X45069847Y-105027597D01*
X44977353Y-104804298D01*
X44843073Y-104603333D01*
X44672167Y-104432427D01*
X44471202Y-104298147D01*
X44247903Y-104205653D01*
X44010849Y-104158500D01*
X43769151Y-104158500D01*
X43532097Y-104205653D01*
X43308798Y-104298147D01*
X43107833Y-104432427D01*
X42936927Y-104603333D01*
X42802647Y-104804298D01*
X42710153Y-105027597D01*
X42663000Y-105264651D01*
X41042200Y-105264651D01*
X41042200Y-104869800D01*
X39934200Y-104869800D01*
X39680200Y-104869800D01*
X39660200Y-104869800D01*
X39660200Y-104615800D01*
X39680200Y-104615800D01*
X39680200Y-103274069D01*
X39934200Y-103274069D01*
X39934200Y-104615800D01*
X41042200Y-104615800D01*
X41042200Y-104215800D01*
X40993693Y-103977304D01*
X40899590Y-103752854D01*
X40763507Y-103551075D01*
X40590674Y-103379722D01*
X40387733Y-103245379D01*
X40162482Y-103153209D01*
X40124809Y-103149338D01*
X39934200Y-103274069D01*
X39680200Y-103274069D01*
X39489591Y-103149338D01*
X39451918Y-103153209D01*
X39226667Y-103245379D01*
X39023726Y-103379722D01*
X38850893Y-103551075D01*
X38714810Y-103752854D01*
X38664199Y-103873569D01*
X38623476Y-103797382D01*
X38501386Y-103648614D01*
X38352618Y-103526524D01*
X38182890Y-103435803D01*
X37998724Y-103379937D01*
X37807200Y-103361073D01*
X37615675Y-103379937D01*
X37431509Y-103435803D01*
X37261782Y-103526524D01*
X37113014Y-103648614D01*
X36990924Y-103797382D01*
X36900203Y-103967110D01*
X36844337Y-104151276D01*
X36830200Y-104294808D01*
X36784200Y-104294808D01*
X36784200Y-104294807D01*
X36770063Y-104151275D01*
X36714197Y-103967109D01*
X36623476Y-103797382D01*
X36501386Y-103648614D01*
X36352618Y-103526524D01*
X36182890Y-103435803D01*
X35998724Y-103379937D01*
X35807200Y-103361073D01*
X35615675Y-103379937D01*
X35431509Y-103435803D01*
X35261782Y-103526524D01*
X35113014Y-103648614D01*
X34990924Y-103797382D01*
X34900203Y-103967110D01*
X34844337Y-104151276D01*
X34830200Y-104294808D01*
X34784200Y-104294808D01*
X34784200Y-104294807D01*
X34770063Y-104151275D01*
X34714197Y-103967109D01*
X34623476Y-103797382D01*
X34501386Y-103648614D01*
X34352618Y-103526524D01*
X34182890Y-103435803D01*
X33998724Y-103379937D01*
X33807200Y-103361073D01*
X33615675Y-103379937D01*
X33431509Y-103435803D01*
X33261782Y-103526524D01*
X33113014Y-103648614D01*
X32990924Y-103797382D01*
X32900203Y-103967110D01*
X32844337Y-104151276D01*
X32830200Y-104294808D01*
X32784200Y-104294808D01*
X32784200Y-104294807D01*
X32770063Y-104151275D01*
X32714197Y-103967109D01*
X32623476Y-103797382D01*
X32501386Y-103648614D01*
X32352618Y-103526524D01*
X32182890Y-103435803D01*
X31998724Y-103379937D01*
X31807200Y-103361073D01*
X31615675Y-103379937D01*
X31431509Y-103435803D01*
X31261782Y-103526524D01*
X31113014Y-103648614D01*
X30990924Y-103797382D01*
X30900203Y-103967110D01*
X30844337Y-104151276D01*
X30830200Y-104294808D01*
X30784200Y-104294808D01*
X30784200Y-104294807D01*
X30770063Y-104151275D01*
X30714197Y-103967109D01*
X30623476Y-103797382D01*
X30501386Y-103648614D01*
X30352618Y-103526524D01*
X30182890Y-103435803D01*
X29998724Y-103379937D01*
X29807200Y-103361073D01*
X29615675Y-103379937D01*
X29431509Y-103435803D01*
X29261782Y-103526524D01*
X29113014Y-103648614D01*
X28990924Y-103797382D01*
X28900203Y-103967110D01*
X28844337Y-104151276D01*
X28830200Y-104294808D01*
X28784200Y-104294808D01*
X28784200Y-104294807D01*
X28770063Y-104151275D01*
X28714197Y-103967109D01*
X28623476Y-103797382D01*
X28501386Y-103648614D01*
X28352618Y-103526524D01*
X28182890Y-103435803D01*
X27998724Y-103379937D01*
X27807200Y-103361073D01*
X27615675Y-103379937D01*
X27431509Y-103435803D01*
X27261782Y-103526524D01*
X27113014Y-103648614D01*
X26990924Y-103797382D01*
X26950201Y-103873569D01*
X26899590Y-103752854D01*
X26763507Y-103551075D01*
X26590674Y-103379722D01*
X26387733Y-103245379D01*
X26162482Y-103153209D01*
X26124809Y-103149338D01*
X25934200Y-103274069D01*
X25680200Y-103274069D01*
X25489591Y-103149338D01*
X25451918Y-103153209D01*
X25226667Y-103245379D01*
X25023726Y-103379722D01*
X24850893Y-103551075D01*
X24714810Y-103752854D01*
X24620707Y-103977304D01*
X24572200Y-104215800D01*
X18948419Y-104215800D01*
X18948419Y-98972390D01*
X42881524Y-98972390D01*
X42926175Y-99119599D01*
X43051359Y-99382420D01*
X43225412Y-99615769D01*
X43441645Y-99810678D01*
X43636380Y-99926676D01*
X43473000Y-99926676D01*
X43399095Y-99933955D01*
X43328030Y-99955512D01*
X43262537Y-99990519D01*
X43205131Y-100037631D01*
X43158019Y-100095037D01*
X43123012Y-100160530D01*
X43101455Y-100231595D01*
X43094176Y-100305500D01*
X43094176Y-102005500D01*
X43101455Y-102079405D01*
X43123012Y-102150470D01*
X43158019Y-102215963D01*
X43205131Y-102273369D01*
X43262537Y-102320481D01*
X43328030Y-102355488D01*
X43399095Y-102377045D01*
X43473000Y-102384324D01*
X45173000Y-102384324D01*
X45246905Y-102377045D01*
X45317970Y-102355488D01*
X45383463Y-102320481D01*
X45440869Y-102273369D01*
X45487981Y-102215963D01*
X45522988Y-102150470D01*
X45544545Y-102079405D01*
X45551824Y-102005500D01*
X45551824Y-100305500D01*
X45544545Y-100231595D01*
X45522988Y-100160530D01*
X45487981Y-100095037D01*
X45440869Y-100037631D01*
X45383463Y-99990519D01*
X45317970Y-99955512D01*
X45246905Y-99933955D01*
X45173000Y-99926676D01*
X45009620Y-99926676D01*
X45204355Y-99810678D01*
X45420588Y-99615769D01*
X45594641Y-99382420D01*
X45719825Y-99119599D01*
X45764476Y-98972390D01*
X45643155Y-98742500D01*
X44450000Y-98742500D01*
X44450000Y-98762500D01*
X44196000Y-98762500D01*
X44196000Y-98742500D01*
X43002845Y-98742500D01*
X42881524Y-98972390D01*
X18948419Y-98972390D01*
X18948419Y-98258610D01*
X42881524Y-98258610D01*
X43002845Y-98488500D01*
X44196000Y-98488500D01*
X44196000Y-97294686D01*
X44450000Y-97294686D01*
X44450000Y-98488500D01*
X45643155Y-98488500D01*
X45764476Y-98258610D01*
X45719825Y-98111401D01*
X45594641Y-97848580D01*
X45420588Y-97615231D01*
X45204355Y-97420322D01*
X44954252Y-97271343D01*
X44679891Y-97174019D01*
X44450000Y-97294686D01*
X44196000Y-97294686D01*
X43966109Y-97174019D01*
X43691748Y-97271343D01*
X43441645Y-97420322D01*
X43225412Y-97615231D01*
X43051359Y-97848580D01*
X42926175Y-98111401D01*
X42881524Y-98258610D01*
X18948419Y-98258610D01*
X18948419Y-94146390D01*
X42881524Y-94146390D01*
X42926175Y-94293599D01*
X43051359Y-94556420D01*
X43225412Y-94789769D01*
X43441645Y-94984678D01*
X43691748Y-95133657D01*
X43966109Y-95230981D01*
X44196000Y-95110314D01*
X44196000Y-93916500D01*
X44450000Y-93916500D01*
X44450000Y-95110314D01*
X44679891Y-95230981D01*
X44954252Y-95133657D01*
X45204355Y-94984678D01*
X45420588Y-94789769D01*
X45594641Y-94556420D01*
X45719825Y-94293599D01*
X45764476Y-94146390D01*
X45643155Y-93916500D01*
X44450000Y-93916500D01*
X44196000Y-93916500D01*
X43002845Y-93916500D01*
X42881524Y-94146390D01*
X18948419Y-94146390D01*
X18948419Y-93432610D01*
X42881524Y-93432610D01*
X43002845Y-93662500D01*
X44196000Y-93662500D01*
X44196000Y-93642500D01*
X44450000Y-93642500D01*
X44450000Y-93662500D01*
X45643155Y-93662500D01*
X45764476Y-93432610D01*
X45719825Y-93285401D01*
X45594641Y-93022580D01*
X45420588Y-92789231D01*
X45204355Y-92594322D01*
X45009620Y-92478324D01*
X45173000Y-92478324D01*
X45246905Y-92471045D01*
X45317970Y-92449488D01*
X45383463Y-92414481D01*
X45440869Y-92367369D01*
X45487981Y-92309963D01*
X45522988Y-92244470D01*
X45544545Y-92173405D01*
X45551824Y-92099500D01*
X45551824Y-90399500D01*
X45544545Y-90325595D01*
X45522988Y-90254530D01*
X45487981Y-90189037D01*
X45440869Y-90131631D01*
X45383463Y-90084519D01*
X45317970Y-90049512D01*
X45246905Y-90027955D01*
X45173000Y-90020676D01*
X43473000Y-90020676D01*
X43399095Y-90027955D01*
X43328030Y-90049512D01*
X43262537Y-90084519D01*
X43205131Y-90131631D01*
X43158019Y-90189037D01*
X43123012Y-90254530D01*
X43101455Y-90325595D01*
X43094176Y-90399500D01*
X43094176Y-92099500D01*
X43101455Y-92173405D01*
X43123012Y-92244470D01*
X43158019Y-92309963D01*
X43205131Y-92367369D01*
X43262537Y-92414481D01*
X43328030Y-92449488D01*
X43399095Y-92471045D01*
X43473000Y-92478324D01*
X43636380Y-92478324D01*
X43441645Y-92594322D01*
X43225412Y-92789231D01*
X43051359Y-93022580D01*
X42926175Y-93285401D01*
X42881524Y-93432610D01*
X18948419Y-93432610D01*
X18948419Y-90294808D01*
X24830200Y-90294808D01*
X24830200Y-91190793D01*
X24844338Y-91334325D01*
X24900204Y-91518491D01*
X24990925Y-91688218D01*
X25113015Y-91836986D01*
X25261783Y-91959076D01*
X25431510Y-92049797D01*
X25615676Y-92105663D01*
X25807200Y-92124527D01*
X25998725Y-92105663D01*
X26182891Y-92049797D01*
X26352618Y-91959076D01*
X26501386Y-91836986D01*
X26623476Y-91688218D01*
X26714197Y-91518491D01*
X26770063Y-91334324D01*
X26784200Y-91190792D01*
X26784200Y-90294808D01*
X26830200Y-90294808D01*
X26830200Y-91190793D01*
X26844338Y-91334325D01*
X26900204Y-91518491D01*
X26990925Y-91688218D01*
X27113015Y-91836986D01*
X27261783Y-91959076D01*
X27431510Y-92049797D01*
X27615676Y-92105663D01*
X27807200Y-92124527D01*
X27998725Y-92105663D01*
X28182891Y-92049797D01*
X28352618Y-91959076D01*
X28501386Y-91836986D01*
X28623476Y-91688218D01*
X28714197Y-91518491D01*
X28770063Y-91334324D01*
X28784200Y-91190792D01*
X28784200Y-90294808D01*
X28830200Y-90294808D01*
X28830200Y-91190793D01*
X28844338Y-91334325D01*
X28900204Y-91518491D01*
X28990925Y-91688218D01*
X29113015Y-91836986D01*
X29261783Y-91959076D01*
X29431510Y-92049797D01*
X29615676Y-92105663D01*
X29807200Y-92124527D01*
X29998725Y-92105663D01*
X30182891Y-92049797D01*
X30352618Y-91959076D01*
X30501386Y-91836986D01*
X30623476Y-91688218D01*
X30714197Y-91518491D01*
X30770063Y-91334324D01*
X30784200Y-91190792D01*
X30784200Y-90294808D01*
X30830200Y-90294808D01*
X30830200Y-91190793D01*
X30844338Y-91334325D01*
X30900204Y-91518491D01*
X30990925Y-91688218D01*
X31113015Y-91836986D01*
X31261783Y-91959076D01*
X31431510Y-92049797D01*
X31615676Y-92105663D01*
X31807200Y-92124527D01*
X31998725Y-92105663D01*
X32182891Y-92049797D01*
X32352618Y-91959076D01*
X32501386Y-91836986D01*
X32623476Y-91688218D01*
X32714197Y-91518491D01*
X32770063Y-91334324D01*
X32784200Y-91190792D01*
X32784200Y-90294808D01*
X32830200Y-90294808D01*
X32830200Y-91190793D01*
X32844338Y-91334325D01*
X32900204Y-91518491D01*
X32990925Y-91688218D01*
X33113015Y-91836986D01*
X33261783Y-91959076D01*
X33431510Y-92049797D01*
X33615676Y-92105663D01*
X33807200Y-92124527D01*
X33998725Y-92105663D01*
X34182891Y-92049797D01*
X34352618Y-91959076D01*
X34501386Y-91836986D01*
X34623476Y-91688218D01*
X34714197Y-91518491D01*
X34770063Y-91334324D01*
X34784200Y-91190792D01*
X34784200Y-90294808D01*
X34830200Y-90294808D01*
X34830200Y-91190793D01*
X34844338Y-91334325D01*
X34900204Y-91518491D01*
X34990925Y-91688218D01*
X35113015Y-91836986D01*
X35261783Y-91959076D01*
X35431510Y-92049797D01*
X35615676Y-92105663D01*
X35807200Y-92124527D01*
X35998725Y-92105663D01*
X36182891Y-92049797D01*
X36352618Y-91959076D01*
X36501386Y-91836986D01*
X36623476Y-91688218D01*
X36664199Y-91612031D01*
X36714810Y-91732746D01*
X36850893Y-91934525D01*
X37023726Y-92105878D01*
X37226667Y-92240221D01*
X37451918Y-92332391D01*
X37489591Y-92336262D01*
X37680200Y-92211531D01*
X37680200Y-90869800D01*
X37660200Y-90869800D01*
X37660200Y-90615800D01*
X37680200Y-90615800D01*
X37680200Y-89274069D01*
X37934200Y-89274069D01*
X37934200Y-90615800D01*
X37954200Y-90615800D01*
X37954200Y-90869800D01*
X37934200Y-90869800D01*
X37934200Y-92211531D01*
X38124809Y-92336262D01*
X38162482Y-92332391D01*
X38387733Y-92240221D01*
X38590674Y-92105878D01*
X38763507Y-91934525D01*
X38899590Y-91732746D01*
X38950202Y-91612030D01*
X38990925Y-91688218D01*
X39113015Y-91836986D01*
X39261783Y-91959076D01*
X39431510Y-92049797D01*
X39615676Y-92105663D01*
X39807200Y-92124527D01*
X39998725Y-92105663D01*
X40182891Y-92049797D01*
X40352618Y-91959076D01*
X40501386Y-91836986D01*
X40623476Y-91688218D01*
X40714197Y-91518491D01*
X40770063Y-91334324D01*
X40784200Y-91190792D01*
X40784200Y-90294807D01*
X40770063Y-90151275D01*
X40714197Y-89967109D01*
X40623476Y-89797382D01*
X40501386Y-89648614D01*
X40352618Y-89526524D01*
X40182890Y-89435803D01*
X39998724Y-89379937D01*
X39807200Y-89361073D01*
X39615675Y-89379937D01*
X39431509Y-89435803D01*
X39261782Y-89526524D01*
X39113014Y-89648614D01*
X38990924Y-89797382D01*
X38950201Y-89873569D01*
X38899590Y-89752854D01*
X38763507Y-89551075D01*
X38590674Y-89379722D01*
X38387733Y-89245379D01*
X38162482Y-89153209D01*
X38124809Y-89149338D01*
X37934200Y-89274069D01*
X37680200Y-89274069D01*
X37489591Y-89149338D01*
X37451918Y-89153209D01*
X37226667Y-89245379D01*
X37023726Y-89379722D01*
X36850893Y-89551075D01*
X36714810Y-89752854D01*
X36664199Y-89873569D01*
X36623476Y-89797382D01*
X36501386Y-89648614D01*
X36352618Y-89526524D01*
X36182890Y-89435803D01*
X35998724Y-89379937D01*
X35807200Y-89361073D01*
X35615675Y-89379937D01*
X35431509Y-89435803D01*
X35261782Y-89526524D01*
X35113014Y-89648614D01*
X34990924Y-89797382D01*
X34900203Y-89967110D01*
X34844337Y-90151276D01*
X34830200Y-90294808D01*
X34784200Y-90294808D01*
X34784200Y-90294807D01*
X34770063Y-90151275D01*
X34714197Y-89967109D01*
X34623476Y-89797382D01*
X34501386Y-89648614D01*
X34352618Y-89526524D01*
X34182890Y-89435803D01*
X33998724Y-89379937D01*
X33807200Y-89361073D01*
X33615675Y-89379937D01*
X33431509Y-89435803D01*
X33261782Y-89526524D01*
X33113014Y-89648614D01*
X32990924Y-89797382D01*
X32900203Y-89967110D01*
X32844337Y-90151276D01*
X32830200Y-90294808D01*
X32784200Y-90294808D01*
X32784200Y-90294807D01*
X32770063Y-90151275D01*
X32714197Y-89967109D01*
X32623476Y-89797382D01*
X32501386Y-89648614D01*
X32352618Y-89526524D01*
X32182890Y-89435803D01*
X31998724Y-89379937D01*
X31807200Y-89361073D01*
X31615675Y-89379937D01*
X31431509Y-89435803D01*
X31261782Y-89526524D01*
X31113014Y-89648614D01*
X30990924Y-89797382D01*
X30900203Y-89967110D01*
X30844337Y-90151276D01*
X30830200Y-90294808D01*
X30784200Y-90294808D01*
X30784200Y-90294807D01*
X30770063Y-90151275D01*
X30714197Y-89967109D01*
X30623476Y-89797382D01*
X30501386Y-89648614D01*
X30352618Y-89526524D01*
X30182890Y-89435803D01*
X29998724Y-89379937D01*
X29807200Y-89361073D01*
X29615675Y-89379937D01*
X29431509Y-89435803D01*
X29261782Y-89526524D01*
X29113014Y-89648614D01*
X28990924Y-89797382D01*
X28900203Y-89967110D01*
X28844337Y-90151276D01*
X28830200Y-90294808D01*
X28784200Y-90294808D01*
X28784200Y-90294807D01*
X28770063Y-90151275D01*
X28714197Y-89967109D01*
X28623476Y-89797382D01*
X28501386Y-89648614D01*
X28352618Y-89526524D01*
X28182890Y-89435803D01*
X27998724Y-89379937D01*
X27807200Y-89361073D01*
X27615675Y-89379937D01*
X27431509Y-89435803D01*
X27261782Y-89526524D01*
X27113014Y-89648614D01*
X26990924Y-89797382D01*
X26900203Y-89967110D01*
X26844337Y-90151276D01*
X26830200Y-90294808D01*
X26784200Y-90294808D01*
X26784200Y-90294807D01*
X26770063Y-90151275D01*
X26714197Y-89967109D01*
X26623476Y-89797382D01*
X26501386Y-89648614D01*
X26352618Y-89526524D01*
X26182890Y-89435803D01*
X25998724Y-89379937D01*
X25807200Y-89361073D01*
X25615675Y-89379937D01*
X25431509Y-89435803D01*
X25261782Y-89526524D01*
X25113014Y-89648614D01*
X24990924Y-89797382D01*
X24900203Y-89967110D01*
X24844337Y-90151276D01*
X24830200Y-90294808D01*
X18948419Y-90294808D01*
X18948419Y-86145391D01*
X25482519Y-86145391D01*
X25579843Y-86419752D01*
X25728822Y-86669855D01*
X25923731Y-86886088D01*
X26157080Y-87060141D01*
X26419901Y-87185325D01*
X26567110Y-87229976D01*
X26797000Y-87108655D01*
X26797000Y-85915500D01*
X25603186Y-85915500D01*
X25482519Y-86145391D01*
X18948419Y-86145391D01*
X18948419Y-85431609D01*
X25482519Y-85431609D01*
X25603186Y-85661500D01*
X26797000Y-85661500D01*
X26797000Y-85641500D01*
X27051000Y-85641500D01*
X27051000Y-85661500D01*
X27071000Y-85661500D01*
X27071000Y-85915500D01*
X27051000Y-85915500D01*
X27051000Y-87108655D01*
X27280890Y-87229976D01*
X27428099Y-87185325D01*
X27690920Y-87060141D01*
X27924269Y-86886088D01*
X28119178Y-86669855D01*
X28268157Y-86419752D01*
X28327769Y-86251702D01*
X28376647Y-86369702D01*
X28510927Y-86570667D01*
X28681833Y-86741573D01*
X28882798Y-86875853D01*
X29106097Y-86968347D01*
X29343151Y-87015500D01*
X29584849Y-87015500D01*
X29821903Y-86968347D01*
X30045202Y-86875853D01*
X30246167Y-86741573D01*
X30417073Y-86570667D01*
X30551353Y-86369702D01*
X30643847Y-86146403D01*
X30691000Y-85909349D01*
X30691000Y-85667651D01*
X30777000Y-85667651D01*
X30777000Y-85909349D01*
X30824153Y-86146403D01*
X30916647Y-86369702D01*
X31050927Y-86570667D01*
X31221833Y-86741573D01*
X31422798Y-86875853D01*
X31646097Y-86968347D01*
X31883151Y-87015500D01*
X32124849Y-87015500D01*
X32361903Y-86968347D01*
X32585202Y-86875853D01*
X32786167Y-86741573D01*
X32957073Y-86570667D01*
X33091353Y-86369702D01*
X33183847Y-86146403D01*
X33231000Y-85909349D01*
X33231000Y-85667651D01*
X33183847Y-85430597D01*
X33091353Y-85207298D01*
X32957073Y-85006333D01*
X32786167Y-84835427D01*
X32585202Y-84701147D01*
X32361903Y-84608653D01*
X32124849Y-84561500D01*
X31883151Y-84561500D01*
X31646097Y-84608653D01*
X31422798Y-84701147D01*
X31221833Y-84835427D01*
X31050927Y-85006333D01*
X30916647Y-85207298D01*
X30824153Y-85430597D01*
X30777000Y-85667651D01*
X30691000Y-85667651D01*
X30643847Y-85430597D01*
X30551353Y-85207298D01*
X30417073Y-85006333D01*
X30246167Y-84835427D01*
X30045202Y-84701147D01*
X29821903Y-84608653D01*
X29584849Y-84561500D01*
X29343151Y-84561500D01*
X29106097Y-84608653D01*
X28882798Y-84701147D01*
X28681833Y-84835427D01*
X28510927Y-85006333D01*
X28376647Y-85207298D01*
X28327769Y-85325298D01*
X28268157Y-85157248D01*
X28119178Y-84907145D01*
X27924269Y-84690912D01*
X27690920Y-84516859D01*
X27428099Y-84391675D01*
X27394812Y-84381578D01*
X27505202Y-84335853D01*
X27706167Y-84201573D01*
X27877073Y-84030667D01*
X28011353Y-83829702D01*
X28103847Y-83606403D01*
X28151000Y-83369349D01*
X28151000Y-83127651D01*
X28237000Y-83127651D01*
X28237000Y-83369349D01*
X28284153Y-83606403D01*
X28376647Y-83829702D01*
X28510927Y-84030667D01*
X28681833Y-84201573D01*
X28882798Y-84335853D01*
X29106097Y-84428347D01*
X29343151Y-84475500D01*
X29584849Y-84475500D01*
X29821903Y-84428347D01*
X30045202Y-84335853D01*
X30246167Y-84201573D01*
X30417073Y-84030667D01*
X30551353Y-83829702D01*
X30643847Y-83606403D01*
X30691000Y-83369349D01*
X30691000Y-83127651D01*
X30643847Y-82890597D01*
X30551353Y-82667298D01*
X30417073Y-82466333D01*
X30349240Y-82398500D01*
X30775176Y-82398500D01*
X30775176Y-84098500D01*
X30782455Y-84172405D01*
X30804012Y-84243470D01*
X30839019Y-84308963D01*
X30886131Y-84366369D01*
X30943537Y-84413481D01*
X31009030Y-84448488D01*
X31080095Y-84470045D01*
X31154000Y-84477324D01*
X32854000Y-84477324D01*
X32927905Y-84470045D01*
X32998970Y-84448488D01*
X33064463Y-84413481D01*
X33121869Y-84366369D01*
X33168981Y-84308963D01*
X33203988Y-84243470D01*
X33225545Y-84172405D01*
X33232824Y-84098500D01*
X33232824Y-83000651D01*
X77068500Y-83000651D01*
X77068500Y-83242349D01*
X77115653Y-83479403D01*
X77208147Y-83702702D01*
X77342427Y-83903667D01*
X77513333Y-84074573D01*
X77714298Y-84208853D01*
X77937597Y-84301347D01*
X78174651Y-84348500D01*
X78416349Y-84348500D01*
X78653403Y-84301347D01*
X78876702Y-84208853D01*
X79077667Y-84074573D01*
X79248573Y-83903667D01*
X79382853Y-83702702D01*
X79475347Y-83479403D01*
X79522500Y-83242349D01*
X79522500Y-83000651D01*
X79608500Y-83000651D01*
X79608500Y-83242349D01*
X79655653Y-83479403D01*
X79748147Y-83702702D01*
X79882427Y-83903667D01*
X80053333Y-84074573D01*
X80254298Y-84208853D01*
X80477597Y-84301347D01*
X80714651Y-84348500D01*
X80956349Y-84348500D01*
X81193403Y-84301347D01*
X81416702Y-84208853D01*
X81617667Y-84074573D01*
X81788573Y-83903667D01*
X81922853Y-83702702D01*
X82015347Y-83479403D01*
X82062500Y-83242349D01*
X82062500Y-83000651D01*
X82015347Y-82763597D01*
X81922853Y-82540298D01*
X81788573Y-82339333D01*
X81720740Y-82271500D01*
X82146676Y-82271500D01*
X82146676Y-83971500D01*
X82153955Y-84045405D01*
X82175512Y-84116470D01*
X82210519Y-84181963D01*
X82257631Y-84239369D01*
X82315037Y-84286481D01*
X82380530Y-84321488D01*
X82451595Y-84343045D01*
X82525500Y-84350324D01*
X84225500Y-84350324D01*
X84299405Y-84343045D01*
X84370470Y-84321488D01*
X84435963Y-84286481D01*
X84493369Y-84239369D01*
X84540481Y-84181963D01*
X84575488Y-84116470D01*
X84597045Y-84045405D01*
X84604324Y-83971500D01*
X84604324Y-83268905D01*
X88138200Y-83268905D01*
X88138200Y-83609095D01*
X88204568Y-83942747D01*
X88334753Y-84257041D01*
X88523752Y-84539898D01*
X88764302Y-84780448D01*
X89047159Y-84969447D01*
X89361453Y-85099632D01*
X89695105Y-85166000D01*
X90035295Y-85166000D01*
X90368947Y-85099632D01*
X90683241Y-84969447D01*
X90966098Y-84780448D01*
X91206648Y-84539898D01*
X91395647Y-84257041D01*
X91525832Y-83942747D01*
X91592200Y-83609095D01*
X91592200Y-83268905D01*
X91525832Y-82935253D01*
X91395647Y-82620959D01*
X91206648Y-82338102D01*
X90966098Y-82097552D01*
X90683241Y-81908553D01*
X90368947Y-81778368D01*
X90035295Y-81712000D01*
X89695105Y-81712000D01*
X89361453Y-81778368D01*
X89047159Y-81908553D01*
X88764302Y-82097552D01*
X88523752Y-82338102D01*
X88334753Y-82620959D01*
X88204568Y-82935253D01*
X88138200Y-83268905D01*
X84604324Y-83268905D01*
X84604324Y-82271500D01*
X84597045Y-82197595D01*
X84575488Y-82126530D01*
X84540481Y-82061037D01*
X84493369Y-82003631D01*
X84435963Y-81956519D01*
X84370470Y-81921512D01*
X84299405Y-81899955D01*
X84225500Y-81892676D01*
X82525500Y-81892676D01*
X82451595Y-81899955D01*
X82380530Y-81921512D01*
X82315037Y-81956519D01*
X82257631Y-82003631D01*
X82210519Y-82061037D01*
X82175512Y-82126530D01*
X82153955Y-82197595D01*
X82146676Y-82271500D01*
X81720740Y-82271500D01*
X81617667Y-82168427D01*
X81416702Y-82034147D01*
X81193403Y-81941653D01*
X80956349Y-81894500D01*
X80714651Y-81894500D01*
X80477597Y-81941653D01*
X80254298Y-82034147D01*
X80053333Y-82168427D01*
X79882427Y-82339333D01*
X79748147Y-82540298D01*
X79655653Y-82763597D01*
X79608500Y-83000651D01*
X79522500Y-83000651D01*
X79475347Y-82763597D01*
X79382853Y-82540298D01*
X79248573Y-82339333D01*
X79077667Y-82168427D01*
X78876702Y-82034147D01*
X78653403Y-81941653D01*
X78416349Y-81894500D01*
X78174651Y-81894500D01*
X77937597Y-81941653D01*
X77714298Y-82034147D01*
X77513333Y-82168427D01*
X77342427Y-82339333D01*
X77208147Y-82540298D01*
X77115653Y-82763597D01*
X77068500Y-83000651D01*
X33232824Y-83000651D01*
X33232824Y-82398500D01*
X33225545Y-82324595D01*
X33203988Y-82253530D01*
X33168981Y-82188037D01*
X33121869Y-82130631D01*
X33064463Y-82083519D01*
X32998970Y-82048512D01*
X32927905Y-82026955D01*
X32854000Y-82019676D01*
X31154000Y-82019676D01*
X31080095Y-82026955D01*
X31009030Y-82048512D01*
X30943537Y-82083519D01*
X30886131Y-82130631D01*
X30839019Y-82188037D01*
X30804012Y-82253530D01*
X30782455Y-82324595D01*
X30775176Y-82398500D01*
X30349240Y-82398500D01*
X30246167Y-82295427D01*
X30045202Y-82161147D01*
X29821903Y-82068653D01*
X29584849Y-82021500D01*
X29343151Y-82021500D01*
X29106097Y-82068653D01*
X28882798Y-82161147D01*
X28681833Y-82295427D01*
X28510927Y-82466333D01*
X28376647Y-82667298D01*
X28284153Y-82890597D01*
X28237000Y-83127651D01*
X28151000Y-83127651D01*
X28103847Y-82890597D01*
X28011353Y-82667298D01*
X27877073Y-82466333D01*
X27706167Y-82295427D01*
X27505202Y-82161147D01*
X27281903Y-82068653D01*
X27044849Y-82021500D01*
X26803151Y-82021500D01*
X26566097Y-82068653D01*
X26342798Y-82161147D01*
X26141833Y-82295427D01*
X25970927Y-82466333D01*
X25836647Y-82667298D01*
X25744153Y-82890597D01*
X25697000Y-83127651D01*
X25697000Y-83369349D01*
X25744153Y-83606403D01*
X25836647Y-83829702D01*
X25970927Y-84030667D01*
X26141833Y-84201573D01*
X26342798Y-84335853D01*
X26453188Y-84381578D01*
X26419901Y-84391675D01*
X26157080Y-84516859D01*
X25923731Y-84690912D01*
X25728822Y-84907145D01*
X25579843Y-85157248D01*
X25482519Y-85431609D01*
X18948419Y-85431609D01*
X18948419Y-83243505D01*
X20142400Y-83243505D01*
X20142400Y-83583695D01*
X20208768Y-83917347D01*
X20338953Y-84231641D01*
X20527952Y-84514498D01*
X20768502Y-84755048D01*
X21051359Y-84944047D01*
X21365653Y-85074232D01*
X21699305Y-85140600D01*
X22039495Y-85140600D01*
X22373147Y-85074232D01*
X22687441Y-84944047D01*
X22970298Y-84755048D01*
X23210848Y-84514498D01*
X23399847Y-84231641D01*
X23530032Y-83917347D01*
X23596400Y-83583695D01*
X23596400Y-83243505D01*
X23530032Y-82909853D01*
X23399847Y-82595559D01*
X23210848Y-82312702D01*
X22970298Y-82072152D01*
X22687441Y-81883153D01*
X22373147Y-81752968D01*
X22039495Y-81686600D01*
X21699305Y-81686600D01*
X21365653Y-81752968D01*
X21051359Y-81883153D01*
X20768502Y-82072152D01*
X20527952Y-82312702D01*
X20338953Y-82595559D01*
X20208768Y-82909853D01*
X20142400Y-83243505D01*
X18948419Y-83243505D01*
X18948419Y-79525619D01*
X92791800Y-79525619D01*
X92791801Y-164369000D01*
G37*
%TD.AperFunction*%
%TD*%
M02*
