%TF.GenerationSoftware,KiCad,Pcbnew,(5.1.7)-1*%
%TF.CreationDate,2021-04-09T11:38:41+02:00*%
%TF.ProjectId,mfm-v3-smd,6d666d2d-7633-42d7-936d-642e6b696361,rev?*%
%TF.SameCoordinates,Original*%
%TF.FileFunction,Soldermask,Top*%
%TF.FilePolarity,Negative*%
%FSLAX46Y46*%
G04 Gerber Fmt 4.6, Leading zero omitted, Abs format (unit mm)*
G04 Created by KiCad (PCBNEW (5.1.7)-1) date 2021-04-09 11:38:41*
%MOMM*%
%LPD*%
G01*
G04 APERTURE LIST*
%ADD10C,2.127000*%
%ADD11O,1.700000X1.700000*%
%ADD12R,1.700000X1.700000*%
%ADD13C,3.300000*%
%ADD14C,1.530000*%
%ADD15R,0.550000X1.500000*%
%ADD16R,1.500000X0.550000*%
%ADD17O,2.000000X1.200000*%
%ADD18R,1.350000X1.800000*%
%ADD19C,5.000000*%
%ADD20C,0.800000*%
%ADD21C,0.100000*%
%ADD22R,0.900000X1.300000*%
%ADD23R,0.900000X0.800000*%
%ADD24R,0.800000X0.900000*%
%ADD25R,1.400000X1.200000*%
%ADD26C,2.050000*%
%ADD27C,2.250000*%
%ADD28O,1.950000X1.700000*%
G04 APERTURE END LIST*
D10*
X37895100Y-85979000D02*
X37465000Y-85979000D01*
X38368939Y-85967367D02*
X37895100Y-85979000D01*
X38841637Y-85932498D02*
X38368939Y-85967367D01*
X39312054Y-85874478D02*
X38841637Y-85932498D01*
X39779058Y-85793445D02*
X39312054Y-85874478D01*
X40241524Y-85689595D02*
X39779058Y-85793445D01*
X40698336Y-85563178D02*
X40241524Y-85689595D01*
X41148396Y-85414498D02*
X40698336Y-85563178D01*
X41590618Y-85243914D02*
X41148396Y-85414498D01*
X42023937Y-85051837D02*
X41590618Y-85243914D01*
X42447309Y-84838730D02*
X42023937Y-85051837D01*
X42859715Y-84605105D02*
X42447309Y-84838730D01*
X43260160Y-84351525D02*
X42859715Y-84605105D01*
X43647681Y-84078602D02*
X43260160Y-84351525D01*
X44021343Y-83786994D02*
X43647681Y-84078602D01*
X44380246Y-83477401D02*
X44021343Y-83786994D01*
X44723527Y-83150572D02*
X44380246Y-83477401D01*
X44723527Y-83150572D02*
X44895500Y-82978600D01*
X37895100Y-85979000D02*
X37465000Y-85979000D01*
X38368939Y-85967367D02*
X37895100Y-85979000D01*
X38841637Y-85932498D02*
X38368939Y-85967367D01*
X39312054Y-85874478D02*
X38841637Y-85932498D01*
X39779058Y-85793445D02*
X39312054Y-85874478D01*
X40241524Y-85689595D02*
X39779058Y-85793445D01*
X40698336Y-85563178D02*
X40241524Y-85689595D01*
X41148396Y-85414498D02*
X40698336Y-85563178D01*
X41590618Y-85243914D02*
X41148396Y-85414498D01*
X42023937Y-85051837D02*
X41590618Y-85243914D01*
X42447309Y-84838730D02*
X42023937Y-85051837D01*
X42859715Y-84605105D02*
X42447309Y-84838730D01*
X43260160Y-84351525D02*
X42859715Y-84605105D01*
X43647681Y-84078602D02*
X43260160Y-84351525D01*
X44021343Y-83786994D02*
X43647681Y-84078602D01*
X44380246Y-83477401D02*
X44021343Y-83786994D01*
X44723527Y-83150572D02*
X44380246Y-83477401D01*
X44723527Y-83150572D02*
X44895500Y-82978600D01*
D11*
%TO.C,SW4*%
X35712400Y-109575600D03*
D12*
X35712400Y-112115600D03*
%TD*%
D11*
%TO.C,SW3*%
X44500800Y-109575600D03*
D12*
X44500800Y-112115600D03*
%TD*%
%TO.C,R16*%
G36*
G01*
X40303000Y-110104600D02*
X40303000Y-109554600D01*
G75*
G02*
X40503000Y-109354600I200000J0D01*
G01*
X40903000Y-109354600D01*
G75*
G02*
X41103000Y-109554600I0J-200000D01*
G01*
X41103000Y-110104600D01*
G75*
G02*
X40903000Y-110304600I-200000J0D01*
G01*
X40503000Y-110304600D01*
G75*
G02*
X40303000Y-110104600I0J200000D01*
G01*
G37*
G36*
G01*
X38653000Y-110104600D02*
X38653000Y-109554600D01*
G75*
G02*
X38853000Y-109354600I200000J0D01*
G01*
X39253000Y-109354600D01*
G75*
G02*
X39453000Y-109554600I0J-200000D01*
G01*
X39453000Y-110104600D01*
G75*
G02*
X39253000Y-110304600I-200000J0D01*
G01*
X38853000Y-110304600D01*
G75*
G02*
X38653000Y-110104600I0J200000D01*
G01*
G37*
%TD*%
%TO.C,R15*%
G36*
G01*
X48685000Y-110104600D02*
X48685000Y-109554600D01*
G75*
G02*
X48885000Y-109354600I200000J0D01*
G01*
X49285000Y-109354600D01*
G75*
G02*
X49485000Y-109554600I0J-200000D01*
G01*
X49485000Y-110104600D01*
G75*
G02*
X49285000Y-110304600I-200000J0D01*
G01*
X48885000Y-110304600D01*
G75*
G02*
X48685000Y-110104600I0J200000D01*
G01*
G37*
G36*
G01*
X47035000Y-110104600D02*
X47035000Y-109554600D01*
G75*
G02*
X47235000Y-109354600I200000J0D01*
G01*
X47635000Y-109354600D01*
G75*
G02*
X47835000Y-109554600I0J-200000D01*
G01*
X47835000Y-110104600D01*
G75*
G02*
X47635000Y-110304600I-200000J0D01*
G01*
X47235000Y-110304600D01*
G75*
G02*
X47035000Y-110104600I0J200000D01*
G01*
G37*
%TD*%
%TO.C,D2*%
G36*
G01*
X40328000Y-112114650D02*
X40328000Y-111202150D01*
G75*
G02*
X40571750Y-110958400I243750J0D01*
G01*
X41059250Y-110958400D01*
G75*
G02*
X41303000Y-111202150I0J-243750D01*
G01*
X41303000Y-112114650D01*
G75*
G02*
X41059250Y-112358400I-243750J0D01*
G01*
X40571750Y-112358400D01*
G75*
G02*
X40328000Y-112114650I0J243750D01*
G01*
G37*
G36*
G01*
X38453000Y-112114650D02*
X38453000Y-111202150D01*
G75*
G02*
X38696750Y-110958400I243750J0D01*
G01*
X39184250Y-110958400D01*
G75*
G02*
X39428000Y-111202150I0J-243750D01*
G01*
X39428000Y-112114650D01*
G75*
G02*
X39184250Y-112358400I-243750J0D01*
G01*
X38696750Y-112358400D01*
G75*
G02*
X38453000Y-112114650I0J243750D01*
G01*
G37*
%TD*%
%TO.C,D1*%
G36*
G01*
X48710000Y-112114650D02*
X48710000Y-111202150D01*
G75*
G02*
X48953750Y-110958400I243750J0D01*
G01*
X49441250Y-110958400D01*
G75*
G02*
X49685000Y-111202150I0J-243750D01*
G01*
X49685000Y-112114650D01*
G75*
G02*
X49441250Y-112358400I-243750J0D01*
G01*
X48953750Y-112358400D01*
G75*
G02*
X48710000Y-112114650I0J243750D01*
G01*
G37*
G36*
G01*
X46835000Y-112114650D02*
X46835000Y-111202150D01*
G75*
G02*
X47078750Y-110958400I243750J0D01*
G01*
X47566250Y-110958400D01*
G75*
G02*
X47810000Y-111202150I0J-243750D01*
G01*
X47810000Y-112114650D01*
G75*
G02*
X47566250Y-112358400I-243750J0D01*
G01*
X47078750Y-112358400D01*
G75*
G02*
X46835000Y-112114650I0J243750D01*
G01*
G37*
%TD*%
D13*
%TO.C,J5*%
X55880000Y-134745000D03*
X55880000Y-149735000D03*
D14*
X83060000Y-134745000D03*
X83060000Y-149735000D03*
%TD*%
D15*
%TO.C,U5*%
X71069700Y-100149900D03*
X71869700Y-100149900D03*
X72669700Y-100149900D03*
X73469700Y-100149900D03*
X74269700Y-100149900D03*
X75069700Y-100149900D03*
X75869700Y-100149900D03*
X76669700Y-100149900D03*
X77469700Y-100149900D03*
X78269700Y-100149900D03*
X79069700Y-100149900D03*
D16*
X80769700Y-98449900D03*
X80769700Y-97649900D03*
X80769700Y-96849900D03*
X80769700Y-96049900D03*
X80769700Y-95249900D03*
X80769700Y-94449900D03*
X80769700Y-93649900D03*
X80769700Y-92849900D03*
X80769700Y-92049900D03*
X80769700Y-91249900D03*
X80769700Y-90449900D03*
D15*
X79069700Y-88749900D03*
X78269700Y-88749900D03*
X77469700Y-88749900D03*
X76669700Y-88749900D03*
X75869700Y-88749900D03*
X75069700Y-88749900D03*
X74269700Y-88749900D03*
X73469700Y-88749900D03*
X72669700Y-88749900D03*
X71869700Y-88749900D03*
X71069700Y-88749900D03*
D16*
X69369700Y-90449900D03*
X69369700Y-91249900D03*
X69369700Y-92049900D03*
X69369700Y-92849900D03*
X69369700Y-93649900D03*
X69369700Y-94449900D03*
X69369700Y-95249900D03*
X69369700Y-96049900D03*
X69369700Y-96849900D03*
X69369700Y-97649900D03*
X69369700Y-98449900D03*
%TD*%
D12*
%TO.C,J12*%
X81991200Y-82651600D03*
D11*
X79451200Y-82651600D03*
X76911200Y-82651600D03*
X74371200Y-82651600D03*
X71831200Y-82651600D03*
X69291200Y-82651600D03*
%TD*%
%TO.C,R12*%
G36*
G01*
X83079000Y-91649000D02*
X82529000Y-91649000D01*
G75*
G02*
X82329000Y-91449000I0J200000D01*
G01*
X82329000Y-91049000D01*
G75*
G02*
X82529000Y-90849000I200000J0D01*
G01*
X83079000Y-90849000D01*
G75*
G02*
X83279000Y-91049000I0J-200000D01*
G01*
X83279000Y-91449000D01*
G75*
G02*
X83079000Y-91649000I-200000J0D01*
G01*
G37*
G36*
G01*
X83079000Y-89999000D02*
X82529000Y-89999000D01*
G75*
G02*
X82329000Y-89799000I0J200000D01*
G01*
X82329000Y-89399000D01*
G75*
G02*
X82529000Y-89199000I200000J0D01*
G01*
X83079000Y-89199000D01*
G75*
G02*
X83279000Y-89399000I0J-200000D01*
G01*
X83279000Y-89799000D01*
G75*
G02*
X83079000Y-89999000I-200000J0D01*
G01*
G37*
%TD*%
%TO.C,R11*%
G36*
G01*
X66654000Y-91612000D02*
X67204000Y-91612000D01*
G75*
G02*
X67404000Y-91812000I0J-200000D01*
G01*
X67404000Y-92212000D01*
G75*
G02*
X67204000Y-92412000I-200000J0D01*
G01*
X66654000Y-92412000D01*
G75*
G02*
X66454000Y-92212000I0J200000D01*
G01*
X66454000Y-91812000D01*
G75*
G02*
X66654000Y-91612000I200000J0D01*
G01*
G37*
G36*
G01*
X66654000Y-93262000D02*
X67204000Y-93262000D01*
G75*
G02*
X67404000Y-93462000I0J-200000D01*
G01*
X67404000Y-93862000D01*
G75*
G02*
X67204000Y-94062000I-200000J0D01*
G01*
X66654000Y-94062000D01*
G75*
G02*
X66454000Y-93862000I0J200000D01*
G01*
X66454000Y-93462000D01*
G75*
G02*
X66654000Y-93262000I200000J0D01*
G01*
G37*
%TD*%
%TO.C,C10*%
G36*
G01*
X73765600Y-102216800D02*
X74265600Y-102216800D01*
G75*
G02*
X74490600Y-102441800I0J-225000D01*
G01*
X74490600Y-102891800D01*
G75*
G02*
X74265600Y-103116800I-225000J0D01*
G01*
X73765600Y-103116800D01*
G75*
G02*
X73540600Y-102891800I0J225000D01*
G01*
X73540600Y-102441800D01*
G75*
G02*
X73765600Y-102216800I225000J0D01*
G01*
G37*
G36*
G01*
X73765600Y-103766800D02*
X74265600Y-103766800D01*
G75*
G02*
X74490600Y-103991800I0J-225000D01*
G01*
X74490600Y-104441800D01*
G75*
G02*
X74265600Y-104666800I-225000J0D01*
G01*
X73765600Y-104666800D01*
G75*
G02*
X73540600Y-104441800I0J225000D01*
G01*
X73540600Y-103991800D01*
G75*
G02*
X73765600Y-103766800I225000J0D01*
G01*
G37*
%TD*%
D12*
%TO.C,J10*%
X76682600Y-110896400D03*
D11*
X76682600Y-108356400D03*
X79222600Y-110896400D03*
X79222600Y-108356400D03*
X81762600Y-110896400D03*
X81762600Y-108356400D03*
%TD*%
D12*
%TO.C,SW1*%
X72847200Y-110896400D03*
D11*
X72847200Y-108356400D03*
%TD*%
D12*
%TO.C,J7*%
X86868000Y-88849200D03*
D11*
X89408000Y-88849200D03*
X86868000Y-91389200D03*
X89408000Y-91389200D03*
X86868000Y-93929200D03*
X89408000Y-93929200D03*
%TD*%
%TO.C,R13*%
G36*
G01*
X82529000Y-92399400D02*
X83079000Y-92399400D01*
G75*
G02*
X83279000Y-92599400I0J-200000D01*
G01*
X83279000Y-92999400D01*
G75*
G02*
X83079000Y-93199400I-200000J0D01*
G01*
X82529000Y-93199400D01*
G75*
G02*
X82329000Y-92999400I0J200000D01*
G01*
X82329000Y-92599400D01*
G75*
G02*
X82529000Y-92399400I200000J0D01*
G01*
G37*
G36*
G01*
X82529000Y-94049400D02*
X83079000Y-94049400D01*
G75*
G02*
X83279000Y-94249400I0J-200000D01*
G01*
X83279000Y-94649400D01*
G75*
G02*
X83079000Y-94849400I-200000J0D01*
G01*
X82529000Y-94849400D01*
G75*
G02*
X82329000Y-94649400I0J200000D01*
G01*
X82329000Y-94249400D01*
G75*
G02*
X82529000Y-94049400I200000J0D01*
G01*
G37*
%TD*%
D17*
%TO.C,U4*%
X44895500Y-96978600D03*
X58895500Y-96978600D03*
X44895500Y-94978600D03*
X58895500Y-94978600D03*
X44895500Y-92978600D03*
X58895500Y-92978600D03*
X44895500Y-90978600D03*
X58895500Y-90978600D03*
X44895500Y-88978600D03*
X58895500Y-88978600D03*
X44895500Y-86978600D03*
X58895500Y-86978600D03*
X44895500Y-84978600D03*
X58895500Y-84978600D03*
X44895500Y-82978600D03*
X58895500Y-82978600D03*
%TD*%
D18*
%TO.C,SW2*%
X90746400Y-109677200D03*
X86596400Y-109677200D03*
%TD*%
%TO.C,R7*%
G36*
G01*
X63100000Y-94952000D02*
X62550000Y-94952000D01*
G75*
G02*
X62350000Y-94752000I0J200000D01*
G01*
X62350000Y-94352000D01*
G75*
G02*
X62550000Y-94152000I200000J0D01*
G01*
X63100000Y-94152000D01*
G75*
G02*
X63300000Y-94352000I0J-200000D01*
G01*
X63300000Y-94752000D01*
G75*
G02*
X63100000Y-94952000I-200000J0D01*
G01*
G37*
G36*
G01*
X63100000Y-96602000D02*
X62550000Y-96602000D01*
G75*
G02*
X62350000Y-96402000I0J200000D01*
G01*
X62350000Y-96002000D01*
G75*
G02*
X62550000Y-95802000I200000J0D01*
G01*
X63100000Y-95802000D01*
G75*
G02*
X63300000Y-96002000I0J-200000D01*
G01*
X63300000Y-96402000D01*
G75*
G02*
X63100000Y-96602000I-200000J0D01*
G01*
G37*
%TD*%
D17*
%TO.C,J11*%
X23914100Y-105727500D03*
X23914100Y-103187500D03*
X23914100Y-100647500D03*
X23914100Y-98107500D03*
%TD*%
D19*
%TO.C,H4*%
X21869400Y-160451800D03*
D20*
X23744400Y-160451800D03*
X23195225Y-161777625D03*
X21869400Y-162326800D03*
X20543575Y-161777625D03*
X19994400Y-160451800D03*
X20543575Y-159125975D03*
X21869400Y-158576800D03*
X23195225Y-159125975D03*
%TD*%
%TO.C,C5*%
G36*
G01*
X42307700Y-87446400D02*
X42807700Y-87446400D01*
G75*
G02*
X43032700Y-87671400I0J-225000D01*
G01*
X43032700Y-88121400D01*
G75*
G02*
X42807700Y-88346400I-225000J0D01*
G01*
X42307700Y-88346400D01*
G75*
G02*
X42082700Y-88121400I0J225000D01*
G01*
X42082700Y-87671400D01*
G75*
G02*
X42307700Y-87446400I225000J0D01*
G01*
G37*
G36*
G01*
X42307700Y-88996400D02*
X42807700Y-88996400D01*
G75*
G02*
X43032700Y-89221400I0J-225000D01*
G01*
X43032700Y-89671400D01*
G75*
G02*
X42807700Y-89896400I-225000J0D01*
G01*
X42307700Y-89896400D01*
G75*
G02*
X42082700Y-89671400I0J225000D01*
G01*
X42082700Y-89221400D01*
G75*
G02*
X42307700Y-88996400I225000J0D01*
G01*
G37*
%TD*%
D19*
%TO.C,H3*%
X21869400Y-83413600D03*
D20*
X23744400Y-83413600D03*
X23195225Y-84739425D03*
X21869400Y-85288600D03*
X20543575Y-84739425D03*
X19994400Y-83413600D03*
X20543575Y-82087775D03*
X21869400Y-81538600D03*
X23195225Y-82087775D03*
%TD*%
D19*
%TO.C,H2*%
X89865200Y-160451800D03*
D20*
X91740200Y-160451800D03*
X91191025Y-161777625D03*
X89865200Y-162326800D03*
X88539375Y-161777625D03*
X87990200Y-160451800D03*
X88539375Y-159125975D03*
X89865200Y-158576800D03*
X91191025Y-159125975D03*
%TD*%
D19*
%TO.C,H1*%
X89865200Y-83439000D03*
D20*
X91740200Y-83439000D03*
X91191025Y-84764825D03*
X89865200Y-85314000D03*
X88539375Y-84764825D03*
X87990200Y-83439000D03*
X88539375Y-82113175D03*
X89865200Y-81564000D03*
X91191025Y-82113175D03*
%TD*%
D21*
%TO.C,U2*%
G36*
X56931200Y-111926400D02*
G01*
X56931200Y-108801400D01*
X57347700Y-108801400D01*
X57347700Y-107326400D01*
X58247700Y-107326400D01*
X58247700Y-108801400D01*
X58664200Y-108801400D01*
X58664200Y-111926400D01*
X56931200Y-111926400D01*
G37*
D22*
X56297700Y-107976400D03*
X59297700Y-107976400D03*
%TD*%
%TO.C,R14*%
G36*
G01*
X59251400Y-106233600D02*
X59251400Y-105683600D01*
G75*
G02*
X59451400Y-105483600I200000J0D01*
G01*
X59851400Y-105483600D01*
G75*
G02*
X60051400Y-105683600I0J-200000D01*
G01*
X60051400Y-106233600D01*
G75*
G02*
X59851400Y-106433600I-200000J0D01*
G01*
X59451400Y-106433600D01*
G75*
G02*
X59251400Y-106233600I0J200000D01*
G01*
G37*
G36*
G01*
X57601400Y-106233600D02*
X57601400Y-105683600D01*
G75*
G02*
X57801400Y-105483600I200000J0D01*
G01*
X58201400Y-105483600D01*
G75*
G02*
X58401400Y-105683600I0J-200000D01*
G01*
X58401400Y-106233600D01*
G75*
G02*
X58201400Y-106433600I-200000J0D01*
G01*
X57801400Y-106433600D01*
G75*
G02*
X57601400Y-106233600I0J200000D01*
G01*
G37*
%TD*%
%TO.C,R4*%
G36*
G01*
X64943400Y-106788400D02*
X64393400Y-106788400D01*
G75*
G02*
X64193400Y-106588400I0J200000D01*
G01*
X64193400Y-106188400D01*
G75*
G02*
X64393400Y-105988400I200000J0D01*
G01*
X64943400Y-105988400D01*
G75*
G02*
X65143400Y-106188400I0J-200000D01*
G01*
X65143400Y-106588400D01*
G75*
G02*
X64943400Y-106788400I-200000J0D01*
G01*
G37*
G36*
G01*
X64943400Y-108438400D02*
X64393400Y-108438400D01*
G75*
G02*
X64193400Y-108238400I0J200000D01*
G01*
X64193400Y-107838400D01*
G75*
G02*
X64393400Y-107638400I200000J0D01*
G01*
X64943400Y-107638400D01*
G75*
G02*
X65143400Y-107838400I0J-200000D01*
G01*
X65143400Y-108238400D01*
G75*
G02*
X64943400Y-108438400I-200000J0D01*
G01*
G37*
%TD*%
%TO.C,R3*%
G36*
G01*
X66594400Y-110090400D02*
X66044400Y-110090400D01*
G75*
G02*
X65844400Y-109890400I0J200000D01*
G01*
X65844400Y-109490400D01*
G75*
G02*
X66044400Y-109290400I200000J0D01*
G01*
X66594400Y-109290400D01*
G75*
G02*
X66794400Y-109490400I0J-200000D01*
G01*
X66794400Y-109890400D01*
G75*
G02*
X66594400Y-110090400I-200000J0D01*
G01*
G37*
G36*
G01*
X66594400Y-111740400D02*
X66044400Y-111740400D01*
G75*
G02*
X65844400Y-111540400I0J200000D01*
G01*
X65844400Y-111140400D01*
G75*
G02*
X66044400Y-110940400I200000J0D01*
G01*
X66594400Y-110940400D01*
G75*
G02*
X66794400Y-111140400I0J-200000D01*
G01*
X66794400Y-111540400D01*
G75*
G02*
X66594400Y-111740400I-200000J0D01*
G01*
G37*
%TD*%
%TO.C,R2*%
G36*
G01*
X64507700Y-110940400D02*
X65057700Y-110940400D01*
G75*
G02*
X65257700Y-111140400I0J-200000D01*
G01*
X65257700Y-111540400D01*
G75*
G02*
X65057700Y-111740400I-200000J0D01*
G01*
X64507700Y-111740400D01*
G75*
G02*
X64307700Y-111540400I0J200000D01*
G01*
X64307700Y-111140400D01*
G75*
G02*
X64507700Y-110940400I200000J0D01*
G01*
G37*
G36*
G01*
X64507700Y-109290400D02*
X65057700Y-109290400D01*
G75*
G02*
X65257700Y-109490400I0J-200000D01*
G01*
X65257700Y-109890400D01*
G75*
G02*
X65057700Y-110090400I-200000J0D01*
G01*
X64507700Y-110090400D01*
G75*
G02*
X64307700Y-109890400I0J200000D01*
G01*
X64307700Y-109490400D01*
G75*
G02*
X64507700Y-109290400I200000J0D01*
G01*
G37*
%TD*%
D23*
%TO.C,Q3*%
X63128400Y-106908600D03*
X61128400Y-107858600D03*
X61128400Y-105958600D03*
%TD*%
%TO.C,Q2*%
X69821300Y-110617000D03*
X67821300Y-111567000D03*
X67821300Y-109667000D03*
%TD*%
D24*
%TO.C,Q1*%
X62242700Y-111515400D03*
X61292700Y-109515400D03*
X63192700Y-109515400D03*
%TD*%
%TO.C,C4*%
G36*
G01*
X54745700Y-107879000D02*
X54245700Y-107879000D01*
G75*
G02*
X54020700Y-107654000I0J225000D01*
G01*
X54020700Y-107204000D01*
G75*
G02*
X54245700Y-106979000I225000J0D01*
G01*
X54745700Y-106979000D01*
G75*
G02*
X54970700Y-107204000I0J-225000D01*
G01*
X54970700Y-107654000D01*
G75*
G02*
X54745700Y-107879000I-225000J0D01*
G01*
G37*
G36*
G01*
X54745700Y-109429000D02*
X54245700Y-109429000D01*
G75*
G02*
X54020700Y-109204000I0J225000D01*
G01*
X54020700Y-108754000D01*
G75*
G02*
X54245700Y-108529000I225000J0D01*
G01*
X54745700Y-108529000D01*
G75*
G02*
X54970700Y-108754000I0J-225000D01*
G01*
X54970700Y-109204000D01*
G75*
G02*
X54745700Y-109429000I-225000J0D01*
G01*
G37*
%TD*%
%TO.C,C3*%
G36*
G01*
X56103400Y-106208600D02*
X56103400Y-105708600D01*
G75*
G02*
X56328400Y-105483600I225000J0D01*
G01*
X56778400Y-105483600D01*
G75*
G02*
X57003400Y-105708600I0J-225000D01*
G01*
X57003400Y-106208600D01*
G75*
G02*
X56778400Y-106433600I-225000J0D01*
G01*
X56328400Y-106433600D01*
G75*
G02*
X56103400Y-106208600I0J225000D01*
G01*
G37*
G36*
G01*
X54553400Y-106208600D02*
X54553400Y-105708600D01*
G75*
G02*
X54778400Y-105483600I225000J0D01*
G01*
X55228400Y-105483600D01*
G75*
G02*
X55453400Y-105708600I0J-225000D01*
G01*
X55453400Y-106208600D01*
G75*
G02*
X55228400Y-106433600I-225000J0D01*
G01*
X54778400Y-106433600D01*
G75*
G02*
X54553400Y-106208600I0J225000D01*
G01*
G37*
%TD*%
%TO.C,J4*%
G36*
G01*
X87237998Y-149091000D02*
X89038002Y-149091000D01*
G75*
G02*
X89288000Y-149340998I0J-249998D01*
G01*
X89288000Y-151141002D01*
G75*
G02*
X89038002Y-151391000I-249998J0D01*
G01*
X87237998Y-151391000D01*
G75*
G02*
X86988000Y-151141002I0J249998D01*
G01*
X86988000Y-149340998D01*
G75*
G02*
X87237998Y-149091000I249998J0D01*
G01*
G37*
%TD*%
%TO.C,J3*%
G36*
G01*
X27166998Y-149091000D02*
X28967002Y-149091000D01*
G75*
G02*
X29217000Y-149340998I0J-249998D01*
G01*
X29217000Y-151141002D01*
G75*
G02*
X28967002Y-151391000I-249998J0D01*
G01*
X27166998Y-151391000D01*
G75*
G02*
X26917000Y-151141002I0J249998D01*
G01*
X26917000Y-149340998D01*
G75*
G02*
X27166998Y-149091000I249998J0D01*
G01*
G37*
%TD*%
%TO.C,J2*%
G36*
G01*
X27166998Y-133089000D02*
X28967002Y-133089000D01*
G75*
G02*
X29217000Y-133338998I0J-249998D01*
G01*
X29217000Y-135139002D01*
G75*
G02*
X28967002Y-135389000I-249998J0D01*
G01*
X27166998Y-135389000D01*
G75*
G02*
X26917000Y-135139002I0J249998D01*
G01*
X26917000Y-133338998D01*
G75*
G02*
X27166998Y-133089000I249998J0D01*
G01*
G37*
%TD*%
%TO.C,J1*%
G36*
G01*
X87237998Y-133089000D02*
X89038002Y-133089000D01*
G75*
G02*
X89288000Y-133338998I0J-249998D01*
G01*
X89288000Y-135139002D01*
G75*
G02*
X89038002Y-135389000I-249998J0D01*
G01*
X87237998Y-135389000D01*
G75*
G02*
X86988000Y-135139002I0J249998D01*
G01*
X86988000Y-133338998D01*
G75*
G02*
X87237998Y-133089000I249998J0D01*
G01*
G37*
%TD*%
D25*
%TO.C,Y1*%
X80868700Y-102616900D03*
X78668700Y-102616900D03*
X78668700Y-104316900D03*
X80868700Y-104316900D03*
%TD*%
D24*
%TO.C,U1*%
X51955700Y-112014300D03*
X51005700Y-110014300D03*
X52905700Y-110014300D03*
%TD*%
%TO.C,R10*%
G36*
G01*
X84307000Y-109582000D02*
X84857000Y-109582000D01*
G75*
G02*
X85057000Y-109782000I0J-200000D01*
G01*
X85057000Y-110182000D01*
G75*
G02*
X84857000Y-110382000I-200000J0D01*
G01*
X84307000Y-110382000D01*
G75*
G02*
X84107000Y-110182000I0J200000D01*
G01*
X84107000Y-109782000D01*
G75*
G02*
X84307000Y-109582000I200000J0D01*
G01*
G37*
G36*
G01*
X84307000Y-111232000D02*
X84857000Y-111232000D01*
G75*
G02*
X85057000Y-111432000I0J-200000D01*
G01*
X85057000Y-111832000D01*
G75*
G02*
X84857000Y-112032000I-200000J0D01*
G01*
X84307000Y-112032000D01*
G75*
G02*
X84107000Y-111832000I0J200000D01*
G01*
X84107000Y-111432000D01*
G75*
G02*
X84307000Y-111232000I200000J0D01*
G01*
G37*
%TD*%
%TO.C,R9*%
G36*
G01*
X21213400Y-95549000D02*
X21763400Y-95549000D01*
G75*
G02*
X21963400Y-95749000I0J-200000D01*
G01*
X21963400Y-96149000D01*
G75*
G02*
X21763400Y-96349000I-200000J0D01*
G01*
X21213400Y-96349000D01*
G75*
G02*
X21013400Y-96149000I0J200000D01*
G01*
X21013400Y-95749000D01*
G75*
G02*
X21213400Y-95549000I200000J0D01*
G01*
G37*
G36*
G01*
X21213400Y-97199000D02*
X21763400Y-97199000D01*
G75*
G02*
X21963400Y-97399000I0J-200000D01*
G01*
X21963400Y-97799000D01*
G75*
G02*
X21763400Y-97999000I-200000J0D01*
G01*
X21213400Y-97999000D01*
G75*
G02*
X21013400Y-97799000I0J200000D01*
G01*
X21013400Y-97399000D01*
G75*
G02*
X21213400Y-97199000I200000J0D01*
G01*
G37*
%TD*%
%TO.C,R8*%
G36*
G01*
X61539800Y-94952000D02*
X60989800Y-94952000D01*
G75*
G02*
X60789800Y-94752000I0J200000D01*
G01*
X60789800Y-94352000D01*
G75*
G02*
X60989800Y-94152000I200000J0D01*
G01*
X61539800Y-94152000D01*
G75*
G02*
X61739800Y-94352000I0J-200000D01*
G01*
X61739800Y-94752000D01*
G75*
G02*
X61539800Y-94952000I-200000J0D01*
G01*
G37*
G36*
G01*
X61539800Y-96602000D02*
X60989800Y-96602000D01*
G75*
G02*
X60789800Y-96402000I0J200000D01*
G01*
X60789800Y-96002000D01*
G75*
G02*
X60989800Y-95802000I200000J0D01*
G01*
X61539800Y-95802000D01*
G75*
G02*
X61739800Y-96002000I0J-200000D01*
G01*
X61739800Y-96402000D01*
G75*
G02*
X61539800Y-96602000I-200000J0D01*
G01*
G37*
%TD*%
%TO.C,R6*%
G36*
G01*
X21213400Y-98597000D02*
X21763400Y-98597000D01*
G75*
G02*
X21963400Y-98797000I0J-200000D01*
G01*
X21963400Y-99197000D01*
G75*
G02*
X21763400Y-99397000I-200000J0D01*
G01*
X21213400Y-99397000D01*
G75*
G02*
X21013400Y-99197000I0J200000D01*
G01*
X21013400Y-98797000D01*
G75*
G02*
X21213400Y-98597000I200000J0D01*
G01*
G37*
G36*
G01*
X21213400Y-100247000D02*
X21763400Y-100247000D01*
G75*
G02*
X21963400Y-100447000I0J-200000D01*
G01*
X21963400Y-100847000D01*
G75*
G02*
X21763400Y-101047000I-200000J0D01*
G01*
X21213400Y-101047000D01*
G75*
G02*
X21013400Y-100847000I0J200000D01*
G01*
X21013400Y-100447000D01*
G75*
G02*
X21213400Y-100247000I200000J0D01*
G01*
G37*
%TD*%
%TO.C,R5*%
G36*
G01*
X64638600Y-94926600D02*
X64088600Y-94926600D01*
G75*
G02*
X63888600Y-94726600I0J200000D01*
G01*
X63888600Y-94326600D01*
G75*
G02*
X64088600Y-94126600I200000J0D01*
G01*
X64638600Y-94126600D01*
G75*
G02*
X64838600Y-94326600I0J-200000D01*
G01*
X64838600Y-94726600D01*
G75*
G02*
X64638600Y-94926600I-200000J0D01*
G01*
G37*
G36*
G01*
X64638600Y-96576600D02*
X64088600Y-96576600D01*
G75*
G02*
X63888600Y-96376600I0J200000D01*
G01*
X63888600Y-95976600D01*
G75*
G02*
X64088600Y-95776600I200000J0D01*
G01*
X64638600Y-95776600D01*
G75*
G02*
X64838600Y-95976600I0J-200000D01*
G01*
X64838600Y-96376600D01*
G75*
G02*
X64638600Y-96576600I-200000J0D01*
G01*
G37*
%TD*%
%TO.C,R1*%
G36*
G01*
X83079000Y-98049900D02*
X82529000Y-98049900D01*
G75*
G02*
X82329000Y-97849900I0J200000D01*
G01*
X82329000Y-97449900D01*
G75*
G02*
X82529000Y-97249900I200000J0D01*
G01*
X83079000Y-97249900D01*
G75*
G02*
X83279000Y-97449900I0J-200000D01*
G01*
X83279000Y-97849900D01*
G75*
G02*
X83079000Y-98049900I-200000J0D01*
G01*
G37*
G36*
G01*
X83079000Y-96399900D02*
X82529000Y-96399900D01*
G75*
G02*
X82329000Y-96199900I0J200000D01*
G01*
X82329000Y-95799900D01*
G75*
G02*
X82529000Y-95599900I200000J0D01*
G01*
X83079000Y-95599900D01*
G75*
G02*
X83279000Y-95799900I0J-200000D01*
G01*
X83279000Y-96199900D01*
G75*
G02*
X83079000Y-96399900I-200000J0D01*
G01*
G37*
%TD*%
D26*
%TO.C,J13*%
X37465000Y-85979000D03*
D27*
X40005000Y-83439000D03*
X34925000Y-83439000D03*
X34925000Y-88519000D03*
X40005000Y-88519000D03*
%TD*%
%TO.C,J8*%
G36*
G01*
X88482000Y-104990000D02*
X87032000Y-104990000D01*
G75*
G02*
X86782000Y-104740000I0J250000D01*
G01*
X86782000Y-103540000D01*
G75*
G02*
X87032000Y-103290000I250000J0D01*
G01*
X88482000Y-103290000D01*
G75*
G02*
X88732000Y-103540000I0J-250000D01*
G01*
X88732000Y-104740000D01*
G75*
G02*
X88482000Y-104990000I-250000J0D01*
G01*
G37*
D28*
X87757000Y-101640000D03*
X87757000Y-99140000D03*
%TD*%
%TO.C,C11*%
G36*
G01*
X71304700Y-87079900D02*
X71304700Y-86579900D01*
G75*
G02*
X71529700Y-86354900I225000J0D01*
G01*
X71979700Y-86354900D01*
G75*
G02*
X72204700Y-86579900I0J-225000D01*
G01*
X72204700Y-87079900D01*
G75*
G02*
X71979700Y-87304900I-225000J0D01*
G01*
X71529700Y-87304900D01*
G75*
G02*
X71304700Y-87079900I0J225000D01*
G01*
G37*
G36*
G01*
X72854700Y-87079900D02*
X72854700Y-86579900D01*
G75*
G02*
X73079700Y-86354900I225000J0D01*
G01*
X73529700Y-86354900D01*
G75*
G02*
X73754700Y-86579900I0J-225000D01*
G01*
X73754700Y-87079900D01*
G75*
G02*
X73529700Y-87304900I-225000J0D01*
G01*
X73079700Y-87304900D01*
G75*
G02*
X72854700Y-87079900I0J225000D01*
G01*
G37*
%TD*%
%TO.C,C9*%
G36*
G01*
X74352700Y-87079900D02*
X74352700Y-86579900D01*
G75*
G02*
X74577700Y-86354900I225000J0D01*
G01*
X75027700Y-86354900D01*
G75*
G02*
X75252700Y-86579900I0J-225000D01*
G01*
X75252700Y-87079900D01*
G75*
G02*
X75027700Y-87304900I-225000J0D01*
G01*
X74577700Y-87304900D01*
G75*
G02*
X74352700Y-87079900I0J225000D01*
G01*
G37*
G36*
G01*
X75902700Y-87079900D02*
X75902700Y-86579900D01*
G75*
G02*
X76127700Y-86354900I225000J0D01*
G01*
X76577700Y-86354900D01*
G75*
G02*
X76802700Y-86579900I0J-225000D01*
G01*
X76802700Y-87079900D01*
G75*
G02*
X76577700Y-87304900I-225000J0D01*
G01*
X76127700Y-87304900D01*
G75*
G02*
X75902700Y-87079900I0J225000D01*
G01*
G37*
%TD*%
%TO.C,C8*%
G36*
G01*
X76597700Y-102241900D02*
X77097700Y-102241900D01*
G75*
G02*
X77322700Y-102466900I0J-225000D01*
G01*
X77322700Y-102916900D01*
G75*
G02*
X77097700Y-103141900I-225000J0D01*
G01*
X76597700Y-103141900D01*
G75*
G02*
X76372700Y-102916900I0J225000D01*
G01*
X76372700Y-102466900D01*
G75*
G02*
X76597700Y-102241900I225000J0D01*
G01*
G37*
G36*
G01*
X76597700Y-103791900D02*
X77097700Y-103791900D01*
G75*
G02*
X77322700Y-104016900I0J-225000D01*
G01*
X77322700Y-104466900D01*
G75*
G02*
X77097700Y-104691900I-225000J0D01*
G01*
X76597700Y-104691900D01*
G75*
G02*
X76372700Y-104466900I0J225000D01*
G01*
X76372700Y-104016900D01*
G75*
G02*
X76597700Y-103791900I225000J0D01*
G01*
G37*
%TD*%
%TO.C,C7*%
G36*
G01*
X83066700Y-104691900D02*
X82566700Y-104691900D01*
G75*
G02*
X82341700Y-104466900I0J225000D01*
G01*
X82341700Y-104016900D01*
G75*
G02*
X82566700Y-103791900I225000J0D01*
G01*
X83066700Y-103791900D01*
G75*
G02*
X83291700Y-104016900I0J-225000D01*
G01*
X83291700Y-104466900D01*
G75*
G02*
X83066700Y-104691900I-225000J0D01*
G01*
G37*
G36*
G01*
X83066700Y-103141900D02*
X82566700Y-103141900D01*
G75*
G02*
X82341700Y-102916900I0J225000D01*
G01*
X82341700Y-102466900D01*
G75*
G02*
X82566700Y-102241900I225000J0D01*
G01*
X83066700Y-102241900D01*
G75*
G02*
X83291700Y-102466900I0J-225000D01*
G01*
X83291700Y-102916900D01*
G75*
G02*
X83066700Y-103141900I-225000J0D01*
G01*
G37*
%TD*%
%TO.C,C2*%
G36*
G01*
X51455700Y-108246100D02*
X51455700Y-108746100D01*
G75*
G02*
X51230700Y-108971100I-225000J0D01*
G01*
X50780700Y-108971100D01*
G75*
G02*
X50555700Y-108746100I0J225000D01*
G01*
X50555700Y-108246100D01*
G75*
G02*
X50780700Y-108021100I225000J0D01*
G01*
X51230700Y-108021100D01*
G75*
G02*
X51455700Y-108246100I0J-225000D01*
G01*
G37*
G36*
G01*
X53005700Y-108246100D02*
X53005700Y-108746100D01*
G75*
G02*
X52780700Y-108971100I-225000J0D01*
G01*
X52330700Y-108971100D01*
G75*
G02*
X52105700Y-108746100I0J225000D01*
G01*
X52105700Y-108246100D01*
G75*
G02*
X52330700Y-108021100I225000J0D01*
G01*
X52780700Y-108021100D01*
G75*
G02*
X53005700Y-108246100I0J-225000D01*
G01*
G37*
%TD*%
%TO.C,C1*%
G36*
G01*
X54245700Y-111564300D02*
X54745700Y-111564300D01*
G75*
G02*
X54970700Y-111789300I0J-225000D01*
G01*
X54970700Y-112239300D01*
G75*
G02*
X54745700Y-112464300I-225000J0D01*
G01*
X54245700Y-112464300D01*
G75*
G02*
X54020700Y-112239300I0J225000D01*
G01*
X54020700Y-111789300D01*
G75*
G02*
X54245700Y-111564300I225000J0D01*
G01*
G37*
G36*
G01*
X54245700Y-110014300D02*
X54745700Y-110014300D01*
G75*
G02*
X54970700Y-110239300I0J-225000D01*
G01*
X54970700Y-110689300D01*
G75*
G02*
X54745700Y-110914300I-225000J0D01*
G01*
X54245700Y-110914300D01*
G75*
G02*
X54020700Y-110689300I0J225000D01*
G01*
X54020700Y-110239300D01*
G75*
G02*
X54245700Y-110014300I225000J0D01*
G01*
G37*
%TD*%
M02*
