M48
; DRILL file {KiCad (5.1.10-1-10_14)} date Tuesday, August 31, 2021 at 12:30:15 AM
; FORMAT={3:3/ absolute / metric / suppress leading zeros}
; #@! TF.CreationDate,2021-08-31T00:30:15+02:00
; #@! TF.GenerationSoftware,Kicad,Pcbnew,(5.1.10-1-10_14)
FMAT,2
METRIC,TZ
T1C0.350
T2C1.000
T3C1.020
T4C2.700
T5C3.300
%
G90
G05
T1
X20002Y-120015
X20701Y-124143
X20828Y-115189
X20828Y-122047
X21336Y-144907
X22327Y-108546
X22606Y-131064
X22924Y-146368
X23305Y-130048
X24257Y-116856
X24511Y-144907
X24832Y-106071
X25083Y-123571
X25083Y-130048
X25524Y-111319
X25781Y-107251
X26035Y-118664
X27051Y-109220
X28067Y-112105
X29091Y-109842
X30036Y-114110
X30036Y-117919
X30036Y-121793
X31140Y-126060
X33211Y-107442
X33719Y-114110
X33719Y-117919
X33719Y-121793
X35306Y-110998
X35458Y-80518
X35458Y-82321
X35458Y-84074
X35458Y-85877
X35458Y-87630
X35814Y-108331
X36195Y-79781
X36957Y-89916
X37274Y-114110
X37274Y-117919
X37274Y-121793
X37922Y-79781
X38354Y-108077
X38837Y-80518
X38837Y-82042
X39185Y-86251
X39185Y-87452
X39243Y-108458
X39751Y-104521
X40183Y-126314
X40435Y-85652
X40435Y-86852
X40435Y-88051
X40767Y-80543
X40792Y-82042
X41210Y-108140
X41427Y-79781
X41465Y-122238
X42199Y-118161
X43205Y-79781
X43371Y-119824
X44171Y-80543
X44171Y-82321
X44171Y-84099
X44171Y-85877
X44171Y-87655
X45813Y-119859
X47701Y-108991
T2
X24384Y-151130
X24384Y-153670
X26416Y-83248
X26416Y-85789
X28118Y-129210
X28956Y-83248
X28956Y-85789
X30658Y-129210
X31496Y-83248
X31496Y-85789
X33198Y-129210
X35738Y-129210
X38278Y-129210
X40818Y-129210
X43890Y-105386
X43890Y-107926
X43890Y-110466
X44323Y-91250
X44323Y-93789
X44323Y-98616
X44323Y-101156
X46430Y-105386
X46430Y-107926
X46430Y-110466
X78296Y-83122
X78296Y-125032
X80836Y-83122
X80836Y-125032
X83376Y-83122
X83376Y-125032
T3
X30290Y-140335
X30290Y-155325
T4
X21869Y-83414
X21869Y-160452
X89865Y-83439
X89865Y-160452
T5
X57455Y-140335
X57455Y-155325
T0
M30
