M48
; DRILL file {KiCad (5.1.9-0-10_14)} date Wednesday, May 05, 2021 at 09:44:11 PM
; FORMAT={3:3/ absolute / metric / suppress leading zeros}
; #@! TF.CreationDate,2021-05-05T21:44:11+02:00
; #@! TF.GenerationSoftware,Kicad,Pcbnew,(5.1.9-0-10_14)
FMAT,2
METRIC,TZ
T1C0.350
T2C0.800
T3C0.950
T4C1.000
T5C1.020
T6C1.100
T7C1.500
T8C1.700
T9C2.500
T10C3.300
%
G90
G05
T1
X19925Y-125875
X20025Y-110425
X20310Y-115941
X20390Y-124213
X21336Y-144907
X22924Y-146368
X24447Y-117856
X24511Y-144907
X24613Y-130810
X25025Y-125950
X26416Y-111697
X27330Y-111709
X27362Y-108846
X28258Y-111697
X28371Y-108809
X28829Y-118047
X29498Y-108839
X32512Y-108902
X33840Y-122232
X34671Y-126856
X37525Y-108144
X37973Y-109908
X38550Y-86950
X38550Y-88150
X38550Y-89350
X38708Y-125830
X39800Y-86350
X39800Y-87550
X39800Y-88750
X39815Y-108141
X40831Y-122301
X41465Y-110363
X41588Y-107950
X41592Y-118225
T2
X25172Y-90806
X25172Y-104806
X27172Y-90806
X27172Y-104806
X29172Y-90806
X29172Y-104806
X31172Y-90806
X31172Y-104806
X33172Y-90806
X33172Y-104806
X35172Y-90806
X35172Y-104806
X37172Y-90806
X37172Y-104806
X39172Y-90806
X39172Y-104806
T3
X45912Y-116243
X45912Y-118743
X45912Y-121243
T4
X24384Y-151130
X24384Y-153670
X27195Y-83350
X27195Y-85890
X27700Y-128588
X29735Y-83350
X29735Y-85890
X30240Y-128588
X32275Y-83350
X32275Y-85890
X32780Y-128588
X35320Y-128588
X37860Y-128588
X40400Y-128588
X43255Y-105449
X43255Y-107989
X43255Y-110529
X43312Y-91552
X43312Y-94092
X43312Y-98327
X43312Y-100867
X45795Y-105449
X45795Y-107989
X45795Y-110529
X78232Y-83122
X78232Y-125032
X80772Y-83122
X80772Y-125032
X83312Y-83122
X83312Y-125032
T5
X30290Y-140335
X30290Y-155325
T6
X30416Y-136716
X30416Y-152718
X90488Y-136716
X90488Y-152718
T7
X39172Y-84900
T8
X36632Y-82360
X36632Y-87440
X41712Y-82360
X41712Y-87440
T9
X21869Y-83414
X21869Y-160452
X89865Y-83439
X89865Y-160452
T10
X57455Y-140335
X57455Y-155325
T0
M30
