%TF.GenerationSoftware,KiCad,Pcbnew,(5.1.9-0-10_14)*%
%TF.CreationDate,2021-05-24T21:37:01+02:00*%
%TF.ProjectId,mfm-v3-smd,6d666d2d-7633-42d7-936d-642e6b696361,rev?*%
%TF.SameCoordinates,Original*%
%TF.FileFunction,Soldermask,Top*%
%TF.FilePolarity,Negative*%
%FSLAX46Y46*%
G04 Gerber Fmt 4.6, Leading zero omitted, Abs format (unit mm)*
G04 Created by KiCad (PCBNEW (5.1.9-0-10_14)) date 2021-05-24 21:37:01*
%MOMM*%
%LPD*%
G01*
G04 APERTURE LIST*
%ADD10C,2.127000*%
%ADD11C,0.010000*%
%ADD12O,1.700000X1.700000*%
%ADD13R,1.700000X1.700000*%
%ADD14C,3.300000*%
%ADD15C,2.000000*%
%ADD16R,2.000000X2.000000*%
%ADD17R,0.800000X0.900000*%
%ADD18O,1.200000X2.000000*%
%ADD19R,1.500000X0.550000*%
%ADD20R,0.550000X1.500000*%
%ADD21C,2.700000*%
%ADD22C,2.050000*%
%ADD23R,1.300000X0.900000*%
%ADD24C,0.100000*%
%ADD25R,1.500000X2.000000*%
%ADD26R,1.200000X1.800000*%
G04 APERTURE END LIST*
D10*
X39807200Y-84836500D02*
X39807200Y-90742800D01*
D11*
%TO.C,J11*%
G36*
X38467200Y-88816500D02*
G01*
X35827200Y-88816500D01*
X35827200Y-80856500D01*
X38467200Y-80856500D01*
X38467200Y-83116500D01*
X38415706Y-83159432D01*
X38366370Y-83203081D01*
X38318324Y-83248146D01*
X38271609Y-83294590D01*
X38226265Y-83342373D01*
X38182329Y-83391454D01*
X38139840Y-83441793D01*
X38098833Y-83493346D01*
X38059342Y-83546070D01*
X38021402Y-83599920D01*
X37985044Y-83654851D01*
X37950299Y-83710816D01*
X37917197Y-83767768D01*
X37885765Y-83825659D01*
X37856030Y-83884439D01*
X37828017Y-83944060D01*
X37801750Y-84004470D01*
X37777251Y-84065618D01*
X37754541Y-84127453D01*
X37733639Y-84189922D01*
X37714563Y-84252973D01*
X37697328Y-84316552D01*
X37681951Y-84380605D01*
X37668442Y-84445079D01*
X37656815Y-84509918D01*
X37647078Y-84575068D01*
X37639240Y-84640473D01*
X37633308Y-84706079D01*
X37629287Y-84771830D01*
X37627200Y-84836500D01*
X37628127Y-84888224D01*
X37631068Y-84955583D01*
X37635967Y-85022829D01*
X37642820Y-85089904D01*
X37651621Y-85156751D01*
X37662362Y-85223313D01*
X37675034Y-85289536D01*
X37689627Y-85355361D01*
X37706129Y-85420735D01*
X37724525Y-85485600D01*
X37744799Y-85549904D01*
X37766936Y-85613590D01*
X37790915Y-85676605D01*
X37816717Y-85738897D01*
X37844320Y-85800412D01*
X37873700Y-85861097D01*
X37904833Y-85920903D01*
X37937692Y-85979778D01*
X37972250Y-86037672D01*
X38008477Y-86094537D01*
X38046342Y-86150324D01*
X38085814Y-86204986D01*
X38126859Y-86258477D01*
X38169442Y-86310751D01*
X38213528Y-86361765D01*
X38259079Y-86411475D01*
X38306056Y-86459839D01*
X38354420Y-86506817D01*
X38404131Y-86552368D01*
X38467200Y-86606500D01*
X38467200Y-88816500D01*
G37*
X38467200Y-88816500D02*
X35827200Y-88816500D01*
X35827200Y-80856500D01*
X38467200Y-80856500D01*
X38467200Y-83116500D01*
X38415706Y-83159432D01*
X38366370Y-83203081D01*
X38318324Y-83248146D01*
X38271609Y-83294590D01*
X38226265Y-83342373D01*
X38182329Y-83391454D01*
X38139840Y-83441793D01*
X38098833Y-83493346D01*
X38059342Y-83546070D01*
X38021402Y-83599920D01*
X37985044Y-83654851D01*
X37950299Y-83710816D01*
X37917197Y-83767768D01*
X37885765Y-83825659D01*
X37856030Y-83884439D01*
X37828017Y-83944060D01*
X37801750Y-84004470D01*
X37777251Y-84065618D01*
X37754541Y-84127453D01*
X37733639Y-84189922D01*
X37714563Y-84252973D01*
X37697328Y-84316552D01*
X37681951Y-84380605D01*
X37668442Y-84445079D01*
X37656815Y-84509918D01*
X37647078Y-84575068D01*
X37639240Y-84640473D01*
X37633308Y-84706079D01*
X37629287Y-84771830D01*
X37627200Y-84836500D01*
X37628127Y-84888224D01*
X37631068Y-84955583D01*
X37635967Y-85022829D01*
X37642820Y-85089904D01*
X37651621Y-85156751D01*
X37662362Y-85223313D01*
X37675034Y-85289536D01*
X37689627Y-85355361D01*
X37706129Y-85420735D01*
X37724525Y-85485600D01*
X37744799Y-85549904D01*
X37766936Y-85613590D01*
X37790915Y-85676605D01*
X37816717Y-85738897D01*
X37844320Y-85800412D01*
X37873700Y-85861097D01*
X37904833Y-85920903D01*
X37937692Y-85979778D01*
X37972250Y-86037672D01*
X38008477Y-86094537D01*
X38046342Y-86150324D01*
X38085814Y-86204986D01*
X38126859Y-86258477D01*
X38169442Y-86310751D01*
X38213528Y-86361765D01*
X38259079Y-86411475D01*
X38306056Y-86459839D01*
X38354420Y-86506817D01*
X38404131Y-86552368D01*
X38467200Y-86606500D01*
X38467200Y-88816500D01*
G36*
X41147200Y-88816500D02*
G01*
X43787200Y-88816500D01*
X43787200Y-80856500D01*
X41147200Y-80856500D01*
X41147200Y-83116500D01*
X41188270Y-83149737D01*
X41237189Y-83191517D01*
X41284871Y-83234702D01*
X41331277Y-83279256D01*
X41376368Y-83325141D01*
X41420105Y-83372317D01*
X41462451Y-83420746D01*
X41503371Y-83470386D01*
X41542830Y-83521195D01*
X41580795Y-83573130D01*
X41617233Y-83626148D01*
X41652113Y-83680203D01*
X41685407Y-83735249D01*
X41717085Y-83791241D01*
X41747122Y-83848130D01*
X41775491Y-83905868D01*
X41802169Y-83964408D01*
X41827133Y-84023698D01*
X41850362Y-84083690D01*
X41871836Y-84144332D01*
X41891538Y-84205572D01*
X41909450Y-84267360D01*
X41925557Y-84329643D01*
X41939846Y-84392367D01*
X41952305Y-84455481D01*
X41962923Y-84518930D01*
X41971691Y-84582662D01*
X41978601Y-84646621D01*
X41983649Y-84710755D01*
X41987200Y-84786500D01*
X41986215Y-84864782D01*
X41983206Y-84933699D01*
X41978194Y-85002499D01*
X41971183Y-85071124D01*
X41962179Y-85139516D01*
X41951190Y-85207617D01*
X41938224Y-85275370D01*
X41923294Y-85342717D01*
X41906411Y-85409602D01*
X41887590Y-85475967D01*
X41866846Y-85541756D01*
X41844198Y-85606915D01*
X41819665Y-85671387D01*
X41793266Y-85735118D01*
X41765025Y-85798055D01*
X41734966Y-85860143D01*
X41703114Y-85921331D01*
X41669495Y-85981567D01*
X41634139Y-86040799D01*
X41597074Y-86098978D01*
X41558334Y-86156055D01*
X41517950Y-86211980D01*
X41475956Y-86266708D01*
X41432388Y-86320190D01*
X41387283Y-86372383D01*
X41340680Y-86423243D01*
X41292616Y-86472725D01*
X41243134Y-86520788D01*
X41192275Y-86567392D01*
X41147200Y-86606500D01*
X41147200Y-88816500D01*
G37*
X41147200Y-88816500D02*
X43787200Y-88816500D01*
X43787200Y-80856500D01*
X41147200Y-80856500D01*
X41147200Y-83116500D01*
X41188270Y-83149737D01*
X41237189Y-83191517D01*
X41284871Y-83234702D01*
X41331277Y-83279256D01*
X41376368Y-83325141D01*
X41420105Y-83372317D01*
X41462451Y-83420746D01*
X41503371Y-83470386D01*
X41542830Y-83521195D01*
X41580795Y-83573130D01*
X41617233Y-83626148D01*
X41652113Y-83680203D01*
X41685407Y-83735249D01*
X41717085Y-83791241D01*
X41747122Y-83848130D01*
X41775491Y-83905868D01*
X41802169Y-83964408D01*
X41827133Y-84023698D01*
X41850362Y-84083690D01*
X41871836Y-84144332D01*
X41891538Y-84205572D01*
X41909450Y-84267360D01*
X41925557Y-84329643D01*
X41939846Y-84392367D01*
X41952305Y-84455481D01*
X41962923Y-84518930D01*
X41971691Y-84582662D01*
X41978601Y-84646621D01*
X41983649Y-84710755D01*
X41987200Y-84786500D01*
X41986215Y-84864782D01*
X41983206Y-84933699D01*
X41978194Y-85002499D01*
X41971183Y-85071124D01*
X41962179Y-85139516D01*
X41951190Y-85207617D01*
X41938224Y-85275370D01*
X41923294Y-85342717D01*
X41906411Y-85409602D01*
X41887590Y-85475967D01*
X41866846Y-85541756D01*
X41844198Y-85606915D01*
X41819665Y-85671387D01*
X41793266Y-85735118D01*
X41765025Y-85798055D01*
X41734966Y-85860143D01*
X41703114Y-85921331D01*
X41669495Y-85981567D01*
X41634139Y-86040799D01*
X41597074Y-86098978D01*
X41558334Y-86156055D01*
X41517950Y-86211980D01*
X41475956Y-86266708D01*
X41432388Y-86320190D01*
X41387283Y-86372383D01*
X41340680Y-86423243D01*
X41292616Y-86472725D01*
X41243134Y-86520788D01*
X41192275Y-86567392D01*
X41147200Y-86606500D01*
X41147200Y-88816500D01*
%TD*%
D12*
%TO.C,J5*%
X78295500Y-83121500D03*
X80835500Y-83121500D03*
D13*
X83375500Y-83121500D03*
%TD*%
D14*
%TO.C,BT1*%
X57454500Y-140335000D03*
X57454500Y-155325000D03*
D15*
X30289500Y-155325000D03*
D16*
X30289500Y-140335000D03*
%TD*%
D17*
%TO.C,Q1*%
X20828000Y-133016500D03*
X19878000Y-131016500D03*
X21778000Y-131016500D03*
%TD*%
D18*
%TO.C,U2*%
X25807200Y-90742800D03*
X25807200Y-104742800D03*
X27807200Y-90742800D03*
X27807200Y-104742800D03*
X29807200Y-90742800D03*
X29807200Y-104742800D03*
X31807200Y-90742800D03*
X31807200Y-104742800D03*
X33807200Y-90742800D03*
X33807200Y-104742800D03*
X35807200Y-90742800D03*
X35807200Y-104742800D03*
X37807200Y-90742800D03*
X37807200Y-104742800D03*
X39807200Y-90742800D03*
X39807200Y-104742800D03*
%TD*%
%TO.C,C7*%
G36*
G01*
X22740500Y-124392500D02*
X22740500Y-123892500D01*
G75*
G02*
X22965500Y-123667500I225000J0D01*
G01*
X23415500Y-123667500D01*
G75*
G02*
X23640500Y-123892500I0J-225000D01*
G01*
X23640500Y-124392500D01*
G75*
G02*
X23415500Y-124617500I-225000J0D01*
G01*
X22965500Y-124617500D01*
G75*
G02*
X22740500Y-124392500I0J225000D01*
G01*
G37*
G36*
G01*
X21190500Y-124392500D02*
X21190500Y-123892500D01*
G75*
G02*
X21415500Y-123667500I225000J0D01*
G01*
X21865500Y-123667500D01*
G75*
G02*
X22090500Y-123892500I0J-225000D01*
G01*
X22090500Y-124392500D01*
G75*
G02*
X21865500Y-124617500I-225000J0D01*
G01*
X21415500Y-124617500D01*
G75*
G02*
X21190500Y-124392500I0J225000D01*
G01*
G37*
%TD*%
D19*
%TO.C,U3*%
X27975000Y-113956500D03*
X27975000Y-114756500D03*
X27975000Y-115556500D03*
X27975000Y-116356500D03*
X27975000Y-117156500D03*
X27975000Y-117956500D03*
X27975000Y-118756500D03*
X27975000Y-119556500D03*
X27975000Y-120356500D03*
X27975000Y-121156500D03*
X27975000Y-121956500D03*
D20*
X29675000Y-123656500D03*
X30475000Y-123656500D03*
X31275000Y-123656500D03*
X32075000Y-123656500D03*
X32875000Y-123656500D03*
X33675000Y-123656500D03*
X34475000Y-123656500D03*
X35275000Y-123656500D03*
X36075000Y-123656500D03*
X36875000Y-123656500D03*
X37675000Y-123656500D03*
D19*
X39375000Y-121956500D03*
X39375000Y-121156500D03*
X39375000Y-120356500D03*
X39375000Y-119556500D03*
X39375000Y-118756500D03*
X39375000Y-117956500D03*
X39375000Y-117156500D03*
X39375000Y-116356500D03*
X39375000Y-115556500D03*
X39375000Y-114756500D03*
X39375000Y-113956500D03*
D20*
X37675000Y-112256500D03*
X36875000Y-112256500D03*
X36075000Y-112256500D03*
X35275000Y-112256500D03*
X34475000Y-112256500D03*
X33675000Y-112256500D03*
X32875000Y-112256500D03*
X32075000Y-112256500D03*
X31275000Y-112256500D03*
X30475000Y-112256500D03*
X29675000Y-112256500D03*
%TD*%
D12*
%TO.C,SW4*%
X44323000Y-98615500D03*
D13*
X44323000Y-101155500D03*
%TD*%
D12*
%TO.C,SW3*%
X44323000Y-93789500D03*
D13*
X44323000Y-91249500D03*
%TD*%
D12*
%TO.C,SW1*%
X24384000Y-151130000D03*
D13*
X24384000Y-153670000D03*
%TD*%
%TO.C,R2*%
G36*
G01*
X46905500Y-98215000D02*
X47455500Y-98215000D01*
G75*
G02*
X47655500Y-98415000I0J-200000D01*
G01*
X47655500Y-98815000D01*
G75*
G02*
X47455500Y-99015000I-200000J0D01*
G01*
X46905500Y-99015000D01*
G75*
G02*
X46705500Y-98815000I0J200000D01*
G01*
X46705500Y-98415000D01*
G75*
G02*
X46905500Y-98215000I200000J0D01*
G01*
G37*
G36*
G01*
X46905500Y-96565000D02*
X47455500Y-96565000D01*
G75*
G02*
X47655500Y-96765000I0J-200000D01*
G01*
X47655500Y-97165000D01*
G75*
G02*
X47455500Y-97365000I-200000J0D01*
G01*
X46905500Y-97365000D01*
G75*
G02*
X46705500Y-97165000I0J200000D01*
G01*
X46705500Y-96765000D01*
G75*
G02*
X46905500Y-96565000I200000J0D01*
G01*
G37*
%TD*%
%TO.C,R1*%
G36*
G01*
X47455500Y-94063000D02*
X46905500Y-94063000D01*
G75*
G02*
X46705500Y-93863000I0J200000D01*
G01*
X46705500Y-93463000D01*
G75*
G02*
X46905500Y-93263000I200000J0D01*
G01*
X47455500Y-93263000D01*
G75*
G02*
X47655500Y-93463000I0J-200000D01*
G01*
X47655500Y-93863000D01*
G75*
G02*
X47455500Y-94063000I-200000J0D01*
G01*
G37*
G36*
G01*
X47455500Y-95713000D02*
X46905500Y-95713000D01*
G75*
G02*
X46705500Y-95513000I0J200000D01*
G01*
X46705500Y-95113000D01*
G75*
G02*
X46905500Y-94913000I200000J0D01*
G01*
X47455500Y-94913000D01*
G75*
G02*
X47655500Y-95113000I0J-200000D01*
G01*
X47655500Y-95513000D01*
G75*
G02*
X47455500Y-95713000I-200000J0D01*
G01*
G37*
%TD*%
%TO.C,R9*%
G36*
G01*
X48937500Y-106977500D02*
X49487500Y-106977500D01*
G75*
G02*
X49687500Y-107177500I0J-200000D01*
G01*
X49687500Y-107577500D01*
G75*
G02*
X49487500Y-107777500I-200000J0D01*
G01*
X48937500Y-107777500D01*
G75*
G02*
X48737500Y-107577500I0J200000D01*
G01*
X48737500Y-107177500D01*
G75*
G02*
X48937500Y-106977500I200000J0D01*
G01*
G37*
G36*
G01*
X48937500Y-105327500D02*
X49487500Y-105327500D01*
G75*
G02*
X49687500Y-105527500I0J-200000D01*
G01*
X49687500Y-105927500D01*
G75*
G02*
X49487500Y-106127500I-200000J0D01*
G01*
X48937500Y-106127500D01*
G75*
G02*
X48737500Y-105927500I0J200000D01*
G01*
X48737500Y-105527500D01*
G75*
G02*
X48937500Y-105327500I200000J0D01*
G01*
G37*
%TD*%
%TO.C,R6*%
G36*
G01*
X48937500Y-110216500D02*
X49487500Y-110216500D01*
G75*
G02*
X49687500Y-110416500I0J-200000D01*
G01*
X49687500Y-110816500D01*
G75*
G02*
X49487500Y-111016500I-200000J0D01*
G01*
X48937500Y-111016500D01*
G75*
G02*
X48737500Y-110816500I0J200000D01*
G01*
X48737500Y-110416500D01*
G75*
G02*
X48937500Y-110216500I200000J0D01*
G01*
G37*
G36*
G01*
X48937500Y-108566500D02*
X49487500Y-108566500D01*
G75*
G02*
X49687500Y-108766500I0J-200000D01*
G01*
X49687500Y-109166500D01*
G75*
G02*
X49487500Y-109366500I-200000J0D01*
G01*
X48937500Y-109366500D01*
G75*
G02*
X48737500Y-109166500I0J200000D01*
G01*
X48737500Y-108766500D01*
G75*
G02*
X48937500Y-108566500I200000J0D01*
G01*
G37*
%TD*%
%TO.C,R4*%
G36*
G01*
X19831500Y-103230000D02*
X19831500Y-103780000D01*
G75*
G02*
X19631500Y-103980000I-200000J0D01*
G01*
X19231500Y-103980000D01*
G75*
G02*
X19031500Y-103780000I0J200000D01*
G01*
X19031500Y-103230000D01*
G75*
G02*
X19231500Y-103030000I200000J0D01*
G01*
X19631500Y-103030000D01*
G75*
G02*
X19831500Y-103230000I0J-200000D01*
G01*
G37*
G36*
G01*
X21481500Y-103230000D02*
X21481500Y-103780000D01*
G75*
G02*
X21281500Y-103980000I-200000J0D01*
G01*
X20881500Y-103980000D01*
G75*
G02*
X20681500Y-103780000I0J200000D01*
G01*
X20681500Y-103230000D01*
G75*
G02*
X20881500Y-103030000I200000J0D01*
G01*
X21281500Y-103030000D01*
G75*
G02*
X21481500Y-103230000I0J-200000D01*
G01*
G37*
%TD*%
D12*
%TO.C,J10*%
X26924000Y-85788500D03*
X26924000Y-83248500D03*
X29464000Y-85788500D03*
X29464000Y-83248500D03*
X32004000Y-85788500D03*
D13*
X32004000Y-83248500D03*
%TD*%
D12*
%TO.C,J7*%
X43890000Y-105385500D03*
X46430000Y-105385500D03*
X43890000Y-107925500D03*
X46430000Y-107925500D03*
X43890000Y-110465500D03*
D13*
X46430000Y-110465500D03*
%TD*%
%TO.C,D2*%
G36*
G01*
X47890750Y-100769000D02*
X46978250Y-100769000D01*
G75*
G02*
X46734500Y-100525250I0J243750D01*
G01*
X46734500Y-100037750D01*
G75*
G02*
X46978250Y-99794000I243750J0D01*
G01*
X47890750Y-99794000D01*
G75*
G02*
X48134500Y-100037750I0J-243750D01*
G01*
X48134500Y-100525250D01*
G75*
G02*
X47890750Y-100769000I-243750J0D01*
G01*
G37*
G36*
G01*
X47890750Y-102644000D02*
X46978250Y-102644000D01*
G75*
G02*
X46734500Y-102400250I0J243750D01*
G01*
X46734500Y-101912750D01*
G75*
G02*
X46978250Y-101669000I243750J0D01*
G01*
X47890750Y-101669000D01*
G75*
G02*
X48134500Y-101912750I0J-243750D01*
G01*
X48134500Y-102400250D01*
G75*
G02*
X47890750Y-102644000I-243750J0D01*
G01*
G37*
%TD*%
%TO.C,D1*%
G36*
G01*
X46978250Y-91572500D02*
X47890750Y-91572500D01*
G75*
G02*
X48134500Y-91816250I0J-243750D01*
G01*
X48134500Y-92303750D01*
G75*
G02*
X47890750Y-92547500I-243750J0D01*
G01*
X46978250Y-92547500D01*
G75*
G02*
X46734500Y-92303750I0J243750D01*
G01*
X46734500Y-91816250D01*
G75*
G02*
X46978250Y-91572500I243750J0D01*
G01*
G37*
G36*
G01*
X46978250Y-89697500D02*
X47890750Y-89697500D01*
G75*
G02*
X48134500Y-89941250I0J-243750D01*
G01*
X48134500Y-90428750D01*
G75*
G02*
X47890750Y-90672500I-243750J0D01*
G01*
X46978250Y-90672500D01*
G75*
G02*
X46734500Y-90428750I0J243750D01*
G01*
X46734500Y-89941250D01*
G75*
G02*
X46978250Y-89697500I243750J0D01*
G01*
G37*
%TD*%
%TO.C,C11*%
G36*
G01*
X41702500Y-118636500D02*
X41202500Y-118636500D01*
G75*
G02*
X40977500Y-118411500I0J225000D01*
G01*
X40977500Y-117961500D01*
G75*
G02*
X41202500Y-117736500I225000J0D01*
G01*
X41702500Y-117736500D01*
G75*
G02*
X41927500Y-117961500I0J-225000D01*
G01*
X41927500Y-118411500D01*
G75*
G02*
X41702500Y-118636500I-225000J0D01*
G01*
G37*
G36*
G01*
X41702500Y-117086500D02*
X41202500Y-117086500D01*
G75*
G02*
X40977500Y-116861500I0J225000D01*
G01*
X40977500Y-116411500D01*
G75*
G02*
X41202500Y-116186500I225000J0D01*
G01*
X41702500Y-116186500D01*
G75*
G02*
X41927500Y-116411500I0J-225000D01*
G01*
X41927500Y-116861500D01*
G75*
G02*
X41702500Y-117086500I-225000J0D01*
G01*
G37*
%TD*%
%TO.C,C9*%
G36*
G01*
X33853000Y-110105000D02*
X33853000Y-109605000D01*
G75*
G02*
X34078000Y-109380000I225000J0D01*
G01*
X34528000Y-109380000D01*
G75*
G02*
X34753000Y-109605000I0J-225000D01*
G01*
X34753000Y-110105000D01*
G75*
G02*
X34528000Y-110330000I-225000J0D01*
G01*
X34078000Y-110330000D01*
G75*
G02*
X33853000Y-110105000I0J225000D01*
G01*
G37*
G36*
G01*
X32303000Y-110105000D02*
X32303000Y-109605000D01*
G75*
G02*
X32528000Y-109380000I225000J0D01*
G01*
X32978000Y-109380000D01*
G75*
G02*
X33203000Y-109605000I0J-225000D01*
G01*
X33203000Y-110105000D01*
G75*
G02*
X32978000Y-110330000I-225000J0D01*
G01*
X32528000Y-110330000D01*
G75*
G02*
X32303000Y-110105000I0J225000D01*
G01*
G37*
%TD*%
%TO.C,C8*%
G36*
G01*
X20252500Y-117975500D02*
X19752500Y-117975500D01*
G75*
G02*
X19527500Y-117750500I0J225000D01*
G01*
X19527500Y-117300500D01*
G75*
G02*
X19752500Y-117075500I225000J0D01*
G01*
X20252500Y-117075500D01*
G75*
G02*
X20477500Y-117300500I0J-225000D01*
G01*
X20477500Y-117750500D01*
G75*
G02*
X20252500Y-117975500I-225000J0D01*
G01*
G37*
G36*
G01*
X20252500Y-119525500D02*
X19752500Y-119525500D01*
G75*
G02*
X19527500Y-119300500I0J225000D01*
G01*
X19527500Y-118850500D01*
G75*
G02*
X19752500Y-118625500I225000J0D01*
G01*
X20252500Y-118625500D01*
G75*
G02*
X20477500Y-118850500I0J-225000D01*
G01*
X20477500Y-119300500D01*
G75*
G02*
X20252500Y-119525500I-225000J0D01*
G01*
G37*
%TD*%
%TO.C,C2*%
G36*
G01*
X24832500Y-125610500D02*
X25332500Y-125610500D01*
G75*
G02*
X25557500Y-125835500I0J-225000D01*
G01*
X25557500Y-126285500D01*
G75*
G02*
X25332500Y-126510500I-225000J0D01*
G01*
X24832500Y-126510500D01*
G75*
G02*
X24607500Y-126285500I0J225000D01*
G01*
X24607500Y-125835500D01*
G75*
G02*
X24832500Y-125610500I225000J0D01*
G01*
G37*
G36*
G01*
X24832500Y-124060500D02*
X25332500Y-124060500D01*
G75*
G02*
X25557500Y-124285500I0J-225000D01*
G01*
X25557500Y-124735500D01*
G75*
G02*
X25332500Y-124960500I-225000J0D01*
G01*
X24832500Y-124960500D01*
G75*
G02*
X24607500Y-124735500I0J225000D01*
G01*
X24607500Y-124285500D01*
G75*
G02*
X24832500Y-124060500I225000J0D01*
G01*
G37*
%TD*%
%TO.C,C1*%
G36*
G01*
X25332500Y-128072000D02*
X24832500Y-128072000D01*
G75*
G02*
X24607500Y-127847000I0J225000D01*
G01*
X24607500Y-127397000D01*
G75*
G02*
X24832500Y-127172000I225000J0D01*
G01*
X25332500Y-127172000D01*
G75*
G02*
X25557500Y-127397000I0J-225000D01*
G01*
X25557500Y-127847000D01*
G75*
G02*
X25332500Y-128072000I-225000J0D01*
G01*
G37*
G36*
G01*
X25332500Y-129622000D02*
X24832500Y-129622000D01*
G75*
G02*
X24607500Y-129397000I0J225000D01*
G01*
X24607500Y-128947000D01*
G75*
G02*
X24832500Y-128722000I225000J0D01*
G01*
X25332500Y-128722000D01*
G75*
G02*
X25557500Y-128947000I0J-225000D01*
G01*
X25557500Y-129397000D01*
G75*
G02*
X25332500Y-129622000I-225000J0D01*
G01*
G37*
%TD*%
%TO.C,J9*%
X28130500Y-129095500D03*
D12*
X30670500Y-129095500D03*
X33210500Y-129095500D03*
X35750500Y-129095500D03*
X38290500Y-129095500D03*
X40830500Y-129095500D03*
%TD*%
%TO.C,R3*%
G36*
G01*
X36113000Y-107463000D02*
X36113000Y-106913000D01*
G75*
G02*
X36313000Y-106713000I200000J0D01*
G01*
X36713000Y-106713000D01*
G75*
G02*
X36913000Y-106913000I0J-200000D01*
G01*
X36913000Y-107463000D01*
G75*
G02*
X36713000Y-107663000I-200000J0D01*
G01*
X36313000Y-107663000D01*
G75*
G02*
X36113000Y-107463000I0J200000D01*
G01*
G37*
G36*
G01*
X37763000Y-107463000D02*
X37763000Y-106913000D01*
G75*
G02*
X37963000Y-106713000I200000J0D01*
G01*
X38363000Y-106713000D01*
G75*
G02*
X38563000Y-106913000I0J-200000D01*
G01*
X38563000Y-107463000D01*
G75*
G02*
X38363000Y-107663000I-200000J0D01*
G01*
X37963000Y-107663000D01*
G75*
G02*
X37763000Y-107463000I0J200000D01*
G01*
G37*
%TD*%
%TO.C,R7*%
G36*
G01*
X31413000Y-107463000D02*
X31413000Y-106913000D01*
G75*
G02*
X31613000Y-106713000I200000J0D01*
G01*
X32013000Y-106713000D01*
G75*
G02*
X32213000Y-106913000I0J-200000D01*
G01*
X32213000Y-107463000D01*
G75*
G02*
X32013000Y-107663000I-200000J0D01*
G01*
X31613000Y-107663000D01*
G75*
G02*
X31413000Y-107463000I0J200000D01*
G01*
G37*
G36*
G01*
X29763000Y-107463000D02*
X29763000Y-106913000D01*
G75*
G02*
X29963000Y-106713000I200000J0D01*
G01*
X30363000Y-106713000D01*
G75*
G02*
X30563000Y-106913000I0J-200000D01*
G01*
X30563000Y-107463000D01*
G75*
G02*
X30363000Y-107663000I-200000J0D01*
G01*
X29963000Y-107663000D01*
G75*
G02*
X29763000Y-107463000I0J200000D01*
G01*
G37*
%TD*%
%TO.C,J4*%
G36*
G01*
X89587498Y-151567500D02*
X91387502Y-151567500D01*
G75*
G02*
X91637500Y-151817498I0J-249998D01*
G01*
X91637500Y-153617502D01*
G75*
G02*
X91387502Y-153867500I-249998J0D01*
G01*
X89587498Y-153867500D01*
G75*
G02*
X89337500Y-153617502I0J249998D01*
G01*
X89337500Y-151817498D01*
G75*
G02*
X89587498Y-151567500I249998J0D01*
G01*
G37*
%TD*%
%TO.C,J3*%
G36*
G01*
X29516498Y-151567500D02*
X31316502Y-151567500D01*
G75*
G02*
X31566500Y-151817498I0J-249998D01*
G01*
X31566500Y-153617502D01*
G75*
G02*
X31316502Y-153867500I-249998J0D01*
G01*
X29516498Y-153867500D01*
G75*
G02*
X29266500Y-153617502I0J249998D01*
G01*
X29266500Y-151817498D01*
G75*
G02*
X29516498Y-151567500I249998J0D01*
G01*
G37*
%TD*%
%TO.C,J2*%
G36*
G01*
X29516498Y-135565500D02*
X31316502Y-135565500D01*
G75*
G02*
X31566500Y-135815498I0J-249998D01*
G01*
X31566500Y-137615502D01*
G75*
G02*
X31316502Y-137865500I-249998J0D01*
G01*
X29516498Y-137865500D01*
G75*
G02*
X29266500Y-137615502I0J249998D01*
G01*
X29266500Y-135815498D01*
G75*
G02*
X29516498Y-135565500I249998J0D01*
G01*
G37*
%TD*%
%TO.C,J1*%
G36*
G01*
X89587498Y-135565500D02*
X91387502Y-135565500D01*
G75*
G02*
X91637500Y-135815498I0J-249998D01*
G01*
X91637500Y-137615502D01*
G75*
G02*
X91387502Y-137865500I-249998J0D01*
G01*
X89587498Y-137865500D01*
G75*
G02*
X89337500Y-137615502I0J249998D01*
G01*
X89337500Y-135815498D01*
G75*
G02*
X89587498Y-135565500I249998J0D01*
G01*
G37*
%TD*%
%TO.C,R8*%
G36*
G01*
X27388000Y-106913000D02*
X27388000Y-107463000D01*
G75*
G02*
X27188000Y-107663000I-200000J0D01*
G01*
X26788000Y-107663000D01*
G75*
G02*
X26588000Y-107463000I0J200000D01*
G01*
X26588000Y-106913000D01*
G75*
G02*
X26788000Y-106713000I200000J0D01*
G01*
X27188000Y-106713000D01*
G75*
G02*
X27388000Y-106913000I0J-200000D01*
G01*
G37*
G36*
G01*
X29038000Y-106913000D02*
X29038000Y-107463000D01*
G75*
G02*
X28838000Y-107663000I-200000J0D01*
G01*
X28438000Y-107663000D01*
G75*
G02*
X28238000Y-107463000I0J200000D01*
G01*
X28238000Y-106913000D01*
G75*
G02*
X28438000Y-106713000I200000J0D01*
G01*
X28838000Y-106713000D01*
G75*
G02*
X29038000Y-106913000I0J-200000D01*
G01*
G37*
%TD*%
%TO.C,R5*%
G36*
G01*
X34588000Y-107463000D02*
X34588000Y-106913000D01*
G75*
G02*
X34788000Y-106713000I200000J0D01*
G01*
X35188000Y-106713000D01*
G75*
G02*
X35388000Y-106913000I0J-200000D01*
G01*
X35388000Y-107463000D01*
G75*
G02*
X35188000Y-107663000I-200000J0D01*
G01*
X34788000Y-107663000D01*
G75*
G02*
X34588000Y-107463000I0J200000D01*
G01*
G37*
G36*
G01*
X32938000Y-107463000D02*
X32938000Y-106913000D01*
G75*
G02*
X33138000Y-106713000I200000J0D01*
G01*
X33538000Y-106713000D01*
G75*
G02*
X33738000Y-106913000I0J-200000D01*
G01*
X33738000Y-107463000D01*
G75*
G02*
X33538000Y-107663000I-200000J0D01*
G01*
X33138000Y-107663000D01*
G75*
G02*
X32938000Y-107463000I0J200000D01*
G01*
G37*
%TD*%
%TO.C,C3*%
G36*
G01*
X35769000Y-125607000D02*
X35769000Y-126107000D01*
G75*
G02*
X35544000Y-126332000I-225000J0D01*
G01*
X35094000Y-126332000D01*
G75*
G02*
X34869000Y-126107000I0J225000D01*
G01*
X34869000Y-125607000D01*
G75*
G02*
X35094000Y-125382000I225000J0D01*
G01*
X35544000Y-125382000D01*
G75*
G02*
X35769000Y-125607000I0J-225000D01*
G01*
G37*
G36*
G01*
X34219000Y-125607000D02*
X34219000Y-126107000D01*
G75*
G02*
X33994000Y-126332000I-225000J0D01*
G01*
X33544000Y-126332000D01*
G75*
G02*
X33319000Y-126107000I0J225000D01*
G01*
X33319000Y-125607000D01*
G75*
G02*
X33544000Y-125382000I225000J0D01*
G01*
X33994000Y-125382000D01*
G75*
G02*
X34219000Y-125607000I0J-225000D01*
G01*
G37*
%TD*%
%TO.C,C4*%
G36*
G01*
X26285000Y-116705500D02*
X25785000Y-116705500D01*
G75*
G02*
X25560000Y-116480500I0J225000D01*
G01*
X25560000Y-116030500D01*
G75*
G02*
X25785000Y-115805500I225000J0D01*
G01*
X26285000Y-115805500D01*
G75*
G02*
X26510000Y-116030500I0J-225000D01*
G01*
X26510000Y-116480500D01*
G75*
G02*
X26285000Y-116705500I-225000J0D01*
G01*
G37*
G36*
G01*
X26285000Y-118255500D02*
X25785000Y-118255500D01*
G75*
G02*
X25560000Y-118030500I0J225000D01*
G01*
X25560000Y-117580500D01*
G75*
G02*
X25785000Y-117355500I225000J0D01*
G01*
X26285000Y-117355500D01*
G75*
G02*
X26510000Y-117580500I0J-225000D01*
G01*
X26510000Y-118030500D01*
G75*
G02*
X26285000Y-118255500I-225000J0D01*
G01*
G37*
%TD*%
%TO.C,C6*%
G36*
G01*
X41715500Y-121811500D02*
X41215500Y-121811500D01*
G75*
G02*
X40990500Y-121586500I0J225000D01*
G01*
X40990500Y-121136500D01*
G75*
G02*
X41215500Y-120911500I225000J0D01*
G01*
X41715500Y-120911500D01*
G75*
G02*
X41940500Y-121136500I0J-225000D01*
G01*
X41940500Y-121586500D01*
G75*
G02*
X41715500Y-121811500I-225000J0D01*
G01*
G37*
G36*
G01*
X41715500Y-120261500D02*
X41215500Y-120261500D01*
G75*
G02*
X40990500Y-120036500I0J225000D01*
G01*
X40990500Y-119586500D01*
G75*
G02*
X41215500Y-119361500I225000J0D01*
G01*
X41715500Y-119361500D01*
G75*
G02*
X41940500Y-119586500I0J-225000D01*
G01*
X41940500Y-120036500D01*
G75*
G02*
X41715500Y-120261500I-225000J0D01*
G01*
G37*
%TD*%
%TO.C,C12*%
G36*
G01*
X22123499Y-134167500D02*
X23723501Y-134167500D01*
G75*
G02*
X23973500Y-134417499I0J-249999D01*
G01*
X23973500Y-138417501D01*
G75*
G02*
X23723501Y-138667500I-249999J0D01*
G01*
X22123499Y-138667500D01*
G75*
G02*
X21873500Y-138417501I0J249999D01*
G01*
X21873500Y-134417499D01*
G75*
G02*
X22123499Y-134167500I249999J0D01*
G01*
G37*
G36*
G01*
X22123499Y-141367500D02*
X23723501Y-141367500D01*
G75*
G02*
X23973500Y-141617499I0J-249999D01*
G01*
X23973500Y-145617501D01*
G75*
G02*
X23723501Y-145867500I-249999J0D01*
G01*
X22123499Y-145867500D01*
G75*
G02*
X21873500Y-145617501I0J249999D01*
G01*
X21873500Y-141617499D01*
G75*
G02*
X22123499Y-141367500I249999J0D01*
G01*
G37*
%TD*%
D21*
%TO.C,H1*%
X89865200Y-83439000D03*
%TD*%
%TO.C,H2*%
X89865200Y-160451800D03*
%TD*%
%TO.C,H3*%
X21869400Y-83413600D03*
%TD*%
%TO.C,H4*%
X21869400Y-160451800D03*
%TD*%
%TO.C,C5*%
G36*
G01*
X36443500Y-109126000D02*
X36443500Y-110076000D01*
G75*
G02*
X36193500Y-110326000I-250000J0D01*
G01*
X35693500Y-110326000D01*
G75*
G02*
X35443500Y-110076000I0J250000D01*
G01*
X35443500Y-109126000D01*
G75*
G02*
X35693500Y-108876000I250000J0D01*
G01*
X36193500Y-108876000D01*
G75*
G02*
X36443500Y-109126000I0J-250000D01*
G01*
G37*
G36*
G01*
X38343500Y-109126000D02*
X38343500Y-110076000D01*
G75*
G02*
X38093500Y-110326000I-250000J0D01*
G01*
X37593500Y-110326000D01*
G75*
G02*
X37343500Y-110076000I0J250000D01*
G01*
X37343500Y-109126000D01*
G75*
G02*
X37593500Y-108876000I250000J0D01*
G01*
X38093500Y-108876000D01*
G75*
G02*
X38343500Y-109126000I0J-250000D01*
G01*
G37*
%TD*%
%TO.C,C10*%
G36*
G01*
X36396000Y-126586000D02*
X36396000Y-125636000D01*
G75*
G02*
X36646000Y-125386000I250000J0D01*
G01*
X37146000Y-125386000D01*
G75*
G02*
X37396000Y-125636000I0J-250000D01*
G01*
X37396000Y-126586000D01*
G75*
G02*
X37146000Y-126836000I-250000J0D01*
G01*
X36646000Y-126836000D01*
G75*
G02*
X36396000Y-126586000I0J250000D01*
G01*
G37*
G36*
G01*
X38296000Y-126586000D02*
X38296000Y-125636000D01*
G75*
G02*
X38546000Y-125386000I250000J0D01*
G01*
X39046000Y-125386000D01*
G75*
G02*
X39296000Y-125636000I0J-250000D01*
G01*
X39296000Y-126586000D01*
G75*
G02*
X39046000Y-126836000I-250000J0D01*
G01*
X38546000Y-126836000D01*
G75*
G02*
X38296000Y-126586000I0J250000D01*
G01*
G37*
%TD*%
D22*
%TO.C,J11*%
X39807200Y-84836500D03*
%TD*%
D23*
%TO.C,U1*%
X23303500Y-129135000D03*
X23303500Y-126135000D03*
D24*
G36*
X19353500Y-126768500D02*
G01*
X22478500Y-126768500D01*
X22478500Y-127185000D01*
X23953500Y-127185000D01*
X23953500Y-128085000D01*
X22478500Y-128085000D01*
X22478500Y-128501500D01*
X19353500Y-128501500D01*
X19353500Y-126768500D01*
G37*
%TD*%
D13*
%TO.C,J6*%
X83375500Y-125031500D03*
D12*
X80835500Y-125031500D03*
X78295500Y-125031500D03*
%TD*%
D25*
%TO.C,SW2*%
X20828000Y-105501000D03*
X20828000Y-113701000D03*
%TD*%
D26*
%TO.C,Y1*%
X24250500Y-122015000D03*
X24250500Y-118015000D03*
X21850500Y-118015000D03*
X21850500Y-122015000D03*
%TD*%
M02*
