M48
; DRILL file {KiCad (5.1.9-0-10_14)} date Monday, May 24, 2021 at 09:36:41 PM
; FORMAT={3:3/ absolute / metric / suppress leading zeros}
; #@! TF.CreationDate,2021-05-24T21:36:41+02:00
; #@! TF.GenerationSoftware,Kicad,Pcbnew,(5.1.9-0-10_14)
FMAT,2
METRIC,TZ
T1C0.350
T2C0.800
T3C1.000
T4C1.020
T5C1.100
T6C2.700
T7C3.300
%
G90
G05
T1
X20002Y-120015
X20701Y-124143
X20828Y-115189
X20828Y-122047
X21336Y-144907
X22606Y-131064
X22924Y-146368
X23305Y-130048
X24257Y-116856
X24511Y-144907
X25083Y-123571
X25083Y-130048
X26035Y-118664
X27051Y-111633
X27877Y-108775
X27965Y-111646
X28871Y-111655
X28956Y-108776
X29464Y-117983
X30036Y-108776
X32766Y-108902
X34475Y-122168
X35306Y-126792
X36703Y-84899
X38798Y-109601
X38862Y-108081
X39185Y-86887
X39185Y-88087
X39185Y-89287
X39815Y-126111
X40435Y-86287
X40435Y-87487
X40435Y-88687
X40812Y-108141
X41465Y-122238
X42164Y-109283
X42199Y-118161
X42223Y-107887
X42291Y-119824
X42926Y-84899
X44768Y-119888
T2
X25807Y-90743
X25807Y-104743
X27807Y-90743
X27807Y-104743
X29807Y-90743
X29807Y-104743
X31807Y-90743
X31807Y-104743
X33807Y-90743
X33807Y-104743
X35807Y-90743
X35807Y-104743
X37807Y-90743
X37807Y-104743
X39807Y-90743
X39807Y-104743
T3
X24384Y-151130
X24384Y-153670
X26924Y-83248
X26924Y-85789
X28130Y-129096
X29464Y-83248
X29464Y-85789
X30670Y-129096
X32004Y-83248
X32004Y-85789
X33211Y-129096
X35750Y-129096
X38291Y-129096
X40831Y-129096
X43890Y-105386
X43890Y-107926
X43890Y-110466
X44323Y-91250
X44323Y-93789
X44323Y-98616
X44323Y-101156
X46430Y-105386
X46430Y-107926
X46430Y-110466
X78296Y-83122
X78296Y-125032
X80836Y-83122
X80836Y-125032
X83376Y-83122
X83376Y-125032
T4
X30290Y-140335
X30290Y-155325
T5
X30416Y-136716
X30416Y-152718
X90488Y-136716
X90488Y-152718
T6
X21869Y-83414
X21869Y-160452
X89865Y-83439
X89865Y-160452
T7
X57455Y-140335
X57455Y-155325
T0
M30
