%TF.GenerationSoftware,KiCad,Pcbnew,(5.1.9-0-10_14)*%
%TF.CreationDate,2021-05-05T21:44:08+02:00*%
%TF.ProjectId,mfm-v3-smd,6d666d2d-7633-42d7-936d-642e6b696361,rev?*%
%TF.SameCoordinates,Original*%
%TF.FileFunction,Soldermask,Bot*%
%TF.FilePolarity,Negative*%
%FSLAX46Y46*%
G04 Gerber Fmt 4.6, Leading zero omitted, Abs format (unit mm)*
G04 Created by KiCad (PCBNEW (5.1.9-0-10_14)) date 2021-05-05 21:44:08*
%MOMM*%
%LPD*%
G01*
G04 APERTURE LIST*
%ADD10C,3.300000*%
%ADD11C,2.000000*%
%ADD12R,2.000000X2.000000*%
%ADD13O,1.700000X1.700000*%
%ADD14R,1.700000X1.700000*%
%ADD15O,1.200000X2.000000*%
%ADD16O,1.950000X1.700000*%
%ADD17C,2.050000*%
%ADD18C,2.250000*%
%ADD19C,2.500000*%
G04 APERTURE END LIST*
D10*
%TO.C,BT1*%
X57454500Y-140335000D03*
X57454500Y-155325000D03*
D11*
X30289500Y-155325000D03*
D12*
X30289500Y-140335000D03*
%TD*%
D13*
%TO.C,J5*%
X83312000Y-125031500D03*
X80772000Y-125031500D03*
X78232000Y-125031500D03*
X78232000Y-83121500D03*
X80772000Y-83121500D03*
D14*
X83312000Y-83121500D03*
%TD*%
D15*
%TO.C,U4*%
X25172200Y-90806300D03*
X25172200Y-104806300D03*
X27172200Y-90806300D03*
X27172200Y-104806300D03*
X29172200Y-90806300D03*
X29172200Y-104806300D03*
X31172200Y-90806300D03*
X31172200Y-104806300D03*
X33172200Y-90806300D03*
X33172200Y-104806300D03*
X35172200Y-90806300D03*
X35172200Y-104806300D03*
X37172200Y-90806300D03*
X37172200Y-104806300D03*
X39172200Y-90806300D03*
X39172200Y-104806300D03*
%TD*%
D13*
%TO.C,SW4*%
X43312000Y-98327000D03*
D14*
X43312000Y-100867000D03*
%TD*%
D13*
%TO.C,SW3*%
X43312000Y-94092000D03*
D14*
X43312000Y-91552000D03*
%TD*%
D13*
%TO.C,SW1*%
X24384000Y-151130000D03*
D14*
X24384000Y-153670000D03*
%TD*%
D13*
%TO.C,J10*%
X27195000Y-85890000D03*
X27195000Y-83350000D03*
X29735000Y-85890000D03*
X29735000Y-83350000D03*
X32275000Y-85890000D03*
D14*
X32275000Y-83350000D03*
%TD*%
D16*
%TO.C,J8*%
X45912000Y-121243000D03*
X45912000Y-118743000D03*
G36*
G01*
X45187000Y-115393000D02*
X46637000Y-115393000D01*
G75*
G02*
X46887000Y-115643000I0J-250000D01*
G01*
X46887000Y-116843000D01*
G75*
G02*
X46637000Y-117093000I-250000J0D01*
G01*
X45187000Y-117093000D01*
G75*
G02*
X44937000Y-116843000I0J250000D01*
G01*
X44937000Y-115643000D01*
G75*
G02*
X45187000Y-115393000I250000J0D01*
G01*
G37*
%TD*%
D13*
%TO.C,J7*%
X43255000Y-105449000D03*
X45795000Y-105449000D03*
X43255000Y-107989000D03*
X45795000Y-107989000D03*
X43255000Y-110529000D03*
D14*
X45795000Y-110529000D03*
%TD*%
%TO.C,J12*%
X27700000Y-128587500D03*
D13*
X30240000Y-128587500D03*
X32780000Y-128587500D03*
X35320000Y-128587500D03*
X37860000Y-128587500D03*
X40400000Y-128587500D03*
%TD*%
%TO.C,J4*%
G36*
G01*
X89587498Y-151567500D02*
X91387502Y-151567500D01*
G75*
G02*
X91637500Y-151817498I0J-249998D01*
G01*
X91637500Y-153617502D01*
G75*
G02*
X91387502Y-153867500I-249998J0D01*
G01*
X89587498Y-153867500D01*
G75*
G02*
X89337500Y-153617502I0J249998D01*
G01*
X89337500Y-151817498D01*
G75*
G02*
X89587498Y-151567500I249998J0D01*
G01*
G37*
%TD*%
%TO.C,J3*%
G36*
G01*
X29516498Y-151567500D02*
X31316502Y-151567500D01*
G75*
G02*
X31566500Y-151817498I0J-249998D01*
G01*
X31566500Y-153617502D01*
G75*
G02*
X31316502Y-153867500I-249998J0D01*
G01*
X29516498Y-153867500D01*
G75*
G02*
X29266500Y-153617502I0J249998D01*
G01*
X29266500Y-151817498D01*
G75*
G02*
X29516498Y-151567500I249998J0D01*
G01*
G37*
%TD*%
%TO.C,J2*%
G36*
G01*
X29516498Y-135565500D02*
X31316502Y-135565500D01*
G75*
G02*
X31566500Y-135815498I0J-249998D01*
G01*
X31566500Y-137615502D01*
G75*
G02*
X31316502Y-137865500I-249998J0D01*
G01*
X29516498Y-137865500D01*
G75*
G02*
X29266500Y-137615502I0J249998D01*
G01*
X29266500Y-135815498D01*
G75*
G02*
X29516498Y-135565500I249998J0D01*
G01*
G37*
%TD*%
%TO.C,J1*%
G36*
G01*
X89587498Y-135565500D02*
X91387502Y-135565500D01*
G75*
G02*
X91637500Y-135815498I0J-249998D01*
G01*
X91637500Y-137615502D01*
G75*
G02*
X91387502Y-137865500I-249998J0D01*
G01*
X89587498Y-137865500D01*
G75*
G02*
X89337500Y-137615502I0J249998D01*
G01*
X89337500Y-135815498D01*
G75*
G02*
X89587498Y-135565500I249998J0D01*
G01*
G37*
%TD*%
D17*
%TO.C,J13*%
X39172200Y-84900000D03*
D18*
X36632200Y-82360000D03*
X36632200Y-87440000D03*
X41712200Y-87440000D03*
X41712200Y-82360000D03*
%TD*%
D19*
%TO.C,H1*%
X89865200Y-83439000D03*
%TD*%
%TO.C,H2*%
X89865200Y-160451800D03*
%TD*%
%TO.C,H3*%
X21869400Y-83413600D03*
%TD*%
%TO.C,H4*%
X21869400Y-160451800D03*
%TD*%
M02*
