%TF.GenerationSoftware,KiCad,Pcbnew,(5.1.9-0-10_14)*%
%TF.CreationDate,2021-05-24T21:37:01+02:00*%
%TF.ProjectId,mfm-v3-smd,6d666d2d-7633-42d7-936d-642e6b696361,rev?*%
%TF.SameCoordinates,Original*%
%TF.FileFunction,Legend,Bot*%
%TF.FilePolarity,Positive*%
%FSLAX46Y46*%
G04 Gerber Fmt 4.6, Leading zero omitted, Abs format (unit mm)*
G04 Created by KiCad (PCBNEW (5.1.9-0-10_14)) date 2021-05-24 21:37:01*
%MOMM*%
%LPD*%
G01*
G04 APERTURE LIST*
%ADD10C,0.150000*%
G04 APERTURE END LIST*
D10*
X28212095Y-162868619D02*
X28212095Y-163868619D01*
X28545428Y-163154333D01*
X28878761Y-163868619D01*
X28878761Y-162868619D01*
X29688285Y-163392428D02*
X29354952Y-163392428D01*
X29354952Y-162868619D02*
X29354952Y-163868619D01*
X29831142Y-163868619D01*
X30212095Y-162868619D02*
X30212095Y-163868619D01*
X30545428Y-163154333D01*
X30878761Y-163868619D01*
X30878761Y-162868619D01*
X32069238Y-162916238D02*
X32212095Y-162868619D01*
X32450190Y-162868619D01*
X32545428Y-162916238D01*
X32593047Y-162963857D01*
X32640666Y-163059095D01*
X32640666Y-163154333D01*
X32593047Y-163249571D01*
X32545428Y-163297190D01*
X32450190Y-163344809D01*
X32259714Y-163392428D01*
X32164476Y-163440047D01*
X32116857Y-163487666D01*
X32069238Y-163582904D01*
X32069238Y-163678142D01*
X32116857Y-163773380D01*
X32164476Y-163821000D01*
X32259714Y-163868619D01*
X32497809Y-163868619D01*
X32640666Y-163821000D01*
X33069238Y-162868619D02*
X33069238Y-163868619D01*
X33402571Y-163154333D01*
X33735904Y-163868619D01*
X33735904Y-162868619D01*
X34212095Y-162868619D02*
X34212095Y-163868619D01*
X34450190Y-163868619D01*
X34593047Y-163821000D01*
X34688285Y-163725761D01*
X34735904Y-163630523D01*
X34783523Y-163440047D01*
X34783523Y-163297190D01*
X34735904Y-163106714D01*
X34688285Y-163011476D01*
X34593047Y-162916238D01*
X34450190Y-162868619D01*
X34212095Y-162868619D01*
X35878761Y-163535285D02*
X36116857Y-162868619D01*
X36354952Y-163535285D01*
X36640666Y-163868619D02*
X37259714Y-163868619D01*
X36926380Y-163487666D01*
X37069238Y-163487666D01*
X37164476Y-163440047D01*
X37212095Y-163392428D01*
X37259714Y-163297190D01*
X37259714Y-163059095D01*
X37212095Y-162963857D01*
X37164476Y-162916238D01*
X37069238Y-162868619D01*
X36783523Y-162868619D01*
X36688285Y-162916238D01*
X36640666Y-162963857D01*
X37688285Y-162963857D02*
X37735904Y-162916238D01*
X37688285Y-162868619D01*
X37640666Y-162916238D01*
X37688285Y-162963857D01*
X37688285Y-162868619D01*
X38593047Y-163868619D02*
X38402571Y-163868619D01*
X38307333Y-163821000D01*
X38259714Y-163773380D01*
X38164476Y-163630523D01*
X38116857Y-163440047D01*
X38116857Y-163059095D01*
X38164476Y-162963857D01*
X38212095Y-162916238D01*
X38307333Y-162868619D01*
X38497809Y-162868619D01*
X38593047Y-162916238D01*
X38640666Y-162963857D01*
X38688285Y-163059095D01*
X38688285Y-163297190D01*
X38640666Y-163392428D01*
X38593047Y-163440047D01*
X38497809Y-163487666D01*
X38307333Y-163487666D01*
X38212095Y-163440047D01*
X38164476Y-163392428D01*
X38116857Y-163297190D01*
X28164476Y-162123380D02*
X28212095Y-162171000D01*
X28307333Y-162218619D01*
X28545428Y-162218619D01*
X28640666Y-162171000D01*
X28688285Y-162123380D01*
X28735904Y-162028142D01*
X28735904Y-161932904D01*
X28688285Y-161790047D01*
X28116857Y-161218619D01*
X28735904Y-161218619D01*
X29354952Y-162218619D02*
X29450190Y-162218619D01*
X29545428Y-162171000D01*
X29593047Y-162123380D01*
X29640666Y-162028142D01*
X29688285Y-161837666D01*
X29688285Y-161599571D01*
X29640666Y-161409095D01*
X29593047Y-161313857D01*
X29545428Y-161266238D01*
X29450190Y-161218619D01*
X29354952Y-161218619D01*
X29259714Y-161266238D01*
X29212095Y-161313857D01*
X29164476Y-161409095D01*
X29116857Y-161599571D01*
X29116857Y-161837666D01*
X29164476Y-162028142D01*
X29212095Y-162123380D01*
X29259714Y-162171000D01*
X29354952Y-162218619D01*
X30069238Y-162123380D02*
X30116857Y-162171000D01*
X30212095Y-162218619D01*
X30450190Y-162218619D01*
X30545428Y-162171000D01*
X30593047Y-162123380D01*
X30640666Y-162028142D01*
X30640666Y-161932904D01*
X30593047Y-161790047D01*
X30021619Y-161218619D01*
X30640666Y-161218619D01*
X31593047Y-161218619D02*
X31021619Y-161218619D01*
X31307333Y-161218619D02*
X31307333Y-162218619D01*
X31212095Y-162075761D01*
X31116857Y-161980523D01*
X31021619Y-161932904D01*
X32021619Y-161599571D02*
X32783523Y-161599571D01*
X33450190Y-162218619D02*
X33545428Y-162218619D01*
X33640666Y-162171000D01*
X33688285Y-162123380D01*
X33735904Y-162028142D01*
X33783523Y-161837666D01*
X33783523Y-161599571D01*
X33735904Y-161409095D01*
X33688285Y-161313857D01*
X33640666Y-161266238D01*
X33545428Y-161218619D01*
X33450190Y-161218619D01*
X33354952Y-161266238D01*
X33307333Y-161313857D01*
X33259714Y-161409095D01*
X33212095Y-161599571D01*
X33212095Y-161837666D01*
X33259714Y-162028142D01*
X33307333Y-162123380D01*
X33354952Y-162171000D01*
X33450190Y-162218619D01*
X34688285Y-162218619D02*
X34212095Y-162218619D01*
X34164476Y-161742428D01*
X34212095Y-161790047D01*
X34307333Y-161837666D01*
X34545428Y-161837666D01*
X34640666Y-161790047D01*
X34688285Y-161742428D01*
X34735904Y-161647190D01*
X34735904Y-161409095D01*
X34688285Y-161313857D01*
X34640666Y-161266238D01*
X34545428Y-161218619D01*
X34307333Y-161218619D01*
X34212095Y-161266238D01*
X34164476Y-161313857D01*
X35164476Y-161599571D02*
X35926380Y-161599571D01*
X36354952Y-162123380D02*
X36402571Y-162171000D01*
X36497809Y-162218619D01*
X36735904Y-162218619D01*
X36831142Y-162171000D01*
X36878761Y-162123380D01*
X36926380Y-162028142D01*
X36926380Y-161932904D01*
X36878761Y-161790047D01*
X36307333Y-161218619D01*
X36926380Y-161218619D01*
X37783523Y-161885285D02*
X37783523Y-161218619D01*
X37545428Y-162266238D02*
X37307333Y-161551952D01*
X37926380Y-161551952D01*
X28164476Y-159616238D02*
X28307333Y-159568619D01*
X28545428Y-159568619D01*
X28640666Y-159616238D01*
X28688285Y-159663857D01*
X28735904Y-159759095D01*
X28735904Y-159854333D01*
X28688285Y-159949571D01*
X28640666Y-159997190D01*
X28545428Y-160044809D01*
X28354952Y-160092428D01*
X28259714Y-160140047D01*
X28212095Y-160187666D01*
X28164476Y-160282904D01*
X28164476Y-160378142D01*
X28212095Y-160473380D01*
X28259714Y-160521000D01*
X28354952Y-160568619D01*
X28593047Y-160568619D01*
X28735904Y-160521000D01*
X29545428Y-159616238D02*
X29450190Y-159568619D01*
X29259714Y-159568619D01*
X29164476Y-159616238D01*
X29116857Y-159711476D01*
X29116857Y-160092428D01*
X29164476Y-160187666D01*
X29259714Y-160235285D01*
X29450190Y-160235285D01*
X29545428Y-160187666D01*
X29593047Y-160092428D01*
X29593047Y-159997190D01*
X29116857Y-159901952D01*
X30021619Y-160235285D02*
X30021619Y-159568619D01*
X30021619Y-160140047D02*
X30069238Y-160187666D01*
X30164476Y-160235285D01*
X30307333Y-160235285D01*
X30402571Y-160187666D01*
X30450190Y-160092428D01*
X30450190Y-159568619D01*
X30831142Y-160235285D02*
X31021619Y-159568619D01*
X31212095Y-160044809D01*
X31402571Y-159568619D01*
X31593047Y-160235285D01*
X31974000Y-159568619D02*
X31974000Y-160235285D01*
X31974000Y-160568619D02*
X31926380Y-160521000D01*
X31974000Y-160473380D01*
X32021619Y-160521000D01*
X31974000Y-160568619D01*
X31974000Y-160473380D01*
X32354952Y-160235285D02*
X32878761Y-160235285D01*
X32354952Y-159568619D01*
X32878761Y-159568619D01*
X33640666Y-159616238D02*
X33545428Y-159568619D01*
X33354952Y-159568619D01*
X33259714Y-159616238D01*
X33212095Y-159711476D01*
X33212095Y-160092428D01*
X33259714Y-160187666D01*
X33354952Y-160235285D01*
X33545428Y-160235285D01*
X33640666Y-160187666D01*
X33688285Y-160092428D01*
X33688285Y-159997190D01*
X33212095Y-159901952D01*
X77795500Y-120743285D02*
X77747880Y-120648047D01*
X77747880Y-120505190D01*
X77795500Y-120362333D01*
X77890738Y-120267095D01*
X77985976Y-120219476D01*
X78176452Y-120171857D01*
X78319309Y-120171857D01*
X78509785Y-120219476D01*
X78605023Y-120267095D01*
X78700261Y-120362333D01*
X78747880Y-120505190D01*
X78747880Y-120600428D01*
X78700261Y-120743285D01*
X78652642Y-120790904D01*
X78319309Y-120790904D01*
X78319309Y-120600428D01*
X78747880Y-121219476D02*
X77747880Y-121219476D01*
X78747880Y-121790904D01*
X77747880Y-121790904D01*
X78747880Y-122267095D02*
X77747880Y-122267095D01*
X77747880Y-122505190D01*
X77795500Y-122648047D01*
X77890738Y-122743285D01*
X77985976Y-122790904D01*
X78176452Y-122838523D01*
X78319309Y-122838523D01*
X78509785Y-122790904D01*
X78605023Y-122743285D01*
X78700261Y-122648047D01*
X78747880Y-122505190D01*
X78747880Y-122267095D01*
X82827880Y-120409952D02*
X82827880Y-121029000D01*
X83208833Y-120695666D01*
X83208833Y-120838523D01*
X83256452Y-120933761D01*
X83304071Y-120981380D01*
X83399309Y-121029000D01*
X83637404Y-121029000D01*
X83732642Y-120981380D01*
X83780261Y-120933761D01*
X83827880Y-120838523D01*
X83827880Y-120552809D01*
X83780261Y-120457571D01*
X83732642Y-120409952D01*
X82827880Y-121314714D02*
X83827880Y-121648047D01*
X82827880Y-121981380D01*
X82827880Y-122219476D02*
X82827880Y-122838523D01*
X83208833Y-122505190D01*
X83208833Y-122648047D01*
X83256452Y-122743285D01*
X83304071Y-122790904D01*
X83399309Y-122838523D01*
X83637404Y-122838523D01*
X83732642Y-122790904D01*
X83780261Y-122743285D01*
X83827880Y-122648047D01*
X83827880Y-122362333D01*
X83780261Y-122267095D01*
X83732642Y-122219476D01*
X80287880Y-119584547D02*
X81287880Y-119917880D01*
X80287880Y-120251214D01*
X80764071Y-120917880D02*
X80811690Y-121060738D01*
X80859309Y-121108357D01*
X80954547Y-121155976D01*
X81097404Y-121155976D01*
X81192642Y-121108357D01*
X81240261Y-121060738D01*
X81287880Y-120965500D01*
X81287880Y-120584547D01*
X80287880Y-120584547D01*
X80287880Y-120917880D01*
X80335500Y-121013119D01*
X80383119Y-121060738D01*
X80478357Y-121108357D01*
X80573595Y-121108357D01*
X80668833Y-121060738D01*
X80716452Y-121013119D01*
X80764071Y-120917880D01*
X80764071Y-120584547D01*
X81002166Y-121536928D02*
X81002166Y-122013119D01*
X81287880Y-121441690D02*
X80287880Y-121775023D01*
X81287880Y-122108357D01*
X80287880Y-122298833D02*
X80287880Y-122870261D01*
X81287880Y-122584547D02*
X80287880Y-122584547D01*
X83780261Y-85314476D02*
X83827880Y-85457333D01*
X83827880Y-85695428D01*
X83780261Y-85790666D01*
X83732642Y-85838285D01*
X83637404Y-85885904D01*
X83542166Y-85885904D01*
X83446928Y-85838285D01*
X83399309Y-85790666D01*
X83351690Y-85695428D01*
X83304071Y-85504952D01*
X83256452Y-85409714D01*
X83208833Y-85362095D01*
X83113595Y-85314476D01*
X83018357Y-85314476D01*
X82923119Y-85362095D01*
X82875500Y-85409714D01*
X82827880Y-85504952D01*
X82827880Y-85743047D01*
X82875500Y-85885904D01*
X83732642Y-86885904D02*
X83780261Y-86838285D01*
X83827880Y-86695428D01*
X83827880Y-86600190D01*
X83780261Y-86457333D01*
X83685023Y-86362095D01*
X83589785Y-86314476D01*
X83399309Y-86266857D01*
X83256452Y-86266857D01*
X83065976Y-86314476D01*
X82970738Y-86362095D01*
X82875500Y-86457333D01*
X82827880Y-86600190D01*
X82827880Y-86695428D01*
X82875500Y-86838285D01*
X82923119Y-86885904D01*
X83827880Y-87790666D02*
X83827880Y-87314476D01*
X82827880Y-87314476D01*
X78573261Y-85314476D02*
X78620880Y-85457333D01*
X78620880Y-85695428D01*
X78573261Y-85790666D01*
X78525642Y-85838285D01*
X78430404Y-85885904D01*
X78335166Y-85885904D01*
X78239928Y-85838285D01*
X78192309Y-85790666D01*
X78144690Y-85695428D01*
X78097071Y-85504952D01*
X78049452Y-85409714D01*
X78001833Y-85362095D01*
X77906595Y-85314476D01*
X77811357Y-85314476D01*
X77716119Y-85362095D01*
X77668500Y-85409714D01*
X77620880Y-85504952D01*
X77620880Y-85743047D01*
X77668500Y-85885904D01*
X78620880Y-86314476D02*
X77620880Y-86314476D01*
X78335166Y-86647809D01*
X77620880Y-86981142D01*
X78620880Y-86981142D01*
X78097071Y-87790666D02*
X78144690Y-87933523D01*
X78192309Y-87981142D01*
X78287547Y-88028761D01*
X78430404Y-88028761D01*
X78525642Y-87981142D01*
X78573261Y-87933523D01*
X78620880Y-87838285D01*
X78620880Y-87457333D01*
X77620880Y-87457333D01*
X77620880Y-87790666D01*
X77668500Y-87885904D01*
X77716119Y-87933523D01*
X77811357Y-87981142D01*
X77906595Y-87981142D01*
X78001833Y-87933523D01*
X78049452Y-87885904D01*
X78097071Y-87790666D01*
X78097071Y-87457333D01*
X78335166Y-88409714D02*
X78335166Y-88885904D01*
X78620880Y-88314476D02*
X77620880Y-88647809D01*
X78620880Y-88981142D01*
X81176761Y-85314476D02*
X81224380Y-85457333D01*
X81224380Y-85695428D01*
X81176761Y-85790666D01*
X81129142Y-85838285D01*
X81033904Y-85885904D01*
X80938666Y-85885904D01*
X80843428Y-85838285D01*
X80795809Y-85790666D01*
X80748190Y-85695428D01*
X80700571Y-85504952D01*
X80652952Y-85409714D01*
X80605333Y-85362095D01*
X80510095Y-85314476D01*
X80414857Y-85314476D01*
X80319619Y-85362095D01*
X80272000Y-85409714D01*
X80224380Y-85504952D01*
X80224380Y-85743047D01*
X80272000Y-85885904D01*
X81224380Y-86314476D02*
X80224380Y-86314476D01*
X80224380Y-86552571D01*
X80272000Y-86695428D01*
X80367238Y-86790666D01*
X80462476Y-86838285D01*
X80652952Y-86885904D01*
X80795809Y-86885904D01*
X80986285Y-86838285D01*
X81081523Y-86790666D01*
X81176761Y-86695428D01*
X81224380Y-86552571D01*
X81224380Y-86314476D01*
X80938666Y-87266857D02*
X80938666Y-87743047D01*
X81224380Y-87171619D02*
X80224380Y-87504952D01*
X81224380Y-87838285D01*
M02*
