%TF.GenerationSoftware,KiCad,Pcbnew,(5.1.9-0-10_14)*%
%TF.CreationDate,2021-05-05T21:44:08+02:00*%
%TF.ProjectId,mfm-v3-smd,6d666d2d-7633-42d7-936d-642e6b696361,rev?*%
%TF.SameCoordinates,Original*%
%TF.FileFunction,Soldermask,Top*%
%TF.FilePolarity,Negative*%
%FSLAX46Y46*%
G04 Gerber Fmt 4.6, Leading zero omitted, Abs format (unit mm)*
G04 Created by KiCad (PCBNEW (5.1.9-0-10_14)) date 2021-05-05 21:44:08*
%MOMM*%
%LPD*%
G01*
G04 APERTURE LIST*
%ADD10C,2.127000*%
%ADD11C,3.300000*%
%ADD12C,2.000000*%
%ADD13R,2.000000X2.000000*%
%ADD14O,1.700000X1.700000*%
%ADD15R,1.700000X1.700000*%
%ADD16R,0.800000X0.900000*%
%ADD17O,1.200000X2.000000*%
%ADD18R,1.500000X0.550000*%
%ADD19R,0.550000X1.500000*%
%ADD20R,1.350000X1.800000*%
%ADD21O,1.950000X1.700000*%
%ADD22C,2.050000*%
%ADD23C,2.250000*%
%ADD24C,2.500000*%
%ADD25R,2.400000X2.000000*%
G04 APERTURE END LIST*
D10*
X39172200Y-84900000D02*
X39172200Y-90806300D01*
D11*
%TO.C,BT1*%
X57454500Y-140335000D03*
X57454500Y-155325000D03*
D12*
X30289500Y-155325000D03*
D13*
X30289500Y-140335000D03*
%TD*%
D14*
%TO.C,J5*%
X83312000Y-125031500D03*
X80772000Y-125031500D03*
X78232000Y-125031500D03*
X78232000Y-83121500D03*
X80772000Y-83121500D03*
D15*
X83312000Y-83121500D03*
%TD*%
D16*
%TO.C,Q1*%
X22428200Y-132800600D03*
X21478200Y-130800600D03*
X23378200Y-130800600D03*
%TD*%
D17*
%TO.C,U4*%
X25172200Y-90806300D03*
X25172200Y-104806300D03*
X27172200Y-90806300D03*
X27172200Y-104806300D03*
X29172200Y-90806300D03*
X29172200Y-104806300D03*
X31172200Y-90806300D03*
X31172200Y-104806300D03*
X33172200Y-90806300D03*
X33172200Y-104806300D03*
X35172200Y-90806300D03*
X35172200Y-104806300D03*
X37172200Y-90806300D03*
X37172200Y-104806300D03*
X39172200Y-90806300D03*
X39172200Y-104806300D03*
%TD*%
%TO.C,C7*%
G36*
G01*
X22364000Y-124463000D02*
X22364000Y-123963000D01*
G75*
G02*
X22589000Y-123738000I225000J0D01*
G01*
X23039000Y-123738000D01*
G75*
G02*
X23264000Y-123963000I0J-225000D01*
G01*
X23264000Y-124463000D01*
G75*
G02*
X23039000Y-124688000I-225000J0D01*
G01*
X22589000Y-124688000D01*
G75*
G02*
X22364000Y-124463000I0J225000D01*
G01*
G37*
G36*
G01*
X20814000Y-124463000D02*
X20814000Y-123963000D01*
G75*
G02*
X21039000Y-123738000I225000J0D01*
G01*
X21489000Y-123738000D01*
G75*
G02*
X21714000Y-123963000I0J-225000D01*
G01*
X21714000Y-124463000D01*
G75*
G02*
X21489000Y-124688000I-225000J0D01*
G01*
X21039000Y-124688000D01*
G75*
G02*
X20814000Y-124463000I0J225000D01*
G01*
G37*
%TD*%
D18*
%TO.C,U5*%
X27340000Y-114020000D03*
X27340000Y-114820000D03*
X27340000Y-115620000D03*
X27340000Y-116420000D03*
X27340000Y-117220000D03*
X27340000Y-118020000D03*
X27340000Y-118820000D03*
X27340000Y-119620000D03*
X27340000Y-120420000D03*
X27340000Y-121220000D03*
X27340000Y-122020000D03*
D19*
X29040000Y-123720000D03*
X29840000Y-123720000D03*
X30640000Y-123720000D03*
X31440000Y-123720000D03*
X32240000Y-123720000D03*
X33040000Y-123720000D03*
X33840000Y-123720000D03*
X34640000Y-123720000D03*
X35440000Y-123720000D03*
X36240000Y-123720000D03*
X37040000Y-123720000D03*
D18*
X38740000Y-122020000D03*
X38740000Y-121220000D03*
X38740000Y-120420000D03*
X38740000Y-119620000D03*
X38740000Y-118820000D03*
X38740000Y-118020000D03*
X38740000Y-117220000D03*
X38740000Y-116420000D03*
X38740000Y-115620000D03*
X38740000Y-114820000D03*
X38740000Y-114020000D03*
D19*
X37040000Y-112320000D03*
X36240000Y-112320000D03*
X35440000Y-112320000D03*
X34640000Y-112320000D03*
X33840000Y-112320000D03*
X33040000Y-112320000D03*
X32240000Y-112320000D03*
X31440000Y-112320000D03*
X30640000Y-112320000D03*
X29840000Y-112320000D03*
X29040000Y-112320000D03*
%TD*%
D16*
%TO.C,U1*%
X22450000Y-129000000D03*
X21500000Y-127000000D03*
X23400000Y-127000000D03*
%TD*%
D14*
%TO.C,SW4*%
X43312000Y-98327000D03*
D15*
X43312000Y-100867000D03*
%TD*%
D14*
%TO.C,SW3*%
X43312000Y-94092000D03*
D15*
X43312000Y-91552000D03*
%TD*%
D20*
%TO.C,SW2*%
X24190000Y-111973000D03*
X20040000Y-111973000D03*
%TD*%
D14*
%TO.C,SW1*%
X24384000Y-151130000D03*
D15*
X24384000Y-153670000D03*
%TD*%
%TO.C,R16*%
G36*
G01*
X45687000Y-98167000D02*
X46237000Y-98167000D01*
G75*
G02*
X46437000Y-98367000I0J-200000D01*
G01*
X46437000Y-98767000D01*
G75*
G02*
X46237000Y-98967000I-200000J0D01*
G01*
X45687000Y-98967000D01*
G75*
G02*
X45487000Y-98767000I0J200000D01*
G01*
X45487000Y-98367000D01*
G75*
G02*
X45687000Y-98167000I200000J0D01*
G01*
G37*
G36*
G01*
X45687000Y-96517000D02*
X46237000Y-96517000D01*
G75*
G02*
X46437000Y-96717000I0J-200000D01*
G01*
X46437000Y-97117000D01*
G75*
G02*
X46237000Y-97317000I-200000J0D01*
G01*
X45687000Y-97317000D01*
G75*
G02*
X45487000Y-97117000I0J200000D01*
G01*
X45487000Y-96717000D01*
G75*
G02*
X45687000Y-96517000I200000J0D01*
G01*
G37*
%TD*%
%TO.C,R15*%
G36*
G01*
X46237000Y-94317000D02*
X45687000Y-94317000D01*
G75*
G02*
X45487000Y-94117000I0J200000D01*
G01*
X45487000Y-93717000D01*
G75*
G02*
X45687000Y-93517000I200000J0D01*
G01*
X46237000Y-93517000D01*
G75*
G02*
X46437000Y-93717000I0J-200000D01*
G01*
X46437000Y-94117000D01*
G75*
G02*
X46237000Y-94317000I-200000J0D01*
G01*
G37*
G36*
G01*
X46237000Y-95967000D02*
X45687000Y-95967000D01*
G75*
G02*
X45487000Y-95767000I0J200000D01*
G01*
X45487000Y-95367000D01*
G75*
G02*
X45687000Y-95167000I200000J0D01*
G01*
X46237000Y-95167000D01*
G75*
G02*
X46437000Y-95367000I0J-200000D01*
G01*
X46437000Y-95767000D01*
G75*
G02*
X46237000Y-95967000I-200000J0D01*
G01*
G37*
%TD*%
%TO.C,R13*%
G36*
G01*
X48120000Y-107104000D02*
X48670000Y-107104000D01*
G75*
G02*
X48870000Y-107304000I0J-200000D01*
G01*
X48870000Y-107704000D01*
G75*
G02*
X48670000Y-107904000I-200000J0D01*
G01*
X48120000Y-107904000D01*
G75*
G02*
X47920000Y-107704000I0J200000D01*
G01*
X47920000Y-107304000D01*
G75*
G02*
X48120000Y-107104000I200000J0D01*
G01*
G37*
G36*
G01*
X48120000Y-105454000D02*
X48670000Y-105454000D01*
G75*
G02*
X48870000Y-105654000I0J-200000D01*
G01*
X48870000Y-106054000D01*
G75*
G02*
X48670000Y-106254000I-200000J0D01*
G01*
X48120000Y-106254000D01*
G75*
G02*
X47920000Y-106054000I0J200000D01*
G01*
X47920000Y-105654000D01*
G75*
G02*
X48120000Y-105454000I200000J0D01*
G01*
G37*
%TD*%
%TO.C,R12*%
G36*
G01*
X48120000Y-110129000D02*
X48670000Y-110129000D01*
G75*
G02*
X48870000Y-110329000I0J-200000D01*
G01*
X48870000Y-110729000D01*
G75*
G02*
X48670000Y-110929000I-200000J0D01*
G01*
X48120000Y-110929000D01*
G75*
G02*
X47920000Y-110729000I0J200000D01*
G01*
X47920000Y-110329000D01*
G75*
G02*
X48120000Y-110129000I200000J0D01*
G01*
G37*
G36*
G01*
X48120000Y-108479000D02*
X48670000Y-108479000D01*
G75*
G02*
X48870000Y-108679000I0J-200000D01*
G01*
X48870000Y-109079000D01*
G75*
G02*
X48670000Y-109279000I-200000J0D01*
G01*
X48120000Y-109279000D01*
G75*
G02*
X47920000Y-109079000I0J200000D01*
G01*
X47920000Y-108679000D01*
G75*
G02*
X48120000Y-108479000I200000J0D01*
G01*
G37*
%TD*%
%TO.C,R10*%
G36*
G01*
X20175000Y-108900000D02*
X20175000Y-109450000D01*
G75*
G02*
X19975000Y-109650000I-200000J0D01*
G01*
X19575000Y-109650000D01*
G75*
G02*
X19375000Y-109450000I0J200000D01*
G01*
X19375000Y-108900000D01*
G75*
G02*
X19575000Y-108700000I200000J0D01*
G01*
X19975000Y-108700000D01*
G75*
G02*
X20175000Y-108900000I0J-200000D01*
G01*
G37*
G36*
G01*
X21825000Y-108900000D02*
X21825000Y-109450000D01*
G75*
G02*
X21625000Y-109650000I-200000J0D01*
G01*
X21225000Y-109650000D01*
G75*
G02*
X21025000Y-109450000I0J200000D01*
G01*
X21025000Y-108900000D01*
G75*
G02*
X21225000Y-108700000I200000J0D01*
G01*
X21625000Y-108700000D01*
G75*
G02*
X21825000Y-108900000I0J-200000D01*
G01*
G37*
%TD*%
%TO.C,R1*%
G36*
G01*
X31159000Y-126195500D02*
X31159000Y-125645500D01*
G75*
G02*
X31359000Y-125445500I200000J0D01*
G01*
X31759000Y-125445500D01*
G75*
G02*
X31959000Y-125645500I0J-200000D01*
G01*
X31959000Y-126195500D01*
G75*
G02*
X31759000Y-126395500I-200000J0D01*
G01*
X31359000Y-126395500D01*
G75*
G02*
X31159000Y-126195500I0J200000D01*
G01*
G37*
G36*
G01*
X29509000Y-126195500D02*
X29509000Y-125645500D01*
G75*
G02*
X29709000Y-125445500I200000J0D01*
G01*
X30109000Y-125445500D01*
G75*
G02*
X30309000Y-125645500I0J-200000D01*
G01*
X30309000Y-126195500D01*
G75*
G02*
X30109000Y-126395500I-200000J0D01*
G01*
X29709000Y-126395500D01*
G75*
G02*
X29509000Y-126195500I0J200000D01*
G01*
G37*
%TD*%
D14*
%TO.C,J10*%
X27195000Y-85890000D03*
X27195000Y-83350000D03*
X29735000Y-85890000D03*
X29735000Y-83350000D03*
X32275000Y-85890000D03*
D15*
X32275000Y-83350000D03*
%TD*%
D21*
%TO.C,J8*%
X45912000Y-121243000D03*
X45912000Y-118743000D03*
G36*
G01*
X45187000Y-115393000D02*
X46637000Y-115393000D01*
G75*
G02*
X46887000Y-115643000I0J-250000D01*
G01*
X46887000Y-116843000D01*
G75*
G02*
X46637000Y-117093000I-250000J0D01*
G01*
X45187000Y-117093000D01*
G75*
G02*
X44937000Y-116843000I0J250000D01*
G01*
X44937000Y-115643000D01*
G75*
G02*
X45187000Y-115393000I250000J0D01*
G01*
G37*
%TD*%
D14*
%TO.C,J7*%
X43255000Y-105449000D03*
X45795000Y-105449000D03*
X43255000Y-107989000D03*
X45795000Y-107989000D03*
X43255000Y-110529000D03*
D15*
X45795000Y-110529000D03*
%TD*%
%TO.C,D2*%
G36*
G01*
X46643250Y-100529500D02*
X45730750Y-100529500D01*
G75*
G02*
X45487000Y-100285750I0J243750D01*
G01*
X45487000Y-99798250D01*
G75*
G02*
X45730750Y-99554500I243750J0D01*
G01*
X46643250Y-99554500D01*
G75*
G02*
X46887000Y-99798250I0J-243750D01*
G01*
X46887000Y-100285750D01*
G75*
G02*
X46643250Y-100529500I-243750J0D01*
G01*
G37*
G36*
G01*
X46643250Y-102404500D02*
X45730750Y-102404500D01*
G75*
G02*
X45487000Y-102160750I0J243750D01*
G01*
X45487000Y-101673250D01*
G75*
G02*
X45730750Y-101429500I243750J0D01*
G01*
X46643250Y-101429500D01*
G75*
G02*
X46887000Y-101673250I0J-243750D01*
G01*
X46887000Y-102160750D01*
G75*
G02*
X46643250Y-102404500I-243750J0D01*
G01*
G37*
%TD*%
%TO.C,D1*%
G36*
G01*
X45730750Y-91929500D02*
X46643250Y-91929500D01*
G75*
G02*
X46887000Y-92173250I0J-243750D01*
G01*
X46887000Y-92660750D01*
G75*
G02*
X46643250Y-92904500I-243750J0D01*
G01*
X45730750Y-92904500D01*
G75*
G02*
X45487000Y-92660750I0J243750D01*
G01*
X45487000Y-92173250D01*
G75*
G02*
X45730750Y-91929500I243750J0D01*
G01*
G37*
G36*
G01*
X45730750Y-90054500D02*
X46643250Y-90054500D01*
G75*
G02*
X46887000Y-90298250I0J-243750D01*
G01*
X46887000Y-90785750D01*
G75*
G02*
X46643250Y-91029500I-243750J0D01*
G01*
X45730750Y-91029500D01*
G75*
G02*
X45487000Y-90785750I0J243750D01*
G01*
X45487000Y-90298250D01*
G75*
G02*
X45730750Y-90054500I243750J0D01*
G01*
G37*
%TD*%
%TO.C,C11*%
G36*
G01*
X41067500Y-118700000D02*
X40567500Y-118700000D01*
G75*
G02*
X40342500Y-118475000I0J225000D01*
G01*
X40342500Y-118025000D01*
G75*
G02*
X40567500Y-117800000I225000J0D01*
G01*
X41067500Y-117800000D01*
G75*
G02*
X41292500Y-118025000I0J-225000D01*
G01*
X41292500Y-118475000D01*
G75*
G02*
X41067500Y-118700000I-225000J0D01*
G01*
G37*
G36*
G01*
X41067500Y-117150000D02*
X40567500Y-117150000D01*
G75*
G02*
X40342500Y-116925000I0J225000D01*
G01*
X40342500Y-116475000D01*
G75*
G02*
X40567500Y-116250000I225000J0D01*
G01*
X41067500Y-116250000D01*
G75*
G02*
X41292500Y-116475000I0J-225000D01*
G01*
X41292500Y-116925000D01*
G75*
G02*
X41067500Y-117150000I-225000J0D01*
G01*
G37*
%TD*%
%TO.C,C10*%
G36*
G01*
X35859000Y-126170500D02*
X35859000Y-125670500D01*
G75*
G02*
X36084000Y-125445500I225000J0D01*
G01*
X36534000Y-125445500D01*
G75*
G02*
X36759000Y-125670500I0J-225000D01*
G01*
X36759000Y-126170500D01*
G75*
G02*
X36534000Y-126395500I-225000J0D01*
G01*
X36084000Y-126395500D01*
G75*
G02*
X35859000Y-126170500I0J225000D01*
G01*
G37*
G36*
G01*
X37409000Y-126170500D02*
X37409000Y-125670500D01*
G75*
G02*
X37634000Y-125445500I225000J0D01*
G01*
X38084000Y-125445500D01*
G75*
G02*
X38309000Y-125670500I0J-225000D01*
G01*
X38309000Y-126170500D01*
G75*
G02*
X38084000Y-126395500I-225000J0D01*
G01*
X37634000Y-126395500D01*
G75*
G02*
X37409000Y-126170500I0J225000D01*
G01*
G37*
%TD*%
%TO.C,C9*%
G36*
G01*
X33634500Y-110159500D02*
X33634500Y-109659500D01*
G75*
G02*
X33859500Y-109434500I225000J0D01*
G01*
X34309500Y-109434500D01*
G75*
G02*
X34534500Y-109659500I0J-225000D01*
G01*
X34534500Y-110159500D01*
G75*
G02*
X34309500Y-110384500I-225000J0D01*
G01*
X33859500Y-110384500D01*
G75*
G02*
X33634500Y-110159500I0J225000D01*
G01*
G37*
G36*
G01*
X32084500Y-110159500D02*
X32084500Y-109659500D01*
G75*
G02*
X32309500Y-109434500I225000J0D01*
G01*
X32759500Y-109434500D01*
G75*
G02*
X32984500Y-109659500I0J-225000D01*
G01*
X32984500Y-110159500D01*
G75*
G02*
X32759500Y-110384500I-225000J0D01*
G01*
X32309500Y-110384500D01*
G75*
G02*
X32084500Y-110159500I0J225000D01*
G01*
G37*
%TD*%
%TO.C,C8*%
G36*
G01*
X22311500Y-116191000D02*
X22311500Y-115691000D01*
G75*
G02*
X22536500Y-115466000I225000J0D01*
G01*
X22986500Y-115466000D01*
G75*
G02*
X23211500Y-115691000I0J-225000D01*
G01*
X23211500Y-116191000D01*
G75*
G02*
X22986500Y-116416000I-225000J0D01*
G01*
X22536500Y-116416000D01*
G75*
G02*
X22311500Y-116191000I0J225000D01*
G01*
G37*
G36*
G01*
X20761500Y-116191000D02*
X20761500Y-115691000D01*
G75*
G02*
X20986500Y-115466000I225000J0D01*
G01*
X21436500Y-115466000D01*
G75*
G02*
X21661500Y-115691000I0J-225000D01*
G01*
X21661500Y-116191000D01*
G75*
G02*
X21436500Y-116416000I-225000J0D01*
G01*
X20986500Y-116416000D01*
G75*
G02*
X20761500Y-116191000I0J225000D01*
G01*
G37*
%TD*%
%TO.C,C2*%
G36*
G01*
X24750000Y-128100000D02*
X25250000Y-128100000D01*
G75*
G02*
X25475000Y-128325000I0J-225000D01*
G01*
X25475000Y-128775000D01*
G75*
G02*
X25250000Y-129000000I-225000J0D01*
G01*
X24750000Y-129000000D01*
G75*
G02*
X24525000Y-128775000I0J225000D01*
G01*
X24525000Y-128325000D01*
G75*
G02*
X24750000Y-128100000I225000J0D01*
G01*
G37*
G36*
G01*
X24750000Y-126550000D02*
X25250000Y-126550000D01*
G75*
G02*
X25475000Y-126775000I0J-225000D01*
G01*
X25475000Y-127225000D01*
G75*
G02*
X25250000Y-127450000I-225000J0D01*
G01*
X24750000Y-127450000D01*
G75*
G02*
X24525000Y-127225000I0J225000D01*
G01*
X24525000Y-126775000D01*
G75*
G02*
X24750000Y-126550000I225000J0D01*
G01*
G37*
%TD*%
%TO.C,C1*%
G36*
G01*
X19650000Y-128100000D02*
X20150000Y-128100000D01*
G75*
G02*
X20375000Y-128325000I0J-225000D01*
G01*
X20375000Y-128775000D01*
G75*
G02*
X20150000Y-129000000I-225000J0D01*
G01*
X19650000Y-129000000D01*
G75*
G02*
X19425000Y-128775000I0J225000D01*
G01*
X19425000Y-128325000D01*
G75*
G02*
X19650000Y-128100000I225000J0D01*
G01*
G37*
G36*
G01*
X19650000Y-126550000D02*
X20150000Y-126550000D01*
G75*
G02*
X20375000Y-126775000I0J-225000D01*
G01*
X20375000Y-127225000D01*
G75*
G02*
X20150000Y-127450000I-225000J0D01*
G01*
X19650000Y-127450000D01*
G75*
G02*
X19425000Y-127225000I0J225000D01*
G01*
X19425000Y-126775000D01*
G75*
G02*
X19650000Y-126550000I225000J0D01*
G01*
G37*
%TD*%
%TO.C,J12*%
X27700000Y-128587500D03*
D14*
X30240000Y-128587500D03*
X32780000Y-128587500D03*
X35320000Y-128587500D03*
X37860000Y-128587500D03*
X40400000Y-128587500D03*
%TD*%
%TO.C,R11*%
G36*
G01*
X35475000Y-107400000D02*
X35475000Y-106850000D01*
G75*
G02*
X35675000Y-106650000I200000J0D01*
G01*
X36075000Y-106650000D01*
G75*
G02*
X36275000Y-106850000I0J-200000D01*
G01*
X36275000Y-107400000D01*
G75*
G02*
X36075000Y-107600000I-200000J0D01*
G01*
X35675000Y-107600000D01*
G75*
G02*
X35475000Y-107400000I0J200000D01*
G01*
G37*
G36*
G01*
X37125000Y-107400000D02*
X37125000Y-106850000D01*
G75*
G02*
X37325000Y-106650000I200000J0D01*
G01*
X37725000Y-106650000D01*
G75*
G02*
X37925000Y-106850000I0J-200000D01*
G01*
X37925000Y-107400000D01*
G75*
G02*
X37725000Y-107600000I-200000J0D01*
G01*
X37325000Y-107600000D01*
G75*
G02*
X37125000Y-107400000I0J200000D01*
G01*
G37*
%TD*%
%TO.C,R7*%
G36*
G01*
X31125000Y-107400000D02*
X31125000Y-106850000D01*
G75*
G02*
X31325000Y-106650000I200000J0D01*
G01*
X31725000Y-106650000D01*
G75*
G02*
X31925000Y-106850000I0J-200000D01*
G01*
X31925000Y-107400000D01*
G75*
G02*
X31725000Y-107600000I-200000J0D01*
G01*
X31325000Y-107600000D01*
G75*
G02*
X31125000Y-107400000I0J200000D01*
G01*
G37*
G36*
G01*
X29475000Y-107400000D02*
X29475000Y-106850000D01*
G75*
G02*
X29675000Y-106650000I200000J0D01*
G01*
X30075000Y-106650000D01*
G75*
G02*
X30275000Y-106850000I0J-200000D01*
G01*
X30275000Y-107400000D01*
G75*
G02*
X30075000Y-107600000I-200000J0D01*
G01*
X29675000Y-107600000D01*
G75*
G02*
X29475000Y-107400000I0J200000D01*
G01*
G37*
%TD*%
%TO.C,C5*%
G36*
G01*
X37573900Y-109658000D02*
X37573900Y-110158000D01*
G75*
G02*
X37348900Y-110383000I-225000J0D01*
G01*
X36898900Y-110383000D01*
G75*
G02*
X36673900Y-110158000I0J225000D01*
G01*
X36673900Y-109658000D01*
G75*
G02*
X36898900Y-109433000I225000J0D01*
G01*
X37348900Y-109433000D01*
G75*
G02*
X37573900Y-109658000I0J-225000D01*
G01*
G37*
G36*
G01*
X36023900Y-109658000D02*
X36023900Y-110158000D01*
G75*
G02*
X35798900Y-110383000I-225000J0D01*
G01*
X35348900Y-110383000D01*
G75*
G02*
X35123900Y-110158000I0J225000D01*
G01*
X35123900Y-109658000D01*
G75*
G02*
X35348900Y-109433000I225000J0D01*
G01*
X35798900Y-109433000D01*
G75*
G02*
X36023900Y-109658000I0J-225000D01*
G01*
G37*
%TD*%
%TO.C,J4*%
G36*
G01*
X89587498Y-151567500D02*
X91387502Y-151567500D01*
G75*
G02*
X91637500Y-151817498I0J-249998D01*
G01*
X91637500Y-153617502D01*
G75*
G02*
X91387502Y-153867500I-249998J0D01*
G01*
X89587498Y-153867500D01*
G75*
G02*
X89337500Y-153617502I0J249998D01*
G01*
X89337500Y-151817498D01*
G75*
G02*
X89587498Y-151567500I249998J0D01*
G01*
G37*
%TD*%
%TO.C,J3*%
G36*
G01*
X29516498Y-151567500D02*
X31316502Y-151567500D01*
G75*
G02*
X31566500Y-151817498I0J-249998D01*
G01*
X31566500Y-153617502D01*
G75*
G02*
X31316502Y-153867500I-249998J0D01*
G01*
X29516498Y-153867500D01*
G75*
G02*
X29266500Y-153617502I0J249998D01*
G01*
X29266500Y-151817498D01*
G75*
G02*
X29516498Y-151567500I249998J0D01*
G01*
G37*
%TD*%
%TO.C,J2*%
G36*
G01*
X29516498Y-135565500D02*
X31316502Y-135565500D01*
G75*
G02*
X31566500Y-135815498I0J-249998D01*
G01*
X31566500Y-137615502D01*
G75*
G02*
X31316502Y-137865500I-249998J0D01*
G01*
X29516498Y-137865500D01*
G75*
G02*
X29266500Y-137615502I0J249998D01*
G01*
X29266500Y-135815498D01*
G75*
G02*
X29516498Y-135565500I249998J0D01*
G01*
G37*
%TD*%
%TO.C,J1*%
G36*
G01*
X89587498Y-135565500D02*
X91387502Y-135565500D01*
G75*
G02*
X91637500Y-135815498I0J-249998D01*
G01*
X91637500Y-137615502D01*
G75*
G02*
X91387502Y-137865500I-249998J0D01*
G01*
X89587498Y-137865500D01*
G75*
G02*
X89337500Y-137615502I0J249998D01*
G01*
X89337500Y-135815498D01*
G75*
G02*
X89587498Y-135565500I249998J0D01*
G01*
G37*
%TD*%
%TO.C,R8*%
G36*
G01*
X27250000Y-106850000D02*
X27250000Y-107400000D01*
G75*
G02*
X27050000Y-107600000I-200000J0D01*
G01*
X26650000Y-107600000D01*
G75*
G02*
X26450000Y-107400000I0J200000D01*
G01*
X26450000Y-106850000D01*
G75*
G02*
X26650000Y-106650000I200000J0D01*
G01*
X27050000Y-106650000D01*
G75*
G02*
X27250000Y-106850000I0J-200000D01*
G01*
G37*
G36*
G01*
X28900000Y-106850000D02*
X28900000Y-107400000D01*
G75*
G02*
X28700000Y-107600000I-200000J0D01*
G01*
X28300000Y-107600000D01*
G75*
G02*
X28100000Y-107400000I0J200000D01*
G01*
X28100000Y-106850000D01*
G75*
G02*
X28300000Y-106650000I200000J0D01*
G01*
X28700000Y-106650000D01*
G75*
G02*
X28900000Y-106850000I0J-200000D01*
G01*
G37*
%TD*%
%TO.C,R5*%
G36*
G01*
X34125000Y-107400000D02*
X34125000Y-106850000D01*
G75*
G02*
X34325000Y-106650000I200000J0D01*
G01*
X34725000Y-106650000D01*
G75*
G02*
X34925000Y-106850000I0J-200000D01*
G01*
X34925000Y-107400000D01*
G75*
G02*
X34725000Y-107600000I-200000J0D01*
G01*
X34325000Y-107600000D01*
G75*
G02*
X34125000Y-107400000I0J200000D01*
G01*
G37*
G36*
G01*
X32475000Y-107400000D02*
X32475000Y-106850000D01*
G75*
G02*
X32675000Y-106650000I200000J0D01*
G01*
X33075000Y-106650000D01*
G75*
G02*
X33275000Y-106850000I0J-200000D01*
G01*
X33275000Y-107400000D01*
G75*
G02*
X33075000Y-107600000I-200000J0D01*
G01*
X32675000Y-107600000D01*
G75*
G02*
X32475000Y-107400000I0J200000D01*
G01*
G37*
%TD*%
D22*
%TO.C,J13*%
X39172200Y-84900000D03*
D23*
X36632200Y-82360000D03*
X36632200Y-87440000D03*
X41712200Y-87440000D03*
X41712200Y-82360000D03*
%TD*%
D24*
%TO.C,H1*%
X89865200Y-83439000D03*
%TD*%
%TO.C,H2*%
X89865200Y-160451800D03*
%TD*%
%TO.C,H3*%
X21869400Y-83413600D03*
%TD*%
%TO.C,H4*%
X21869400Y-160451800D03*
%TD*%
%TO.C,C3*%
G36*
G01*
X35134000Y-125670500D02*
X35134000Y-126170500D01*
G75*
G02*
X34909000Y-126395500I-225000J0D01*
G01*
X34459000Y-126395500D01*
G75*
G02*
X34234000Y-126170500I0J225000D01*
G01*
X34234000Y-125670500D01*
G75*
G02*
X34459000Y-125445500I225000J0D01*
G01*
X34909000Y-125445500D01*
G75*
G02*
X35134000Y-125670500I0J-225000D01*
G01*
G37*
G36*
G01*
X33584000Y-125670500D02*
X33584000Y-126170500D01*
G75*
G02*
X33359000Y-126395500I-225000J0D01*
G01*
X32909000Y-126395500D01*
G75*
G02*
X32684000Y-126170500I0J225000D01*
G01*
X32684000Y-125670500D01*
G75*
G02*
X32909000Y-125445500I225000J0D01*
G01*
X33359000Y-125445500D01*
G75*
G02*
X33584000Y-125670500I0J-225000D01*
G01*
G37*
%TD*%
%TO.C,C4*%
G36*
G01*
X25650000Y-116769000D02*
X25150000Y-116769000D01*
G75*
G02*
X24925000Y-116544000I0J225000D01*
G01*
X24925000Y-116094000D01*
G75*
G02*
X25150000Y-115869000I225000J0D01*
G01*
X25650000Y-115869000D01*
G75*
G02*
X25875000Y-116094000I0J-225000D01*
G01*
X25875000Y-116544000D01*
G75*
G02*
X25650000Y-116769000I-225000J0D01*
G01*
G37*
G36*
G01*
X25650000Y-118319000D02*
X25150000Y-118319000D01*
G75*
G02*
X24925000Y-118094000I0J225000D01*
G01*
X24925000Y-117644000D01*
G75*
G02*
X25150000Y-117419000I225000J0D01*
G01*
X25650000Y-117419000D01*
G75*
G02*
X25875000Y-117644000I0J-225000D01*
G01*
X25875000Y-118094000D01*
G75*
G02*
X25650000Y-118319000I-225000J0D01*
G01*
G37*
%TD*%
%TO.C,C6*%
G36*
G01*
X41080500Y-121875000D02*
X40580500Y-121875000D01*
G75*
G02*
X40355500Y-121650000I0J225000D01*
G01*
X40355500Y-121200000D01*
G75*
G02*
X40580500Y-120975000I225000J0D01*
G01*
X41080500Y-120975000D01*
G75*
G02*
X41305500Y-121200000I0J-225000D01*
G01*
X41305500Y-121650000D01*
G75*
G02*
X41080500Y-121875000I-225000J0D01*
G01*
G37*
G36*
G01*
X41080500Y-120325000D02*
X40580500Y-120325000D01*
G75*
G02*
X40355500Y-120100000I0J225000D01*
G01*
X40355500Y-119650000D01*
G75*
G02*
X40580500Y-119425000I225000J0D01*
G01*
X41080500Y-119425000D01*
G75*
G02*
X41305500Y-119650000I0J-225000D01*
G01*
X41305500Y-120100000D01*
G75*
G02*
X41080500Y-120325000I-225000J0D01*
G01*
G37*
%TD*%
%TO.C,C12*%
G36*
G01*
X22123500Y-134167500D02*
X23723500Y-134167500D01*
G75*
G02*
X23973500Y-134417500I0J-250000D01*
G01*
X23973500Y-138417500D01*
G75*
G02*
X23723500Y-138667500I-250000J0D01*
G01*
X22123500Y-138667500D01*
G75*
G02*
X21873500Y-138417500I0J250000D01*
G01*
X21873500Y-134417500D01*
G75*
G02*
X22123500Y-134167500I250000J0D01*
G01*
G37*
G36*
G01*
X22123500Y-141367500D02*
X23723500Y-141367500D01*
G75*
G02*
X23973500Y-141617500I0J-250000D01*
G01*
X23973500Y-145617500D01*
G75*
G02*
X23723500Y-145867500I-250000J0D01*
G01*
X22123500Y-145867500D01*
G75*
G02*
X21873500Y-145617500I0J250000D01*
G01*
X21873500Y-141617500D01*
G75*
G02*
X22123500Y-141367500I250000J0D01*
G01*
G37*
%TD*%
D25*
%TO.C,Y1*%
X21844000Y-121928500D03*
X21844000Y-118228500D03*
%TD*%
M02*
