%TF.GenerationSoftware,KiCad,Pcbnew,(5.1.7)-1*%
%TF.CreationDate,2021-04-21T13:47:07+02:00*%
%TF.ProjectId,mfm-v3-smd,6d666d2d-7633-42d7-936d-642e6b696361,rev?*%
%TF.SameCoordinates,Original*%
%TF.FileFunction,Soldermask,Bot*%
%TF.FilePolarity,Negative*%
%FSLAX46Y46*%
G04 Gerber Fmt 4.6, Leading zero omitted, Abs format (unit mm)*
G04 Created by KiCad (PCBNEW (5.1.7)-1) date 2021-04-21 13:47:07*
%MOMM*%
%LPD*%
G01*
G04 APERTURE LIST*
%ADD10O,1.700000X1.700000*%
%ADD11R,1.700000X1.700000*%
%ADD12O,1.950000X1.700000*%
%ADD13C,3.300000*%
%ADD14C,2.000000*%
%ADD15R,2.000000X2.000000*%
%ADD16O,1.200000X2.000000*%
%ADD17C,5.000000*%
%ADD18C,0.800000*%
%ADD19C,2.050000*%
%ADD20C,2.250000*%
G04 APERTURE END LIST*
D10*
%TO.C,J5*%
X82675000Y-83500000D03*
X80135000Y-83500000D03*
X77595000Y-83500000D03*
X75055000Y-83500000D03*
X72515000Y-83500000D03*
D11*
X69975000Y-83500000D03*
%TD*%
D10*
%TO.C,SW4*%
X42550000Y-102010000D03*
D11*
X42550000Y-104550000D03*
%TD*%
D10*
%TO.C,SW3*%
X42550000Y-97775000D03*
D11*
X42550000Y-95235000D03*
%TD*%
D10*
%TO.C,SW1*%
X23925000Y-133385000D03*
D11*
X23925000Y-135925000D03*
%TD*%
D10*
%TO.C,J10*%
X27195000Y-85890000D03*
X27195000Y-83350000D03*
X29735000Y-85890000D03*
X29735000Y-83350000D03*
X32275000Y-85890000D03*
D11*
X32275000Y-83350000D03*
%TD*%
D12*
%TO.C,J8*%
X45150000Y-123275000D03*
X45150000Y-120775000D03*
G36*
G01*
X44425000Y-117425000D02*
X45875000Y-117425000D01*
G75*
G02*
X46125000Y-117675000I0J-250000D01*
G01*
X46125000Y-118875000D01*
G75*
G02*
X45875000Y-119125000I-250000J0D01*
G01*
X44425000Y-119125000D01*
G75*
G02*
X44175000Y-118875000I0J250000D01*
G01*
X44175000Y-117675000D01*
G75*
G02*
X44425000Y-117425000I250000J0D01*
G01*
G37*
%TD*%
D10*
%TO.C,J7*%
X41985000Y-108370000D03*
X44525000Y-108370000D03*
X41985000Y-110910000D03*
X44525000Y-110910000D03*
X41985000Y-113450000D03*
D11*
X44525000Y-113450000D03*
%TD*%
D13*
%TO.C,BT1*%
X55865000Y-139250000D03*
X55865000Y-154240000D03*
D14*
X28700000Y-154240000D03*
D15*
X28700000Y-139250000D03*
%TD*%
D11*
%TO.C,J12*%
X27700000Y-128050000D03*
D10*
X30240000Y-128050000D03*
X32780000Y-128050000D03*
X35320000Y-128050000D03*
X37860000Y-128050000D03*
X40400000Y-128050000D03*
%TD*%
D16*
%TO.C,U4*%
X25172200Y-90806300D03*
X25172200Y-104806300D03*
X27172200Y-90806300D03*
X27172200Y-104806300D03*
X29172200Y-90806300D03*
X29172200Y-104806300D03*
X31172200Y-90806300D03*
X31172200Y-104806300D03*
X33172200Y-90806300D03*
X33172200Y-104806300D03*
X35172200Y-90806300D03*
X35172200Y-104806300D03*
X37172200Y-90806300D03*
X37172200Y-104806300D03*
X39172200Y-90806300D03*
X39172200Y-104806300D03*
%TD*%
D17*
%TO.C,H4*%
X21869400Y-160451800D03*
D18*
X23744400Y-160451800D03*
X23195225Y-161777625D03*
X21869400Y-162326800D03*
X20543575Y-161777625D03*
X19994400Y-160451800D03*
X20543575Y-159125975D03*
X21869400Y-158576800D03*
X23195225Y-159125975D03*
%TD*%
D17*
%TO.C,H3*%
X21869400Y-83413600D03*
D18*
X23744400Y-83413600D03*
X23195225Y-84739425D03*
X21869400Y-85288600D03*
X20543575Y-84739425D03*
X19994400Y-83413600D03*
X20543575Y-82087775D03*
X21869400Y-81538600D03*
X23195225Y-82087775D03*
%TD*%
D17*
%TO.C,H2*%
X89865200Y-160451800D03*
D18*
X91740200Y-160451800D03*
X91191025Y-161777625D03*
X89865200Y-162326800D03*
X88539375Y-161777625D03*
X87990200Y-160451800D03*
X88539375Y-159125975D03*
X89865200Y-158576800D03*
X91191025Y-159125975D03*
%TD*%
D17*
%TO.C,H1*%
X89865200Y-83439000D03*
D18*
X91740200Y-83439000D03*
X91191025Y-84764825D03*
X89865200Y-85314000D03*
X88539375Y-84764825D03*
X87990200Y-83439000D03*
X88539375Y-82113175D03*
X89865200Y-81564000D03*
X91191025Y-82113175D03*
%TD*%
%TO.C,J4*%
G36*
G01*
X87237998Y-149091000D02*
X89038002Y-149091000D01*
G75*
G02*
X89288000Y-149340998I0J-249998D01*
G01*
X89288000Y-151141002D01*
G75*
G02*
X89038002Y-151391000I-249998J0D01*
G01*
X87237998Y-151391000D01*
G75*
G02*
X86988000Y-151141002I0J249998D01*
G01*
X86988000Y-149340998D01*
G75*
G02*
X87237998Y-149091000I249998J0D01*
G01*
G37*
%TD*%
%TO.C,J3*%
G36*
G01*
X27166998Y-149091000D02*
X28967002Y-149091000D01*
G75*
G02*
X29217000Y-149340998I0J-249998D01*
G01*
X29217000Y-151141002D01*
G75*
G02*
X28967002Y-151391000I-249998J0D01*
G01*
X27166998Y-151391000D01*
G75*
G02*
X26917000Y-151141002I0J249998D01*
G01*
X26917000Y-149340998D01*
G75*
G02*
X27166998Y-149091000I249998J0D01*
G01*
G37*
%TD*%
%TO.C,J2*%
G36*
G01*
X27166998Y-133089000D02*
X28967002Y-133089000D01*
G75*
G02*
X29217000Y-133338998I0J-249998D01*
G01*
X29217000Y-135139002D01*
G75*
G02*
X28967002Y-135389000I-249998J0D01*
G01*
X27166998Y-135389000D01*
G75*
G02*
X26917000Y-135139002I0J249998D01*
G01*
X26917000Y-133338998D01*
G75*
G02*
X27166998Y-133089000I249998J0D01*
G01*
G37*
%TD*%
%TO.C,J1*%
G36*
G01*
X87237998Y-133089000D02*
X89038002Y-133089000D01*
G75*
G02*
X89288000Y-133338998I0J-249998D01*
G01*
X89288000Y-135139002D01*
G75*
G02*
X89038002Y-135389000I-249998J0D01*
G01*
X87237998Y-135389000D01*
G75*
G02*
X86988000Y-135139002I0J249998D01*
G01*
X86988000Y-133338998D01*
G75*
G02*
X87237998Y-133089000I249998J0D01*
G01*
G37*
%TD*%
D19*
%TO.C,J13*%
X39172200Y-84900000D03*
D20*
X36632200Y-82360000D03*
X36632200Y-87440000D03*
X41712200Y-87440000D03*
X41712200Y-82360000D03*
%TD*%
M02*
