%TF.GenerationSoftware,KiCad,Pcbnew,(5.1.10-1-10_14)*%
%TF.CreationDate,2021-10-23T16:52:38+02:00*%
%TF.ProjectId,mfm-v3-smd,6d666d2d-7633-42d7-936d-642e6b696361,rev?*%
%TF.SameCoordinates,Original*%
%TF.FileFunction,Soldermask,Top*%
%TF.FilePolarity,Negative*%
%FSLAX46Y46*%
G04 Gerber Fmt 4.6, Leading zero omitted, Abs format (unit mm)*
G04 Created by KiCad (PCBNEW (5.1.10-1-10_14)) date 2021-10-23 16:52:38*
%MOMM*%
%LPD*%
G01*
G04 APERTURE LIST*
%ADD10C,0.010000*%
%ADD11C,2.050000*%
%ADD12O,1.700000X1.700000*%
%ADD13R,1.700000X1.700000*%
%ADD14C,3.300000*%
%ADD15C,2.000000*%
%ADD16R,2.000000X2.000000*%
%ADD17R,0.800000X0.900000*%
%ADD18R,1.500000X0.550000*%
%ADD19R,0.550000X1.500000*%
%ADD20C,2.700000*%
%ADD21R,1.500000X2.000000*%
%ADD22R,1.200000X1.800000*%
%ADD23R,1.400000X0.480000*%
%ADD24C,0.100000*%
%ADD25R,1.000000X2.000000*%
%ADD26O,2.000000X1.700000*%
G04 APERTURE END LIST*
D10*
%TO.C,J6*%
G36*
X41147200Y-80208300D02*
G01*
X43787200Y-80208300D01*
X43787200Y-88168300D01*
X41147200Y-88168300D01*
X41147200Y-85908300D01*
X41198694Y-85865368D01*
X41248030Y-85821719D01*
X41296076Y-85776654D01*
X41342791Y-85730210D01*
X41388135Y-85682427D01*
X41432071Y-85633346D01*
X41474560Y-85583007D01*
X41515567Y-85531454D01*
X41555058Y-85478730D01*
X41592998Y-85424880D01*
X41629356Y-85369949D01*
X41664101Y-85313984D01*
X41697203Y-85257032D01*
X41728635Y-85199141D01*
X41758370Y-85140361D01*
X41786383Y-85080740D01*
X41812650Y-85020330D01*
X41837149Y-84959182D01*
X41859859Y-84897347D01*
X41880761Y-84834878D01*
X41899837Y-84771827D01*
X41917072Y-84708248D01*
X41932449Y-84644195D01*
X41945958Y-84579721D01*
X41957585Y-84514882D01*
X41967322Y-84449732D01*
X41975160Y-84384327D01*
X41981092Y-84318721D01*
X41985113Y-84252970D01*
X41987200Y-84188300D01*
X41986273Y-84136576D01*
X41983332Y-84069217D01*
X41978433Y-84001971D01*
X41971580Y-83934896D01*
X41962779Y-83868049D01*
X41952038Y-83801487D01*
X41939366Y-83735264D01*
X41924773Y-83669439D01*
X41908271Y-83604065D01*
X41889875Y-83539200D01*
X41869601Y-83474896D01*
X41847464Y-83411210D01*
X41823485Y-83348195D01*
X41797683Y-83285903D01*
X41770080Y-83224388D01*
X41740700Y-83163703D01*
X41709567Y-83103897D01*
X41676708Y-83045022D01*
X41642150Y-82987128D01*
X41605923Y-82930263D01*
X41568058Y-82874476D01*
X41528586Y-82819814D01*
X41487541Y-82766323D01*
X41444958Y-82714049D01*
X41400872Y-82663035D01*
X41355321Y-82613325D01*
X41308344Y-82564961D01*
X41259980Y-82517983D01*
X41210269Y-82472432D01*
X41147200Y-82418300D01*
X41147200Y-80208300D01*
G37*
X41147200Y-80208300D02*
X43787200Y-80208300D01*
X43787200Y-88168300D01*
X41147200Y-88168300D01*
X41147200Y-85908300D01*
X41198694Y-85865368D01*
X41248030Y-85821719D01*
X41296076Y-85776654D01*
X41342791Y-85730210D01*
X41388135Y-85682427D01*
X41432071Y-85633346D01*
X41474560Y-85583007D01*
X41515567Y-85531454D01*
X41555058Y-85478730D01*
X41592998Y-85424880D01*
X41629356Y-85369949D01*
X41664101Y-85313984D01*
X41697203Y-85257032D01*
X41728635Y-85199141D01*
X41758370Y-85140361D01*
X41786383Y-85080740D01*
X41812650Y-85020330D01*
X41837149Y-84959182D01*
X41859859Y-84897347D01*
X41880761Y-84834878D01*
X41899837Y-84771827D01*
X41917072Y-84708248D01*
X41932449Y-84644195D01*
X41945958Y-84579721D01*
X41957585Y-84514882D01*
X41967322Y-84449732D01*
X41975160Y-84384327D01*
X41981092Y-84318721D01*
X41985113Y-84252970D01*
X41987200Y-84188300D01*
X41986273Y-84136576D01*
X41983332Y-84069217D01*
X41978433Y-84001971D01*
X41971580Y-83934896D01*
X41962779Y-83868049D01*
X41952038Y-83801487D01*
X41939366Y-83735264D01*
X41924773Y-83669439D01*
X41908271Y-83604065D01*
X41889875Y-83539200D01*
X41869601Y-83474896D01*
X41847464Y-83411210D01*
X41823485Y-83348195D01*
X41797683Y-83285903D01*
X41770080Y-83224388D01*
X41740700Y-83163703D01*
X41709567Y-83103897D01*
X41676708Y-83045022D01*
X41642150Y-82987128D01*
X41605923Y-82930263D01*
X41568058Y-82874476D01*
X41528586Y-82819814D01*
X41487541Y-82766323D01*
X41444958Y-82714049D01*
X41400872Y-82663035D01*
X41355321Y-82613325D01*
X41308344Y-82564961D01*
X41259980Y-82517983D01*
X41210269Y-82472432D01*
X41147200Y-82418300D01*
X41147200Y-80208300D01*
G36*
X38467200Y-80208300D02*
G01*
X35827200Y-80208300D01*
X35827200Y-88168300D01*
X38467200Y-88168300D01*
X38467200Y-85908300D01*
X38426130Y-85875063D01*
X38377211Y-85833283D01*
X38329529Y-85790098D01*
X38283123Y-85745544D01*
X38238032Y-85699659D01*
X38194295Y-85652483D01*
X38151949Y-85604054D01*
X38111029Y-85554414D01*
X38071570Y-85503605D01*
X38033605Y-85451670D01*
X37997167Y-85398652D01*
X37962287Y-85344597D01*
X37928993Y-85289551D01*
X37897315Y-85233559D01*
X37867278Y-85176670D01*
X37838909Y-85118932D01*
X37812231Y-85060392D01*
X37787267Y-85001102D01*
X37764038Y-84941110D01*
X37742564Y-84880468D01*
X37722862Y-84819228D01*
X37704950Y-84757440D01*
X37688843Y-84695157D01*
X37674554Y-84632433D01*
X37662095Y-84569319D01*
X37651477Y-84505870D01*
X37642709Y-84442138D01*
X37635799Y-84378179D01*
X37630751Y-84314045D01*
X37627200Y-84238300D01*
X37628185Y-84160018D01*
X37631194Y-84091101D01*
X37636206Y-84022301D01*
X37643217Y-83953676D01*
X37652221Y-83885284D01*
X37663210Y-83817183D01*
X37676176Y-83749430D01*
X37691106Y-83682083D01*
X37707989Y-83615198D01*
X37726810Y-83548833D01*
X37747554Y-83483044D01*
X37770202Y-83417885D01*
X37794735Y-83353413D01*
X37821134Y-83289682D01*
X37849375Y-83226745D01*
X37879434Y-83164657D01*
X37911286Y-83103469D01*
X37944905Y-83043233D01*
X37980261Y-82984001D01*
X38017326Y-82925822D01*
X38056066Y-82868745D01*
X38096450Y-82812820D01*
X38138444Y-82758092D01*
X38182012Y-82704610D01*
X38227117Y-82652417D01*
X38273720Y-82601557D01*
X38321784Y-82552075D01*
X38371266Y-82504012D01*
X38422125Y-82457408D01*
X38467200Y-82418300D01*
X38467200Y-80208300D01*
G37*
X38467200Y-80208300D02*
X35827200Y-80208300D01*
X35827200Y-88168300D01*
X38467200Y-88168300D01*
X38467200Y-85908300D01*
X38426130Y-85875063D01*
X38377211Y-85833283D01*
X38329529Y-85790098D01*
X38283123Y-85745544D01*
X38238032Y-85699659D01*
X38194295Y-85652483D01*
X38151949Y-85604054D01*
X38111029Y-85554414D01*
X38071570Y-85503605D01*
X38033605Y-85451670D01*
X37997167Y-85398652D01*
X37962287Y-85344597D01*
X37928993Y-85289551D01*
X37897315Y-85233559D01*
X37867278Y-85176670D01*
X37838909Y-85118932D01*
X37812231Y-85060392D01*
X37787267Y-85001102D01*
X37764038Y-84941110D01*
X37742564Y-84880468D01*
X37722862Y-84819228D01*
X37704950Y-84757440D01*
X37688843Y-84695157D01*
X37674554Y-84632433D01*
X37662095Y-84569319D01*
X37651477Y-84505870D01*
X37642709Y-84442138D01*
X37635799Y-84378179D01*
X37630751Y-84314045D01*
X37627200Y-84238300D01*
X37628185Y-84160018D01*
X37631194Y-84091101D01*
X37636206Y-84022301D01*
X37643217Y-83953676D01*
X37652221Y-83885284D01*
X37663210Y-83817183D01*
X37676176Y-83749430D01*
X37691106Y-83682083D01*
X37707989Y-83615198D01*
X37726810Y-83548833D01*
X37747554Y-83483044D01*
X37770202Y-83417885D01*
X37794735Y-83353413D01*
X37821134Y-83289682D01*
X37849375Y-83226745D01*
X37879434Y-83164657D01*
X37911286Y-83103469D01*
X37944905Y-83043233D01*
X37980261Y-82984001D01*
X38017326Y-82925822D01*
X38056066Y-82868745D01*
X38096450Y-82812820D01*
X38138444Y-82758092D01*
X38182012Y-82704610D01*
X38227117Y-82652417D01*
X38273720Y-82601557D01*
X38321784Y-82552075D01*
X38371266Y-82504012D01*
X38422125Y-82457408D01*
X38467200Y-82418300D01*
X38467200Y-80208300D01*
%TD*%
%TO.C,C10*%
G36*
G01*
X38446000Y-126903500D02*
X38446000Y-125953500D01*
G75*
G02*
X38796000Y-125603500I350000J0D01*
G01*
X39496000Y-125603500D01*
G75*
G02*
X39846000Y-125953500I0J-350000D01*
G01*
X39846000Y-126903500D01*
G75*
G02*
X39496000Y-127253500I-350000J0D01*
G01*
X38796000Y-127253500D01*
G75*
G02*
X38446000Y-126903500I0J350000D01*
G01*
G37*
G36*
G01*
X35846000Y-126903500D02*
X35846000Y-125953500D01*
G75*
G02*
X36196000Y-125603500I350000J0D01*
G01*
X36896000Y-125603500D01*
G75*
G02*
X37246000Y-125953500I0J-350000D01*
G01*
X37246000Y-126903500D01*
G75*
G02*
X36896000Y-127253500I-350000J0D01*
G01*
X36196000Y-127253500D01*
G75*
G02*
X35846000Y-126903500I0J350000D01*
G01*
G37*
%TD*%
%TO.C,C5*%
G36*
G01*
X37246000Y-109189500D02*
X37246000Y-110139500D01*
G75*
G02*
X36896000Y-110489500I-350000J0D01*
G01*
X36196000Y-110489500D01*
G75*
G02*
X35846000Y-110139500I0J350000D01*
G01*
X35846000Y-109189500D01*
G75*
G02*
X36196000Y-108839500I350000J0D01*
G01*
X36896000Y-108839500D01*
G75*
G02*
X37246000Y-109189500I0J-350000D01*
G01*
G37*
G36*
G01*
X39846000Y-109189500D02*
X39846000Y-110139500D01*
G75*
G02*
X39496000Y-110489500I-350000J0D01*
G01*
X38796000Y-110489500D01*
G75*
G02*
X38446000Y-110139500I0J350000D01*
G01*
X38446000Y-109189500D01*
G75*
G02*
X38796000Y-108839500I350000J0D01*
G01*
X39496000Y-108839500D01*
G75*
G02*
X39846000Y-109189500I0J-350000D01*
G01*
G37*
%TD*%
%TO.C,R6*%
G36*
G01*
X48887500Y-110291500D02*
X49537500Y-110291500D01*
G75*
G02*
X49662500Y-110416500I0J-125000D01*
G01*
X49662500Y-110666500D01*
G75*
G02*
X49537500Y-110791500I-125000J0D01*
G01*
X48887500Y-110791500D01*
G75*
G02*
X48762500Y-110666500I0J125000D01*
G01*
X48762500Y-110416500D01*
G75*
G02*
X48887500Y-110291500I125000J0D01*
G01*
G37*
G36*
G01*
X48887500Y-108791500D02*
X49537500Y-108791500D01*
G75*
G02*
X49662500Y-108916500I0J-125000D01*
G01*
X49662500Y-109166500D01*
G75*
G02*
X49537500Y-109291500I-125000J0D01*
G01*
X48887500Y-109291500D01*
G75*
G02*
X48762500Y-109166500I0J125000D01*
G01*
X48762500Y-108916500D01*
G75*
G02*
X48887500Y-108791500I125000J0D01*
G01*
G37*
%TD*%
%TO.C,R3*%
G36*
G01*
X34473000Y-107966000D02*
X35123000Y-107966000D01*
G75*
G02*
X35248000Y-108091000I0J-125000D01*
G01*
X35248000Y-108341000D01*
G75*
G02*
X35123000Y-108466000I-125000J0D01*
G01*
X34473000Y-108466000D01*
G75*
G02*
X34348000Y-108341000I0J125000D01*
G01*
X34348000Y-108091000D01*
G75*
G02*
X34473000Y-107966000I125000J0D01*
G01*
G37*
G36*
G01*
X34473000Y-109466000D02*
X35123000Y-109466000D01*
G75*
G02*
X35248000Y-109591000I0J-125000D01*
G01*
X35248000Y-109841000D01*
G75*
G02*
X35123000Y-109966000I-125000J0D01*
G01*
X34473000Y-109966000D01*
G75*
G02*
X34348000Y-109841000I0J125000D01*
G01*
X34348000Y-109591000D01*
G75*
G02*
X34473000Y-109466000I125000J0D01*
G01*
G37*
%TD*%
D11*
%TO.C,J6*%
X39807200Y-84137500D03*
%TD*%
D12*
%TO.C,J1*%
X78295500Y-83121500D03*
X80835500Y-83121500D03*
D13*
X83375500Y-83121500D03*
%TD*%
D14*
%TO.C,BT1*%
X57454500Y-140335000D03*
X57454500Y-155325000D03*
D15*
X30289500Y-155325000D03*
D16*
X30289500Y-140335000D03*
%TD*%
D17*
%TO.C,Q1*%
X20828000Y-133016500D03*
X19878000Y-131016500D03*
X21778000Y-131016500D03*
%TD*%
%TO.C,C7*%
G36*
G01*
X22740500Y-124392500D02*
X22740500Y-123892500D01*
G75*
G02*
X22965500Y-123667500I225000J0D01*
G01*
X23415500Y-123667500D01*
G75*
G02*
X23640500Y-123892500I0J-225000D01*
G01*
X23640500Y-124392500D01*
G75*
G02*
X23415500Y-124617500I-225000J0D01*
G01*
X22965500Y-124617500D01*
G75*
G02*
X22740500Y-124392500I0J225000D01*
G01*
G37*
G36*
G01*
X21190500Y-124392500D02*
X21190500Y-123892500D01*
G75*
G02*
X21415500Y-123667500I225000J0D01*
G01*
X21865500Y-123667500D01*
G75*
G02*
X22090500Y-123892500I0J-225000D01*
G01*
X22090500Y-124392500D01*
G75*
G02*
X21865500Y-124617500I-225000J0D01*
G01*
X21415500Y-124617500D01*
G75*
G02*
X21190500Y-124392500I0J225000D01*
G01*
G37*
%TD*%
D18*
%TO.C,U3*%
X27975000Y-113956500D03*
X27975000Y-114756500D03*
X27975000Y-115556500D03*
X27975000Y-116356500D03*
X27975000Y-117156500D03*
X27975000Y-117956500D03*
X27975000Y-118756500D03*
X27975000Y-119556500D03*
X27975000Y-120356500D03*
X27975000Y-121156500D03*
X27975000Y-121956500D03*
D19*
X29675000Y-123656500D03*
X30475000Y-123656500D03*
X31275000Y-123656500D03*
X32075000Y-123656500D03*
X32875000Y-123656500D03*
X33675000Y-123656500D03*
X34475000Y-123656500D03*
X35275000Y-123656500D03*
X36075000Y-123656500D03*
X36875000Y-123656500D03*
X37675000Y-123656500D03*
D18*
X39375000Y-121956500D03*
X39375000Y-121156500D03*
X39375000Y-120356500D03*
X39375000Y-119556500D03*
X39375000Y-118756500D03*
X39375000Y-117956500D03*
X39375000Y-117156500D03*
X39375000Y-116356500D03*
X39375000Y-115556500D03*
X39375000Y-114756500D03*
X39375000Y-113956500D03*
D19*
X37675000Y-112256500D03*
X36875000Y-112256500D03*
X36075000Y-112256500D03*
X35275000Y-112256500D03*
X34475000Y-112256500D03*
X33675000Y-112256500D03*
X32875000Y-112256500D03*
X32075000Y-112256500D03*
X31275000Y-112256500D03*
X30475000Y-112256500D03*
X29675000Y-112256500D03*
%TD*%
D12*
%TO.C,SW4*%
X44323000Y-98615500D03*
D13*
X44323000Y-101155500D03*
%TD*%
D12*
%TO.C,SW3*%
X44323000Y-93789500D03*
D13*
X44323000Y-91249500D03*
%TD*%
D12*
%TO.C,SW1*%
X24384000Y-151130000D03*
D13*
X24384000Y-153670000D03*
%TD*%
D12*
%TO.C,J5*%
X26289000Y-85090000D03*
X26289000Y-82550000D03*
X28829000Y-85090000D03*
X28829000Y-82550000D03*
X31369000Y-85090000D03*
D13*
X31369000Y-82550000D03*
%TD*%
D12*
%TO.C,J3*%
X43890000Y-105385500D03*
X46430000Y-105385500D03*
X43890000Y-107925500D03*
X46430000Y-107925500D03*
X43890000Y-110465500D03*
D13*
X46430000Y-110465500D03*
%TD*%
%TO.C,C11*%
G36*
G01*
X41702500Y-118636500D02*
X41202500Y-118636500D01*
G75*
G02*
X40977500Y-118411500I0J225000D01*
G01*
X40977500Y-117961500D01*
G75*
G02*
X41202500Y-117736500I225000J0D01*
G01*
X41702500Y-117736500D01*
G75*
G02*
X41927500Y-117961500I0J-225000D01*
G01*
X41927500Y-118411500D01*
G75*
G02*
X41702500Y-118636500I-225000J0D01*
G01*
G37*
G36*
G01*
X41702500Y-117086500D02*
X41202500Y-117086500D01*
G75*
G02*
X40977500Y-116861500I0J225000D01*
G01*
X40977500Y-116411500D01*
G75*
G02*
X41202500Y-116186500I225000J0D01*
G01*
X41702500Y-116186500D01*
G75*
G02*
X41927500Y-116411500I0J-225000D01*
G01*
X41927500Y-116861500D01*
G75*
G02*
X41702500Y-117086500I-225000J0D01*
G01*
G37*
%TD*%
%TO.C,C9*%
G36*
G01*
X32960500Y-109291000D02*
X33460500Y-109291000D01*
G75*
G02*
X33685500Y-109516000I0J-225000D01*
G01*
X33685500Y-109966000D01*
G75*
G02*
X33460500Y-110191000I-225000J0D01*
G01*
X32960500Y-110191000D01*
G75*
G02*
X32735500Y-109966000I0J225000D01*
G01*
X32735500Y-109516000D01*
G75*
G02*
X32960500Y-109291000I225000J0D01*
G01*
G37*
G36*
G01*
X32960500Y-107741000D02*
X33460500Y-107741000D01*
G75*
G02*
X33685500Y-107966000I0J-225000D01*
G01*
X33685500Y-108416000D01*
G75*
G02*
X33460500Y-108641000I-225000J0D01*
G01*
X32960500Y-108641000D01*
G75*
G02*
X32735500Y-108416000I0J225000D01*
G01*
X32735500Y-107966000D01*
G75*
G02*
X32960500Y-107741000I225000J0D01*
G01*
G37*
%TD*%
%TO.C,C8*%
G36*
G01*
X20252500Y-117975500D02*
X19752500Y-117975500D01*
G75*
G02*
X19527500Y-117750500I0J225000D01*
G01*
X19527500Y-117300500D01*
G75*
G02*
X19752500Y-117075500I225000J0D01*
G01*
X20252500Y-117075500D01*
G75*
G02*
X20477500Y-117300500I0J-225000D01*
G01*
X20477500Y-117750500D01*
G75*
G02*
X20252500Y-117975500I-225000J0D01*
G01*
G37*
G36*
G01*
X20252500Y-119525500D02*
X19752500Y-119525500D01*
G75*
G02*
X19527500Y-119300500I0J225000D01*
G01*
X19527500Y-118850500D01*
G75*
G02*
X19752500Y-118625500I225000J0D01*
G01*
X20252500Y-118625500D01*
G75*
G02*
X20477500Y-118850500I0J-225000D01*
G01*
X20477500Y-119300500D01*
G75*
G02*
X20252500Y-119525500I-225000J0D01*
G01*
G37*
%TD*%
%TO.C,C2*%
G36*
G01*
X24832500Y-125610500D02*
X25332500Y-125610500D01*
G75*
G02*
X25557500Y-125835500I0J-225000D01*
G01*
X25557500Y-126285500D01*
G75*
G02*
X25332500Y-126510500I-225000J0D01*
G01*
X24832500Y-126510500D01*
G75*
G02*
X24607500Y-126285500I0J225000D01*
G01*
X24607500Y-125835500D01*
G75*
G02*
X24832500Y-125610500I225000J0D01*
G01*
G37*
G36*
G01*
X24832500Y-124060500D02*
X25332500Y-124060500D01*
G75*
G02*
X25557500Y-124285500I0J-225000D01*
G01*
X25557500Y-124735500D01*
G75*
G02*
X25332500Y-124960500I-225000J0D01*
G01*
X24832500Y-124960500D01*
G75*
G02*
X24607500Y-124735500I0J225000D01*
G01*
X24607500Y-124285500D01*
G75*
G02*
X24832500Y-124060500I225000J0D01*
G01*
G37*
%TD*%
%TO.C,C1*%
G36*
G01*
X25332500Y-128072000D02*
X24832500Y-128072000D01*
G75*
G02*
X24607500Y-127847000I0J225000D01*
G01*
X24607500Y-127397000D01*
G75*
G02*
X24832500Y-127172000I225000J0D01*
G01*
X25332500Y-127172000D01*
G75*
G02*
X25557500Y-127397000I0J-225000D01*
G01*
X25557500Y-127847000D01*
G75*
G02*
X25332500Y-128072000I-225000J0D01*
G01*
G37*
G36*
G01*
X25332500Y-129622000D02*
X24832500Y-129622000D01*
G75*
G02*
X24607500Y-129397000I0J225000D01*
G01*
X24607500Y-128947000D01*
G75*
G02*
X24832500Y-128722000I225000J0D01*
G01*
X25332500Y-128722000D01*
G75*
G02*
X25557500Y-128947000I0J-225000D01*
G01*
X25557500Y-129397000D01*
G75*
G02*
X25332500Y-129622000I-225000J0D01*
G01*
G37*
%TD*%
%TO.C,J4*%
X28117800Y-129209800D03*
D12*
X30657800Y-129209800D03*
X33197800Y-129209800D03*
X35737800Y-129209800D03*
X38277800Y-129209800D03*
X40817800Y-129209800D03*
%TD*%
%TO.C,C3*%
G36*
G01*
X31566400Y-126310200D02*
X31566400Y-125810200D01*
G75*
G02*
X31791400Y-125585200I225000J0D01*
G01*
X32241400Y-125585200D01*
G75*
G02*
X32466400Y-125810200I0J-225000D01*
G01*
X32466400Y-126310200D01*
G75*
G02*
X32241400Y-126535200I-225000J0D01*
G01*
X31791400Y-126535200D01*
G75*
G02*
X31566400Y-126310200I0J225000D01*
G01*
G37*
G36*
G01*
X33116400Y-126310200D02*
X33116400Y-125810200D01*
G75*
G02*
X33341400Y-125585200I225000J0D01*
G01*
X33791400Y-125585200D01*
G75*
G02*
X34016400Y-125810200I0J-225000D01*
G01*
X34016400Y-126310200D01*
G75*
G02*
X33791400Y-126535200I-225000J0D01*
G01*
X33341400Y-126535200D01*
G75*
G02*
X33116400Y-126310200I0J225000D01*
G01*
G37*
%TD*%
%TO.C,C4*%
G36*
G01*
X26285000Y-116705500D02*
X25785000Y-116705500D01*
G75*
G02*
X25560000Y-116480500I0J225000D01*
G01*
X25560000Y-116030500D01*
G75*
G02*
X25785000Y-115805500I225000J0D01*
G01*
X26285000Y-115805500D01*
G75*
G02*
X26510000Y-116030500I0J-225000D01*
G01*
X26510000Y-116480500D01*
G75*
G02*
X26285000Y-116705500I-225000J0D01*
G01*
G37*
G36*
G01*
X26285000Y-118255500D02*
X25785000Y-118255500D01*
G75*
G02*
X25560000Y-118030500I0J225000D01*
G01*
X25560000Y-117580500D01*
G75*
G02*
X25785000Y-117355500I225000J0D01*
G01*
X26285000Y-117355500D01*
G75*
G02*
X26510000Y-117580500I0J-225000D01*
G01*
X26510000Y-118030500D01*
G75*
G02*
X26285000Y-118255500I-225000J0D01*
G01*
G37*
%TD*%
%TO.C,C6*%
G36*
G01*
X41715500Y-121811500D02*
X41215500Y-121811500D01*
G75*
G02*
X40990500Y-121586500I0J225000D01*
G01*
X40990500Y-121136500D01*
G75*
G02*
X41215500Y-120911500I225000J0D01*
G01*
X41715500Y-120911500D01*
G75*
G02*
X41940500Y-121136500I0J-225000D01*
G01*
X41940500Y-121586500D01*
G75*
G02*
X41715500Y-121811500I-225000J0D01*
G01*
G37*
G36*
G01*
X41715500Y-120261500D02*
X41215500Y-120261500D01*
G75*
G02*
X40990500Y-120036500I0J225000D01*
G01*
X40990500Y-119586500D01*
G75*
G02*
X41215500Y-119361500I225000J0D01*
G01*
X41715500Y-119361500D01*
G75*
G02*
X41940500Y-119586500I0J-225000D01*
G01*
X41940500Y-120036500D01*
G75*
G02*
X41715500Y-120261500I-225000J0D01*
G01*
G37*
%TD*%
%TO.C,C12*%
G36*
G01*
X22123499Y-134167500D02*
X23723501Y-134167500D01*
G75*
G02*
X23973500Y-134417499I0J-249999D01*
G01*
X23973500Y-138417501D01*
G75*
G02*
X23723501Y-138667500I-249999J0D01*
G01*
X22123499Y-138667500D01*
G75*
G02*
X21873500Y-138417501I0J249999D01*
G01*
X21873500Y-134417499D01*
G75*
G02*
X22123499Y-134167500I249999J0D01*
G01*
G37*
G36*
G01*
X22123499Y-141367500D02*
X23723501Y-141367500D01*
G75*
G02*
X23973500Y-141617499I0J-249999D01*
G01*
X23973500Y-145617501D01*
G75*
G02*
X23723501Y-145867500I-249999J0D01*
G01*
X22123499Y-145867500D01*
G75*
G02*
X21873500Y-145617501I0J249999D01*
G01*
X21873500Y-141617499D01*
G75*
G02*
X22123499Y-141367500I249999J0D01*
G01*
G37*
%TD*%
D20*
%TO.C,H1*%
X89865200Y-83439000D03*
%TD*%
%TO.C,H2*%
X89865200Y-160451800D03*
%TD*%
%TO.C,H3*%
X21869400Y-83413600D03*
%TD*%
%TO.C,H4*%
X21869400Y-160451800D03*
%TD*%
D13*
%TO.C,J2*%
X83375500Y-125031500D03*
D12*
X80835500Y-125031500D03*
X78295500Y-125031500D03*
%TD*%
D21*
%TO.C,SW2*%
X20828000Y-105501000D03*
X20828000Y-113701000D03*
%TD*%
D22*
%TO.C,Y1*%
X24250500Y-122015000D03*
X24250500Y-118015000D03*
X21850500Y-118015000D03*
X21850500Y-122015000D03*
%TD*%
%TO.C,D1*%
G36*
G01*
X47159500Y-89322500D02*
X47709500Y-89322500D01*
G75*
G02*
X47984500Y-89597500I0J-275000D01*
G01*
X47984500Y-90297500D01*
G75*
G02*
X47709500Y-90572500I-275000J0D01*
G01*
X47159500Y-90572500D01*
G75*
G02*
X46884500Y-90297500I0J275000D01*
G01*
X46884500Y-89597500D01*
G75*
G02*
X47159500Y-89322500I275000J0D01*
G01*
G37*
G36*
G01*
X47159500Y-91672500D02*
X47709500Y-91672500D01*
G75*
G02*
X47984500Y-91947500I0J-275000D01*
G01*
X47984500Y-92647500D01*
G75*
G02*
X47709500Y-92922500I-275000J0D01*
G01*
X47159500Y-92922500D01*
G75*
G02*
X46884500Y-92647500I0J275000D01*
G01*
X46884500Y-91947500D01*
G75*
G02*
X47159500Y-91672500I275000J0D01*
G01*
G37*
%TD*%
%TO.C,D2*%
G36*
G01*
X47784500Y-102569000D02*
X47084500Y-102569000D01*
G75*
G02*
X46884500Y-102369000I0J200000D01*
G01*
X46884500Y-101969000D01*
G75*
G02*
X47084500Y-101769000I200000J0D01*
G01*
X47784500Y-101769000D01*
G75*
G02*
X47984500Y-101969000I0J-200000D01*
G01*
X47984500Y-102369000D01*
G75*
G02*
X47784500Y-102569000I-200000J0D01*
G01*
G37*
G36*
G01*
X47784500Y-100669000D02*
X47084500Y-100669000D01*
G75*
G02*
X46884500Y-100469000I0J200000D01*
G01*
X46884500Y-100069000D01*
G75*
G02*
X47084500Y-99869000I200000J0D01*
G01*
X47784500Y-99869000D01*
G75*
G02*
X47984500Y-100069000I0J-200000D01*
G01*
X47984500Y-100469000D01*
G75*
G02*
X47784500Y-100669000I-200000J0D01*
G01*
G37*
%TD*%
%TO.C,R1*%
G36*
G01*
X47569000Y-95488000D02*
X46919000Y-95488000D01*
G75*
G02*
X46794000Y-95363000I0J125000D01*
G01*
X46794000Y-95113000D01*
G75*
G02*
X46919000Y-94988000I125000J0D01*
G01*
X47569000Y-94988000D01*
G75*
G02*
X47694000Y-95113000I0J-125000D01*
G01*
X47694000Y-95363000D01*
G75*
G02*
X47569000Y-95488000I-125000J0D01*
G01*
G37*
G36*
G01*
X47569000Y-93988000D02*
X46919000Y-93988000D01*
G75*
G02*
X46794000Y-93863000I0J125000D01*
G01*
X46794000Y-93613000D01*
G75*
G02*
X46919000Y-93488000I125000J0D01*
G01*
X47569000Y-93488000D01*
G75*
G02*
X47694000Y-93613000I0J-125000D01*
G01*
X47694000Y-93863000D01*
G75*
G02*
X47569000Y-93988000I-125000J0D01*
G01*
G37*
%TD*%
%TO.C,R2*%
G36*
G01*
X46855500Y-98290000D02*
X47505500Y-98290000D01*
G75*
G02*
X47630500Y-98415000I0J-125000D01*
G01*
X47630500Y-98665000D01*
G75*
G02*
X47505500Y-98790000I-125000J0D01*
G01*
X46855500Y-98790000D01*
G75*
G02*
X46730500Y-98665000I0J125000D01*
G01*
X46730500Y-98415000D01*
G75*
G02*
X46855500Y-98290000I125000J0D01*
G01*
G37*
G36*
G01*
X46855500Y-96790000D02*
X47505500Y-96790000D01*
G75*
G02*
X47630500Y-96915000I0J-125000D01*
G01*
X47630500Y-97165000D01*
G75*
G02*
X47505500Y-97290000I-125000J0D01*
G01*
X46855500Y-97290000D01*
G75*
G02*
X46730500Y-97165000I0J125000D01*
G01*
X46730500Y-96915000D01*
G75*
G02*
X46855500Y-96790000I125000J0D01*
G01*
G37*
%TD*%
%TO.C,R4*%
G36*
G01*
X19756500Y-103180000D02*
X19756500Y-103830000D01*
G75*
G02*
X19631500Y-103955000I-125000J0D01*
G01*
X19381500Y-103955000D01*
G75*
G02*
X19256500Y-103830000I0J125000D01*
G01*
X19256500Y-103180000D01*
G75*
G02*
X19381500Y-103055000I125000J0D01*
G01*
X19631500Y-103055000D01*
G75*
G02*
X19756500Y-103180000I0J-125000D01*
G01*
G37*
G36*
G01*
X21256500Y-103180000D02*
X21256500Y-103830000D01*
G75*
G02*
X21131500Y-103955000I-125000J0D01*
G01*
X20881500Y-103955000D01*
G75*
G02*
X20756500Y-103830000I0J125000D01*
G01*
X20756500Y-103180000D01*
G75*
G02*
X20881500Y-103055000I125000J0D01*
G01*
X21131500Y-103055000D01*
G75*
G02*
X21256500Y-103180000I0J-125000D01*
G01*
G37*
%TD*%
%TO.C,R5*%
G36*
G01*
X31948000Y-109966000D02*
X31298000Y-109966000D01*
G75*
G02*
X31173000Y-109841000I0J125000D01*
G01*
X31173000Y-109591000D01*
G75*
G02*
X31298000Y-109466000I125000J0D01*
G01*
X31948000Y-109466000D01*
G75*
G02*
X32073000Y-109591000I0J-125000D01*
G01*
X32073000Y-109841000D01*
G75*
G02*
X31948000Y-109966000I-125000J0D01*
G01*
G37*
G36*
G01*
X31948000Y-108466000D02*
X31298000Y-108466000D01*
G75*
G02*
X31173000Y-108341000I0J125000D01*
G01*
X31173000Y-108091000D01*
G75*
G02*
X31298000Y-107966000I125000J0D01*
G01*
X31948000Y-107966000D01*
G75*
G02*
X32073000Y-108091000I0J-125000D01*
G01*
X32073000Y-108341000D01*
G75*
G02*
X31948000Y-108466000I-125000J0D01*
G01*
G37*
%TD*%
%TO.C,R7*%
G36*
G01*
X30360500Y-109966000D02*
X29710500Y-109966000D01*
G75*
G02*
X29585500Y-109841000I0J125000D01*
G01*
X29585500Y-109591000D01*
G75*
G02*
X29710500Y-109466000I125000J0D01*
G01*
X30360500Y-109466000D01*
G75*
G02*
X30485500Y-109591000I0J-125000D01*
G01*
X30485500Y-109841000D01*
G75*
G02*
X30360500Y-109966000I-125000J0D01*
G01*
G37*
G36*
G01*
X30360500Y-108466000D02*
X29710500Y-108466000D01*
G75*
G02*
X29585500Y-108341000I0J125000D01*
G01*
X29585500Y-108091000D01*
G75*
G02*
X29710500Y-107966000I125000J0D01*
G01*
X30360500Y-107966000D01*
G75*
G02*
X30485500Y-108091000I0J-125000D01*
G01*
X30485500Y-108341000D01*
G75*
G02*
X30360500Y-108466000I-125000J0D01*
G01*
G37*
%TD*%
%TO.C,R8*%
G36*
G01*
X28455500Y-108466000D02*
X27805500Y-108466000D01*
G75*
G02*
X27680500Y-108341000I0J125000D01*
G01*
X27680500Y-108091000D01*
G75*
G02*
X27805500Y-107966000I125000J0D01*
G01*
X28455500Y-107966000D01*
G75*
G02*
X28580500Y-108091000I0J-125000D01*
G01*
X28580500Y-108341000D01*
G75*
G02*
X28455500Y-108466000I-125000J0D01*
G01*
G37*
G36*
G01*
X28455500Y-109966000D02*
X27805500Y-109966000D01*
G75*
G02*
X27680500Y-109841000I0J125000D01*
G01*
X27680500Y-109591000D01*
G75*
G02*
X27805500Y-109466000I125000J0D01*
G01*
X28455500Y-109466000D01*
G75*
G02*
X28580500Y-109591000I0J-125000D01*
G01*
X28580500Y-109841000D01*
G75*
G02*
X28455500Y-109966000I-125000J0D01*
G01*
G37*
%TD*%
%TO.C,R9*%
G36*
G01*
X48887500Y-105552500D02*
X49537500Y-105552500D01*
G75*
G02*
X49662500Y-105677500I0J-125000D01*
G01*
X49662500Y-105927500D01*
G75*
G02*
X49537500Y-106052500I-125000J0D01*
G01*
X48887500Y-106052500D01*
G75*
G02*
X48762500Y-105927500I0J125000D01*
G01*
X48762500Y-105677500D01*
G75*
G02*
X48887500Y-105552500I125000J0D01*
G01*
G37*
G36*
G01*
X48887500Y-107052500D02*
X49537500Y-107052500D01*
G75*
G02*
X49662500Y-107177500I0J-125000D01*
G01*
X49662500Y-107427500D01*
G75*
G02*
X49537500Y-107552500I-125000J0D01*
G01*
X48887500Y-107552500D01*
G75*
G02*
X48762500Y-107427500I0J125000D01*
G01*
X48762500Y-107177500D01*
G75*
G02*
X48887500Y-107052500I125000J0D01*
G01*
G37*
%TD*%
D23*
%TO.C,U1*%
X23303500Y-129135000D03*
X23303500Y-126135000D03*
D24*
G36*
X20091805Y-128280939D02*
G01*
X20082426Y-128278094D01*
X20073781Y-128273473D01*
X20067229Y-128268251D01*
X19724329Y-127944401D01*
X19717897Y-127937005D01*
X19713031Y-127928496D01*
X19709919Y-127919201D01*
X19708660Y-127908050D01*
X19708660Y-127372110D01*
X19709621Y-127362355D01*
X19712466Y-127352976D01*
X19717087Y-127344331D01*
X19722413Y-127337669D01*
X20037373Y-127006199D01*
X20044789Y-126999789D01*
X20053313Y-126994950D01*
X20062617Y-126991866D01*
X20073620Y-126990640D01*
X22293580Y-126990640D01*
X22303335Y-126991601D01*
X22312714Y-126994446D01*
X22321359Y-126999067D01*
X22328935Y-127005285D01*
X22646435Y-127322785D01*
X22652653Y-127330361D01*
X22657274Y-127339006D01*
X22660119Y-127348385D01*
X22660771Y-127355000D01*
X24003500Y-127355000D01*
X24003500Y-127915000D01*
X22660536Y-127915000D01*
X22660249Y-127918399D01*
X22657533Y-127927817D01*
X22653032Y-127936524D01*
X22647138Y-127943958D01*
X22337258Y-128266538D01*
X22329808Y-128272907D01*
X22321258Y-128277701D01*
X22311937Y-128280734D01*
X22301200Y-128281900D01*
X20101560Y-128281900D01*
X20091805Y-128280939D01*
G37*
%TD*%
D25*
%TO.C,U2*%
X25781800Y-105895200D03*
X27781800Y-105895200D03*
X29781800Y-105895200D03*
X31781800Y-105895200D03*
X33781800Y-105895200D03*
X35781800Y-105895200D03*
X37781800Y-105895200D03*
X39781800Y-105895200D03*
X39781800Y-89895200D03*
X37781800Y-89895200D03*
X35781800Y-89895200D03*
X33781800Y-89895200D03*
X31781800Y-89895200D03*
X29781800Y-89895200D03*
X27781800Y-89895200D03*
X25781800Y-89895200D03*
%TD*%
%TO.C,J7*%
G36*
G01*
X82347500Y-156552000D02*
X80847500Y-156552000D01*
G75*
G02*
X80597500Y-156302000I0J250000D01*
G01*
X80597500Y-155102000D01*
G75*
G02*
X80847500Y-154852000I250000J0D01*
G01*
X82347500Y-154852000D01*
G75*
G02*
X82597500Y-155102000I0J-250000D01*
G01*
X82597500Y-156302000D01*
G75*
G02*
X82347500Y-156552000I-250000J0D01*
G01*
G37*
D26*
X81597500Y-153202000D03*
%TD*%
D15*
%TO.C,FID1*%
X30543500Y-161544000D03*
%TD*%
%TO.C,FID2*%
X89916000Y-87566500D03*
%TD*%
%TO.C,FID3*%
X84582000Y-161671000D03*
%TD*%
M02*
