%TF.GenerationSoftware,KiCad,Pcbnew,(5.1.10-1-10_14)*%
%TF.CreationDate,2021-10-23T16:52:38+02:00*%
%TF.ProjectId,mfm-v3-smd,6d666d2d-7633-42d7-936d-642e6b696361,rev?*%
%TF.SameCoordinates,Original*%
%TF.FileFunction,Soldermask,Bot*%
%TF.FilePolarity,Negative*%
%FSLAX46Y46*%
G04 Gerber Fmt 4.6, Leading zero omitted, Abs format (unit mm)*
G04 Created by KiCad (PCBNEW (5.1.10-1-10_14)) date 2021-10-23 16:52:38*
%MOMM*%
%LPD*%
G01*
G04 APERTURE LIST*
%ADD10O,1.700000X1.700000*%
%ADD11R,1.700000X1.700000*%
%ADD12C,3.300000*%
%ADD13C,2.000000*%
%ADD14R,2.000000X2.000000*%
%ADD15C,2.700000*%
%ADD16O,2.000000X1.700000*%
G04 APERTURE END LIST*
D10*
%TO.C,J1*%
X78295500Y-83121500D03*
X80835500Y-83121500D03*
D11*
X83375500Y-83121500D03*
%TD*%
D12*
%TO.C,BT1*%
X57454500Y-140335000D03*
X57454500Y-155325000D03*
D13*
X30289500Y-155325000D03*
D14*
X30289500Y-140335000D03*
%TD*%
D10*
%TO.C,SW4*%
X44323000Y-98615500D03*
D11*
X44323000Y-101155500D03*
%TD*%
D10*
%TO.C,SW3*%
X44323000Y-93789500D03*
D11*
X44323000Y-91249500D03*
%TD*%
D10*
%TO.C,SW1*%
X24384000Y-151130000D03*
D11*
X24384000Y-153670000D03*
%TD*%
D10*
%TO.C,J5*%
X26289000Y-85090000D03*
X26289000Y-82550000D03*
X28829000Y-85090000D03*
X28829000Y-82550000D03*
X31369000Y-85090000D03*
D11*
X31369000Y-82550000D03*
%TD*%
D10*
%TO.C,J3*%
X43890000Y-105385500D03*
X46430000Y-105385500D03*
X43890000Y-107925500D03*
X46430000Y-107925500D03*
X43890000Y-110465500D03*
D11*
X46430000Y-110465500D03*
%TD*%
%TO.C,J4*%
X28117800Y-129209800D03*
D10*
X30657800Y-129209800D03*
X33197800Y-129209800D03*
X35737800Y-129209800D03*
X38277800Y-129209800D03*
X40817800Y-129209800D03*
%TD*%
D15*
%TO.C,H1*%
X89865200Y-83439000D03*
%TD*%
%TO.C,H2*%
X89865200Y-160451800D03*
%TD*%
%TO.C,H3*%
X21869400Y-83413600D03*
%TD*%
%TO.C,H4*%
X21869400Y-160451800D03*
%TD*%
D11*
%TO.C,J2*%
X83375500Y-125031500D03*
D10*
X80835500Y-125031500D03*
X78295500Y-125031500D03*
%TD*%
%TO.C,J7*%
G36*
G01*
X82347500Y-156552000D02*
X80847500Y-156552000D01*
G75*
G02*
X80597500Y-156302000I0J250000D01*
G01*
X80597500Y-155102000D01*
G75*
G02*
X80847500Y-154852000I250000J0D01*
G01*
X82347500Y-154852000D01*
G75*
G02*
X82597500Y-155102000I0J-250000D01*
G01*
X82597500Y-156302000D01*
G75*
G02*
X82347500Y-156552000I-250000J0D01*
G01*
G37*
D16*
X81597500Y-153202000D03*
%TD*%
M02*
