%TF.GenerationSoftware,KiCad,Pcbnew,(5.1.9-0-10_14)*%
%TF.CreationDate,2021-05-24T21:37:01+02:00*%
%TF.ProjectId,mfm-v3-smd,6d666d2d-7633-42d7-936d-642e6b696361,rev?*%
%TF.SameCoordinates,Original*%
%TF.FileFunction,Paste,Top*%
%TF.FilePolarity,Positive*%
%FSLAX46Y46*%
G04 Gerber Fmt 4.6, Leading zero omitted, Abs format (unit mm)*
G04 Created by KiCad (PCBNEW (5.1.9-0-10_14)) date 2021-05-24 21:37:01*
%MOMM*%
%LPD*%
G01*
G04 APERTURE LIST*
%ADD10C,0.010000*%
%ADD11R,0.800000X0.900000*%
%ADD12R,1.500000X0.550000*%
%ADD13R,0.550000X1.500000*%
%ADD14C,2.050000*%
%ADD15R,1.300000X0.900000*%
%ADD16C,0.100000*%
%ADD17R,1.500000X2.000000*%
%ADD18R,1.200000X1.800000*%
G04 APERTURE END LIST*
D10*
%TO.C,J11*%
G36*
X38367200Y-88716500D02*
G01*
X35927200Y-88716500D01*
X35927200Y-80956500D01*
X38367200Y-80956500D01*
X38367200Y-83066500D01*
X38304131Y-83120632D01*
X38254420Y-83166183D01*
X38206056Y-83213161D01*
X38159079Y-83261525D01*
X38113528Y-83311235D01*
X38069442Y-83362249D01*
X38026859Y-83414523D01*
X37985814Y-83468014D01*
X37946342Y-83522676D01*
X37908477Y-83578463D01*
X37872250Y-83635328D01*
X37837692Y-83693222D01*
X37804833Y-83752097D01*
X37773700Y-83811903D01*
X37744320Y-83872588D01*
X37716717Y-83934103D01*
X37690915Y-83996395D01*
X37666936Y-84059410D01*
X37644799Y-84123096D01*
X37624525Y-84187400D01*
X37606129Y-84252265D01*
X37589627Y-84317639D01*
X37575034Y-84383464D01*
X37562362Y-84449687D01*
X37551621Y-84516249D01*
X37542820Y-84583096D01*
X37535967Y-84650171D01*
X37531068Y-84717417D01*
X37528127Y-84784776D01*
X37527200Y-84836500D01*
X37528127Y-84888224D01*
X37531068Y-84955583D01*
X37535967Y-85022829D01*
X37542820Y-85089904D01*
X37551621Y-85156751D01*
X37562362Y-85223313D01*
X37575034Y-85289536D01*
X37589627Y-85355361D01*
X37606129Y-85420735D01*
X37624525Y-85485600D01*
X37644799Y-85549904D01*
X37666936Y-85613590D01*
X37690915Y-85676605D01*
X37716717Y-85738897D01*
X37744320Y-85800412D01*
X37773700Y-85861097D01*
X37804833Y-85920903D01*
X37837692Y-85979778D01*
X37872250Y-86037672D01*
X37908477Y-86094537D01*
X37946342Y-86150324D01*
X37985814Y-86204986D01*
X38026859Y-86258477D01*
X38069442Y-86310751D01*
X38113528Y-86361765D01*
X38159079Y-86411475D01*
X38206056Y-86459839D01*
X38254420Y-86506817D01*
X38304131Y-86552368D01*
X38367200Y-86606500D01*
X38367200Y-88716500D01*
G37*
X38367200Y-88716500D02*
X35927200Y-88716500D01*
X35927200Y-80956500D01*
X38367200Y-80956500D01*
X38367200Y-83066500D01*
X38304131Y-83120632D01*
X38254420Y-83166183D01*
X38206056Y-83213161D01*
X38159079Y-83261525D01*
X38113528Y-83311235D01*
X38069442Y-83362249D01*
X38026859Y-83414523D01*
X37985814Y-83468014D01*
X37946342Y-83522676D01*
X37908477Y-83578463D01*
X37872250Y-83635328D01*
X37837692Y-83693222D01*
X37804833Y-83752097D01*
X37773700Y-83811903D01*
X37744320Y-83872588D01*
X37716717Y-83934103D01*
X37690915Y-83996395D01*
X37666936Y-84059410D01*
X37644799Y-84123096D01*
X37624525Y-84187400D01*
X37606129Y-84252265D01*
X37589627Y-84317639D01*
X37575034Y-84383464D01*
X37562362Y-84449687D01*
X37551621Y-84516249D01*
X37542820Y-84583096D01*
X37535967Y-84650171D01*
X37531068Y-84717417D01*
X37528127Y-84784776D01*
X37527200Y-84836500D01*
X37528127Y-84888224D01*
X37531068Y-84955583D01*
X37535967Y-85022829D01*
X37542820Y-85089904D01*
X37551621Y-85156751D01*
X37562362Y-85223313D01*
X37575034Y-85289536D01*
X37589627Y-85355361D01*
X37606129Y-85420735D01*
X37624525Y-85485600D01*
X37644799Y-85549904D01*
X37666936Y-85613590D01*
X37690915Y-85676605D01*
X37716717Y-85738897D01*
X37744320Y-85800412D01*
X37773700Y-85861097D01*
X37804833Y-85920903D01*
X37837692Y-85979778D01*
X37872250Y-86037672D01*
X37908477Y-86094537D01*
X37946342Y-86150324D01*
X37985814Y-86204986D01*
X38026859Y-86258477D01*
X38069442Y-86310751D01*
X38113528Y-86361765D01*
X38159079Y-86411475D01*
X38206056Y-86459839D01*
X38254420Y-86506817D01*
X38304131Y-86552368D01*
X38367200Y-86606500D01*
X38367200Y-88716500D01*
G36*
X41247200Y-88716500D02*
G01*
X43687200Y-88716500D01*
X43687200Y-80956500D01*
X41247200Y-80956500D01*
X41247200Y-83066500D01*
X41310269Y-83120632D01*
X41359980Y-83166183D01*
X41408344Y-83213161D01*
X41455321Y-83261525D01*
X41500872Y-83311235D01*
X41544958Y-83362249D01*
X41587541Y-83414523D01*
X41628586Y-83468014D01*
X41668058Y-83522676D01*
X41705923Y-83578463D01*
X41742150Y-83635328D01*
X41776708Y-83693222D01*
X41809567Y-83752097D01*
X41840700Y-83811903D01*
X41870080Y-83872588D01*
X41897683Y-83934103D01*
X41923485Y-83996395D01*
X41947464Y-84059410D01*
X41969601Y-84123096D01*
X41989875Y-84187400D01*
X42008271Y-84252265D01*
X42024773Y-84317639D01*
X42039366Y-84383464D01*
X42052038Y-84449687D01*
X42062779Y-84516249D01*
X42071580Y-84583096D01*
X42078433Y-84650171D01*
X42083332Y-84717417D01*
X42086273Y-84784776D01*
X42087200Y-84836500D01*
X42086273Y-84888224D01*
X42083332Y-84955583D01*
X42078433Y-85022829D01*
X42071580Y-85089904D01*
X42062779Y-85156751D01*
X42052038Y-85223313D01*
X42039366Y-85289536D01*
X42024773Y-85355361D01*
X42008271Y-85420735D01*
X41989875Y-85485600D01*
X41969601Y-85549904D01*
X41947464Y-85613590D01*
X41923485Y-85676605D01*
X41897683Y-85738897D01*
X41870080Y-85800412D01*
X41840700Y-85861097D01*
X41809567Y-85920903D01*
X41776708Y-85979778D01*
X41742150Y-86037672D01*
X41705923Y-86094537D01*
X41668058Y-86150324D01*
X41628586Y-86204986D01*
X41587541Y-86258477D01*
X41544958Y-86310751D01*
X41500872Y-86361765D01*
X41455321Y-86411475D01*
X41408344Y-86459839D01*
X41359980Y-86506817D01*
X41310269Y-86552368D01*
X41247200Y-86606500D01*
X41247200Y-88716500D01*
G37*
X41247200Y-88716500D02*
X43687200Y-88716500D01*
X43687200Y-80956500D01*
X41247200Y-80956500D01*
X41247200Y-83066500D01*
X41310269Y-83120632D01*
X41359980Y-83166183D01*
X41408344Y-83213161D01*
X41455321Y-83261525D01*
X41500872Y-83311235D01*
X41544958Y-83362249D01*
X41587541Y-83414523D01*
X41628586Y-83468014D01*
X41668058Y-83522676D01*
X41705923Y-83578463D01*
X41742150Y-83635328D01*
X41776708Y-83693222D01*
X41809567Y-83752097D01*
X41840700Y-83811903D01*
X41870080Y-83872588D01*
X41897683Y-83934103D01*
X41923485Y-83996395D01*
X41947464Y-84059410D01*
X41969601Y-84123096D01*
X41989875Y-84187400D01*
X42008271Y-84252265D01*
X42024773Y-84317639D01*
X42039366Y-84383464D01*
X42052038Y-84449687D01*
X42062779Y-84516249D01*
X42071580Y-84583096D01*
X42078433Y-84650171D01*
X42083332Y-84717417D01*
X42086273Y-84784776D01*
X42087200Y-84836500D01*
X42086273Y-84888224D01*
X42083332Y-84955583D01*
X42078433Y-85022829D01*
X42071580Y-85089904D01*
X42062779Y-85156751D01*
X42052038Y-85223313D01*
X42039366Y-85289536D01*
X42024773Y-85355361D01*
X42008271Y-85420735D01*
X41989875Y-85485600D01*
X41969601Y-85549904D01*
X41947464Y-85613590D01*
X41923485Y-85676605D01*
X41897683Y-85738897D01*
X41870080Y-85800412D01*
X41840700Y-85861097D01*
X41809567Y-85920903D01*
X41776708Y-85979778D01*
X41742150Y-86037672D01*
X41705923Y-86094537D01*
X41668058Y-86150324D01*
X41628586Y-86204986D01*
X41587541Y-86258477D01*
X41544958Y-86310751D01*
X41500872Y-86361765D01*
X41455321Y-86411475D01*
X41408344Y-86459839D01*
X41359980Y-86506817D01*
X41310269Y-86552368D01*
X41247200Y-86606500D01*
X41247200Y-88716500D01*
%TD*%
D11*
%TO.C,Q1*%
X20828000Y-133016500D03*
X19878000Y-131016500D03*
X21778000Y-131016500D03*
%TD*%
%TO.C,C7*%
G36*
G01*
X22740500Y-124392500D02*
X22740500Y-123892500D01*
G75*
G02*
X22965500Y-123667500I225000J0D01*
G01*
X23415500Y-123667500D01*
G75*
G02*
X23640500Y-123892500I0J-225000D01*
G01*
X23640500Y-124392500D01*
G75*
G02*
X23415500Y-124617500I-225000J0D01*
G01*
X22965500Y-124617500D01*
G75*
G02*
X22740500Y-124392500I0J225000D01*
G01*
G37*
G36*
G01*
X21190500Y-124392500D02*
X21190500Y-123892500D01*
G75*
G02*
X21415500Y-123667500I225000J0D01*
G01*
X21865500Y-123667500D01*
G75*
G02*
X22090500Y-123892500I0J-225000D01*
G01*
X22090500Y-124392500D01*
G75*
G02*
X21865500Y-124617500I-225000J0D01*
G01*
X21415500Y-124617500D01*
G75*
G02*
X21190500Y-124392500I0J225000D01*
G01*
G37*
%TD*%
D12*
%TO.C,U3*%
X27975000Y-113956500D03*
X27975000Y-114756500D03*
X27975000Y-115556500D03*
X27975000Y-116356500D03*
X27975000Y-117156500D03*
X27975000Y-117956500D03*
X27975000Y-118756500D03*
X27975000Y-119556500D03*
X27975000Y-120356500D03*
X27975000Y-121156500D03*
X27975000Y-121956500D03*
D13*
X29675000Y-123656500D03*
X30475000Y-123656500D03*
X31275000Y-123656500D03*
X32075000Y-123656500D03*
X32875000Y-123656500D03*
X33675000Y-123656500D03*
X34475000Y-123656500D03*
X35275000Y-123656500D03*
X36075000Y-123656500D03*
X36875000Y-123656500D03*
X37675000Y-123656500D03*
D12*
X39375000Y-121956500D03*
X39375000Y-121156500D03*
X39375000Y-120356500D03*
X39375000Y-119556500D03*
X39375000Y-118756500D03*
X39375000Y-117956500D03*
X39375000Y-117156500D03*
X39375000Y-116356500D03*
X39375000Y-115556500D03*
X39375000Y-114756500D03*
X39375000Y-113956500D03*
D13*
X37675000Y-112256500D03*
X36875000Y-112256500D03*
X36075000Y-112256500D03*
X35275000Y-112256500D03*
X34475000Y-112256500D03*
X33675000Y-112256500D03*
X32875000Y-112256500D03*
X32075000Y-112256500D03*
X31275000Y-112256500D03*
X30475000Y-112256500D03*
X29675000Y-112256500D03*
%TD*%
%TO.C,R2*%
G36*
G01*
X46905500Y-98215000D02*
X47455500Y-98215000D01*
G75*
G02*
X47655500Y-98415000I0J-200000D01*
G01*
X47655500Y-98815000D01*
G75*
G02*
X47455500Y-99015000I-200000J0D01*
G01*
X46905500Y-99015000D01*
G75*
G02*
X46705500Y-98815000I0J200000D01*
G01*
X46705500Y-98415000D01*
G75*
G02*
X46905500Y-98215000I200000J0D01*
G01*
G37*
G36*
G01*
X46905500Y-96565000D02*
X47455500Y-96565000D01*
G75*
G02*
X47655500Y-96765000I0J-200000D01*
G01*
X47655500Y-97165000D01*
G75*
G02*
X47455500Y-97365000I-200000J0D01*
G01*
X46905500Y-97365000D01*
G75*
G02*
X46705500Y-97165000I0J200000D01*
G01*
X46705500Y-96765000D01*
G75*
G02*
X46905500Y-96565000I200000J0D01*
G01*
G37*
%TD*%
%TO.C,R1*%
G36*
G01*
X47455500Y-94063000D02*
X46905500Y-94063000D01*
G75*
G02*
X46705500Y-93863000I0J200000D01*
G01*
X46705500Y-93463000D01*
G75*
G02*
X46905500Y-93263000I200000J0D01*
G01*
X47455500Y-93263000D01*
G75*
G02*
X47655500Y-93463000I0J-200000D01*
G01*
X47655500Y-93863000D01*
G75*
G02*
X47455500Y-94063000I-200000J0D01*
G01*
G37*
G36*
G01*
X47455500Y-95713000D02*
X46905500Y-95713000D01*
G75*
G02*
X46705500Y-95513000I0J200000D01*
G01*
X46705500Y-95113000D01*
G75*
G02*
X46905500Y-94913000I200000J0D01*
G01*
X47455500Y-94913000D01*
G75*
G02*
X47655500Y-95113000I0J-200000D01*
G01*
X47655500Y-95513000D01*
G75*
G02*
X47455500Y-95713000I-200000J0D01*
G01*
G37*
%TD*%
%TO.C,R9*%
G36*
G01*
X48937500Y-106977500D02*
X49487500Y-106977500D01*
G75*
G02*
X49687500Y-107177500I0J-200000D01*
G01*
X49687500Y-107577500D01*
G75*
G02*
X49487500Y-107777500I-200000J0D01*
G01*
X48937500Y-107777500D01*
G75*
G02*
X48737500Y-107577500I0J200000D01*
G01*
X48737500Y-107177500D01*
G75*
G02*
X48937500Y-106977500I200000J0D01*
G01*
G37*
G36*
G01*
X48937500Y-105327500D02*
X49487500Y-105327500D01*
G75*
G02*
X49687500Y-105527500I0J-200000D01*
G01*
X49687500Y-105927500D01*
G75*
G02*
X49487500Y-106127500I-200000J0D01*
G01*
X48937500Y-106127500D01*
G75*
G02*
X48737500Y-105927500I0J200000D01*
G01*
X48737500Y-105527500D01*
G75*
G02*
X48937500Y-105327500I200000J0D01*
G01*
G37*
%TD*%
%TO.C,R6*%
G36*
G01*
X48937500Y-110216500D02*
X49487500Y-110216500D01*
G75*
G02*
X49687500Y-110416500I0J-200000D01*
G01*
X49687500Y-110816500D01*
G75*
G02*
X49487500Y-111016500I-200000J0D01*
G01*
X48937500Y-111016500D01*
G75*
G02*
X48737500Y-110816500I0J200000D01*
G01*
X48737500Y-110416500D01*
G75*
G02*
X48937500Y-110216500I200000J0D01*
G01*
G37*
G36*
G01*
X48937500Y-108566500D02*
X49487500Y-108566500D01*
G75*
G02*
X49687500Y-108766500I0J-200000D01*
G01*
X49687500Y-109166500D01*
G75*
G02*
X49487500Y-109366500I-200000J0D01*
G01*
X48937500Y-109366500D01*
G75*
G02*
X48737500Y-109166500I0J200000D01*
G01*
X48737500Y-108766500D01*
G75*
G02*
X48937500Y-108566500I200000J0D01*
G01*
G37*
%TD*%
%TO.C,R4*%
G36*
G01*
X19831500Y-103230000D02*
X19831500Y-103780000D01*
G75*
G02*
X19631500Y-103980000I-200000J0D01*
G01*
X19231500Y-103980000D01*
G75*
G02*
X19031500Y-103780000I0J200000D01*
G01*
X19031500Y-103230000D01*
G75*
G02*
X19231500Y-103030000I200000J0D01*
G01*
X19631500Y-103030000D01*
G75*
G02*
X19831500Y-103230000I0J-200000D01*
G01*
G37*
G36*
G01*
X21481500Y-103230000D02*
X21481500Y-103780000D01*
G75*
G02*
X21281500Y-103980000I-200000J0D01*
G01*
X20881500Y-103980000D01*
G75*
G02*
X20681500Y-103780000I0J200000D01*
G01*
X20681500Y-103230000D01*
G75*
G02*
X20881500Y-103030000I200000J0D01*
G01*
X21281500Y-103030000D01*
G75*
G02*
X21481500Y-103230000I0J-200000D01*
G01*
G37*
%TD*%
%TO.C,D2*%
G36*
G01*
X47890750Y-100769000D02*
X46978250Y-100769000D01*
G75*
G02*
X46734500Y-100525250I0J243750D01*
G01*
X46734500Y-100037750D01*
G75*
G02*
X46978250Y-99794000I243750J0D01*
G01*
X47890750Y-99794000D01*
G75*
G02*
X48134500Y-100037750I0J-243750D01*
G01*
X48134500Y-100525250D01*
G75*
G02*
X47890750Y-100769000I-243750J0D01*
G01*
G37*
G36*
G01*
X47890750Y-102644000D02*
X46978250Y-102644000D01*
G75*
G02*
X46734500Y-102400250I0J243750D01*
G01*
X46734500Y-101912750D01*
G75*
G02*
X46978250Y-101669000I243750J0D01*
G01*
X47890750Y-101669000D01*
G75*
G02*
X48134500Y-101912750I0J-243750D01*
G01*
X48134500Y-102400250D01*
G75*
G02*
X47890750Y-102644000I-243750J0D01*
G01*
G37*
%TD*%
%TO.C,D1*%
G36*
G01*
X46978250Y-91572500D02*
X47890750Y-91572500D01*
G75*
G02*
X48134500Y-91816250I0J-243750D01*
G01*
X48134500Y-92303750D01*
G75*
G02*
X47890750Y-92547500I-243750J0D01*
G01*
X46978250Y-92547500D01*
G75*
G02*
X46734500Y-92303750I0J243750D01*
G01*
X46734500Y-91816250D01*
G75*
G02*
X46978250Y-91572500I243750J0D01*
G01*
G37*
G36*
G01*
X46978250Y-89697500D02*
X47890750Y-89697500D01*
G75*
G02*
X48134500Y-89941250I0J-243750D01*
G01*
X48134500Y-90428750D01*
G75*
G02*
X47890750Y-90672500I-243750J0D01*
G01*
X46978250Y-90672500D01*
G75*
G02*
X46734500Y-90428750I0J243750D01*
G01*
X46734500Y-89941250D01*
G75*
G02*
X46978250Y-89697500I243750J0D01*
G01*
G37*
%TD*%
%TO.C,C11*%
G36*
G01*
X41702500Y-118636500D02*
X41202500Y-118636500D01*
G75*
G02*
X40977500Y-118411500I0J225000D01*
G01*
X40977500Y-117961500D01*
G75*
G02*
X41202500Y-117736500I225000J0D01*
G01*
X41702500Y-117736500D01*
G75*
G02*
X41927500Y-117961500I0J-225000D01*
G01*
X41927500Y-118411500D01*
G75*
G02*
X41702500Y-118636500I-225000J0D01*
G01*
G37*
G36*
G01*
X41702500Y-117086500D02*
X41202500Y-117086500D01*
G75*
G02*
X40977500Y-116861500I0J225000D01*
G01*
X40977500Y-116411500D01*
G75*
G02*
X41202500Y-116186500I225000J0D01*
G01*
X41702500Y-116186500D01*
G75*
G02*
X41927500Y-116411500I0J-225000D01*
G01*
X41927500Y-116861500D01*
G75*
G02*
X41702500Y-117086500I-225000J0D01*
G01*
G37*
%TD*%
%TO.C,C9*%
G36*
G01*
X33853000Y-110105000D02*
X33853000Y-109605000D01*
G75*
G02*
X34078000Y-109380000I225000J0D01*
G01*
X34528000Y-109380000D01*
G75*
G02*
X34753000Y-109605000I0J-225000D01*
G01*
X34753000Y-110105000D01*
G75*
G02*
X34528000Y-110330000I-225000J0D01*
G01*
X34078000Y-110330000D01*
G75*
G02*
X33853000Y-110105000I0J225000D01*
G01*
G37*
G36*
G01*
X32303000Y-110105000D02*
X32303000Y-109605000D01*
G75*
G02*
X32528000Y-109380000I225000J0D01*
G01*
X32978000Y-109380000D01*
G75*
G02*
X33203000Y-109605000I0J-225000D01*
G01*
X33203000Y-110105000D01*
G75*
G02*
X32978000Y-110330000I-225000J0D01*
G01*
X32528000Y-110330000D01*
G75*
G02*
X32303000Y-110105000I0J225000D01*
G01*
G37*
%TD*%
%TO.C,C8*%
G36*
G01*
X20252500Y-117975500D02*
X19752500Y-117975500D01*
G75*
G02*
X19527500Y-117750500I0J225000D01*
G01*
X19527500Y-117300500D01*
G75*
G02*
X19752500Y-117075500I225000J0D01*
G01*
X20252500Y-117075500D01*
G75*
G02*
X20477500Y-117300500I0J-225000D01*
G01*
X20477500Y-117750500D01*
G75*
G02*
X20252500Y-117975500I-225000J0D01*
G01*
G37*
G36*
G01*
X20252500Y-119525500D02*
X19752500Y-119525500D01*
G75*
G02*
X19527500Y-119300500I0J225000D01*
G01*
X19527500Y-118850500D01*
G75*
G02*
X19752500Y-118625500I225000J0D01*
G01*
X20252500Y-118625500D01*
G75*
G02*
X20477500Y-118850500I0J-225000D01*
G01*
X20477500Y-119300500D01*
G75*
G02*
X20252500Y-119525500I-225000J0D01*
G01*
G37*
%TD*%
%TO.C,C2*%
G36*
G01*
X24832500Y-125610500D02*
X25332500Y-125610500D01*
G75*
G02*
X25557500Y-125835500I0J-225000D01*
G01*
X25557500Y-126285500D01*
G75*
G02*
X25332500Y-126510500I-225000J0D01*
G01*
X24832500Y-126510500D01*
G75*
G02*
X24607500Y-126285500I0J225000D01*
G01*
X24607500Y-125835500D01*
G75*
G02*
X24832500Y-125610500I225000J0D01*
G01*
G37*
G36*
G01*
X24832500Y-124060500D02*
X25332500Y-124060500D01*
G75*
G02*
X25557500Y-124285500I0J-225000D01*
G01*
X25557500Y-124735500D01*
G75*
G02*
X25332500Y-124960500I-225000J0D01*
G01*
X24832500Y-124960500D01*
G75*
G02*
X24607500Y-124735500I0J225000D01*
G01*
X24607500Y-124285500D01*
G75*
G02*
X24832500Y-124060500I225000J0D01*
G01*
G37*
%TD*%
%TO.C,C1*%
G36*
G01*
X25332500Y-128072000D02*
X24832500Y-128072000D01*
G75*
G02*
X24607500Y-127847000I0J225000D01*
G01*
X24607500Y-127397000D01*
G75*
G02*
X24832500Y-127172000I225000J0D01*
G01*
X25332500Y-127172000D01*
G75*
G02*
X25557500Y-127397000I0J-225000D01*
G01*
X25557500Y-127847000D01*
G75*
G02*
X25332500Y-128072000I-225000J0D01*
G01*
G37*
G36*
G01*
X25332500Y-129622000D02*
X24832500Y-129622000D01*
G75*
G02*
X24607500Y-129397000I0J225000D01*
G01*
X24607500Y-128947000D01*
G75*
G02*
X24832500Y-128722000I225000J0D01*
G01*
X25332500Y-128722000D01*
G75*
G02*
X25557500Y-128947000I0J-225000D01*
G01*
X25557500Y-129397000D01*
G75*
G02*
X25332500Y-129622000I-225000J0D01*
G01*
G37*
%TD*%
%TO.C,R3*%
G36*
G01*
X36113000Y-107463000D02*
X36113000Y-106913000D01*
G75*
G02*
X36313000Y-106713000I200000J0D01*
G01*
X36713000Y-106713000D01*
G75*
G02*
X36913000Y-106913000I0J-200000D01*
G01*
X36913000Y-107463000D01*
G75*
G02*
X36713000Y-107663000I-200000J0D01*
G01*
X36313000Y-107663000D01*
G75*
G02*
X36113000Y-107463000I0J200000D01*
G01*
G37*
G36*
G01*
X37763000Y-107463000D02*
X37763000Y-106913000D01*
G75*
G02*
X37963000Y-106713000I200000J0D01*
G01*
X38363000Y-106713000D01*
G75*
G02*
X38563000Y-106913000I0J-200000D01*
G01*
X38563000Y-107463000D01*
G75*
G02*
X38363000Y-107663000I-200000J0D01*
G01*
X37963000Y-107663000D01*
G75*
G02*
X37763000Y-107463000I0J200000D01*
G01*
G37*
%TD*%
%TO.C,R7*%
G36*
G01*
X31413000Y-107463000D02*
X31413000Y-106913000D01*
G75*
G02*
X31613000Y-106713000I200000J0D01*
G01*
X32013000Y-106713000D01*
G75*
G02*
X32213000Y-106913000I0J-200000D01*
G01*
X32213000Y-107463000D01*
G75*
G02*
X32013000Y-107663000I-200000J0D01*
G01*
X31613000Y-107663000D01*
G75*
G02*
X31413000Y-107463000I0J200000D01*
G01*
G37*
G36*
G01*
X29763000Y-107463000D02*
X29763000Y-106913000D01*
G75*
G02*
X29963000Y-106713000I200000J0D01*
G01*
X30363000Y-106713000D01*
G75*
G02*
X30563000Y-106913000I0J-200000D01*
G01*
X30563000Y-107463000D01*
G75*
G02*
X30363000Y-107663000I-200000J0D01*
G01*
X29963000Y-107663000D01*
G75*
G02*
X29763000Y-107463000I0J200000D01*
G01*
G37*
%TD*%
%TO.C,R8*%
G36*
G01*
X27388000Y-106913000D02*
X27388000Y-107463000D01*
G75*
G02*
X27188000Y-107663000I-200000J0D01*
G01*
X26788000Y-107663000D01*
G75*
G02*
X26588000Y-107463000I0J200000D01*
G01*
X26588000Y-106913000D01*
G75*
G02*
X26788000Y-106713000I200000J0D01*
G01*
X27188000Y-106713000D01*
G75*
G02*
X27388000Y-106913000I0J-200000D01*
G01*
G37*
G36*
G01*
X29038000Y-106913000D02*
X29038000Y-107463000D01*
G75*
G02*
X28838000Y-107663000I-200000J0D01*
G01*
X28438000Y-107663000D01*
G75*
G02*
X28238000Y-107463000I0J200000D01*
G01*
X28238000Y-106913000D01*
G75*
G02*
X28438000Y-106713000I200000J0D01*
G01*
X28838000Y-106713000D01*
G75*
G02*
X29038000Y-106913000I0J-200000D01*
G01*
G37*
%TD*%
%TO.C,R5*%
G36*
G01*
X34588000Y-107463000D02*
X34588000Y-106913000D01*
G75*
G02*
X34788000Y-106713000I200000J0D01*
G01*
X35188000Y-106713000D01*
G75*
G02*
X35388000Y-106913000I0J-200000D01*
G01*
X35388000Y-107463000D01*
G75*
G02*
X35188000Y-107663000I-200000J0D01*
G01*
X34788000Y-107663000D01*
G75*
G02*
X34588000Y-107463000I0J200000D01*
G01*
G37*
G36*
G01*
X32938000Y-107463000D02*
X32938000Y-106913000D01*
G75*
G02*
X33138000Y-106713000I200000J0D01*
G01*
X33538000Y-106713000D01*
G75*
G02*
X33738000Y-106913000I0J-200000D01*
G01*
X33738000Y-107463000D01*
G75*
G02*
X33538000Y-107663000I-200000J0D01*
G01*
X33138000Y-107663000D01*
G75*
G02*
X32938000Y-107463000I0J200000D01*
G01*
G37*
%TD*%
%TO.C,C3*%
G36*
G01*
X35769000Y-125607000D02*
X35769000Y-126107000D01*
G75*
G02*
X35544000Y-126332000I-225000J0D01*
G01*
X35094000Y-126332000D01*
G75*
G02*
X34869000Y-126107000I0J225000D01*
G01*
X34869000Y-125607000D01*
G75*
G02*
X35094000Y-125382000I225000J0D01*
G01*
X35544000Y-125382000D01*
G75*
G02*
X35769000Y-125607000I0J-225000D01*
G01*
G37*
G36*
G01*
X34219000Y-125607000D02*
X34219000Y-126107000D01*
G75*
G02*
X33994000Y-126332000I-225000J0D01*
G01*
X33544000Y-126332000D01*
G75*
G02*
X33319000Y-126107000I0J225000D01*
G01*
X33319000Y-125607000D01*
G75*
G02*
X33544000Y-125382000I225000J0D01*
G01*
X33994000Y-125382000D01*
G75*
G02*
X34219000Y-125607000I0J-225000D01*
G01*
G37*
%TD*%
%TO.C,C4*%
G36*
G01*
X26285000Y-116705500D02*
X25785000Y-116705500D01*
G75*
G02*
X25560000Y-116480500I0J225000D01*
G01*
X25560000Y-116030500D01*
G75*
G02*
X25785000Y-115805500I225000J0D01*
G01*
X26285000Y-115805500D01*
G75*
G02*
X26510000Y-116030500I0J-225000D01*
G01*
X26510000Y-116480500D01*
G75*
G02*
X26285000Y-116705500I-225000J0D01*
G01*
G37*
G36*
G01*
X26285000Y-118255500D02*
X25785000Y-118255500D01*
G75*
G02*
X25560000Y-118030500I0J225000D01*
G01*
X25560000Y-117580500D01*
G75*
G02*
X25785000Y-117355500I225000J0D01*
G01*
X26285000Y-117355500D01*
G75*
G02*
X26510000Y-117580500I0J-225000D01*
G01*
X26510000Y-118030500D01*
G75*
G02*
X26285000Y-118255500I-225000J0D01*
G01*
G37*
%TD*%
%TO.C,C6*%
G36*
G01*
X41715500Y-121811500D02*
X41215500Y-121811500D01*
G75*
G02*
X40990500Y-121586500I0J225000D01*
G01*
X40990500Y-121136500D01*
G75*
G02*
X41215500Y-120911500I225000J0D01*
G01*
X41715500Y-120911500D01*
G75*
G02*
X41940500Y-121136500I0J-225000D01*
G01*
X41940500Y-121586500D01*
G75*
G02*
X41715500Y-121811500I-225000J0D01*
G01*
G37*
G36*
G01*
X41715500Y-120261500D02*
X41215500Y-120261500D01*
G75*
G02*
X40990500Y-120036500I0J225000D01*
G01*
X40990500Y-119586500D01*
G75*
G02*
X41215500Y-119361500I225000J0D01*
G01*
X41715500Y-119361500D01*
G75*
G02*
X41940500Y-119586500I0J-225000D01*
G01*
X41940500Y-120036500D01*
G75*
G02*
X41715500Y-120261500I-225000J0D01*
G01*
G37*
%TD*%
%TO.C,C12*%
G36*
G01*
X22123499Y-134167500D02*
X23723501Y-134167500D01*
G75*
G02*
X23973500Y-134417499I0J-249999D01*
G01*
X23973500Y-138417501D01*
G75*
G02*
X23723501Y-138667500I-249999J0D01*
G01*
X22123499Y-138667500D01*
G75*
G02*
X21873500Y-138417501I0J249999D01*
G01*
X21873500Y-134417499D01*
G75*
G02*
X22123499Y-134167500I249999J0D01*
G01*
G37*
G36*
G01*
X22123499Y-141367500D02*
X23723501Y-141367500D01*
G75*
G02*
X23973500Y-141617499I0J-249999D01*
G01*
X23973500Y-145617501D01*
G75*
G02*
X23723501Y-145867500I-249999J0D01*
G01*
X22123499Y-145867500D01*
G75*
G02*
X21873500Y-145617501I0J249999D01*
G01*
X21873500Y-141617499D01*
G75*
G02*
X22123499Y-141367500I249999J0D01*
G01*
G37*
%TD*%
%TO.C,C5*%
G36*
G01*
X36443500Y-109126000D02*
X36443500Y-110076000D01*
G75*
G02*
X36193500Y-110326000I-250000J0D01*
G01*
X35693500Y-110326000D01*
G75*
G02*
X35443500Y-110076000I0J250000D01*
G01*
X35443500Y-109126000D01*
G75*
G02*
X35693500Y-108876000I250000J0D01*
G01*
X36193500Y-108876000D01*
G75*
G02*
X36443500Y-109126000I0J-250000D01*
G01*
G37*
G36*
G01*
X38343500Y-109126000D02*
X38343500Y-110076000D01*
G75*
G02*
X38093500Y-110326000I-250000J0D01*
G01*
X37593500Y-110326000D01*
G75*
G02*
X37343500Y-110076000I0J250000D01*
G01*
X37343500Y-109126000D01*
G75*
G02*
X37593500Y-108876000I250000J0D01*
G01*
X38093500Y-108876000D01*
G75*
G02*
X38343500Y-109126000I0J-250000D01*
G01*
G37*
%TD*%
%TO.C,C10*%
G36*
G01*
X36396000Y-126586000D02*
X36396000Y-125636000D01*
G75*
G02*
X36646000Y-125386000I250000J0D01*
G01*
X37146000Y-125386000D01*
G75*
G02*
X37396000Y-125636000I0J-250000D01*
G01*
X37396000Y-126586000D01*
G75*
G02*
X37146000Y-126836000I-250000J0D01*
G01*
X36646000Y-126836000D01*
G75*
G02*
X36396000Y-126586000I0J250000D01*
G01*
G37*
G36*
G01*
X38296000Y-126586000D02*
X38296000Y-125636000D01*
G75*
G02*
X38546000Y-125386000I250000J0D01*
G01*
X39046000Y-125386000D01*
G75*
G02*
X39296000Y-125636000I0J-250000D01*
G01*
X39296000Y-126586000D01*
G75*
G02*
X39046000Y-126836000I-250000J0D01*
G01*
X38546000Y-126836000D01*
G75*
G02*
X38296000Y-126586000I0J250000D01*
G01*
G37*
%TD*%
D14*
%TO.C,J11*%
X39807200Y-84836500D03*
%TD*%
D15*
%TO.C,U1*%
X23303500Y-129135000D03*
X23303500Y-126135000D03*
D16*
G36*
X19353500Y-126768500D02*
G01*
X22478500Y-126768500D01*
X22478500Y-127185000D01*
X23953500Y-127185000D01*
X23953500Y-128085000D01*
X22478500Y-128085000D01*
X22478500Y-128501500D01*
X19353500Y-128501500D01*
X19353500Y-126768500D01*
G37*
%TD*%
D17*
%TO.C,SW2*%
X20828000Y-105501000D03*
X20828000Y-113701000D03*
%TD*%
D18*
%TO.C,Y1*%
X24250500Y-122015000D03*
X24250500Y-118015000D03*
X21850500Y-118015000D03*
X21850500Y-122015000D03*
%TD*%
M02*
