%TF.GenerationSoftware,KiCad,Pcbnew,(5.1.10-1-10_14)*%
%TF.CreationDate,2021-10-23T16:52:38+02:00*%
%TF.ProjectId,mfm-v3-smd,6d666d2d-7633-42d7-936d-642e6b696361,rev?*%
%TF.SameCoordinates,Original*%
%TF.FileFunction,Paste,Top*%
%TF.FilePolarity,Positive*%
%FSLAX46Y46*%
G04 Gerber Fmt 4.6, Leading zero omitted, Abs format (unit mm)*
G04 Created by KiCad (PCBNEW (5.1.10-1-10_14)) date 2021-10-23 16:52:38*
%MOMM*%
%LPD*%
G01*
G04 APERTURE LIST*
%ADD10C,0.010000*%
%ADD11C,2.050000*%
%ADD12R,0.800000X0.900000*%
%ADD13R,1.500000X0.550000*%
%ADD14R,0.550000X1.500000*%
%ADD15R,1.500000X2.000000*%
%ADD16R,1.200000X1.800000*%
%ADD17R,1.400000X0.480000*%
%ADD18C,0.100000*%
%ADD19R,1.000000X2.000000*%
G04 APERTURE END LIST*
D10*
%TO.C,J6*%
G36*
X41247200Y-80257500D02*
G01*
X43687200Y-80257500D01*
X43687200Y-88017500D01*
X41247200Y-88017500D01*
X41247200Y-85907500D01*
X41310269Y-85853368D01*
X41359980Y-85807817D01*
X41408344Y-85760839D01*
X41455321Y-85712475D01*
X41500872Y-85662765D01*
X41544958Y-85611751D01*
X41587541Y-85559477D01*
X41628586Y-85505986D01*
X41668058Y-85451324D01*
X41705923Y-85395537D01*
X41742150Y-85338672D01*
X41776708Y-85280778D01*
X41809567Y-85221903D01*
X41840700Y-85162097D01*
X41870080Y-85101412D01*
X41897683Y-85039897D01*
X41923485Y-84977605D01*
X41947464Y-84914590D01*
X41969601Y-84850904D01*
X41989875Y-84786600D01*
X42008271Y-84721735D01*
X42024773Y-84656361D01*
X42039366Y-84590536D01*
X42052038Y-84524313D01*
X42062779Y-84457751D01*
X42071580Y-84390904D01*
X42078433Y-84323829D01*
X42083332Y-84256583D01*
X42086273Y-84189224D01*
X42087200Y-84137500D01*
X42086273Y-84085776D01*
X42083332Y-84018417D01*
X42078433Y-83951171D01*
X42071580Y-83884096D01*
X42062779Y-83817249D01*
X42052038Y-83750687D01*
X42039366Y-83684464D01*
X42024773Y-83618639D01*
X42008271Y-83553265D01*
X41989875Y-83488400D01*
X41969601Y-83424096D01*
X41947464Y-83360410D01*
X41923485Y-83297395D01*
X41897683Y-83235103D01*
X41870080Y-83173588D01*
X41840700Y-83112903D01*
X41809567Y-83053097D01*
X41776708Y-82994222D01*
X41742150Y-82936328D01*
X41705923Y-82879463D01*
X41668058Y-82823676D01*
X41628586Y-82769014D01*
X41587541Y-82715523D01*
X41544958Y-82663249D01*
X41500872Y-82612235D01*
X41455321Y-82562525D01*
X41408344Y-82514161D01*
X41359980Y-82467183D01*
X41310269Y-82421632D01*
X41247200Y-82367500D01*
X41247200Y-80257500D01*
G37*
X41247200Y-80257500D02*
X43687200Y-80257500D01*
X43687200Y-88017500D01*
X41247200Y-88017500D01*
X41247200Y-85907500D01*
X41310269Y-85853368D01*
X41359980Y-85807817D01*
X41408344Y-85760839D01*
X41455321Y-85712475D01*
X41500872Y-85662765D01*
X41544958Y-85611751D01*
X41587541Y-85559477D01*
X41628586Y-85505986D01*
X41668058Y-85451324D01*
X41705923Y-85395537D01*
X41742150Y-85338672D01*
X41776708Y-85280778D01*
X41809567Y-85221903D01*
X41840700Y-85162097D01*
X41870080Y-85101412D01*
X41897683Y-85039897D01*
X41923485Y-84977605D01*
X41947464Y-84914590D01*
X41969601Y-84850904D01*
X41989875Y-84786600D01*
X42008271Y-84721735D01*
X42024773Y-84656361D01*
X42039366Y-84590536D01*
X42052038Y-84524313D01*
X42062779Y-84457751D01*
X42071580Y-84390904D01*
X42078433Y-84323829D01*
X42083332Y-84256583D01*
X42086273Y-84189224D01*
X42087200Y-84137500D01*
X42086273Y-84085776D01*
X42083332Y-84018417D01*
X42078433Y-83951171D01*
X42071580Y-83884096D01*
X42062779Y-83817249D01*
X42052038Y-83750687D01*
X42039366Y-83684464D01*
X42024773Y-83618639D01*
X42008271Y-83553265D01*
X41989875Y-83488400D01*
X41969601Y-83424096D01*
X41947464Y-83360410D01*
X41923485Y-83297395D01*
X41897683Y-83235103D01*
X41870080Y-83173588D01*
X41840700Y-83112903D01*
X41809567Y-83053097D01*
X41776708Y-82994222D01*
X41742150Y-82936328D01*
X41705923Y-82879463D01*
X41668058Y-82823676D01*
X41628586Y-82769014D01*
X41587541Y-82715523D01*
X41544958Y-82663249D01*
X41500872Y-82612235D01*
X41455321Y-82562525D01*
X41408344Y-82514161D01*
X41359980Y-82467183D01*
X41310269Y-82421632D01*
X41247200Y-82367500D01*
X41247200Y-80257500D01*
G36*
X38367200Y-80257500D02*
G01*
X35927200Y-80257500D01*
X35927200Y-88017500D01*
X38367200Y-88017500D01*
X38367200Y-85907500D01*
X38304131Y-85853368D01*
X38254420Y-85807817D01*
X38206056Y-85760839D01*
X38159079Y-85712475D01*
X38113528Y-85662765D01*
X38069442Y-85611751D01*
X38026859Y-85559477D01*
X37985814Y-85505986D01*
X37946342Y-85451324D01*
X37908477Y-85395537D01*
X37872250Y-85338672D01*
X37837692Y-85280778D01*
X37804833Y-85221903D01*
X37773700Y-85162097D01*
X37744320Y-85101412D01*
X37716717Y-85039897D01*
X37690915Y-84977605D01*
X37666936Y-84914590D01*
X37644799Y-84850904D01*
X37624525Y-84786600D01*
X37606129Y-84721735D01*
X37589627Y-84656361D01*
X37575034Y-84590536D01*
X37562362Y-84524313D01*
X37551621Y-84457751D01*
X37542820Y-84390904D01*
X37535967Y-84323829D01*
X37531068Y-84256583D01*
X37528127Y-84189224D01*
X37527200Y-84137500D01*
X37528127Y-84085776D01*
X37531068Y-84018417D01*
X37535967Y-83951171D01*
X37542820Y-83884096D01*
X37551621Y-83817249D01*
X37562362Y-83750687D01*
X37575034Y-83684464D01*
X37589627Y-83618639D01*
X37606129Y-83553265D01*
X37624525Y-83488400D01*
X37644799Y-83424096D01*
X37666936Y-83360410D01*
X37690915Y-83297395D01*
X37716717Y-83235103D01*
X37744320Y-83173588D01*
X37773700Y-83112903D01*
X37804833Y-83053097D01*
X37837692Y-82994222D01*
X37872250Y-82936328D01*
X37908477Y-82879463D01*
X37946342Y-82823676D01*
X37985814Y-82769014D01*
X38026859Y-82715523D01*
X38069442Y-82663249D01*
X38113528Y-82612235D01*
X38159079Y-82562525D01*
X38206056Y-82514161D01*
X38254420Y-82467183D01*
X38304131Y-82421632D01*
X38367200Y-82367500D01*
X38367200Y-80257500D01*
G37*
X38367200Y-80257500D02*
X35927200Y-80257500D01*
X35927200Y-88017500D01*
X38367200Y-88017500D01*
X38367200Y-85907500D01*
X38304131Y-85853368D01*
X38254420Y-85807817D01*
X38206056Y-85760839D01*
X38159079Y-85712475D01*
X38113528Y-85662765D01*
X38069442Y-85611751D01*
X38026859Y-85559477D01*
X37985814Y-85505986D01*
X37946342Y-85451324D01*
X37908477Y-85395537D01*
X37872250Y-85338672D01*
X37837692Y-85280778D01*
X37804833Y-85221903D01*
X37773700Y-85162097D01*
X37744320Y-85101412D01*
X37716717Y-85039897D01*
X37690915Y-84977605D01*
X37666936Y-84914590D01*
X37644799Y-84850904D01*
X37624525Y-84786600D01*
X37606129Y-84721735D01*
X37589627Y-84656361D01*
X37575034Y-84590536D01*
X37562362Y-84524313D01*
X37551621Y-84457751D01*
X37542820Y-84390904D01*
X37535967Y-84323829D01*
X37531068Y-84256583D01*
X37528127Y-84189224D01*
X37527200Y-84137500D01*
X37528127Y-84085776D01*
X37531068Y-84018417D01*
X37535967Y-83951171D01*
X37542820Y-83884096D01*
X37551621Y-83817249D01*
X37562362Y-83750687D01*
X37575034Y-83684464D01*
X37589627Y-83618639D01*
X37606129Y-83553265D01*
X37624525Y-83488400D01*
X37644799Y-83424096D01*
X37666936Y-83360410D01*
X37690915Y-83297395D01*
X37716717Y-83235103D01*
X37744320Y-83173588D01*
X37773700Y-83112903D01*
X37804833Y-83053097D01*
X37837692Y-82994222D01*
X37872250Y-82936328D01*
X37908477Y-82879463D01*
X37946342Y-82823676D01*
X37985814Y-82769014D01*
X38026859Y-82715523D01*
X38069442Y-82663249D01*
X38113528Y-82612235D01*
X38159079Y-82562525D01*
X38206056Y-82514161D01*
X38254420Y-82467183D01*
X38304131Y-82421632D01*
X38367200Y-82367500D01*
X38367200Y-80257500D01*
%TD*%
%TO.C,C10*%
G36*
G01*
X38446000Y-126903500D02*
X38446000Y-125953500D01*
G75*
G02*
X38796000Y-125603500I350000J0D01*
G01*
X39496000Y-125603500D01*
G75*
G02*
X39846000Y-125953500I0J-350000D01*
G01*
X39846000Y-126903500D01*
G75*
G02*
X39496000Y-127253500I-350000J0D01*
G01*
X38796000Y-127253500D01*
G75*
G02*
X38446000Y-126903500I0J350000D01*
G01*
G37*
G36*
G01*
X35846000Y-126903500D02*
X35846000Y-125953500D01*
G75*
G02*
X36196000Y-125603500I350000J0D01*
G01*
X36896000Y-125603500D01*
G75*
G02*
X37246000Y-125953500I0J-350000D01*
G01*
X37246000Y-126903500D01*
G75*
G02*
X36896000Y-127253500I-350000J0D01*
G01*
X36196000Y-127253500D01*
G75*
G02*
X35846000Y-126903500I0J350000D01*
G01*
G37*
%TD*%
%TO.C,C5*%
G36*
G01*
X37246000Y-109189500D02*
X37246000Y-110139500D01*
G75*
G02*
X36896000Y-110489500I-350000J0D01*
G01*
X36196000Y-110489500D01*
G75*
G02*
X35846000Y-110139500I0J350000D01*
G01*
X35846000Y-109189500D01*
G75*
G02*
X36196000Y-108839500I350000J0D01*
G01*
X36896000Y-108839500D01*
G75*
G02*
X37246000Y-109189500I0J-350000D01*
G01*
G37*
G36*
G01*
X39846000Y-109189500D02*
X39846000Y-110139500D01*
G75*
G02*
X39496000Y-110489500I-350000J0D01*
G01*
X38796000Y-110489500D01*
G75*
G02*
X38446000Y-110139500I0J350000D01*
G01*
X38446000Y-109189500D01*
G75*
G02*
X38796000Y-108839500I350000J0D01*
G01*
X39496000Y-108839500D01*
G75*
G02*
X39846000Y-109189500I0J-350000D01*
G01*
G37*
%TD*%
%TO.C,R6*%
G36*
G01*
X48887500Y-110291500D02*
X49537500Y-110291500D01*
G75*
G02*
X49662500Y-110416500I0J-125000D01*
G01*
X49662500Y-110666500D01*
G75*
G02*
X49537500Y-110791500I-125000J0D01*
G01*
X48887500Y-110791500D01*
G75*
G02*
X48762500Y-110666500I0J125000D01*
G01*
X48762500Y-110416500D01*
G75*
G02*
X48887500Y-110291500I125000J0D01*
G01*
G37*
G36*
G01*
X48887500Y-108791500D02*
X49537500Y-108791500D01*
G75*
G02*
X49662500Y-108916500I0J-125000D01*
G01*
X49662500Y-109166500D01*
G75*
G02*
X49537500Y-109291500I-125000J0D01*
G01*
X48887500Y-109291500D01*
G75*
G02*
X48762500Y-109166500I0J125000D01*
G01*
X48762500Y-108916500D01*
G75*
G02*
X48887500Y-108791500I125000J0D01*
G01*
G37*
%TD*%
%TO.C,R3*%
G36*
G01*
X34473000Y-107966000D02*
X35123000Y-107966000D01*
G75*
G02*
X35248000Y-108091000I0J-125000D01*
G01*
X35248000Y-108341000D01*
G75*
G02*
X35123000Y-108466000I-125000J0D01*
G01*
X34473000Y-108466000D01*
G75*
G02*
X34348000Y-108341000I0J125000D01*
G01*
X34348000Y-108091000D01*
G75*
G02*
X34473000Y-107966000I125000J0D01*
G01*
G37*
G36*
G01*
X34473000Y-109466000D02*
X35123000Y-109466000D01*
G75*
G02*
X35248000Y-109591000I0J-125000D01*
G01*
X35248000Y-109841000D01*
G75*
G02*
X35123000Y-109966000I-125000J0D01*
G01*
X34473000Y-109966000D01*
G75*
G02*
X34348000Y-109841000I0J125000D01*
G01*
X34348000Y-109591000D01*
G75*
G02*
X34473000Y-109466000I125000J0D01*
G01*
G37*
%TD*%
D11*
%TO.C,J6*%
X39807200Y-84137500D03*
%TD*%
D12*
%TO.C,Q1*%
X20828000Y-133016500D03*
X19878000Y-131016500D03*
X21778000Y-131016500D03*
%TD*%
%TO.C,C7*%
G36*
G01*
X22740500Y-124392500D02*
X22740500Y-123892500D01*
G75*
G02*
X22965500Y-123667500I225000J0D01*
G01*
X23415500Y-123667500D01*
G75*
G02*
X23640500Y-123892500I0J-225000D01*
G01*
X23640500Y-124392500D01*
G75*
G02*
X23415500Y-124617500I-225000J0D01*
G01*
X22965500Y-124617500D01*
G75*
G02*
X22740500Y-124392500I0J225000D01*
G01*
G37*
G36*
G01*
X21190500Y-124392500D02*
X21190500Y-123892500D01*
G75*
G02*
X21415500Y-123667500I225000J0D01*
G01*
X21865500Y-123667500D01*
G75*
G02*
X22090500Y-123892500I0J-225000D01*
G01*
X22090500Y-124392500D01*
G75*
G02*
X21865500Y-124617500I-225000J0D01*
G01*
X21415500Y-124617500D01*
G75*
G02*
X21190500Y-124392500I0J225000D01*
G01*
G37*
%TD*%
D13*
%TO.C,U3*%
X27975000Y-113956500D03*
X27975000Y-114756500D03*
X27975000Y-115556500D03*
X27975000Y-116356500D03*
X27975000Y-117156500D03*
X27975000Y-117956500D03*
X27975000Y-118756500D03*
X27975000Y-119556500D03*
X27975000Y-120356500D03*
X27975000Y-121156500D03*
X27975000Y-121956500D03*
D14*
X29675000Y-123656500D03*
X30475000Y-123656500D03*
X31275000Y-123656500D03*
X32075000Y-123656500D03*
X32875000Y-123656500D03*
X33675000Y-123656500D03*
X34475000Y-123656500D03*
X35275000Y-123656500D03*
X36075000Y-123656500D03*
X36875000Y-123656500D03*
X37675000Y-123656500D03*
D13*
X39375000Y-121956500D03*
X39375000Y-121156500D03*
X39375000Y-120356500D03*
X39375000Y-119556500D03*
X39375000Y-118756500D03*
X39375000Y-117956500D03*
X39375000Y-117156500D03*
X39375000Y-116356500D03*
X39375000Y-115556500D03*
X39375000Y-114756500D03*
X39375000Y-113956500D03*
D14*
X37675000Y-112256500D03*
X36875000Y-112256500D03*
X36075000Y-112256500D03*
X35275000Y-112256500D03*
X34475000Y-112256500D03*
X33675000Y-112256500D03*
X32875000Y-112256500D03*
X32075000Y-112256500D03*
X31275000Y-112256500D03*
X30475000Y-112256500D03*
X29675000Y-112256500D03*
%TD*%
%TO.C,C11*%
G36*
G01*
X41702500Y-118636500D02*
X41202500Y-118636500D01*
G75*
G02*
X40977500Y-118411500I0J225000D01*
G01*
X40977500Y-117961500D01*
G75*
G02*
X41202500Y-117736500I225000J0D01*
G01*
X41702500Y-117736500D01*
G75*
G02*
X41927500Y-117961500I0J-225000D01*
G01*
X41927500Y-118411500D01*
G75*
G02*
X41702500Y-118636500I-225000J0D01*
G01*
G37*
G36*
G01*
X41702500Y-117086500D02*
X41202500Y-117086500D01*
G75*
G02*
X40977500Y-116861500I0J225000D01*
G01*
X40977500Y-116411500D01*
G75*
G02*
X41202500Y-116186500I225000J0D01*
G01*
X41702500Y-116186500D01*
G75*
G02*
X41927500Y-116411500I0J-225000D01*
G01*
X41927500Y-116861500D01*
G75*
G02*
X41702500Y-117086500I-225000J0D01*
G01*
G37*
%TD*%
%TO.C,C9*%
G36*
G01*
X32960500Y-109291000D02*
X33460500Y-109291000D01*
G75*
G02*
X33685500Y-109516000I0J-225000D01*
G01*
X33685500Y-109966000D01*
G75*
G02*
X33460500Y-110191000I-225000J0D01*
G01*
X32960500Y-110191000D01*
G75*
G02*
X32735500Y-109966000I0J225000D01*
G01*
X32735500Y-109516000D01*
G75*
G02*
X32960500Y-109291000I225000J0D01*
G01*
G37*
G36*
G01*
X32960500Y-107741000D02*
X33460500Y-107741000D01*
G75*
G02*
X33685500Y-107966000I0J-225000D01*
G01*
X33685500Y-108416000D01*
G75*
G02*
X33460500Y-108641000I-225000J0D01*
G01*
X32960500Y-108641000D01*
G75*
G02*
X32735500Y-108416000I0J225000D01*
G01*
X32735500Y-107966000D01*
G75*
G02*
X32960500Y-107741000I225000J0D01*
G01*
G37*
%TD*%
%TO.C,C8*%
G36*
G01*
X20252500Y-117975500D02*
X19752500Y-117975500D01*
G75*
G02*
X19527500Y-117750500I0J225000D01*
G01*
X19527500Y-117300500D01*
G75*
G02*
X19752500Y-117075500I225000J0D01*
G01*
X20252500Y-117075500D01*
G75*
G02*
X20477500Y-117300500I0J-225000D01*
G01*
X20477500Y-117750500D01*
G75*
G02*
X20252500Y-117975500I-225000J0D01*
G01*
G37*
G36*
G01*
X20252500Y-119525500D02*
X19752500Y-119525500D01*
G75*
G02*
X19527500Y-119300500I0J225000D01*
G01*
X19527500Y-118850500D01*
G75*
G02*
X19752500Y-118625500I225000J0D01*
G01*
X20252500Y-118625500D01*
G75*
G02*
X20477500Y-118850500I0J-225000D01*
G01*
X20477500Y-119300500D01*
G75*
G02*
X20252500Y-119525500I-225000J0D01*
G01*
G37*
%TD*%
%TO.C,C2*%
G36*
G01*
X24832500Y-125610500D02*
X25332500Y-125610500D01*
G75*
G02*
X25557500Y-125835500I0J-225000D01*
G01*
X25557500Y-126285500D01*
G75*
G02*
X25332500Y-126510500I-225000J0D01*
G01*
X24832500Y-126510500D01*
G75*
G02*
X24607500Y-126285500I0J225000D01*
G01*
X24607500Y-125835500D01*
G75*
G02*
X24832500Y-125610500I225000J0D01*
G01*
G37*
G36*
G01*
X24832500Y-124060500D02*
X25332500Y-124060500D01*
G75*
G02*
X25557500Y-124285500I0J-225000D01*
G01*
X25557500Y-124735500D01*
G75*
G02*
X25332500Y-124960500I-225000J0D01*
G01*
X24832500Y-124960500D01*
G75*
G02*
X24607500Y-124735500I0J225000D01*
G01*
X24607500Y-124285500D01*
G75*
G02*
X24832500Y-124060500I225000J0D01*
G01*
G37*
%TD*%
%TO.C,C1*%
G36*
G01*
X25332500Y-128072000D02*
X24832500Y-128072000D01*
G75*
G02*
X24607500Y-127847000I0J225000D01*
G01*
X24607500Y-127397000D01*
G75*
G02*
X24832500Y-127172000I225000J0D01*
G01*
X25332500Y-127172000D01*
G75*
G02*
X25557500Y-127397000I0J-225000D01*
G01*
X25557500Y-127847000D01*
G75*
G02*
X25332500Y-128072000I-225000J0D01*
G01*
G37*
G36*
G01*
X25332500Y-129622000D02*
X24832500Y-129622000D01*
G75*
G02*
X24607500Y-129397000I0J225000D01*
G01*
X24607500Y-128947000D01*
G75*
G02*
X24832500Y-128722000I225000J0D01*
G01*
X25332500Y-128722000D01*
G75*
G02*
X25557500Y-128947000I0J-225000D01*
G01*
X25557500Y-129397000D01*
G75*
G02*
X25332500Y-129622000I-225000J0D01*
G01*
G37*
%TD*%
%TO.C,C3*%
G36*
G01*
X31566400Y-126310200D02*
X31566400Y-125810200D01*
G75*
G02*
X31791400Y-125585200I225000J0D01*
G01*
X32241400Y-125585200D01*
G75*
G02*
X32466400Y-125810200I0J-225000D01*
G01*
X32466400Y-126310200D01*
G75*
G02*
X32241400Y-126535200I-225000J0D01*
G01*
X31791400Y-126535200D01*
G75*
G02*
X31566400Y-126310200I0J225000D01*
G01*
G37*
G36*
G01*
X33116400Y-126310200D02*
X33116400Y-125810200D01*
G75*
G02*
X33341400Y-125585200I225000J0D01*
G01*
X33791400Y-125585200D01*
G75*
G02*
X34016400Y-125810200I0J-225000D01*
G01*
X34016400Y-126310200D01*
G75*
G02*
X33791400Y-126535200I-225000J0D01*
G01*
X33341400Y-126535200D01*
G75*
G02*
X33116400Y-126310200I0J225000D01*
G01*
G37*
%TD*%
%TO.C,C4*%
G36*
G01*
X26285000Y-116705500D02*
X25785000Y-116705500D01*
G75*
G02*
X25560000Y-116480500I0J225000D01*
G01*
X25560000Y-116030500D01*
G75*
G02*
X25785000Y-115805500I225000J0D01*
G01*
X26285000Y-115805500D01*
G75*
G02*
X26510000Y-116030500I0J-225000D01*
G01*
X26510000Y-116480500D01*
G75*
G02*
X26285000Y-116705500I-225000J0D01*
G01*
G37*
G36*
G01*
X26285000Y-118255500D02*
X25785000Y-118255500D01*
G75*
G02*
X25560000Y-118030500I0J225000D01*
G01*
X25560000Y-117580500D01*
G75*
G02*
X25785000Y-117355500I225000J0D01*
G01*
X26285000Y-117355500D01*
G75*
G02*
X26510000Y-117580500I0J-225000D01*
G01*
X26510000Y-118030500D01*
G75*
G02*
X26285000Y-118255500I-225000J0D01*
G01*
G37*
%TD*%
%TO.C,C6*%
G36*
G01*
X41715500Y-121811500D02*
X41215500Y-121811500D01*
G75*
G02*
X40990500Y-121586500I0J225000D01*
G01*
X40990500Y-121136500D01*
G75*
G02*
X41215500Y-120911500I225000J0D01*
G01*
X41715500Y-120911500D01*
G75*
G02*
X41940500Y-121136500I0J-225000D01*
G01*
X41940500Y-121586500D01*
G75*
G02*
X41715500Y-121811500I-225000J0D01*
G01*
G37*
G36*
G01*
X41715500Y-120261500D02*
X41215500Y-120261500D01*
G75*
G02*
X40990500Y-120036500I0J225000D01*
G01*
X40990500Y-119586500D01*
G75*
G02*
X41215500Y-119361500I225000J0D01*
G01*
X41715500Y-119361500D01*
G75*
G02*
X41940500Y-119586500I0J-225000D01*
G01*
X41940500Y-120036500D01*
G75*
G02*
X41715500Y-120261500I-225000J0D01*
G01*
G37*
%TD*%
%TO.C,C12*%
G36*
G01*
X22123499Y-134167500D02*
X23723501Y-134167500D01*
G75*
G02*
X23973500Y-134417499I0J-249999D01*
G01*
X23973500Y-138417501D01*
G75*
G02*
X23723501Y-138667500I-249999J0D01*
G01*
X22123499Y-138667500D01*
G75*
G02*
X21873500Y-138417501I0J249999D01*
G01*
X21873500Y-134417499D01*
G75*
G02*
X22123499Y-134167500I249999J0D01*
G01*
G37*
G36*
G01*
X22123499Y-141367500D02*
X23723501Y-141367500D01*
G75*
G02*
X23973500Y-141617499I0J-249999D01*
G01*
X23973500Y-145617501D01*
G75*
G02*
X23723501Y-145867500I-249999J0D01*
G01*
X22123499Y-145867500D01*
G75*
G02*
X21873500Y-145617501I0J249999D01*
G01*
X21873500Y-141617499D01*
G75*
G02*
X22123499Y-141367500I249999J0D01*
G01*
G37*
%TD*%
D15*
%TO.C,SW2*%
X20828000Y-105501000D03*
X20828000Y-113701000D03*
%TD*%
D16*
%TO.C,Y1*%
X24250500Y-122015000D03*
X24250500Y-118015000D03*
X21850500Y-118015000D03*
X21850500Y-122015000D03*
%TD*%
%TO.C,D1*%
G36*
G01*
X47159500Y-89322500D02*
X47709500Y-89322500D01*
G75*
G02*
X47984500Y-89597500I0J-275000D01*
G01*
X47984500Y-90297500D01*
G75*
G02*
X47709500Y-90572500I-275000J0D01*
G01*
X47159500Y-90572500D01*
G75*
G02*
X46884500Y-90297500I0J275000D01*
G01*
X46884500Y-89597500D01*
G75*
G02*
X47159500Y-89322500I275000J0D01*
G01*
G37*
G36*
G01*
X47159500Y-91672500D02*
X47709500Y-91672500D01*
G75*
G02*
X47984500Y-91947500I0J-275000D01*
G01*
X47984500Y-92647500D01*
G75*
G02*
X47709500Y-92922500I-275000J0D01*
G01*
X47159500Y-92922500D01*
G75*
G02*
X46884500Y-92647500I0J275000D01*
G01*
X46884500Y-91947500D01*
G75*
G02*
X47159500Y-91672500I275000J0D01*
G01*
G37*
%TD*%
%TO.C,D2*%
G36*
G01*
X47784500Y-102569000D02*
X47084500Y-102569000D01*
G75*
G02*
X46884500Y-102369000I0J200000D01*
G01*
X46884500Y-101969000D01*
G75*
G02*
X47084500Y-101769000I200000J0D01*
G01*
X47784500Y-101769000D01*
G75*
G02*
X47984500Y-101969000I0J-200000D01*
G01*
X47984500Y-102369000D01*
G75*
G02*
X47784500Y-102569000I-200000J0D01*
G01*
G37*
G36*
G01*
X47784500Y-100669000D02*
X47084500Y-100669000D01*
G75*
G02*
X46884500Y-100469000I0J200000D01*
G01*
X46884500Y-100069000D01*
G75*
G02*
X47084500Y-99869000I200000J0D01*
G01*
X47784500Y-99869000D01*
G75*
G02*
X47984500Y-100069000I0J-200000D01*
G01*
X47984500Y-100469000D01*
G75*
G02*
X47784500Y-100669000I-200000J0D01*
G01*
G37*
%TD*%
%TO.C,R1*%
G36*
G01*
X47569000Y-95488000D02*
X46919000Y-95488000D01*
G75*
G02*
X46794000Y-95363000I0J125000D01*
G01*
X46794000Y-95113000D01*
G75*
G02*
X46919000Y-94988000I125000J0D01*
G01*
X47569000Y-94988000D01*
G75*
G02*
X47694000Y-95113000I0J-125000D01*
G01*
X47694000Y-95363000D01*
G75*
G02*
X47569000Y-95488000I-125000J0D01*
G01*
G37*
G36*
G01*
X47569000Y-93988000D02*
X46919000Y-93988000D01*
G75*
G02*
X46794000Y-93863000I0J125000D01*
G01*
X46794000Y-93613000D01*
G75*
G02*
X46919000Y-93488000I125000J0D01*
G01*
X47569000Y-93488000D01*
G75*
G02*
X47694000Y-93613000I0J-125000D01*
G01*
X47694000Y-93863000D01*
G75*
G02*
X47569000Y-93988000I-125000J0D01*
G01*
G37*
%TD*%
%TO.C,R2*%
G36*
G01*
X46855500Y-98290000D02*
X47505500Y-98290000D01*
G75*
G02*
X47630500Y-98415000I0J-125000D01*
G01*
X47630500Y-98665000D01*
G75*
G02*
X47505500Y-98790000I-125000J0D01*
G01*
X46855500Y-98790000D01*
G75*
G02*
X46730500Y-98665000I0J125000D01*
G01*
X46730500Y-98415000D01*
G75*
G02*
X46855500Y-98290000I125000J0D01*
G01*
G37*
G36*
G01*
X46855500Y-96790000D02*
X47505500Y-96790000D01*
G75*
G02*
X47630500Y-96915000I0J-125000D01*
G01*
X47630500Y-97165000D01*
G75*
G02*
X47505500Y-97290000I-125000J0D01*
G01*
X46855500Y-97290000D01*
G75*
G02*
X46730500Y-97165000I0J125000D01*
G01*
X46730500Y-96915000D01*
G75*
G02*
X46855500Y-96790000I125000J0D01*
G01*
G37*
%TD*%
%TO.C,R4*%
G36*
G01*
X19756500Y-103180000D02*
X19756500Y-103830000D01*
G75*
G02*
X19631500Y-103955000I-125000J0D01*
G01*
X19381500Y-103955000D01*
G75*
G02*
X19256500Y-103830000I0J125000D01*
G01*
X19256500Y-103180000D01*
G75*
G02*
X19381500Y-103055000I125000J0D01*
G01*
X19631500Y-103055000D01*
G75*
G02*
X19756500Y-103180000I0J-125000D01*
G01*
G37*
G36*
G01*
X21256500Y-103180000D02*
X21256500Y-103830000D01*
G75*
G02*
X21131500Y-103955000I-125000J0D01*
G01*
X20881500Y-103955000D01*
G75*
G02*
X20756500Y-103830000I0J125000D01*
G01*
X20756500Y-103180000D01*
G75*
G02*
X20881500Y-103055000I125000J0D01*
G01*
X21131500Y-103055000D01*
G75*
G02*
X21256500Y-103180000I0J-125000D01*
G01*
G37*
%TD*%
%TO.C,R5*%
G36*
G01*
X31948000Y-109966000D02*
X31298000Y-109966000D01*
G75*
G02*
X31173000Y-109841000I0J125000D01*
G01*
X31173000Y-109591000D01*
G75*
G02*
X31298000Y-109466000I125000J0D01*
G01*
X31948000Y-109466000D01*
G75*
G02*
X32073000Y-109591000I0J-125000D01*
G01*
X32073000Y-109841000D01*
G75*
G02*
X31948000Y-109966000I-125000J0D01*
G01*
G37*
G36*
G01*
X31948000Y-108466000D02*
X31298000Y-108466000D01*
G75*
G02*
X31173000Y-108341000I0J125000D01*
G01*
X31173000Y-108091000D01*
G75*
G02*
X31298000Y-107966000I125000J0D01*
G01*
X31948000Y-107966000D01*
G75*
G02*
X32073000Y-108091000I0J-125000D01*
G01*
X32073000Y-108341000D01*
G75*
G02*
X31948000Y-108466000I-125000J0D01*
G01*
G37*
%TD*%
%TO.C,R7*%
G36*
G01*
X30360500Y-109966000D02*
X29710500Y-109966000D01*
G75*
G02*
X29585500Y-109841000I0J125000D01*
G01*
X29585500Y-109591000D01*
G75*
G02*
X29710500Y-109466000I125000J0D01*
G01*
X30360500Y-109466000D01*
G75*
G02*
X30485500Y-109591000I0J-125000D01*
G01*
X30485500Y-109841000D01*
G75*
G02*
X30360500Y-109966000I-125000J0D01*
G01*
G37*
G36*
G01*
X30360500Y-108466000D02*
X29710500Y-108466000D01*
G75*
G02*
X29585500Y-108341000I0J125000D01*
G01*
X29585500Y-108091000D01*
G75*
G02*
X29710500Y-107966000I125000J0D01*
G01*
X30360500Y-107966000D01*
G75*
G02*
X30485500Y-108091000I0J-125000D01*
G01*
X30485500Y-108341000D01*
G75*
G02*
X30360500Y-108466000I-125000J0D01*
G01*
G37*
%TD*%
%TO.C,R8*%
G36*
G01*
X28455500Y-108466000D02*
X27805500Y-108466000D01*
G75*
G02*
X27680500Y-108341000I0J125000D01*
G01*
X27680500Y-108091000D01*
G75*
G02*
X27805500Y-107966000I125000J0D01*
G01*
X28455500Y-107966000D01*
G75*
G02*
X28580500Y-108091000I0J-125000D01*
G01*
X28580500Y-108341000D01*
G75*
G02*
X28455500Y-108466000I-125000J0D01*
G01*
G37*
G36*
G01*
X28455500Y-109966000D02*
X27805500Y-109966000D01*
G75*
G02*
X27680500Y-109841000I0J125000D01*
G01*
X27680500Y-109591000D01*
G75*
G02*
X27805500Y-109466000I125000J0D01*
G01*
X28455500Y-109466000D01*
G75*
G02*
X28580500Y-109591000I0J-125000D01*
G01*
X28580500Y-109841000D01*
G75*
G02*
X28455500Y-109966000I-125000J0D01*
G01*
G37*
%TD*%
%TO.C,R9*%
G36*
G01*
X48887500Y-105552500D02*
X49537500Y-105552500D01*
G75*
G02*
X49662500Y-105677500I0J-125000D01*
G01*
X49662500Y-105927500D01*
G75*
G02*
X49537500Y-106052500I-125000J0D01*
G01*
X48887500Y-106052500D01*
G75*
G02*
X48762500Y-105927500I0J125000D01*
G01*
X48762500Y-105677500D01*
G75*
G02*
X48887500Y-105552500I125000J0D01*
G01*
G37*
G36*
G01*
X48887500Y-107052500D02*
X49537500Y-107052500D01*
G75*
G02*
X49662500Y-107177500I0J-125000D01*
G01*
X49662500Y-107427500D01*
G75*
G02*
X49537500Y-107552500I-125000J0D01*
G01*
X48887500Y-107552500D01*
G75*
G02*
X48762500Y-107427500I0J125000D01*
G01*
X48762500Y-107177500D01*
G75*
G02*
X48887500Y-107052500I125000J0D01*
G01*
G37*
%TD*%
D17*
%TO.C,U1*%
X23303500Y-129135000D03*
X23303500Y-126135000D03*
D18*
G36*
X20091805Y-128280939D02*
G01*
X20082426Y-128278094D01*
X20073781Y-128273473D01*
X20067229Y-128268251D01*
X19724329Y-127944401D01*
X19717897Y-127937005D01*
X19713031Y-127928496D01*
X19709919Y-127919201D01*
X19708660Y-127908050D01*
X19708660Y-127372110D01*
X19709621Y-127362355D01*
X19712466Y-127352976D01*
X19717087Y-127344331D01*
X19722413Y-127337669D01*
X20037373Y-127006199D01*
X20044789Y-126999789D01*
X20053313Y-126994950D01*
X20062617Y-126991866D01*
X20073620Y-126990640D01*
X22293580Y-126990640D01*
X22303335Y-126991601D01*
X22312714Y-126994446D01*
X22321359Y-126999067D01*
X22328935Y-127005285D01*
X22646435Y-127322785D01*
X22652653Y-127330361D01*
X22657274Y-127339006D01*
X22660119Y-127348385D01*
X22660771Y-127355000D01*
X24003500Y-127355000D01*
X24003500Y-127915000D01*
X22660536Y-127915000D01*
X22660249Y-127918399D01*
X22657533Y-127927817D01*
X22653032Y-127936524D01*
X22647138Y-127943958D01*
X22337258Y-128266538D01*
X22329808Y-128272907D01*
X22321258Y-128277701D01*
X22311937Y-128280734D01*
X22301200Y-128281900D01*
X20101560Y-128281900D01*
X20091805Y-128280939D01*
G37*
%TD*%
D19*
%TO.C,U2*%
X25781800Y-105895200D03*
X27781800Y-105895200D03*
X29781800Y-105895200D03*
X31781800Y-105895200D03*
X33781800Y-105895200D03*
X35781800Y-105895200D03*
X37781800Y-105895200D03*
X39781800Y-105895200D03*
X39781800Y-89895200D03*
X37781800Y-89895200D03*
X35781800Y-89895200D03*
X33781800Y-89895200D03*
X31781800Y-89895200D03*
X29781800Y-89895200D03*
X27781800Y-89895200D03*
X25781800Y-89895200D03*
%TD*%
M02*
