%TF.GenerationSoftware,KiCad,Pcbnew,(5.1.10-1-10_14)*%
%TF.CreationDate,2021-10-23T16:52:38+02:00*%
%TF.ProjectId,mfm-v3-smd,6d666d2d-7633-42d7-936d-642e6b696361,rev?*%
%TF.SameCoordinates,Original*%
%TF.FileFunction,Legend,Top*%
%TF.FilePolarity,Positive*%
%FSLAX46Y46*%
G04 Gerber Fmt 4.6, Leading zero omitted, Abs format (unit mm)*
G04 Created by KiCad (PCBNEW (5.1.10-1-10_14)) date 2021-10-23 16:52:38*
%MOMM*%
%LPD*%
G01*
G04 APERTURE LIST*
%ADD10C,0.150000*%
%ADD11C,0.300000*%
%ADD12C,0.100000*%
%ADD13C,0.120000*%
%ADD14C,0.127000*%
G04 APERTURE END LIST*
D10*
X26852761Y-126134880D02*
X26852761Y-126944404D01*
X26900380Y-127039642D01*
X26948000Y-127087261D01*
X27043238Y-127134880D01*
X27233714Y-127134880D01*
X27328952Y-127087261D01*
X27376571Y-127039642D01*
X27424190Y-126944404D01*
X27424190Y-126134880D01*
X27852761Y-126849166D02*
X28328952Y-126849166D01*
X27757523Y-127134880D02*
X28090857Y-126134880D01*
X28424190Y-127134880D01*
X29328952Y-127134880D02*
X28995619Y-126658690D01*
X28757523Y-127134880D02*
X28757523Y-126134880D01*
X29138476Y-126134880D01*
X29233714Y-126182500D01*
X29281333Y-126230119D01*
X29328952Y-126325357D01*
X29328952Y-126468214D01*
X29281333Y-126563452D01*
X29233714Y-126611071D01*
X29138476Y-126658690D01*
X28757523Y-126658690D01*
X29614666Y-126134880D02*
X30186095Y-126134880D01*
X29900380Y-127134880D02*
X29900380Y-126134880D01*
X79438833Y-158964380D02*
X78962642Y-158964380D01*
X78915023Y-159440571D01*
X78962642Y-159392952D01*
X79057880Y-159345333D01*
X79295976Y-159345333D01*
X79391214Y-159392952D01*
X79438833Y-159440571D01*
X79486452Y-159535809D01*
X79486452Y-159773904D01*
X79438833Y-159869142D01*
X79391214Y-159916761D01*
X79295976Y-159964380D01*
X79057880Y-159964380D01*
X78962642Y-159916761D01*
X78915023Y-159869142D01*
X79915023Y-159583428D02*
X80676928Y-159583428D01*
X81295976Y-159392952D02*
X81200738Y-159345333D01*
X81153119Y-159297714D01*
X81105500Y-159202476D01*
X81105500Y-159154857D01*
X81153119Y-159059619D01*
X81200738Y-159012000D01*
X81295976Y-158964380D01*
X81486452Y-158964380D01*
X81581690Y-159012000D01*
X81629309Y-159059619D01*
X81676928Y-159154857D01*
X81676928Y-159202476D01*
X81629309Y-159297714D01*
X81581690Y-159345333D01*
X81486452Y-159392952D01*
X81295976Y-159392952D01*
X81200738Y-159440571D01*
X81153119Y-159488190D01*
X81105500Y-159583428D01*
X81105500Y-159773904D01*
X81153119Y-159869142D01*
X81200738Y-159916761D01*
X81295976Y-159964380D01*
X81486452Y-159964380D01*
X81581690Y-159916761D01*
X81629309Y-159869142D01*
X81676928Y-159773904D01*
X81676928Y-159583428D01*
X81629309Y-159488190D01*
X81581690Y-159440571D01*
X81486452Y-159392952D01*
X82724547Y-158964380D02*
X83057880Y-159964380D01*
X83391214Y-158964380D01*
X83724547Y-159964380D02*
X83724547Y-158964380D01*
X83962642Y-158964380D01*
X84105500Y-159012000D01*
X84200738Y-159107238D01*
X84248357Y-159202476D01*
X84295976Y-159392952D01*
X84295976Y-159535809D01*
X84248357Y-159726285D01*
X84200738Y-159821523D01*
X84105500Y-159916761D01*
X83962642Y-159964380D01*
X83724547Y-159964380D01*
X85295976Y-159869142D02*
X85248357Y-159916761D01*
X85105500Y-159964380D01*
X85010261Y-159964380D01*
X84867404Y-159916761D01*
X84772166Y-159821523D01*
X84724547Y-159726285D01*
X84676928Y-159535809D01*
X84676928Y-159392952D01*
X84724547Y-159202476D01*
X84772166Y-159107238D01*
X84867404Y-159012000D01*
X85010261Y-158964380D01*
X85105500Y-158964380D01*
X85248357Y-159012000D01*
X85295976Y-159059619D01*
X77934357Y-155130571D02*
X77934357Y-156273428D01*
X77997857Y-152590571D02*
X77997857Y-153733428D01*
X77426428Y-153162000D02*
X78569285Y-153162000D01*
D11*
X25273000Y-107660214D02*
X25344428Y-107731642D01*
X25273000Y-107803071D01*
X25201571Y-107731642D01*
X25273000Y-107660214D01*
X25273000Y-107803071D01*
X22860000Y-131599714D02*
X22931428Y-131671142D01*
X22860000Y-131742571D01*
X22788571Y-131671142D01*
X22860000Y-131599714D01*
X22860000Y-131742571D01*
X24066500Y-130075714D02*
X24137928Y-130147142D01*
X24066500Y-130218571D01*
X23995071Y-130147142D01*
X24066500Y-130075714D01*
X24066500Y-130218571D01*
D12*
X24447547Y-135008928D02*
X25209452Y-135008928D01*
X24828500Y-135389880D02*
X24828500Y-134627976D01*
D11*
X25527000Y-106580714D02*
X25598428Y-106652142D01*
X25527000Y-106723571D01*
X25455571Y-106652142D01*
X25527000Y-106580714D01*
X25527000Y-106723571D01*
X25527000Y-122519214D02*
X25598428Y-122590642D01*
X25527000Y-122662071D01*
X25455571Y-122590642D01*
X25527000Y-122519214D01*
X25527000Y-122662071D01*
X26606500Y-113756214D02*
X26677928Y-113827642D01*
X26606500Y-113899071D01*
X26535071Y-113827642D01*
X26606500Y-113756214D01*
X26606500Y-113899071D01*
D12*
X48006047Y-92781428D02*
X48767952Y-92781428D01*
X48387000Y-93162380D02*
X48387000Y-92400476D01*
X48006047Y-99512428D02*
X48767952Y-99512428D01*
X48387000Y-99893380D02*
X48387000Y-99131476D01*
D11*
X19351761Y-156876119D02*
X19351761Y-156495166D01*
X19447000Y-156304690D01*
X19637476Y-156114214D01*
X20018428Y-156018976D01*
X20685095Y-156018976D01*
X21066047Y-156114214D01*
X21256523Y-156304690D01*
X21351761Y-156495166D01*
X21351761Y-156876119D01*
X21256523Y-157066595D01*
X21066047Y-157257071D01*
X20685095Y-157352309D01*
X20018428Y-157352309D01*
X19637476Y-157257071D01*
X19447000Y-157066595D01*
X19351761Y-156876119D01*
X21351761Y-155161833D02*
X19351761Y-155161833D01*
X21351761Y-154018976D01*
X19351761Y-154018976D01*
X19256523Y-151638023D02*
X21827952Y-153352309D01*
X19351761Y-150590404D02*
X19351761Y-150209452D01*
X19447000Y-150018976D01*
X19637476Y-149828500D01*
X20018428Y-149733261D01*
X20685095Y-149733261D01*
X21066047Y-149828500D01*
X21256523Y-150018976D01*
X21351761Y-150209452D01*
X21351761Y-150590404D01*
X21256523Y-150780880D01*
X21066047Y-150971357D01*
X20685095Y-151066595D01*
X20018428Y-151066595D01*
X19637476Y-150971357D01*
X19447000Y-150780880D01*
X19351761Y-150590404D01*
X20304142Y-148209452D02*
X20304142Y-148876119D01*
X21351761Y-148876119D02*
X19351761Y-148876119D01*
X19351761Y-147923738D01*
X20304142Y-146495166D02*
X20304142Y-147161833D01*
X21351761Y-147161833D02*
X19351761Y-147161833D01*
X19351761Y-146209452D01*
D10*
X49791880Y-92328833D02*
X48791880Y-92328833D01*
X48791880Y-91947880D01*
X48839500Y-91852642D01*
X48887119Y-91805023D01*
X48982357Y-91757404D01*
X49125214Y-91757404D01*
X49220452Y-91805023D01*
X49268071Y-91852642D01*
X49315690Y-91947880D01*
X49315690Y-92328833D01*
X48791880Y-91424071D02*
X49791880Y-91185976D01*
X49077595Y-90995500D01*
X49791880Y-90805023D01*
X48791880Y-90566928D01*
X49791880Y-89614547D02*
X49315690Y-89947880D01*
X49791880Y-90185976D02*
X48791880Y-90185976D01*
X48791880Y-89805023D01*
X48839500Y-89709785D01*
X48887119Y-89662166D01*
X48982357Y-89614547D01*
X49125214Y-89614547D01*
X49220452Y-89662166D01*
X49268071Y-89709785D01*
X49315690Y-89805023D01*
X49315690Y-90185976D01*
X50061761Y-102552190D02*
X50109380Y-102409333D01*
X50109380Y-102171238D01*
X50061761Y-102076000D01*
X50014142Y-102028380D01*
X49918904Y-101980761D01*
X49823666Y-101980761D01*
X49728428Y-102028380D01*
X49680809Y-102076000D01*
X49633190Y-102171238D01*
X49585571Y-102361714D01*
X49537952Y-102456952D01*
X49490333Y-102504571D01*
X49395095Y-102552190D01*
X49299857Y-102552190D01*
X49204619Y-102504571D01*
X49157000Y-102456952D01*
X49109380Y-102361714D01*
X49109380Y-102123619D01*
X49157000Y-101980761D01*
X49109380Y-101695047D02*
X49109380Y-101123619D01*
X50109380Y-101409333D02*
X49109380Y-101409333D01*
X49823666Y-100837904D02*
X49823666Y-100361714D01*
X50109380Y-100933142D02*
X49109380Y-100599809D01*
X50109380Y-100266476D01*
X49109380Y-100076000D02*
X49109380Y-99504571D01*
X50109380Y-99790285D02*
X49109380Y-99790285D01*
X49109380Y-99171238D02*
X49918904Y-99171238D01*
X50014142Y-99123619D01*
X50061761Y-99076000D01*
X50109380Y-98980761D01*
X50109380Y-98790285D01*
X50061761Y-98695047D01*
X50014142Y-98647428D01*
X49918904Y-98599809D01*
X49109380Y-98599809D01*
X50061761Y-98171238D02*
X50109380Y-98028380D01*
X50109380Y-97790285D01*
X50061761Y-97695047D01*
X50014142Y-97647428D01*
X49918904Y-97599809D01*
X49823666Y-97599809D01*
X49728428Y-97647428D01*
X49680809Y-97695047D01*
X49633190Y-97790285D01*
X49585571Y-97980761D01*
X49537952Y-98076000D01*
X49490333Y-98123619D01*
X49395095Y-98171238D01*
X49299857Y-98171238D01*
X49204619Y-98123619D01*
X49157000Y-98076000D01*
X49109380Y-97980761D01*
X49109380Y-97742666D01*
X49157000Y-97599809D01*
D13*
X30561000Y-79338000D02*
X30561000Y-81213000D01*
X27036000Y-79338000D02*
X30561000Y-79338000D01*
X27036000Y-81238000D02*
X27036000Y-79338000D01*
D10*
X27359809Y-80640380D02*
X27359809Y-79640380D01*
X28407428Y-80545142D02*
X28359809Y-80592761D01*
X28216952Y-80640380D01*
X28121714Y-80640380D01*
X27978857Y-80592761D01*
X27883619Y-80497523D01*
X27836000Y-80402285D01*
X27788380Y-80211809D01*
X27788380Y-80068952D01*
X27836000Y-79878476D01*
X27883619Y-79783238D01*
X27978857Y-79688000D01*
X28121714Y-79640380D01*
X28216952Y-79640380D01*
X28359809Y-79688000D01*
X28407428Y-79735619D01*
X28788380Y-80592761D02*
X28931238Y-80640380D01*
X29169333Y-80640380D01*
X29264571Y-80592761D01*
X29312190Y-80545142D01*
X29359809Y-80449904D01*
X29359809Y-80354666D01*
X29312190Y-80259428D01*
X29264571Y-80211809D01*
X29169333Y-80164190D01*
X28978857Y-80116571D01*
X28883619Y-80068952D01*
X28836000Y-80021333D01*
X28788380Y-79926095D01*
X28788380Y-79830857D01*
X28836000Y-79735619D01*
X28883619Y-79688000D01*
X28978857Y-79640380D01*
X29216952Y-79640380D01*
X29359809Y-79688000D01*
X29788380Y-80640380D02*
X29788380Y-79640380D01*
X30169333Y-79640380D01*
X30264571Y-79688000D01*
X30312190Y-79735619D01*
X30359809Y-79830857D01*
X30359809Y-79973714D01*
X30312190Y-80068952D01*
X30264571Y-80116571D01*
X30169333Y-80164190D01*
X29788380Y-80164190D01*
X24090261Y-100520166D02*
X24137880Y-100377309D01*
X24137880Y-100139214D01*
X24090261Y-100043976D01*
X24042642Y-99996357D01*
X23947404Y-99948738D01*
X23852166Y-99948738D01*
X23756928Y-99996357D01*
X23709309Y-100043976D01*
X23661690Y-100139214D01*
X23614071Y-100329690D01*
X23566452Y-100424928D01*
X23518833Y-100472547D01*
X23423595Y-100520166D01*
X23328357Y-100520166D01*
X23233119Y-100472547D01*
X23185500Y-100424928D01*
X23137880Y-100329690D01*
X23137880Y-100091595D01*
X23185500Y-99948738D01*
X23137880Y-99615404D02*
X24137880Y-98948738D01*
X23137880Y-98948738D02*
X24137880Y-99615404D01*
X24137880Y-98043976D02*
X24137880Y-98615404D01*
X24137880Y-98329690D02*
X23137880Y-98329690D01*
X23280738Y-98424928D01*
X23375976Y-98520166D01*
X23423595Y-98615404D01*
X23233119Y-97663023D02*
X23185500Y-97615404D01*
X23137880Y-97520166D01*
X23137880Y-97282071D01*
X23185500Y-97186833D01*
X23233119Y-97139214D01*
X23328357Y-97091595D01*
X23423595Y-97091595D01*
X23566452Y-97139214D01*
X24137880Y-97710642D01*
X24137880Y-97091595D01*
X23137880Y-96758261D02*
X23137880Y-96091595D01*
X24137880Y-96520166D01*
X23137880Y-95282071D02*
X23137880Y-95472547D01*
X23185500Y-95567785D01*
X23233119Y-95615404D01*
X23375976Y-95710642D01*
X23566452Y-95758261D01*
X23947404Y-95758261D01*
X24042642Y-95710642D01*
X24090261Y-95663023D01*
X24137880Y-95567785D01*
X24137880Y-95377309D01*
X24090261Y-95282071D01*
X24042642Y-95234452D01*
X23947404Y-95186833D01*
X23709309Y-95186833D01*
X23614071Y-95234452D01*
X23566452Y-95282071D01*
X23518833Y-95377309D01*
X23518833Y-95567785D01*
X23566452Y-95663023D01*
X23614071Y-95710642D01*
X23709309Y-95758261D01*
D13*
%TO.C,C10*%
X37584748Y-125693500D02*
X38107252Y-125693500D01*
X37584748Y-127163500D02*
X38107252Y-127163500D01*
%TO.C,C5*%
X38107252Y-110399500D02*
X37584748Y-110399500D01*
X38107252Y-108929500D02*
X37584748Y-108929500D01*
%TO.C,R6*%
X48690000Y-109554242D02*
X48690000Y-110028758D01*
X49735000Y-109554242D02*
X49735000Y-110028758D01*
%TO.C,R3*%
X35320500Y-108728742D02*
X35320500Y-109203258D01*
X34275500Y-108728742D02*
X34275500Y-109203258D01*
D14*
%TO.C,J6*%
X38807200Y-80637500D02*
X40807200Y-80637500D01*
X38807200Y-87637500D02*
X40807200Y-87637500D01*
D13*
%TO.C,J1*%
X82105500Y-81791500D02*
X82105500Y-84451500D01*
X82105500Y-81791500D02*
X76965500Y-81791500D01*
X76965500Y-81791500D02*
X76965500Y-84451500D01*
X82105500Y-84451500D02*
X76965500Y-84451500D01*
X84705500Y-84451500D02*
X83375500Y-84451500D01*
X84705500Y-83121500D02*
X84705500Y-84451500D01*
%TO.C,BT1*%
X79664500Y-163120000D02*
X79664500Y-160580000D01*
X86039500Y-163120000D02*
X79664500Y-163120000D01*
X86039500Y-132540000D02*
X86039500Y-163120000D01*
X79664500Y-132540000D02*
X79664500Y-135080000D01*
X86039500Y-132540000D02*
X79664500Y-132540000D01*
X35214500Y-160580000D02*
X47914500Y-160580000D01*
X35214500Y-163120000D02*
X35214500Y-160580000D01*
X28869500Y-163120000D02*
X35214500Y-163120000D01*
X28869500Y-132540000D02*
X28869500Y-163120000D01*
X35214500Y-132540000D02*
X28869500Y-132540000D01*
X35214500Y-135080000D02*
X35214500Y-132540000D01*
X35214500Y-135080000D02*
X47914500Y-135080000D01*
X79664500Y-160580000D02*
X66964500Y-160580000D01*
X47914500Y-132540000D02*
X47914500Y-135080000D01*
X66964500Y-132540000D02*
X47914500Y-132540000D01*
X66964500Y-135080000D02*
X66964500Y-132540000D01*
X79664500Y-135080000D02*
X66964500Y-135080000D01*
X66964500Y-163120000D02*
X66964500Y-160580000D01*
X47914500Y-163120000D02*
X66964500Y-163120000D01*
X47914500Y-160580000D02*
X47914500Y-163120000D01*
X86039500Y-148084000D02*
X28869500Y-148084000D01*
X28869500Y-147576000D02*
X86039500Y-147576000D01*
X66964500Y-137795000D02*
X66964500Y-139065000D01*
X49184500Y-137795000D02*
X66964500Y-137795000D01*
X49184500Y-139065000D02*
X49184500Y-137795000D01*
X47914500Y-139065000D02*
X49184500Y-139065000D01*
X47914500Y-141605000D02*
X47914500Y-139065000D01*
X49184500Y-141605000D02*
X47914500Y-141605000D01*
X49184500Y-142875000D02*
X49184500Y-141605000D01*
X66964500Y-142875000D02*
X49184500Y-142875000D01*
X66964500Y-139065000D02*
X66964500Y-142875000D01*
X65694500Y-157865000D02*
X47914500Y-157865000D01*
X65694500Y-156595000D02*
X65694500Y-157865000D01*
X66964500Y-156595000D02*
X65694500Y-156595000D01*
X66964500Y-154055000D02*
X66964500Y-156595000D01*
X65694500Y-154055000D02*
X66964500Y-154055000D01*
X65694500Y-152785000D02*
X65694500Y-154055000D01*
X47914500Y-152785000D02*
X65694500Y-152785000D01*
X47914500Y-157865000D02*
X47914500Y-152785000D01*
X87309500Y-131270000D02*
X27599500Y-131270000D01*
X27599500Y-131270000D02*
X27599500Y-164390000D01*
X27599500Y-164390000D02*
X87309500Y-164390000D01*
X87309500Y-164390000D02*
X87309500Y-131270000D01*
%TO.C,Q1*%
X19248000Y-132776500D02*
X19248000Y-131316500D01*
X22408000Y-132776500D02*
X22408000Y-130616500D01*
X22408000Y-132776500D02*
X21478000Y-132776500D01*
X19248000Y-132776500D02*
X20178000Y-132776500D01*
%TO.C,C7*%
X22274920Y-124652500D02*
X22556080Y-124652500D01*
X22274920Y-123632500D02*
X22556080Y-123632500D01*
D10*
%TO.C,U3*%
X28500000Y-112781500D02*
X28500000Y-113356500D01*
X38850000Y-112781500D02*
X38850000Y-113456500D01*
X38850000Y-123131500D02*
X38850000Y-122456500D01*
X28500000Y-123131500D02*
X28500000Y-122456500D01*
X28500000Y-112781500D02*
X29175000Y-112781500D01*
X28500000Y-123131500D02*
X29175000Y-123131500D01*
X38850000Y-123131500D02*
X38175000Y-123131500D01*
X38850000Y-112781500D02*
X38175000Y-112781500D01*
X28500000Y-113356500D02*
X27225000Y-113356500D01*
D13*
%TO.C,SW4*%
X45653000Y-102485500D02*
X44323000Y-102485500D01*
X45653000Y-101155500D02*
X45653000Y-102485500D01*
X45653000Y-99885500D02*
X42993000Y-99885500D01*
X42993000Y-99885500D02*
X42993000Y-97285500D01*
X45653000Y-99885500D02*
X45653000Y-97285500D01*
X45653000Y-97285500D02*
X42993000Y-97285500D01*
%TO.C,SW3*%
X42993000Y-89919500D02*
X44323000Y-89919500D01*
X42993000Y-91249500D02*
X42993000Y-89919500D01*
X42993000Y-92519500D02*
X45653000Y-92519500D01*
X45653000Y-92519500D02*
X45653000Y-95119500D01*
X42993000Y-92519500D02*
X42993000Y-95119500D01*
X42993000Y-95119500D02*
X45653000Y-95119500D01*
%TO.C,SW1*%
X25714000Y-155000000D02*
X24384000Y-155000000D01*
X25714000Y-153670000D02*
X25714000Y-155000000D01*
X25714000Y-152400000D02*
X23054000Y-152400000D01*
X23054000Y-152400000D02*
X23054000Y-149800000D01*
X25714000Y-152400000D02*
X25714000Y-149800000D01*
X25714000Y-149800000D02*
X23054000Y-149800000D01*
%TO.C,J5*%
X32699000Y-81220000D02*
X32699000Y-82550000D01*
X31369000Y-81220000D02*
X32699000Y-81220000D01*
X32699000Y-83820000D02*
X32699000Y-86420000D01*
X30099000Y-83820000D02*
X32699000Y-83820000D01*
X30099000Y-81220000D02*
X30099000Y-83820000D01*
X32699000Y-86420000D02*
X24959000Y-86420000D01*
X30099000Y-81220000D02*
X24959000Y-81220000D01*
X24959000Y-81220000D02*
X24959000Y-86420000D01*
%TO.C,J3*%
X47760000Y-111795500D02*
X46430000Y-111795500D01*
X47760000Y-110465500D02*
X47760000Y-111795500D01*
X45160000Y-111795500D02*
X42560000Y-111795500D01*
X45160000Y-109195500D02*
X45160000Y-111795500D01*
X47760000Y-109195500D02*
X45160000Y-109195500D01*
X42560000Y-111795500D02*
X42560000Y-104055500D01*
X47760000Y-109195500D02*
X47760000Y-104055500D01*
X47760000Y-104055500D02*
X42560000Y-104055500D01*
%TO.C,C11*%
X40942500Y-117552080D02*
X40942500Y-117270920D01*
X41962500Y-117552080D02*
X41962500Y-117270920D01*
%TO.C,C9*%
X32700500Y-108825420D02*
X32700500Y-109106580D01*
X33720500Y-108825420D02*
X33720500Y-109106580D01*
%TO.C,C8*%
X20512500Y-118441080D02*
X20512500Y-118159920D01*
X19492500Y-118441080D02*
X19492500Y-118159920D01*
%TO.C,C2*%
X24572500Y-125144920D02*
X24572500Y-125426080D01*
X25592500Y-125144920D02*
X25592500Y-125426080D01*
%TO.C,C1*%
X25592500Y-128537580D02*
X25592500Y-128256420D01*
X24572500Y-128537580D02*
X24572500Y-128256420D01*
%TO.C,J4*%
X26787800Y-129209800D02*
X26787800Y-127879800D01*
X26787800Y-127879800D02*
X28117800Y-127879800D01*
X29387800Y-127879800D02*
X42147800Y-127879800D01*
X42147800Y-130539800D02*
X42147800Y-127879800D01*
X29387800Y-130539800D02*
X42147800Y-130539800D01*
X29387800Y-130539800D02*
X29387800Y-127879800D01*
%TO.C,C3*%
X32650820Y-125550200D02*
X32931980Y-125550200D01*
X32650820Y-126570200D02*
X32931980Y-126570200D01*
%TO.C,C4*%
X26545000Y-117171080D02*
X26545000Y-116889920D01*
X25525000Y-117171080D02*
X25525000Y-116889920D01*
%TO.C,C6*%
X40955500Y-120727080D02*
X40955500Y-120445920D01*
X41975500Y-120727080D02*
X41975500Y-120445920D01*
%TO.C,C12*%
X18663500Y-144277500D02*
X21613500Y-144277500D01*
X27183500Y-144277500D02*
X24233500Y-144277500D01*
X27183500Y-136821937D02*
X27183500Y-144277500D01*
X18663500Y-136821937D02*
X18663500Y-144277500D01*
X19727937Y-135757500D02*
X21613500Y-135757500D01*
X26119063Y-135757500D02*
X24233500Y-135757500D01*
X26119063Y-135757500D02*
X27183500Y-136821937D01*
X19727937Y-135757500D02*
X18663500Y-136821937D01*
%TO.C,J2*%
X84705500Y-125031500D02*
X84705500Y-126361500D01*
X84705500Y-126361500D02*
X83375500Y-126361500D01*
X82105500Y-126361500D02*
X76965500Y-126361500D01*
X76965500Y-123701500D02*
X76965500Y-126361500D01*
X82105500Y-123701500D02*
X76965500Y-123701500D01*
X82105500Y-123701500D02*
X82105500Y-126361500D01*
%TO.C,SW2*%
X22678000Y-106616500D02*
X22678000Y-112585500D01*
X22669500Y-112585500D02*
X18986500Y-112585500D01*
X18978000Y-112585500D02*
X18986500Y-106616500D01*
X18986500Y-106616500D02*
X22678000Y-106616500D01*
%TO.C,Y1*%
X24850500Y-120915000D02*
X25090500Y-120915000D01*
X24850500Y-119115000D02*
X24850500Y-120915000D01*
X21250500Y-120915000D02*
X21250500Y-119115000D01*
X22650500Y-117315000D02*
X23450500Y-117315000D01*
X23450500Y-122715000D02*
X22650500Y-122715000D01*
X23450500Y-123115000D02*
X23450500Y-122715000D01*
%TO.C,D1*%
X46474500Y-89437500D02*
X46474500Y-92122500D01*
X48394500Y-89437500D02*
X46474500Y-89437500D01*
X48394500Y-92122500D02*
X48394500Y-89437500D01*
%TO.C,D2*%
X48394500Y-102904000D02*
X48394500Y-100219000D01*
X46474500Y-102904000D02*
X48394500Y-102904000D01*
X46474500Y-100219000D02*
X46474500Y-102904000D01*
%TO.C,R1*%
X46721500Y-94725258D02*
X46721500Y-94250742D01*
X47766500Y-94725258D02*
X47766500Y-94250742D01*
%TO.C,R2*%
X46658000Y-97552742D02*
X46658000Y-98027258D01*
X47703000Y-97552742D02*
X47703000Y-98027258D01*
%TO.C,R4*%
X20493758Y-102982500D02*
X20019242Y-102982500D01*
X20493758Y-104027500D02*
X20019242Y-104027500D01*
%TO.C,R5*%
X31100500Y-109203258D02*
X31100500Y-108728742D01*
X32145500Y-109203258D02*
X32145500Y-108728742D01*
%TO.C,R7*%
X29513000Y-109203258D02*
X29513000Y-108728742D01*
X30558000Y-109203258D02*
X30558000Y-108728742D01*
%TO.C,R8*%
X28653000Y-109203258D02*
X28653000Y-108728742D01*
X27608000Y-109203258D02*
X27608000Y-108728742D01*
%TO.C,R9*%
X49735000Y-106315242D02*
X49735000Y-106789758D01*
X48690000Y-106315242D02*
X48690000Y-106789758D01*
%TO.C,U1*%
X22713500Y-125275000D02*
X22713500Y-125505000D01*
X22713500Y-129995000D02*
X22713500Y-129765000D01*
X22713500Y-129995000D02*
X19993500Y-129995000D01*
X19993500Y-129995000D02*
X19993500Y-128685000D01*
X23853500Y-129765000D02*
X22713500Y-129765000D01*
X19993500Y-125275000D02*
X22713500Y-125275000D01*
X19993500Y-126585000D02*
X19993500Y-125275000D01*
%TO.C,U2*%
X25031800Y-105995200D02*
X25031800Y-106895200D01*
X24681800Y-105995200D02*
X25031800Y-105995200D01*
X40881800Y-89795200D02*
X40481800Y-89795200D01*
X40881800Y-105995200D02*
X40881800Y-89795200D01*
X40481800Y-105995200D02*
X40881800Y-105995200D01*
X24681800Y-89795200D02*
X25081800Y-89795200D01*
X24681800Y-105995200D02*
X24681800Y-89795200D01*
%TO.C,J7*%
X78847500Y-158552000D02*
X80097500Y-158552000D01*
X78847500Y-157302000D02*
X78847500Y-158552000D01*
X84347500Y-151402000D02*
X84347500Y-154452000D01*
X81397500Y-151402000D02*
X84347500Y-151402000D01*
X81397500Y-150652000D02*
X81397500Y-151402000D01*
X84347500Y-157502000D02*
X84347500Y-154452000D01*
X81397500Y-157502000D02*
X84347500Y-157502000D01*
X81397500Y-158252000D02*
X81397500Y-157502000D01*
X79147500Y-150652000D02*
X79147500Y-152452000D01*
X79897500Y-150652000D02*
X79147500Y-150652000D01*
X79897500Y-152452000D02*
X79897500Y-150652000D01*
X79147500Y-152452000D02*
X79897500Y-152452000D01*
X79147500Y-156452000D02*
X79147500Y-158252000D01*
X79897500Y-156452000D02*
X79147500Y-156452000D01*
X79897500Y-158252000D02*
X79897500Y-156452000D01*
X79147500Y-158252000D02*
X79897500Y-158252000D01*
X79147500Y-153952000D02*
X79147500Y-154952000D01*
X79897500Y-153952000D02*
X79147500Y-153952000D01*
X79897500Y-154952000D02*
X79897500Y-153952000D01*
X79147500Y-154952000D02*
X79897500Y-154952000D01*
X79137500Y-150642000D02*
X79137500Y-158262000D01*
X85107500Y-150642000D02*
X79137500Y-150642000D01*
X85107500Y-158262000D02*
X85107500Y-150642000D01*
X79137500Y-158262000D02*
X85107500Y-158262000D01*
%TO.C,J6*%
D10*
X45069166Y-83589880D02*
X45069166Y-84304166D01*
X45021547Y-84447023D01*
X44926309Y-84542261D01*
X44783452Y-84589880D01*
X44688214Y-84589880D01*
X45973928Y-83589880D02*
X45783452Y-83589880D01*
X45688214Y-83637500D01*
X45640595Y-83685119D01*
X45545357Y-83827976D01*
X45497738Y-84018452D01*
X45497738Y-84399404D01*
X45545357Y-84494642D01*
X45592976Y-84542261D01*
X45688214Y-84589880D01*
X45878690Y-84589880D01*
X45973928Y-84542261D01*
X46021547Y-84494642D01*
X46069166Y-84399404D01*
X46069166Y-84161309D01*
X46021547Y-84066071D01*
X45973928Y-84018452D01*
X45878690Y-83970833D01*
X45688214Y-83970833D01*
X45592976Y-84018452D01*
X45545357Y-84066071D01*
X45497738Y-84161309D01*
%TO.C,J1*%
X75168166Y-82573880D02*
X75168166Y-83288166D01*
X75120547Y-83431023D01*
X75025309Y-83526261D01*
X74882452Y-83573880D01*
X74787214Y-83573880D01*
X76168166Y-83573880D02*
X75596738Y-83573880D01*
X75882452Y-83573880D02*
X75882452Y-82573880D01*
X75787214Y-82716738D01*
X75691976Y-82811976D01*
X75596738Y-82859595D01*
%TO.C,BT1*%
X26662071Y-161504214D02*
X26709690Y-161361357D01*
X26757309Y-161313738D01*
X26852547Y-161266119D01*
X26995404Y-161266119D01*
X27090642Y-161313738D01*
X27138261Y-161361357D01*
X27185880Y-161456595D01*
X27185880Y-161837547D01*
X26185880Y-161837547D01*
X26185880Y-161504214D01*
X26233500Y-161408976D01*
X26281119Y-161361357D01*
X26376357Y-161313738D01*
X26471595Y-161313738D01*
X26566833Y-161361357D01*
X26614452Y-161408976D01*
X26662071Y-161504214D01*
X26662071Y-161837547D01*
X26185880Y-160980404D02*
X26185880Y-160408976D01*
X27185880Y-160694690D02*
X26185880Y-160694690D01*
X27185880Y-159551833D02*
X27185880Y-160123261D01*
X27185880Y-159837547D02*
X26185880Y-159837547D01*
X26328738Y-159932785D01*
X26423976Y-160028023D01*
X26471595Y-160123261D01*
X31877071Y-155428142D02*
X33019928Y-155428142D01*
X31877071Y-140442142D02*
X33019928Y-140442142D01*
X32448500Y-141013571D02*
X32448500Y-139870714D01*
X46073071Y-155432142D02*
X47215928Y-155432142D01*
X67663071Y-155432142D02*
X68805928Y-155432142D01*
X68234500Y-156003571D02*
X68234500Y-154860714D01*
X46073071Y-140442142D02*
X47215928Y-140442142D01*
X46644500Y-141013571D02*
X46644500Y-139870714D01*
X67663071Y-140442142D02*
X68805928Y-140442142D01*
%TO.C,SW4*%
X42251261Y-101409333D02*
X42298880Y-101266476D01*
X42298880Y-101028380D01*
X42251261Y-100933142D01*
X42203642Y-100885523D01*
X42108404Y-100837904D01*
X42013166Y-100837904D01*
X41917928Y-100885523D01*
X41870309Y-100933142D01*
X41822690Y-101028380D01*
X41775071Y-101218857D01*
X41727452Y-101314095D01*
X41679833Y-101361714D01*
X41584595Y-101409333D01*
X41489357Y-101409333D01*
X41394119Y-101361714D01*
X41346500Y-101314095D01*
X41298880Y-101218857D01*
X41298880Y-100980761D01*
X41346500Y-100837904D01*
X41298880Y-100504571D02*
X42298880Y-100266476D01*
X41584595Y-100076000D01*
X42298880Y-99885523D01*
X41298880Y-99647428D01*
X41632214Y-98837904D02*
X42298880Y-98837904D01*
X41251261Y-99076000D02*
X41965547Y-99314095D01*
X41965547Y-98695047D01*
%TO.C,SW3*%
X42251261Y-93789333D02*
X42298880Y-93646476D01*
X42298880Y-93408380D01*
X42251261Y-93313142D01*
X42203642Y-93265523D01*
X42108404Y-93217904D01*
X42013166Y-93217904D01*
X41917928Y-93265523D01*
X41870309Y-93313142D01*
X41822690Y-93408380D01*
X41775071Y-93598857D01*
X41727452Y-93694095D01*
X41679833Y-93741714D01*
X41584595Y-93789333D01*
X41489357Y-93789333D01*
X41394119Y-93741714D01*
X41346500Y-93694095D01*
X41298880Y-93598857D01*
X41298880Y-93360761D01*
X41346500Y-93217904D01*
X41298880Y-92884571D02*
X42298880Y-92646476D01*
X41584595Y-92456000D01*
X42298880Y-92265523D01*
X41298880Y-92027428D01*
X41298880Y-91741714D02*
X41298880Y-91122666D01*
X41679833Y-91456000D01*
X41679833Y-91313142D01*
X41727452Y-91217904D01*
X41775071Y-91170285D01*
X41870309Y-91122666D01*
X42108404Y-91122666D01*
X42203642Y-91170285D01*
X42251261Y-91217904D01*
X42298880Y-91313142D01*
X42298880Y-91598857D01*
X42251261Y-91694095D01*
X42203642Y-91741714D01*
%TO.C,SW1*%
X23050666Y-148931261D02*
X23193523Y-148978880D01*
X23431619Y-148978880D01*
X23526857Y-148931261D01*
X23574476Y-148883642D01*
X23622095Y-148788404D01*
X23622095Y-148693166D01*
X23574476Y-148597928D01*
X23526857Y-148550309D01*
X23431619Y-148502690D01*
X23241142Y-148455071D01*
X23145904Y-148407452D01*
X23098285Y-148359833D01*
X23050666Y-148264595D01*
X23050666Y-148169357D01*
X23098285Y-148074119D01*
X23145904Y-148026500D01*
X23241142Y-147978880D01*
X23479238Y-147978880D01*
X23622095Y-148026500D01*
X23955428Y-147978880D02*
X24193523Y-148978880D01*
X24384000Y-148264595D01*
X24574476Y-148978880D01*
X24812571Y-147978880D01*
X25717333Y-148978880D02*
X25145904Y-148978880D01*
X25431619Y-148978880D02*
X25431619Y-147978880D01*
X25336380Y-148121738D01*
X25241142Y-148216976D01*
X25145904Y-148264595D01*
%TO.C,J5*%
X25384166Y-79525880D02*
X25384166Y-80240166D01*
X25336547Y-80383023D01*
X25241309Y-80478261D01*
X25098452Y-80525880D01*
X25003214Y-80525880D01*
X26336547Y-79525880D02*
X25860357Y-79525880D01*
X25812738Y-80002071D01*
X25860357Y-79954452D01*
X25955595Y-79906833D01*
X26193690Y-79906833D01*
X26288928Y-79954452D01*
X26336547Y-80002071D01*
X26384166Y-80097309D01*
X26384166Y-80335404D01*
X26336547Y-80430642D01*
X26288928Y-80478261D01*
X26193690Y-80525880D01*
X25955595Y-80525880D01*
X25860357Y-80478261D01*
X25812738Y-80430642D01*
%TO.C,J3*%
X44751666Y-112609380D02*
X44751666Y-113323666D01*
X44704047Y-113466523D01*
X44608809Y-113561761D01*
X44465952Y-113609380D01*
X44370714Y-113609380D01*
X45132619Y-112609380D02*
X45751666Y-112609380D01*
X45418333Y-112990333D01*
X45561190Y-112990333D01*
X45656428Y-113037952D01*
X45704047Y-113085571D01*
X45751666Y-113180809D01*
X45751666Y-113418904D01*
X45704047Y-113514142D01*
X45656428Y-113561761D01*
X45561190Y-113609380D01*
X45275476Y-113609380D01*
X45180238Y-113561761D01*
X45132619Y-113514142D01*
%TO.C,J4*%
X41068666Y-126134880D02*
X41068666Y-126849166D01*
X41021047Y-126992023D01*
X40925809Y-127087261D01*
X40782952Y-127134880D01*
X40687714Y-127134880D01*
X41973428Y-126468214D02*
X41973428Y-127134880D01*
X41735333Y-126087261D02*
X41497238Y-126801547D01*
X42116285Y-126801547D01*
%TO.C,C12*%
X19486642Y-135294642D02*
X19439023Y-135342261D01*
X19296166Y-135389880D01*
X19200928Y-135389880D01*
X19058071Y-135342261D01*
X18962833Y-135247023D01*
X18915214Y-135151785D01*
X18867595Y-134961309D01*
X18867595Y-134818452D01*
X18915214Y-134627976D01*
X18962833Y-134532738D01*
X19058071Y-134437500D01*
X19200928Y-134389880D01*
X19296166Y-134389880D01*
X19439023Y-134437500D01*
X19486642Y-134485119D01*
X20439023Y-135389880D02*
X19867595Y-135389880D01*
X20153309Y-135389880D02*
X20153309Y-134389880D01*
X20058071Y-134532738D01*
X19962833Y-134627976D01*
X19867595Y-134675595D01*
X20819976Y-134485119D02*
X20867595Y-134437500D01*
X20962833Y-134389880D01*
X21200928Y-134389880D01*
X21296166Y-134437500D01*
X21343785Y-134485119D01*
X21391404Y-134580357D01*
X21391404Y-134675595D01*
X21343785Y-134818452D01*
X20772357Y-135389880D01*
X21391404Y-135389880D01*
%TO.C,J2*%
X75168166Y-124420380D02*
X75168166Y-125134666D01*
X75120547Y-125277523D01*
X75025309Y-125372761D01*
X74882452Y-125420380D01*
X74787214Y-125420380D01*
X75596738Y-124515619D02*
X75644357Y-124468000D01*
X75739595Y-124420380D01*
X75977690Y-124420380D01*
X76072928Y-124468000D01*
X76120547Y-124515619D01*
X76168166Y-124610857D01*
X76168166Y-124706095D01*
X76120547Y-124848952D01*
X75549119Y-125420380D01*
X76168166Y-125420380D01*
%TO.C,SW2*%
X24090261Y-109092833D02*
X24137880Y-108949976D01*
X24137880Y-108711880D01*
X24090261Y-108616642D01*
X24042642Y-108569023D01*
X23947404Y-108521404D01*
X23852166Y-108521404D01*
X23756928Y-108569023D01*
X23709309Y-108616642D01*
X23661690Y-108711880D01*
X23614071Y-108902357D01*
X23566452Y-108997595D01*
X23518833Y-109045214D01*
X23423595Y-109092833D01*
X23328357Y-109092833D01*
X23233119Y-109045214D01*
X23185500Y-108997595D01*
X23137880Y-108902357D01*
X23137880Y-108664261D01*
X23185500Y-108521404D01*
X23137880Y-108188071D02*
X24137880Y-107949976D01*
X23423595Y-107759500D01*
X24137880Y-107569023D01*
X23137880Y-107330928D01*
X23233119Y-106997595D02*
X23185500Y-106949976D01*
X23137880Y-106854738D01*
X23137880Y-106616642D01*
X23185500Y-106521404D01*
X23233119Y-106473785D01*
X23328357Y-106426166D01*
X23423595Y-106426166D01*
X23566452Y-106473785D01*
X24137880Y-107045214D01*
X24137880Y-106426166D01*
X24137880Y-113974380D02*
X23661690Y-114307714D01*
X24137880Y-114545809D02*
X23137880Y-114545809D01*
X23137880Y-114164857D01*
X23185500Y-114069619D01*
X23233119Y-114022000D01*
X23328357Y-113974380D01*
X23471214Y-113974380D01*
X23566452Y-114022000D01*
X23614071Y-114069619D01*
X23661690Y-114164857D01*
X23661690Y-114545809D01*
X23614071Y-113545809D02*
X23614071Y-113212476D01*
X24137880Y-113069619D02*
X24137880Y-113545809D01*
X23137880Y-113545809D01*
X23137880Y-113069619D01*
X24090261Y-112688666D02*
X24137880Y-112545809D01*
X24137880Y-112307714D01*
X24090261Y-112212476D01*
X24042642Y-112164857D01*
X23947404Y-112117238D01*
X23852166Y-112117238D01*
X23756928Y-112164857D01*
X23709309Y-112212476D01*
X23661690Y-112307714D01*
X23614071Y-112498190D01*
X23566452Y-112593428D01*
X23518833Y-112641047D01*
X23423595Y-112688666D01*
X23328357Y-112688666D01*
X23233119Y-112641047D01*
X23185500Y-112593428D01*
X23137880Y-112498190D01*
X23137880Y-112260095D01*
X23185500Y-112117238D01*
X23614071Y-111688666D02*
X23614071Y-111355333D01*
X24137880Y-111212476D02*
X24137880Y-111688666D01*
X23137880Y-111688666D01*
X23137880Y-111212476D01*
X23137880Y-110926761D02*
X23137880Y-110355333D01*
X24137880Y-110641047D02*
X23137880Y-110641047D01*
%TO.C,U2*%
X23201380Y-91376404D02*
X24010904Y-91376404D01*
X24106142Y-91328785D01*
X24153761Y-91281166D01*
X24201380Y-91185928D01*
X24201380Y-90995452D01*
X24153761Y-90900214D01*
X24106142Y-90852595D01*
X24010904Y-90804976D01*
X23201380Y-90804976D01*
X23296619Y-90376404D02*
X23249000Y-90328785D01*
X23201380Y-90233547D01*
X23201380Y-89995452D01*
X23249000Y-89900214D01*
X23296619Y-89852595D01*
X23391857Y-89804976D01*
X23487095Y-89804976D01*
X23629952Y-89852595D01*
X24201380Y-90424023D01*
X24201380Y-89804976D01*
%TO.C,J7*%
X81264166Y-148867880D02*
X81264166Y-149582166D01*
X81216547Y-149725023D01*
X81121309Y-149820261D01*
X80978452Y-149867880D01*
X80883214Y-149867880D01*
X81645119Y-148867880D02*
X82311785Y-148867880D01*
X81883214Y-149867880D01*
%TD*%
M02*
