M48
; DRILL file {KiCad (5.1.7)-1} date 04/21/21 13:47:06
; FORMAT={3:3/ absolute / metric / suppress leading zeros}
; #@! TF.CreationDate,2021-04-21T13:47:06+02:00
; #@! TF.GenerationSoftware,Kicad,Pcbnew,(5.1.7)-1
; #@! TF.FileFunction,Plated,1,2,PTH
FMAT,2
METRIC,TZ
T1C0.300
T2C0.500
T3C0.800
T4C0.950
T5C1.000
T6C1.020
T7C1.100
T8C1.500
T9C1.700
T10C2.500
%
G90
G05
T1
X19225Y-121800
X19925Y-125875
X20025Y-110425
X20275Y-116950
X24275Y-116850
X24325Y-119800
X25025Y-125950
X26100Y-123550
X27200Y-109350
X27200Y-113100
X27475Y-124950
X27950Y-125825
X28100Y-112725
X28550Y-108225
X28875Y-120900
X29000Y-114050
X29000Y-118450
X29550Y-109650
X31175Y-92650
X31175Y-94425
X33500Y-108900
X34400Y-122350
X37525Y-108575
X38368Y-110099
X38550Y-86950
X38550Y-88150
X38550Y-89350
X39800Y-86350
X39800Y-87550
X39800Y-88750
X40412Y-106138
X41025Y-120275
X41650Y-118225
T2
X87990Y-83439
X88539Y-82113
X88539Y-84765
X89865Y-81564
X89865Y-85314
X91191Y-82113
X91191Y-84765
X91740Y-83439
X87990Y-160452
X88539Y-159126
X88539Y-161778
X89865Y-158577
X89865Y-162327
X91191Y-159126
X91191Y-161778
X91740Y-160452
X19994Y-160452
X20544Y-159126
X20544Y-161778
X21869Y-158577
X21869Y-162327
X23195Y-159126
X23195Y-161778
X23744Y-160452
X19994Y-83414
X20544Y-82088
X20544Y-84739
X21869Y-81539
X21869Y-85289
X23195Y-82088
X23195Y-84739
X23744Y-83414
T3
X25172Y-90806
X25172Y-104806
X27172Y-90806
X27172Y-104806
X29172Y-90806
X29172Y-104806
X31172Y-90806
X31172Y-104806
X33172Y-90806
X33172Y-104806
X35172Y-90806
X35172Y-104806
X37172Y-90806
X37172Y-104806
X39172Y-90806
X39172Y-104806
T4
X45150Y-118275
X45150Y-120775
X45150Y-123275
T5
X42550Y-95235
X42550Y-97775
X41985Y-108370
X41985Y-110910
X41985Y-113450
X44525Y-108370
X44525Y-110910
X44525Y-113450
X23925Y-133385
X23925Y-135925
X27700Y-128050
X30240Y-128050
X32780Y-128050
X35320Y-128050
X37860Y-128050
X40400Y-128050
X27195Y-83350
X27195Y-85890
X29735Y-83350
X29735Y-85890
X32275Y-83350
X32275Y-85890
X69975Y-83500
X72515Y-83500
X75055Y-83500
X77595Y-83500
X80135Y-83500
X82675Y-83500
X42550Y-102010
X42550Y-104550
T6
X28700Y-139250
X28700Y-154240
T7
X88138Y-150241
X28067Y-150241
X28067Y-134239
X88138Y-134239
T8
X39172Y-84900
T9
X36632Y-82360
X36632Y-87440
X41712Y-82360
X41712Y-87440
T10
X89865Y-83439
X89865Y-160452
X21869Y-160452
X21869Y-83414
T0
M30
