%TF.GenerationSoftware,KiCad,Pcbnew,(5.1.7)-1*%
%TF.CreationDate,2021-04-09T11:38:41+02:00*%
%TF.ProjectId,mfm-v3-smd,6d666d2d-7633-42d7-936d-642e6b696361,rev?*%
%TF.SameCoordinates,Original*%
%TF.FileFunction,Soldermask,Bot*%
%TF.FilePolarity,Negative*%
%FSLAX46Y46*%
G04 Gerber Fmt 4.6, Leading zero omitted, Abs format (unit mm)*
G04 Created by KiCad (PCBNEW (5.1.7)-1) date 2021-04-09 11:38:41*
%MOMM*%
%LPD*%
G01*
G04 APERTURE LIST*
%ADD10O,1.700000X1.700000*%
%ADD11R,1.700000X1.700000*%
%ADD12C,3.300000*%
%ADD13C,1.530000*%
%ADD14O,2.000000X1.200000*%
%ADD15C,5.000000*%
%ADD16C,0.800000*%
%ADD17C,2.050000*%
%ADD18C,2.250000*%
%ADD19O,1.950000X1.700000*%
G04 APERTURE END LIST*
D10*
%TO.C,SW4*%
X35712400Y-109575600D03*
D11*
X35712400Y-112115600D03*
%TD*%
D10*
%TO.C,SW3*%
X44500800Y-109575600D03*
D11*
X44500800Y-112115600D03*
%TD*%
D12*
%TO.C,J5*%
X55880000Y-134745000D03*
X55880000Y-149735000D03*
D13*
X83060000Y-134745000D03*
X83060000Y-149735000D03*
%TD*%
D11*
%TO.C,J12*%
X81991200Y-82651600D03*
D10*
X79451200Y-82651600D03*
X76911200Y-82651600D03*
X74371200Y-82651600D03*
X71831200Y-82651600D03*
X69291200Y-82651600D03*
%TD*%
D11*
%TO.C,J10*%
X76682600Y-110896400D03*
D10*
X76682600Y-108356400D03*
X79222600Y-110896400D03*
X79222600Y-108356400D03*
X81762600Y-110896400D03*
X81762600Y-108356400D03*
%TD*%
D11*
%TO.C,SW1*%
X72847200Y-110896400D03*
D10*
X72847200Y-108356400D03*
%TD*%
D11*
%TO.C,J7*%
X86868000Y-88849200D03*
D10*
X89408000Y-88849200D03*
X86868000Y-91389200D03*
X89408000Y-91389200D03*
X86868000Y-93929200D03*
X89408000Y-93929200D03*
%TD*%
D14*
%TO.C,U4*%
X44895500Y-96978600D03*
X58895500Y-96978600D03*
X44895500Y-94978600D03*
X58895500Y-94978600D03*
X44895500Y-92978600D03*
X58895500Y-92978600D03*
X44895500Y-90978600D03*
X58895500Y-90978600D03*
X44895500Y-88978600D03*
X58895500Y-88978600D03*
X44895500Y-86978600D03*
X58895500Y-86978600D03*
X44895500Y-84978600D03*
X58895500Y-84978600D03*
X44895500Y-82978600D03*
X58895500Y-82978600D03*
%TD*%
%TO.C,J11*%
X23914100Y-105727500D03*
X23914100Y-103187500D03*
X23914100Y-100647500D03*
X23914100Y-98107500D03*
%TD*%
D15*
%TO.C,H4*%
X21869400Y-160451800D03*
D16*
X23744400Y-160451800D03*
X23195225Y-161777625D03*
X21869400Y-162326800D03*
X20543575Y-161777625D03*
X19994400Y-160451800D03*
X20543575Y-159125975D03*
X21869400Y-158576800D03*
X23195225Y-159125975D03*
%TD*%
D15*
%TO.C,H3*%
X21869400Y-83413600D03*
D16*
X23744400Y-83413600D03*
X23195225Y-84739425D03*
X21869400Y-85288600D03*
X20543575Y-84739425D03*
X19994400Y-83413600D03*
X20543575Y-82087775D03*
X21869400Y-81538600D03*
X23195225Y-82087775D03*
%TD*%
D15*
%TO.C,H2*%
X89865200Y-160451800D03*
D16*
X91740200Y-160451800D03*
X91191025Y-161777625D03*
X89865200Y-162326800D03*
X88539375Y-161777625D03*
X87990200Y-160451800D03*
X88539375Y-159125975D03*
X89865200Y-158576800D03*
X91191025Y-159125975D03*
%TD*%
D15*
%TO.C,H1*%
X89865200Y-83439000D03*
D16*
X91740200Y-83439000D03*
X91191025Y-84764825D03*
X89865200Y-85314000D03*
X88539375Y-84764825D03*
X87990200Y-83439000D03*
X88539375Y-82113175D03*
X89865200Y-81564000D03*
X91191025Y-82113175D03*
%TD*%
%TO.C,J4*%
G36*
G01*
X87237998Y-149091000D02*
X89038002Y-149091000D01*
G75*
G02*
X89288000Y-149340998I0J-249998D01*
G01*
X89288000Y-151141002D01*
G75*
G02*
X89038002Y-151391000I-249998J0D01*
G01*
X87237998Y-151391000D01*
G75*
G02*
X86988000Y-151141002I0J249998D01*
G01*
X86988000Y-149340998D01*
G75*
G02*
X87237998Y-149091000I249998J0D01*
G01*
G37*
%TD*%
%TO.C,J3*%
G36*
G01*
X27166998Y-149091000D02*
X28967002Y-149091000D01*
G75*
G02*
X29217000Y-149340998I0J-249998D01*
G01*
X29217000Y-151141002D01*
G75*
G02*
X28967002Y-151391000I-249998J0D01*
G01*
X27166998Y-151391000D01*
G75*
G02*
X26917000Y-151141002I0J249998D01*
G01*
X26917000Y-149340998D01*
G75*
G02*
X27166998Y-149091000I249998J0D01*
G01*
G37*
%TD*%
%TO.C,J2*%
G36*
G01*
X27166998Y-133089000D02*
X28967002Y-133089000D01*
G75*
G02*
X29217000Y-133338998I0J-249998D01*
G01*
X29217000Y-135139002D01*
G75*
G02*
X28967002Y-135389000I-249998J0D01*
G01*
X27166998Y-135389000D01*
G75*
G02*
X26917000Y-135139002I0J249998D01*
G01*
X26917000Y-133338998D01*
G75*
G02*
X27166998Y-133089000I249998J0D01*
G01*
G37*
%TD*%
%TO.C,J1*%
G36*
G01*
X87237998Y-133089000D02*
X89038002Y-133089000D01*
G75*
G02*
X89288000Y-133338998I0J-249998D01*
G01*
X89288000Y-135139002D01*
G75*
G02*
X89038002Y-135389000I-249998J0D01*
G01*
X87237998Y-135389000D01*
G75*
G02*
X86988000Y-135139002I0J249998D01*
G01*
X86988000Y-133338998D01*
G75*
G02*
X87237998Y-133089000I249998J0D01*
G01*
G37*
%TD*%
D17*
%TO.C,J13*%
X37465000Y-85979000D03*
D18*
X40005000Y-83439000D03*
X34925000Y-83439000D03*
X34925000Y-88519000D03*
X40005000Y-88519000D03*
%TD*%
%TO.C,J8*%
G36*
G01*
X88482000Y-104990000D02*
X87032000Y-104990000D01*
G75*
G02*
X86782000Y-104740000I0J250000D01*
G01*
X86782000Y-103540000D01*
G75*
G02*
X87032000Y-103290000I250000J0D01*
G01*
X88482000Y-103290000D01*
G75*
G02*
X88732000Y-103540000I0J-250000D01*
G01*
X88732000Y-104740000D01*
G75*
G02*
X88482000Y-104990000I-250000J0D01*
G01*
G37*
D19*
X87757000Y-101640000D03*
X87757000Y-99140000D03*
%TD*%
M02*
