%TF.GenerationSoftware,KiCad,Pcbnew,(5.1.10-1-10_14)*%
%TF.CreationDate,2021-08-31T00:30:18+02:00*%
%TF.ProjectId,mfm-v3-smd,6d666d2d-7633-42d7-936d-642e6b696361,rev?*%
%TF.SameCoordinates,Original*%
%TF.FileFunction,Copper,L2,Bot*%
%TF.FilePolarity,Positive*%
%FSLAX46Y46*%
G04 Gerber Fmt 4.6, Leading zero omitted, Abs format (unit mm)*
G04 Created by KiCad (PCBNEW (5.1.10-1-10_14)) date 2021-08-31 00:30:18*
%MOMM*%
%LPD*%
G01*
G04 APERTURE LIST*
%TA.AperFunction,ComponentPad*%
%ADD10O,1.700000X1.700000*%
%TD*%
%TA.AperFunction,ComponentPad*%
%ADD11R,1.700000X1.700000*%
%TD*%
%TA.AperFunction,ComponentPad*%
%ADD12C,2.000000*%
%TD*%
%TA.AperFunction,ComponentPad*%
%ADD13R,2.000000X2.000000*%
%TD*%
%TA.AperFunction,ViaPad*%
%ADD14C,0.600000*%
%TD*%
%TA.AperFunction,Conductor*%
%ADD15C,0.300000*%
%TD*%
%TA.AperFunction,Conductor*%
%ADD16C,0.150000*%
%TD*%
%TA.AperFunction,Conductor*%
%ADD17C,0.254000*%
%TD*%
%TA.AperFunction,Conductor*%
%ADD18C,0.100000*%
%TD*%
G04 APERTURE END LIST*
D10*
%TO.P,J5,3*%
%TO.N,SMBALERT*%
X78295500Y-83121500D03*
%TO.P,J5,2*%
%TO.N,I2C_SDA*%
X80835500Y-83121500D03*
D11*
%TO.P,J5,1*%
%TO.N,I2C_SCL*%
X83375500Y-83121500D03*
%TD*%
D12*
%TO.P,BT1,2*%
%TO.N,GND*%
X30289500Y-155325000D03*
D13*
%TO.P,BT1,1*%
%TO.N,Net-(BT1-Pad1)*%
X30289500Y-140335000D03*
%TD*%
D10*
%TO.P,SW4,2*%
%TO.N,GND*%
X44323000Y-98615500D03*
D11*
%TO.P,SW4,1*%
%TO.N,Net-(D2-Pad1)*%
X44323000Y-101155500D03*
%TD*%
D10*
%TO.P,SW3,2*%
%TO.N,GND*%
X44323000Y-93789500D03*
D11*
%TO.P,SW3,1*%
%TO.N,Net-(D1-Pad1)*%
X44323000Y-91249500D03*
%TD*%
D10*
%TO.P,SW1,2*%
%TO.N,VBAT*%
X24384000Y-151130000D03*
D11*
%TO.P,SW1,1*%
%TO.N,Net-(BT1-Pad1)*%
X24384000Y-153670000D03*
%TD*%
D10*
%TO.P,J10,6*%
%TO.N,GND*%
X26416000Y-85788500D03*
%TO.P,J10,5*%
%TO.N,NRST*%
X26416000Y-83248500D03*
%TO.P,J10,4*%
%TO.N,AVR_MOSI*%
X28956000Y-85788500D03*
%TO.P,J10,3*%
%TO.N,AVR_SCK*%
X28956000Y-83248500D03*
%TO.P,J10,2*%
%TO.N,+3V3*%
X31496000Y-85788500D03*
D11*
%TO.P,J10,1*%
%TO.N,AVR_MISO*%
X31496000Y-83248500D03*
%TD*%
D10*
%TO.P,J7,6*%
%TO.N,I2C_SCL*%
X43890000Y-105385500D03*
%TO.P,J7,5*%
%TO.N,VBAT*%
X46430000Y-105385500D03*
%TO.P,J7,4*%
%TO.N,I2C_SDA*%
X43890000Y-107925500D03*
%TO.P,J7,3*%
%TO.N,GND*%
X46430000Y-107925500D03*
%TO.P,J7,2*%
%TO.N,SMBALERT*%
X43890000Y-110465500D03*
D11*
%TO.P,J7,1*%
%TO.N,+3V3*%
X46430000Y-110465500D03*
%TD*%
%TO.P,J9,1*%
%TO.N,N/C*%
X28117800Y-129209800D03*
D10*
%TO.P,J9,2*%
%TO.N,AVR_TX0*%
X30657800Y-129209800D03*
%TO.P,J9,3*%
%TO.N,AVR_RX0*%
X33197800Y-129209800D03*
%TO.P,J9,4*%
%TO.N,N/C*%
X35737800Y-129209800D03*
%TO.P,J9,5*%
X38277800Y-129209800D03*
%TO.P,J9,6*%
%TO.N,GND*%
X40817800Y-129209800D03*
%TD*%
D11*
%TO.P,J6,1*%
%TO.N,+3V3*%
X83375500Y-125031500D03*
D10*
%TO.P,J6,2*%
%TO.N,VBAT*%
X80835500Y-125031500D03*
%TO.P,J6,3*%
%TO.N,GND*%
X78295500Y-125031500D03*
%TD*%
D14*
%TO.N,GND*%
X37274500Y-121793000D03*
X40435000Y-85651500D03*
X39185000Y-86251500D03*
X40435000Y-86851500D03*
X39185000Y-87451500D03*
X20828000Y-115189000D03*
X21336000Y-144907000D03*
X24511000Y-144907000D03*
X22923540Y-146367500D03*
X41465500Y-122237500D03*
X25082500Y-123571000D03*
X20701000Y-124142500D03*
X20828000Y-122047000D03*
X20002500Y-120015000D03*
X26035000Y-118664490D03*
X25082500Y-130048000D03*
X23304500Y-130048000D03*
X22606000Y-131064000D03*
X24257000Y-116855510D03*
X42198990Y-118161499D03*
X40435000Y-88051500D03*
X44170600Y-87655400D03*
X44170600Y-85877400D03*
X44170600Y-84099400D03*
X44170600Y-82321400D03*
X44170600Y-80543400D03*
X43205400Y-79781400D03*
X41427400Y-79781400D03*
X40767000Y-80543400D03*
X40792400Y-82042000D03*
X38836600Y-82042000D03*
X38836600Y-80518000D03*
X37922200Y-79781400D03*
X36195000Y-79781400D03*
X35458400Y-80518000D03*
X35458400Y-82321400D03*
X35458400Y-84074000D03*
X35458400Y-85877400D03*
X35458400Y-87630000D03*
X31140400Y-126060200D03*
X33718500Y-121793000D03*
X30035500Y-121793000D03*
X30035500Y-117919500D03*
X30035500Y-114109500D03*
X33718500Y-114109500D03*
X37274500Y-114109500D03*
X37274500Y-117919500D03*
X33718500Y-117919500D03*
X40182816Y-126314184D03*
X36957000Y-89916000D03*
X25781000Y-107251500D03*
X33210500Y-107442000D03*
X39751000Y-104521000D03*
X39243000Y-108458000D03*
%TO.N,+3V3*%
X45813210Y-119859341D03*
X43370502Y-119824500D03*
X41210471Y-108139833D03*
X38354003Y-108077003D03*
%TO.N,I2C_SDA*%
X47701200Y-108991400D03*
%TO.N,AVR_MOSI*%
X29091135Y-109841765D03*
X28067000Y-112105055D03*
%TO.N,AVR_SCK*%
X24831788Y-106070856D03*
X22327175Y-108546326D03*
%TO.N,AVR_MISO*%
X25523814Y-111318686D03*
X27051000Y-109220000D03*
%TO.N,RADIO_NSS*%
X35814000Y-108331000D03*
X35306000Y-110998000D03*
%TD*%
D15*
%TO.N,+3V3*%
X43405343Y-119859341D02*
X43370502Y-119824500D01*
X45813210Y-119859341D02*
X43405343Y-119859341D01*
X40910472Y-107839834D02*
X38591172Y-107839834D01*
X41210471Y-108139833D02*
X40910472Y-107839834D01*
X38591172Y-107839834D02*
X38354003Y-108077003D01*
D16*
%TO.N,I2C_SDA*%
X47692099Y-109000501D02*
X47701200Y-108991400D01*
X44965001Y-109000501D02*
X47692099Y-109000501D01*
X43890000Y-107925500D02*
X44965001Y-109000501D01*
%TO.N,AVR_MOSI*%
X29091135Y-109841765D02*
X28067000Y-110865900D01*
X28067000Y-110865900D02*
X28067000Y-112105055D01*
%TO.N,AVR_SCK*%
X24831788Y-106070856D02*
X22356318Y-108546326D01*
X22356318Y-108546326D02*
X22327175Y-108546326D01*
%TO.N,AVR_MISO*%
X25523814Y-111318686D02*
X25551074Y-111318686D01*
X25523814Y-110747186D02*
X27051000Y-109220000D01*
X25523814Y-111318686D02*
X25523814Y-110747186D01*
%TO.N,RADIO_NSS*%
X35306000Y-108902500D02*
X35306000Y-110998000D01*
X35814000Y-108394500D02*
X35306000Y-108902500D01*
%TD*%
D17*
%TO.N,GND*%
X92791801Y-164369000D02*
X18948419Y-164369000D01*
X18948419Y-160281705D01*
X20142400Y-160281705D01*
X20142400Y-160621895D01*
X20208768Y-160955547D01*
X20338953Y-161269841D01*
X20527952Y-161552698D01*
X20768502Y-161793248D01*
X21051359Y-161982247D01*
X21365653Y-162112432D01*
X21699305Y-162178800D01*
X22039495Y-162178800D01*
X22373147Y-162112432D01*
X22687441Y-161982247D01*
X22970298Y-161793248D01*
X23210848Y-161552698D01*
X23399847Y-161269841D01*
X23530032Y-160955547D01*
X23596400Y-160621895D01*
X23596400Y-160281705D01*
X88138200Y-160281705D01*
X88138200Y-160621895D01*
X88204568Y-160955547D01*
X88334753Y-161269841D01*
X88523752Y-161552698D01*
X88764302Y-161793248D01*
X89047159Y-161982247D01*
X89361453Y-162112432D01*
X89695105Y-162178800D01*
X90035295Y-162178800D01*
X90368947Y-162112432D01*
X90683241Y-161982247D01*
X90966098Y-161793248D01*
X91206648Y-161552698D01*
X91395647Y-161269841D01*
X91525832Y-160955547D01*
X91592200Y-160621895D01*
X91592200Y-160281705D01*
X91525832Y-159948053D01*
X91395647Y-159633759D01*
X91206648Y-159350902D01*
X90966098Y-159110352D01*
X90683241Y-158921353D01*
X90368947Y-158791168D01*
X90035295Y-158724800D01*
X89695105Y-158724800D01*
X89361453Y-158791168D01*
X89047159Y-158921353D01*
X88764302Y-159110352D01*
X88523752Y-159350902D01*
X88334753Y-159633759D01*
X88204568Y-159948053D01*
X88138200Y-160281705D01*
X23596400Y-160281705D01*
X23530032Y-159948053D01*
X23399847Y-159633759D01*
X23210848Y-159350902D01*
X22970298Y-159110352D01*
X22687441Y-158921353D01*
X22373147Y-158791168D01*
X22039495Y-158724800D01*
X21699305Y-158724800D01*
X21365653Y-158791168D01*
X21051359Y-158921353D01*
X20768502Y-159110352D01*
X20527952Y-159350902D01*
X20338953Y-159633759D01*
X20208768Y-159948053D01*
X20142400Y-160281705D01*
X18948419Y-160281705D01*
X18948419Y-156460413D01*
X29333692Y-156460413D01*
X29429456Y-156724814D01*
X29719071Y-156865704D01*
X30030608Y-156947384D01*
X30352095Y-156966718D01*
X30671175Y-156922961D01*
X30975588Y-156817795D01*
X31149544Y-156724814D01*
X31245308Y-156460413D01*
X30289500Y-155504605D01*
X29333692Y-156460413D01*
X18948419Y-156460413D01*
X18948419Y-155387595D01*
X28647782Y-155387595D01*
X28691539Y-155706675D01*
X28796705Y-156011088D01*
X28889686Y-156185044D01*
X29154087Y-156280808D01*
X30109895Y-155325000D01*
X30469105Y-155325000D01*
X31424913Y-156280808D01*
X31689314Y-156185044D01*
X31830204Y-155895429D01*
X31911884Y-155583892D01*
X31931218Y-155262405D01*
X31912425Y-155125358D01*
X55427500Y-155125358D01*
X55427500Y-155524642D01*
X55505396Y-155916254D01*
X55658196Y-156285145D01*
X55880026Y-156617137D01*
X56162363Y-156899474D01*
X56494355Y-157121304D01*
X56863246Y-157274104D01*
X57254858Y-157352000D01*
X57654142Y-157352000D01*
X58045754Y-157274104D01*
X58414645Y-157121304D01*
X58746637Y-156899474D01*
X59028974Y-156617137D01*
X59250804Y-156285145D01*
X59403604Y-155916254D01*
X59481500Y-155524642D01*
X59481500Y-155125358D01*
X59403604Y-154733746D01*
X59250804Y-154364855D01*
X59028974Y-154032863D01*
X58746637Y-153750526D01*
X58414645Y-153528696D01*
X58045754Y-153375896D01*
X57654142Y-153298000D01*
X57254858Y-153298000D01*
X56863246Y-153375896D01*
X56494355Y-153528696D01*
X56162363Y-153750526D01*
X55880026Y-154032863D01*
X55658196Y-154364855D01*
X55505396Y-154733746D01*
X55427500Y-155125358D01*
X31912425Y-155125358D01*
X31887461Y-154943325D01*
X31782295Y-154638912D01*
X31689314Y-154464956D01*
X31424913Y-154369192D01*
X30469105Y-155325000D01*
X30109895Y-155325000D01*
X29154087Y-154369192D01*
X28889686Y-154464956D01*
X28748796Y-154754571D01*
X28667116Y-155066108D01*
X28647782Y-155387595D01*
X18948419Y-155387595D01*
X18948419Y-152820000D01*
X23155176Y-152820000D01*
X23155176Y-154520000D01*
X23162455Y-154593905D01*
X23184012Y-154664970D01*
X23219019Y-154730463D01*
X23266131Y-154787869D01*
X23323537Y-154834981D01*
X23389030Y-154869988D01*
X23460095Y-154891545D01*
X23534000Y-154898824D01*
X25234000Y-154898824D01*
X25307905Y-154891545D01*
X25378970Y-154869988D01*
X25444463Y-154834981D01*
X25501869Y-154787869D01*
X25548981Y-154730463D01*
X25583988Y-154664970D01*
X25605545Y-154593905D01*
X25612824Y-154520000D01*
X25612824Y-154189587D01*
X29333692Y-154189587D01*
X30289500Y-155145395D01*
X31245308Y-154189587D01*
X31149544Y-153925186D01*
X30859929Y-153784296D01*
X30548392Y-153702616D01*
X30226905Y-153683282D01*
X29907825Y-153727039D01*
X29603412Y-153832205D01*
X29429456Y-153925186D01*
X29333692Y-154189587D01*
X25612824Y-154189587D01*
X25612824Y-152820000D01*
X25605545Y-152746095D01*
X25583988Y-152675030D01*
X25548981Y-152609537D01*
X25501869Y-152552131D01*
X25444463Y-152505019D01*
X25378970Y-152470012D01*
X25307905Y-152448455D01*
X25234000Y-152441176D01*
X23534000Y-152441176D01*
X23460095Y-152448455D01*
X23389030Y-152470012D01*
X23323537Y-152505019D01*
X23266131Y-152552131D01*
X23219019Y-152609537D01*
X23184012Y-152675030D01*
X23162455Y-152746095D01*
X23155176Y-152820000D01*
X18948419Y-152820000D01*
X18948419Y-151009151D01*
X23157000Y-151009151D01*
X23157000Y-151250849D01*
X23204153Y-151487903D01*
X23296647Y-151711202D01*
X23430927Y-151912167D01*
X23601833Y-152083073D01*
X23802798Y-152217353D01*
X24026097Y-152309847D01*
X24263151Y-152357000D01*
X24504849Y-152357000D01*
X24741903Y-152309847D01*
X24965202Y-152217353D01*
X25166167Y-152083073D01*
X25337073Y-151912167D01*
X25471353Y-151711202D01*
X25563847Y-151487903D01*
X25611000Y-151250849D01*
X25611000Y-151009151D01*
X25563847Y-150772097D01*
X25471353Y-150548798D01*
X25337073Y-150347833D01*
X25166167Y-150176927D01*
X24965202Y-150042647D01*
X24741903Y-149950153D01*
X24504849Y-149903000D01*
X24263151Y-149903000D01*
X24026097Y-149950153D01*
X23802798Y-150042647D01*
X23601833Y-150176927D01*
X23430927Y-150347833D01*
X23296647Y-150548798D01*
X23204153Y-150772097D01*
X23157000Y-151009151D01*
X18948419Y-151009151D01*
X18948419Y-139335000D01*
X28910676Y-139335000D01*
X28910676Y-141335000D01*
X28917955Y-141408905D01*
X28939512Y-141479970D01*
X28974519Y-141545463D01*
X29021631Y-141602869D01*
X29079037Y-141649981D01*
X29144530Y-141684988D01*
X29215595Y-141706545D01*
X29289500Y-141713824D01*
X31289500Y-141713824D01*
X31363405Y-141706545D01*
X31434470Y-141684988D01*
X31499963Y-141649981D01*
X31557369Y-141602869D01*
X31604481Y-141545463D01*
X31639488Y-141479970D01*
X31661045Y-141408905D01*
X31668324Y-141335000D01*
X31668324Y-140135358D01*
X55427500Y-140135358D01*
X55427500Y-140534642D01*
X55505396Y-140926254D01*
X55658196Y-141295145D01*
X55880026Y-141627137D01*
X56162363Y-141909474D01*
X56494355Y-142131304D01*
X56863246Y-142284104D01*
X57254858Y-142362000D01*
X57654142Y-142362000D01*
X58045754Y-142284104D01*
X58414645Y-142131304D01*
X58746637Y-141909474D01*
X59028974Y-141627137D01*
X59250804Y-141295145D01*
X59403604Y-140926254D01*
X59481500Y-140534642D01*
X59481500Y-140135358D01*
X59403604Y-139743746D01*
X59250804Y-139374855D01*
X59028974Y-139042863D01*
X58746637Y-138760526D01*
X58414645Y-138538696D01*
X58045754Y-138385896D01*
X57654142Y-138308000D01*
X57254858Y-138308000D01*
X56863246Y-138385896D01*
X56494355Y-138538696D01*
X56162363Y-138760526D01*
X55880026Y-139042863D01*
X55658196Y-139374855D01*
X55505396Y-139743746D01*
X55427500Y-140135358D01*
X31668324Y-140135358D01*
X31668324Y-139335000D01*
X31661045Y-139261095D01*
X31639488Y-139190030D01*
X31604481Y-139124537D01*
X31557369Y-139067131D01*
X31499963Y-139020019D01*
X31434470Y-138985012D01*
X31363405Y-138963455D01*
X31289500Y-138956176D01*
X29289500Y-138956176D01*
X29215595Y-138963455D01*
X29144530Y-138985012D01*
X29079037Y-139020019D01*
X29021631Y-139067131D01*
X28974519Y-139124537D01*
X28939512Y-139190030D01*
X28917955Y-139261095D01*
X28910676Y-139335000D01*
X18948419Y-139335000D01*
X18948419Y-128359800D01*
X26888976Y-128359800D01*
X26888976Y-130059800D01*
X26896255Y-130133705D01*
X26917812Y-130204770D01*
X26952819Y-130270263D01*
X26999931Y-130327669D01*
X27057337Y-130374781D01*
X27122830Y-130409788D01*
X27193895Y-130431345D01*
X27267800Y-130438624D01*
X28967800Y-130438624D01*
X29041705Y-130431345D01*
X29112770Y-130409788D01*
X29178263Y-130374781D01*
X29235669Y-130327669D01*
X29282781Y-130270263D01*
X29317788Y-130204770D01*
X29339345Y-130133705D01*
X29346624Y-130059800D01*
X29346624Y-129088951D01*
X29430800Y-129088951D01*
X29430800Y-129330649D01*
X29477953Y-129567703D01*
X29570447Y-129791002D01*
X29704727Y-129991967D01*
X29875633Y-130162873D01*
X30076598Y-130297153D01*
X30299897Y-130389647D01*
X30536951Y-130436800D01*
X30778649Y-130436800D01*
X31015703Y-130389647D01*
X31239002Y-130297153D01*
X31439967Y-130162873D01*
X31610873Y-129991967D01*
X31745153Y-129791002D01*
X31837647Y-129567703D01*
X31884800Y-129330649D01*
X31884800Y-129088951D01*
X31970800Y-129088951D01*
X31970800Y-129330649D01*
X32017953Y-129567703D01*
X32110447Y-129791002D01*
X32244727Y-129991967D01*
X32415633Y-130162873D01*
X32616598Y-130297153D01*
X32839897Y-130389647D01*
X33076951Y-130436800D01*
X33318649Y-130436800D01*
X33555703Y-130389647D01*
X33779002Y-130297153D01*
X33979967Y-130162873D01*
X34150873Y-129991967D01*
X34285153Y-129791002D01*
X34377647Y-129567703D01*
X34424800Y-129330649D01*
X34424800Y-129088951D01*
X34510800Y-129088951D01*
X34510800Y-129330649D01*
X34557953Y-129567703D01*
X34650447Y-129791002D01*
X34784727Y-129991967D01*
X34955633Y-130162873D01*
X35156598Y-130297153D01*
X35379897Y-130389647D01*
X35616951Y-130436800D01*
X35858649Y-130436800D01*
X36095703Y-130389647D01*
X36319002Y-130297153D01*
X36519967Y-130162873D01*
X36690873Y-129991967D01*
X36825153Y-129791002D01*
X36917647Y-129567703D01*
X36964800Y-129330649D01*
X36964800Y-129088951D01*
X37050800Y-129088951D01*
X37050800Y-129330649D01*
X37097953Y-129567703D01*
X37190447Y-129791002D01*
X37324727Y-129991967D01*
X37495633Y-130162873D01*
X37696598Y-130297153D01*
X37919897Y-130389647D01*
X38156951Y-130436800D01*
X38398649Y-130436800D01*
X38635703Y-130389647D01*
X38859002Y-130297153D01*
X39059967Y-130162873D01*
X39230873Y-129991967D01*
X39365153Y-129791002D01*
X39414031Y-129673002D01*
X39473643Y-129841052D01*
X39622622Y-130091155D01*
X39817531Y-130307388D01*
X40050880Y-130481441D01*
X40313701Y-130606625D01*
X40460910Y-130651276D01*
X40690800Y-130529955D01*
X40690800Y-129336800D01*
X40944800Y-129336800D01*
X40944800Y-130529955D01*
X41174690Y-130651276D01*
X41321899Y-130606625D01*
X41584720Y-130481441D01*
X41818069Y-130307388D01*
X42012978Y-130091155D01*
X42161957Y-129841052D01*
X42259281Y-129566691D01*
X42138614Y-129336800D01*
X40944800Y-129336800D01*
X40690800Y-129336800D01*
X40670800Y-129336800D01*
X40670800Y-129082800D01*
X40690800Y-129082800D01*
X40690800Y-127889645D01*
X40944800Y-127889645D01*
X40944800Y-129082800D01*
X42138614Y-129082800D01*
X42259281Y-128852909D01*
X42161957Y-128578548D01*
X42012978Y-128328445D01*
X41818069Y-128112212D01*
X41584720Y-127938159D01*
X41321899Y-127812975D01*
X41174690Y-127768324D01*
X40944800Y-127889645D01*
X40690800Y-127889645D01*
X40460910Y-127768324D01*
X40313701Y-127812975D01*
X40050880Y-127938159D01*
X39817531Y-128112212D01*
X39622622Y-128328445D01*
X39473643Y-128578548D01*
X39414031Y-128746598D01*
X39365153Y-128628598D01*
X39230873Y-128427633D01*
X39059967Y-128256727D01*
X38859002Y-128122447D01*
X38635703Y-128029953D01*
X38398649Y-127982800D01*
X38156951Y-127982800D01*
X37919897Y-128029953D01*
X37696598Y-128122447D01*
X37495633Y-128256727D01*
X37324727Y-128427633D01*
X37190447Y-128628598D01*
X37097953Y-128851897D01*
X37050800Y-129088951D01*
X36964800Y-129088951D01*
X36917647Y-128851897D01*
X36825153Y-128628598D01*
X36690873Y-128427633D01*
X36519967Y-128256727D01*
X36319002Y-128122447D01*
X36095703Y-128029953D01*
X35858649Y-127982800D01*
X35616951Y-127982800D01*
X35379897Y-128029953D01*
X35156598Y-128122447D01*
X34955633Y-128256727D01*
X34784727Y-128427633D01*
X34650447Y-128628598D01*
X34557953Y-128851897D01*
X34510800Y-129088951D01*
X34424800Y-129088951D01*
X34377647Y-128851897D01*
X34285153Y-128628598D01*
X34150873Y-128427633D01*
X33979967Y-128256727D01*
X33779002Y-128122447D01*
X33555703Y-128029953D01*
X33318649Y-127982800D01*
X33076951Y-127982800D01*
X32839897Y-128029953D01*
X32616598Y-128122447D01*
X32415633Y-128256727D01*
X32244727Y-128427633D01*
X32110447Y-128628598D01*
X32017953Y-128851897D01*
X31970800Y-129088951D01*
X31884800Y-129088951D01*
X31837647Y-128851897D01*
X31745153Y-128628598D01*
X31610873Y-128427633D01*
X31439967Y-128256727D01*
X31239002Y-128122447D01*
X31015703Y-128029953D01*
X30778649Y-127982800D01*
X30536951Y-127982800D01*
X30299897Y-128029953D01*
X30076598Y-128122447D01*
X29875633Y-128256727D01*
X29704727Y-128427633D01*
X29570447Y-128628598D01*
X29477953Y-128851897D01*
X29430800Y-129088951D01*
X29346624Y-129088951D01*
X29346624Y-128359800D01*
X29339345Y-128285895D01*
X29317788Y-128214830D01*
X29282781Y-128149337D01*
X29235669Y-128091931D01*
X29178263Y-128044819D01*
X29112770Y-128009812D01*
X29041705Y-127988255D01*
X28967800Y-127980976D01*
X27267800Y-127980976D01*
X27193895Y-127988255D01*
X27122830Y-128009812D01*
X27057337Y-128044819D01*
X26999931Y-128091931D01*
X26952819Y-128149337D01*
X26917812Y-128214830D01*
X26896255Y-128285895D01*
X26888976Y-128359800D01*
X18948419Y-128359800D01*
X18948419Y-127651000D01*
X42796693Y-127651000D01*
X42799000Y-127674423D01*
X42799001Y-130627567D01*
X42796693Y-130651000D01*
X42805903Y-130744508D01*
X42833178Y-130834423D01*
X42877471Y-130917289D01*
X42937079Y-130989921D01*
X43009711Y-131049529D01*
X43092577Y-131093822D01*
X43182492Y-131121097D01*
X43252577Y-131128000D01*
X43252578Y-131128000D01*
X43276000Y-131130307D01*
X43299423Y-131128000D01*
X67802577Y-131128000D01*
X67826000Y-131130307D01*
X67849422Y-131128000D01*
X67849423Y-131128000D01*
X67919508Y-131121097D01*
X68009423Y-131093822D01*
X68092289Y-131049529D01*
X68164921Y-130989921D01*
X68224529Y-130917289D01*
X68268822Y-130834423D01*
X68296097Y-130744508D01*
X68305307Y-130651000D01*
X68303000Y-130627577D01*
X68303000Y-127674423D01*
X68305307Y-127651000D01*
X68296097Y-127557492D01*
X68268822Y-127467577D01*
X68224529Y-127384711D01*
X68164921Y-127312079D01*
X68092289Y-127252471D01*
X68009423Y-127208178D01*
X67919508Y-127180903D01*
X67849423Y-127174000D01*
X67826000Y-127171693D01*
X67802578Y-127174000D01*
X43299422Y-127174000D01*
X43276000Y-127171693D01*
X43252577Y-127174000D01*
X43182492Y-127180903D01*
X43092577Y-127208178D01*
X43009711Y-127252471D01*
X42937079Y-127312079D01*
X42877471Y-127384711D01*
X42833178Y-127467577D01*
X42805903Y-127557492D01*
X42796693Y-127651000D01*
X18948419Y-127651000D01*
X18948419Y-125388391D01*
X76854019Y-125388391D01*
X76951343Y-125662752D01*
X77100322Y-125912855D01*
X77295231Y-126129088D01*
X77528580Y-126303141D01*
X77791401Y-126428325D01*
X77938610Y-126472976D01*
X78168500Y-126351655D01*
X78168500Y-125158500D01*
X76974686Y-125158500D01*
X76854019Y-125388391D01*
X18948419Y-125388391D01*
X18948419Y-124674609D01*
X76854019Y-124674609D01*
X76974686Y-124904500D01*
X78168500Y-124904500D01*
X78168500Y-123711345D01*
X78422500Y-123711345D01*
X78422500Y-124904500D01*
X78442500Y-124904500D01*
X78442500Y-125158500D01*
X78422500Y-125158500D01*
X78422500Y-126351655D01*
X78652390Y-126472976D01*
X78799599Y-126428325D01*
X79062420Y-126303141D01*
X79295769Y-126129088D01*
X79490678Y-125912855D01*
X79639657Y-125662752D01*
X79699269Y-125494702D01*
X79748147Y-125612702D01*
X79882427Y-125813667D01*
X80053333Y-125984573D01*
X80254298Y-126118853D01*
X80477597Y-126211347D01*
X80714651Y-126258500D01*
X80956349Y-126258500D01*
X81193403Y-126211347D01*
X81416702Y-126118853D01*
X81617667Y-125984573D01*
X81788573Y-125813667D01*
X81922853Y-125612702D01*
X82015347Y-125389403D01*
X82062500Y-125152349D01*
X82062500Y-124910651D01*
X82015347Y-124673597D01*
X81922853Y-124450298D01*
X81788573Y-124249333D01*
X81720740Y-124181500D01*
X82146676Y-124181500D01*
X82146676Y-125881500D01*
X82153955Y-125955405D01*
X82175512Y-126026470D01*
X82210519Y-126091963D01*
X82257631Y-126149369D01*
X82315037Y-126196481D01*
X82380530Y-126231488D01*
X82451595Y-126253045D01*
X82525500Y-126260324D01*
X84225500Y-126260324D01*
X84299405Y-126253045D01*
X84370470Y-126231488D01*
X84435963Y-126196481D01*
X84493369Y-126149369D01*
X84540481Y-126091963D01*
X84575488Y-126026470D01*
X84597045Y-125955405D01*
X84604324Y-125881500D01*
X84604324Y-124181500D01*
X84597045Y-124107595D01*
X84575488Y-124036530D01*
X84540481Y-123971037D01*
X84493369Y-123913631D01*
X84435963Y-123866519D01*
X84370470Y-123831512D01*
X84299405Y-123809955D01*
X84225500Y-123802676D01*
X82525500Y-123802676D01*
X82451595Y-123809955D01*
X82380530Y-123831512D01*
X82315037Y-123866519D01*
X82257631Y-123913631D01*
X82210519Y-123971037D01*
X82175512Y-124036530D01*
X82153955Y-124107595D01*
X82146676Y-124181500D01*
X81720740Y-124181500D01*
X81617667Y-124078427D01*
X81416702Y-123944147D01*
X81193403Y-123851653D01*
X80956349Y-123804500D01*
X80714651Y-123804500D01*
X80477597Y-123851653D01*
X80254298Y-123944147D01*
X80053333Y-124078427D01*
X79882427Y-124249333D01*
X79748147Y-124450298D01*
X79699269Y-124568298D01*
X79639657Y-124400248D01*
X79490678Y-124150145D01*
X79295769Y-123933912D01*
X79062420Y-123759859D01*
X78799599Y-123634675D01*
X78652390Y-123590024D01*
X78422500Y-123711345D01*
X78168500Y-123711345D01*
X77938610Y-123590024D01*
X77791401Y-123634675D01*
X77528580Y-123759859D01*
X77295231Y-123933912D01*
X77100322Y-124150145D01*
X76951343Y-124400248D01*
X76854019Y-124674609D01*
X18948419Y-124674609D01*
X18948419Y-119757821D01*
X42693502Y-119757821D01*
X42693502Y-119891179D01*
X42719518Y-120021974D01*
X42770552Y-120145180D01*
X42844642Y-120256063D01*
X42938939Y-120350360D01*
X43049822Y-120424450D01*
X43173028Y-120475484D01*
X43303823Y-120501500D01*
X43437181Y-120501500D01*
X43567976Y-120475484D01*
X43691182Y-120424450D01*
X43748216Y-120386341D01*
X45383353Y-120386341D01*
X45492530Y-120459291D01*
X45615736Y-120510325D01*
X45746531Y-120536341D01*
X45879889Y-120536341D01*
X46010684Y-120510325D01*
X46133890Y-120459291D01*
X46244773Y-120385201D01*
X46339070Y-120290904D01*
X46413160Y-120180021D01*
X46464194Y-120056815D01*
X46490210Y-119926020D01*
X46490210Y-119792662D01*
X46464194Y-119661867D01*
X46413160Y-119538661D01*
X46339070Y-119427778D01*
X46244773Y-119333481D01*
X46133890Y-119259391D01*
X46010684Y-119208357D01*
X45879889Y-119182341D01*
X45746531Y-119182341D01*
X45615736Y-119208357D01*
X45492530Y-119259391D01*
X45383353Y-119332341D01*
X43835766Y-119332341D01*
X43802065Y-119298640D01*
X43691182Y-119224550D01*
X43567976Y-119173516D01*
X43437181Y-119147500D01*
X43303823Y-119147500D01*
X43173028Y-119173516D01*
X43049822Y-119224550D01*
X42938939Y-119298640D01*
X42844642Y-119392937D01*
X42770552Y-119503820D01*
X42719518Y-119627026D01*
X42693502Y-119757821D01*
X18948419Y-119757821D01*
X18948419Y-112038376D01*
X27390000Y-112038376D01*
X27390000Y-112171734D01*
X27416016Y-112302529D01*
X27467050Y-112425735D01*
X27541140Y-112536618D01*
X27635437Y-112630915D01*
X27746320Y-112705005D01*
X27869526Y-112756039D01*
X28000321Y-112782055D01*
X28133679Y-112782055D01*
X28264474Y-112756039D01*
X28387680Y-112705005D01*
X28498563Y-112630915D01*
X28592860Y-112536618D01*
X28666950Y-112425735D01*
X28717984Y-112302529D01*
X28744000Y-112171734D01*
X28744000Y-112038376D01*
X28717984Y-111907581D01*
X28666950Y-111784375D01*
X28592860Y-111673492D01*
X28519000Y-111599632D01*
X28519000Y-111053123D01*
X28640802Y-110931321D01*
X34629000Y-110931321D01*
X34629000Y-111064679D01*
X34655016Y-111195474D01*
X34706050Y-111318680D01*
X34780140Y-111429563D01*
X34874437Y-111523860D01*
X34985320Y-111597950D01*
X35108526Y-111648984D01*
X35239321Y-111675000D01*
X35372679Y-111675000D01*
X35503474Y-111648984D01*
X35626680Y-111597950D01*
X35737563Y-111523860D01*
X35831860Y-111429563D01*
X35905950Y-111318680D01*
X35956984Y-111195474D01*
X35983000Y-111064679D01*
X35983000Y-110931321D01*
X35956984Y-110800526D01*
X35905950Y-110677320D01*
X35831860Y-110566437D01*
X35758000Y-110492577D01*
X35758000Y-110344651D01*
X42663000Y-110344651D01*
X42663000Y-110586349D01*
X42710153Y-110823403D01*
X42802647Y-111046702D01*
X42936927Y-111247667D01*
X43107833Y-111418573D01*
X43308798Y-111552853D01*
X43532097Y-111645347D01*
X43769151Y-111692500D01*
X44010849Y-111692500D01*
X44247903Y-111645347D01*
X44471202Y-111552853D01*
X44672167Y-111418573D01*
X44843073Y-111247667D01*
X44977353Y-111046702D01*
X45069847Y-110823403D01*
X45117000Y-110586349D01*
X45117000Y-110344651D01*
X45069847Y-110107597D01*
X44977353Y-109884298D01*
X44843073Y-109683333D01*
X44672167Y-109512427D01*
X44471202Y-109378147D01*
X44247903Y-109285653D01*
X44010849Y-109238500D01*
X43769151Y-109238500D01*
X43532097Y-109285653D01*
X43308798Y-109378147D01*
X43107833Y-109512427D01*
X42936927Y-109683333D01*
X42802647Y-109884298D01*
X42710153Y-110107597D01*
X42663000Y-110344651D01*
X35758000Y-110344651D01*
X35758000Y-109089724D01*
X35839724Y-109008000D01*
X35880679Y-109008000D01*
X36011474Y-108981984D01*
X36134680Y-108930950D01*
X36245563Y-108856860D01*
X36339860Y-108762563D01*
X36413950Y-108651680D01*
X36464984Y-108528474D01*
X36491000Y-108397679D01*
X36491000Y-108264321D01*
X36464984Y-108133526D01*
X36413952Y-108010324D01*
X37677003Y-108010324D01*
X37677003Y-108143682D01*
X37703019Y-108274477D01*
X37754053Y-108397683D01*
X37828143Y-108508566D01*
X37922440Y-108602863D01*
X38033323Y-108676953D01*
X38156529Y-108727987D01*
X38287324Y-108754003D01*
X38420682Y-108754003D01*
X38551477Y-108727987D01*
X38674683Y-108676953D01*
X38785566Y-108602863D01*
X38879863Y-108508566D01*
X38953953Y-108397683D01*
X38966731Y-108366834D01*
X40571718Y-108366834D01*
X40610521Y-108460513D01*
X40684611Y-108571396D01*
X40778908Y-108665693D01*
X40889791Y-108739783D01*
X41012997Y-108790817D01*
X41143792Y-108816833D01*
X41277150Y-108816833D01*
X41407945Y-108790817D01*
X41531151Y-108739783D01*
X41642034Y-108665693D01*
X41736331Y-108571396D01*
X41810421Y-108460513D01*
X41861455Y-108337307D01*
X41887471Y-108206512D01*
X41887471Y-108073154D01*
X41861455Y-107942359D01*
X41810421Y-107819153D01*
X41800732Y-107804651D01*
X42663000Y-107804651D01*
X42663000Y-108046349D01*
X42710153Y-108283403D01*
X42802647Y-108506702D01*
X42936927Y-108707667D01*
X43107833Y-108878573D01*
X43308798Y-109012853D01*
X43532097Y-109105347D01*
X43769151Y-109152500D01*
X44010849Y-109152500D01*
X44247903Y-109105347D01*
X44377106Y-109051829D01*
X44629682Y-109304406D01*
X44643842Y-109321660D01*
X44712668Y-109378144D01*
X44762982Y-109405037D01*
X44791191Y-109420115D01*
X44876393Y-109445961D01*
X44965001Y-109454688D01*
X44987206Y-109452501D01*
X45239649Y-109452501D01*
X45230012Y-109470530D01*
X45208455Y-109541595D01*
X45201176Y-109615500D01*
X45201176Y-111315500D01*
X45208455Y-111389405D01*
X45230012Y-111460470D01*
X45265019Y-111525963D01*
X45312131Y-111583369D01*
X45369537Y-111630481D01*
X45435030Y-111665488D01*
X45506095Y-111687045D01*
X45580000Y-111694324D01*
X47280000Y-111694324D01*
X47353905Y-111687045D01*
X47424970Y-111665488D01*
X47490463Y-111630481D01*
X47547869Y-111583369D01*
X47594981Y-111525963D01*
X47629988Y-111460470D01*
X47651545Y-111389405D01*
X47658824Y-111315500D01*
X47658824Y-109668400D01*
X47767879Y-109668400D01*
X47898674Y-109642384D01*
X48021880Y-109591350D01*
X48132763Y-109517260D01*
X48227060Y-109422963D01*
X48301150Y-109312080D01*
X48352184Y-109188874D01*
X48378200Y-109058079D01*
X48378200Y-108924721D01*
X48352184Y-108793926D01*
X48301150Y-108670720D01*
X48227060Y-108559837D01*
X48132763Y-108465540D01*
X48021880Y-108391450D01*
X47898674Y-108340416D01*
X47856425Y-108332012D01*
X47871476Y-108282390D01*
X47750155Y-108052500D01*
X46557000Y-108052500D01*
X46557000Y-108072500D01*
X46303000Y-108072500D01*
X46303000Y-108052500D01*
X46283000Y-108052500D01*
X46283000Y-107798500D01*
X46303000Y-107798500D01*
X46303000Y-107778500D01*
X46557000Y-107778500D01*
X46557000Y-107798500D01*
X47750155Y-107798500D01*
X47871476Y-107568610D01*
X47826825Y-107421401D01*
X47701641Y-107158580D01*
X47527588Y-106925231D01*
X47311355Y-106730322D01*
X47061252Y-106581343D01*
X46893202Y-106521731D01*
X47011202Y-106472853D01*
X47212167Y-106338573D01*
X47383073Y-106167667D01*
X47517353Y-105966702D01*
X47609847Y-105743403D01*
X47657000Y-105506349D01*
X47657000Y-105264651D01*
X47609847Y-105027597D01*
X47517353Y-104804298D01*
X47383073Y-104603333D01*
X47212167Y-104432427D01*
X47011202Y-104298147D01*
X46787903Y-104205653D01*
X46550849Y-104158500D01*
X46309151Y-104158500D01*
X46072097Y-104205653D01*
X45848798Y-104298147D01*
X45647833Y-104432427D01*
X45476927Y-104603333D01*
X45342647Y-104804298D01*
X45250153Y-105027597D01*
X45203000Y-105264651D01*
X45203000Y-105506349D01*
X45250153Y-105743403D01*
X45342647Y-105966702D01*
X45476927Y-106167667D01*
X45647833Y-106338573D01*
X45848798Y-106472853D01*
X45966798Y-106521731D01*
X45798748Y-106581343D01*
X45548645Y-106730322D01*
X45332412Y-106925231D01*
X45158359Y-107158580D01*
X45033175Y-107421401D01*
X45023078Y-107454688D01*
X44977353Y-107344298D01*
X44843073Y-107143333D01*
X44672167Y-106972427D01*
X44471202Y-106838147D01*
X44247903Y-106745653D01*
X44010849Y-106698500D01*
X43769151Y-106698500D01*
X43532097Y-106745653D01*
X43308798Y-106838147D01*
X43107833Y-106972427D01*
X42936927Y-107143333D01*
X42802647Y-107344298D01*
X42710153Y-107567597D01*
X42663000Y-107804651D01*
X41800732Y-107804651D01*
X41736331Y-107708270D01*
X41642034Y-107613973D01*
X41531151Y-107539883D01*
X41407945Y-107488849D01*
X41283300Y-107464056D01*
X41204674Y-107399530D01*
X41113122Y-107350595D01*
X41013782Y-107320460D01*
X40936353Y-107312834D01*
X40910472Y-107310285D01*
X40884591Y-107312834D01*
X38617053Y-107312834D01*
X38591172Y-107310285D01*
X38565291Y-107312834D01*
X38487862Y-107320460D01*
X38388522Y-107350595D01*
X38296970Y-107399530D01*
X38296394Y-107400003D01*
X38287324Y-107400003D01*
X38156529Y-107426019D01*
X38033323Y-107477053D01*
X37922440Y-107551143D01*
X37828143Y-107645440D01*
X37754053Y-107756323D01*
X37703019Y-107879529D01*
X37677003Y-108010324D01*
X36413952Y-108010324D01*
X36413950Y-108010320D01*
X36339860Y-107899437D01*
X36245563Y-107805140D01*
X36134680Y-107731050D01*
X36011474Y-107680016D01*
X35880679Y-107654000D01*
X35747321Y-107654000D01*
X35616526Y-107680016D01*
X35493320Y-107731050D01*
X35382437Y-107805140D01*
X35288140Y-107899437D01*
X35214050Y-108010320D01*
X35163016Y-108133526D01*
X35137000Y-108264321D01*
X35137000Y-108397679D01*
X35142740Y-108426536D01*
X35002100Y-108567177D01*
X34984841Y-108581341D01*
X34928357Y-108650168D01*
X34890959Y-108720135D01*
X34886386Y-108728691D01*
X34860540Y-108813893D01*
X34851813Y-108902500D01*
X34854000Y-108924705D01*
X34854001Y-110492576D01*
X34780140Y-110566437D01*
X34706050Y-110677320D01*
X34655016Y-110800526D01*
X34629000Y-110931321D01*
X28640802Y-110931321D01*
X29053359Y-110518765D01*
X29157814Y-110518765D01*
X29288609Y-110492749D01*
X29411815Y-110441715D01*
X29522698Y-110367625D01*
X29616995Y-110273328D01*
X29691085Y-110162445D01*
X29742119Y-110039239D01*
X29768135Y-109908444D01*
X29768135Y-109775086D01*
X29742119Y-109644291D01*
X29691085Y-109521085D01*
X29616995Y-109410202D01*
X29522698Y-109315905D01*
X29411815Y-109241815D01*
X29288609Y-109190781D01*
X29157814Y-109164765D01*
X29024456Y-109164765D01*
X28893661Y-109190781D01*
X28770455Y-109241815D01*
X28659572Y-109315905D01*
X28565275Y-109410202D01*
X28491185Y-109521085D01*
X28440151Y-109644291D01*
X28414135Y-109775086D01*
X28414135Y-109879541D01*
X27763100Y-110530577D01*
X27745841Y-110544741D01*
X27689357Y-110613568D01*
X27660422Y-110667702D01*
X27647386Y-110692091D01*
X27621540Y-110777293D01*
X27612813Y-110865900D01*
X27615000Y-110888105D01*
X27615001Y-111599631D01*
X27541140Y-111673492D01*
X27467050Y-111784375D01*
X27416016Y-111907581D01*
X27390000Y-112038376D01*
X18948419Y-112038376D01*
X18948419Y-111252007D01*
X24846814Y-111252007D01*
X24846814Y-111385365D01*
X24872830Y-111516160D01*
X24923864Y-111639366D01*
X24997954Y-111750249D01*
X25092251Y-111844546D01*
X25203134Y-111918636D01*
X25326340Y-111969670D01*
X25457135Y-111995686D01*
X25590493Y-111995686D01*
X25721288Y-111969670D01*
X25844494Y-111918636D01*
X25955377Y-111844546D01*
X26049674Y-111750249D01*
X26123764Y-111639366D01*
X26174798Y-111516160D01*
X26200814Y-111385365D01*
X26200814Y-111252007D01*
X26174798Y-111121212D01*
X26123764Y-110998006D01*
X26049674Y-110887123D01*
X26036387Y-110873836D01*
X27013225Y-109897000D01*
X27117679Y-109897000D01*
X27248474Y-109870984D01*
X27371680Y-109819950D01*
X27482563Y-109745860D01*
X27576860Y-109651563D01*
X27650950Y-109540680D01*
X27701984Y-109417474D01*
X27728000Y-109286679D01*
X27728000Y-109153321D01*
X27701984Y-109022526D01*
X27650950Y-108899320D01*
X27576860Y-108788437D01*
X27482563Y-108694140D01*
X27371680Y-108620050D01*
X27248474Y-108569016D01*
X27117679Y-108543000D01*
X26984321Y-108543000D01*
X26853526Y-108569016D01*
X26730320Y-108620050D01*
X26619437Y-108694140D01*
X26525140Y-108788437D01*
X26451050Y-108899320D01*
X26400016Y-109022526D01*
X26374000Y-109153321D01*
X26374000Y-109257775D01*
X25219910Y-110411867D01*
X25202656Y-110426027D01*
X25164812Y-110472140D01*
X25146172Y-110494853D01*
X25104200Y-110573377D01*
X25078354Y-110658579D01*
X25069627Y-110747186D01*
X25071815Y-110769400D01*
X25071815Y-110813262D01*
X24997954Y-110887123D01*
X24923864Y-110998006D01*
X24872830Y-111121212D01*
X24846814Y-111252007D01*
X18948419Y-111252007D01*
X18948419Y-108479647D01*
X21650175Y-108479647D01*
X21650175Y-108613005D01*
X21676191Y-108743800D01*
X21727225Y-108867006D01*
X21801315Y-108977889D01*
X21895612Y-109072186D01*
X22006495Y-109146276D01*
X22129701Y-109197310D01*
X22260496Y-109223326D01*
X22393854Y-109223326D01*
X22524649Y-109197310D01*
X22647855Y-109146276D01*
X22758738Y-109072186D01*
X22853035Y-108977889D01*
X22927125Y-108867006D01*
X22978159Y-108743800D01*
X23004175Y-108613005D01*
X23004175Y-108537692D01*
X24794013Y-106747856D01*
X24898467Y-106747856D01*
X25029262Y-106721840D01*
X25152468Y-106670806D01*
X25263351Y-106596716D01*
X25357648Y-106502419D01*
X25431738Y-106391536D01*
X25482772Y-106268330D01*
X25508788Y-106137535D01*
X25508788Y-106004177D01*
X25482772Y-105873382D01*
X25431738Y-105750176D01*
X25357648Y-105639293D01*
X25263351Y-105544996D01*
X25152468Y-105470906D01*
X25029262Y-105419872D01*
X24898467Y-105393856D01*
X24765109Y-105393856D01*
X24634314Y-105419872D01*
X24511108Y-105470906D01*
X24400225Y-105544996D01*
X24305928Y-105639293D01*
X24231838Y-105750176D01*
X24180804Y-105873382D01*
X24154788Y-106004177D01*
X24154788Y-106108631D01*
X22394055Y-107869366D01*
X22393854Y-107869326D01*
X22260496Y-107869326D01*
X22129701Y-107895342D01*
X22006495Y-107946376D01*
X21895612Y-108020466D01*
X21801315Y-108114763D01*
X21727225Y-108225646D01*
X21676191Y-108348852D01*
X21650175Y-108479647D01*
X18948419Y-108479647D01*
X18948419Y-105264651D01*
X42663000Y-105264651D01*
X42663000Y-105506349D01*
X42710153Y-105743403D01*
X42802647Y-105966702D01*
X42936927Y-106167667D01*
X43107833Y-106338573D01*
X43308798Y-106472853D01*
X43532097Y-106565347D01*
X43769151Y-106612500D01*
X44010849Y-106612500D01*
X44247903Y-106565347D01*
X44471202Y-106472853D01*
X44672167Y-106338573D01*
X44843073Y-106167667D01*
X44977353Y-105966702D01*
X45069847Y-105743403D01*
X45117000Y-105506349D01*
X45117000Y-105264651D01*
X45069847Y-105027597D01*
X44977353Y-104804298D01*
X44843073Y-104603333D01*
X44672167Y-104432427D01*
X44471202Y-104298147D01*
X44247903Y-104205653D01*
X44010849Y-104158500D01*
X43769151Y-104158500D01*
X43532097Y-104205653D01*
X43308798Y-104298147D01*
X43107833Y-104432427D01*
X42936927Y-104603333D01*
X42802647Y-104804298D01*
X42710153Y-105027597D01*
X42663000Y-105264651D01*
X18948419Y-105264651D01*
X18948419Y-98972390D01*
X42881524Y-98972390D01*
X42926175Y-99119599D01*
X43051359Y-99382420D01*
X43225412Y-99615769D01*
X43441645Y-99810678D01*
X43636380Y-99926676D01*
X43473000Y-99926676D01*
X43399095Y-99933955D01*
X43328030Y-99955512D01*
X43262537Y-99990519D01*
X43205131Y-100037631D01*
X43158019Y-100095037D01*
X43123012Y-100160530D01*
X43101455Y-100231595D01*
X43094176Y-100305500D01*
X43094176Y-102005500D01*
X43101455Y-102079405D01*
X43123012Y-102150470D01*
X43158019Y-102215963D01*
X43205131Y-102273369D01*
X43262537Y-102320481D01*
X43328030Y-102355488D01*
X43399095Y-102377045D01*
X43473000Y-102384324D01*
X45173000Y-102384324D01*
X45246905Y-102377045D01*
X45317970Y-102355488D01*
X45383463Y-102320481D01*
X45440869Y-102273369D01*
X45487981Y-102215963D01*
X45522988Y-102150470D01*
X45544545Y-102079405D01*
X45551824Y-102005500D01*
X45551824Y-100305500D01*
X45544545Y-100231595D01*
X45522988Y-100160530D01*
X45487981Y-100095037D01*
X45440869Y-100037631D01*
X45383463Y-99990519D01*
X45317970Y-99955512D01*
X45246905Y-99933955D01*
X45173000Y-99926676D01*
X45009620Y-99926676D01*
X45204355Y-99810678D01*
X45420588Y-99615769D01*
X45594641Y-99382420D01*
X45719825Y-99119599D01*
X45764476Y-98972390D01*
X45643155Y-98742500D01*
X44450000Y-98742500D01*
X44450000Y-98762500D01*
X44196000Y-98762500D01*
X44196000Y-98742500D01*
X43002845Y-98742500D01*
X42881524Y-98972390D01*
X18948419Y-98972390D01*
X18948419Y-98258610D01*
X42881524Y-98258610D01*
X43002845Y-98488500D01*
X44196000Y-98488500D01*
X44196000Y-97294686D01*
X44450000Y-97294686D01*
X44450000Y-98488500D01*
X45643155Y-98488500D01*
X45764476Y-98258610D01*
X45719825Y-98111401D01*
X45594641Y-97848580D01*
X45420588Y-97615231D01*
X45204355Y-97420322D01*
X44954252Y-97271343D01*
X44679891Y-97174019D01*
X44450000Y-97294686D01*
X44196000Y-97294686D01*
X43966109Y-97174019D01*
X43691748Y-97271343D01*
X43441645Y-97420322D01*
X43225412Y-97615231D01*
X43051359Y-97848580D01*
X42926175Y-98111401D01*
X42881524Y-98258610D01*
X18948419Y-98258610D01*
X18948419Y-94146390D01*
X42881524Y-94146390D01*
X42926175Y-94293599D01*
X43051359Y-94556420D01*
X43225412Y-94789769D01*
X43441645Y-94984678D01*
X43691748Y-95133657D01*
X43966109Y-95230981D01*
X44196000Y-95110314D01*
X44196000Y-93916500D01*
X44450000Y-93916500D01*
X44450000Y-95110314D01*
X44679891Y-95230981D01*
X44954252Y-95133657D01*
X45204355Y-94984678D01*
X45420588Y-94789769D01*
X45594641Y-94556420D01*
X45719825Y-94293599D01*
X45764476Y-94146390D01*
X45643155Y-93916500D01*
X44450000Y-93916500D01*
X44196000Y-93916500D01*
X43002845Y-93916500D01*
X42881524Y-94146390D01*
X18948419Y-94146390D01*
X18948419Y-93432610D01*
X42881524Y-93432610D01*
X43002845Y-93662500D01*
X44196000Y-93662500D01*
X44196000Y-93642500D01*
X44450000Y-93642500D01*
X44450000Y-93662500D01*
X45643155Y-93662500D01*
X45764476Y-93432610D01*
X45719825Y-93285401D01*
X45594641Y-93022580D01*
X45420588Y-92789231D01*
X45204355Y-92594322D01*
X45009620Y-92478324D01*
X45173000Y-92478324D01*
X45246905Y-92471045D01*
X45317970Y-92449488D01*
X45383463Y-92414481D01*
X45440869Y-92367369D01*
X45487981Y-92309963D01*
X45522988Y-92244470D01*
X45544545Y-92173405D01*
X45551824Y-92099500D01*
X45551824Y-90399500D01*
X45544545Y-90325595D01*
X45522988Y-90254530D01*
X45487981Y-90189037D01*
X45440869Y-90131631D01*
X45383463Y-90084519D01*
X45317970Y-90049512D01*
X45246905Y-90027955D01*
X45173000Y-90020676D01*
X43473000Y-90020676D01*
X43399095Y-90027955D01*
X43328030Y-90049512D01*
X43262537Y-90084519D01*
X43205131Y-90131631D01*
X43158019Y-90189037D01*
X43123012Y-90254530D01*
X43101455Y-90325595D01*
X43094176Y-90399500D01*
X43094176Y-92099500D01*
X43101455Y-92173405D01*
X43123012Y-92244470D01*
X43158019Y-92309963D01*
X43205131Y-92367369D01*
X43262537Y-92414481D01*
X43328030Y-92449488D01*
X43399095Y-92471045D01*
X43473000Y-92478324D01*
X43636380Y-92478324D01*
X43441645Y-92594322D01*
X43225412Y-92789231D01*
X43051359Y-93022580D01*
X42926175Y-93285401D01*
X42881524Y-93432610D01*
X18948419Y-93432610D01*
X18948419Y-86145391D01*
X24974519Y-86145391D01*
X25071843Y-86419752D01*
X25220822Y-86669855D01*
X25415731Y-86886088D01*
X25649080Y-87060141D01*
X25911901Y-87185325D01*
X26059110Y-87229976D01*
X26289000Y-87108655D01*
X26289000Y-85915500D01*
X25095186Y-85915500D01*
X24974519Y-86145391D01*
X18948419Y-86145391D01*
X18948419Y-85431609D01*
X24974519Y-85431609D01*
X25095186Y-85661500D01*
X26289000Y-85661500D01*
X26289000Y-85641500D01*
X26543000Y-85641500D01*
X26543000Y-85661500D01*
X26563000Y-85661500D01*
X26563000Y-85915500D01*
X26543000Y-85915500D01*
X26543000Y-87108655D01*
X26772890Y-87229976D01*
X26920099Y-87185325D01*
X27182920Y-87060141D01*
X27416269Y-86886088D01*
X27611178Y-86669855D01*
X27760157Y-86419752D01*
X27819769Y-86251702D01*
X27868647Y-86369702D01*
X28002927Y-86570667D01*
X28173833Y-86741573D01*
X28374798Y-86875853D01*
X28598097Y-86968347D01*
X28835151Y-87015500D01*
X29076849Y-87015500D01*
X29313903Y-86968347D01*
X29537202Y-86875853D01*
X29738167Y-86741573D01*
X29909073Y-86570667D01*
X30043353Y-86369702D01*
X30135847Y-86146403D01*
X30183000Y-85909349D01*
X30183000Y-85667651D01*
X30269000Y-85667651D01*
X30269000Y-85909349D01*
X30316153Y-86146403D01*
X30408647Y-86369702D01*
X30542927Y-86570667D01*
X30713833Y-86741573D01*
X30914798Y-86875853D01*
X31138097Y-86968347D01*
X31375151Y-87015500D01*
X31616849Y-87015500D01*
X31853903Y-86968347D01*
X32077202Y-86875853D01*
X32278167Y-86741573D01*
X32449073Y-86570667D01*
X32583353Y-86369702D01*
X32675847Y-86146403D01*
X32723000Y-85909349D01*
X32723000Y-85667651D01*
X32675847Y-85430597D01*
X32583353Y-85207298D01*
X32449073Y-85006333D01*
X32278167Y-84835427D01*
X32077202Y-84701147D01*
X31853903Y-84608653D01*
X31616849Y-84561500D01*
X31375151Y-84561500D01*
X31138097Y-84608653D01*
X30914798Y-84701147D01*
X30713833Y-84835427D01*
X30542927Y-85006333D01*
X30408647Y-85207298D01*
X30316153Y-85430597D01*
X30269000Y-85667651D01*
X30183000Y-85667651D01*
X30135847Y-85430597D01*
X30043353Y-85207298D01*
X29909073Y-85006333D01*
X29738167Y-84835427D01*
X29537202Y-84701147D01*
X29313903Y-84608653D01*
X29076849Y-84561500D01*
X28835151Y-84561500D01*
X28598097Y-84608653D01*
X28374798Y-84701147D01*
X28173833Y-84835427D01*
X28002927Y-85006333D01*
X27868647Y-85207298D01*
X27819769Y-85325298D01*
X27760157Y-85157248D01*
X27611178Y-84907145D01*
X27416269Y-84690912D01*
X27182920Y-84516859D01*
X26920099Y-84391675D01*
X26886812Y-84381578D01*
X26997202Y-84335853D01*
X27198167Y-84201573D01*
X27369073Y-84030667D01*
X27503353Y-83829702D01*
X27595847Y-83606403D01*
X27643000Y-83369349D01*
X27643000Y-83127651D01*
X27729000Y-83127651D01*
X27729000Y-83369349D01*
X27776153Y-83606403D01*
X27868647Y-83829702D01*
X28002927Y-84030667D01*
X28173833Y-84201573D01*
X28374798Y-84335853D01*
X28598097Y-84428347D01*
X28835151Y-84475500D01*
X29076849Y-84475500D01*
X29313903Y-84428347D01*
X29537202Y-84335853D01*
X29738167Y-84201573D01*
X29909073Y-84030667D01*
X30043353Y-83829702D01*
X30135847Y-83606403D01*
X30183000Y-83369349D01*
X30183000Y-83127651D01*
X30135847Y-82890597D01*
X30043353Y-82667298D01*
X29909073Y-82466333D01*
X29841240Y-82398500D01*
X30267176Y-82398500D01*
X30267176Y-84098500D01*
X30274455Y-84172405D01*
X30296012Y-84243470D01*
X30331019Y-84308963D01*
X30378131Y-84366369D01*
X30435537Y-84413481D01*
X30501030Y-84448488D01*
X30572095Y-84470045D01*
X30646000Y-84477324D01*
X32346000Y-84477324D01*
X32419905Y-84470045D01*
X32490970Y-84448488D01*
X32556463Y-84413481D01*
X32613869Y-84366369D01*
X32660981Y-84308963D01*
X32695988Y-84243470D01*
X32717545Y-84172405D01*
X32724824Y-84098500D01*
X32724824Y-83000651D01*
X77068500Y-83000651D01*
X77068500Y-83242349D01*
X77115653Y-83479403D01*
X77208147Y-83702702D01*
X77342427Y-83903667D01*
X77513333Y-84074573D01*
X77714298Y-84208853D01*
X77937597Y-84301347D01*
X78174651Y-84348500D01*
X78416349Y-84348500D01*
X78653403Y-84301347D01*
X78876702Y-84208853D01*
X79077667Y-84074573D01*
X79248573Y-83903667D01*
X79382853Y-83702702D01*
X79475347Y-83479403D01*
X79522500Y-83242349D01*
X79522500Y-83000651D01*
X79608500Y-83000651D01*
X79608500Y-83242349D01*
X79655653Y-83479403D01*
X79748147Y-83702702D01*
X79882427Y-83903667D01*
X80053333Y-84074573D01*
X80254298Y-84208853D01*
X80477597Y-84301347D01*
X80714651Y-84348500D01*
X80956349Y-84348500D01*
X81193403Y-84301347D01*
X81416702Y-84208853D01*
X81617667Y-84074573D01*
X81788573Y-83903667D01*
X81922853Y-83702702D01*
X82015347Y-83479403D01*
X82062500Y-83242349D01*
X82062500Y-83000651D01*
X82015347Y-82763597D01*
X81922853Y-82540298D01*
X81788573Y-82339333D01*
X81720740Y-82271500D01*
X82146676Y-82271500D01*
X82146676Y-83971500D01*
X82153955Y-84045405D01*
X82175512Y-84116470D01*
X82210519Y-84181963D01*
X82257631Y-84239369D01*
X82315037Y-84286481D01*
X82380530Y-84321488D01*
X82451595Y-84343045D01*
X82525500Y-84350324D01*
X84225500Y-84350324D01*
X84299405Y-84343045D01*
X84370470Y-84321488D01*
X84435963Y-84286481D01*
X84493369Y-84239369D01*
X84540481Y-84181963D01*
X84575488Y-84116470D01*
X84597045Y-84045405D01*
X84604324Y-83971500D01*
X84604324Y-83268905D01*
X88138200Y-83268905D01*
X88138200Y-83609095D01*
X88204568Y-83942747D01*
X88334753Y-84257041D01*
X88523752Y-84539898D01*
X88764302Y-84780448D01*
X89047159Y-84969447D01*
X89361453Y-85099632D01*
X89695105Y-85166000D01*
X90035295Y-85166000D01*
X90368947Y-85099632D01*
X90683241Y-84969447D01*
X90966098Y-84780448D01*
X91206648Y-84539898D01*
X91395647Y-84257041D01*
X91525832Y-83942747D01*
X91592200Y-83609095D01*
X91592200Y-83268905D01*
X91525832Y-82935253D01*
X91395647Y-82620959D01*
X91206648Y-82338102D01*
X90966098Y-82097552D01*
X90683241Y-81908553D01*
X90368947Y-81778368D01*
X90035295Y-81712000D01*
X89695105Y-81712000D01*
X89361453Y-81778368D01*
X89047159Y-81908553D01*
X88764302Y-82097552D01*
X88523752Y-82338102D01*
X88334753Y-82620959D01*
X88204568Y-82935253D01*
X88138200Y-83268905D01*
X84604324Y-83268905D01*
X84604324Y-82271500D01*
X84597045Y-82197595D01*
X84575488Y-82126530D01*
X84540481Y-82061037D01*
X84493369Y-82003631D01*
X84435963Y-81956519D01*
X84370470Y-81921512D01*
X84299405Y-81899955D01*
X84225500Y-81892676D01*
X82525500Y-81892676D01*
X82451595Y-81899955D01*
X82380530Y-81921512D01*
X82315037Y-81956519D01*
X82257631Y-82003631D01*
X82210519Y-82061037D01*
X82175512Y-82126530D01*
X82153955Y-82197595D01*
X82146676Y-82271500D01*
X81720740Y-82271500D01*
X81617667Y-82168427D01*
X81416702Y-82034147D01*
X81193403Y-81941653D01*
X80956349Y-81894500D01*
X80714651Y-81894500D01*
X80477597Y-81941653D01*
X80254298Y-82034147D01*
X80053333Y-82168427D01*
X79882427Y-82339333D01*
X79748147Y-82540298D01*
X79655653Y-82763597D01*
X79608500Y-83000651D01*
X79522500Y-83000651D01*
X79475347Y-82763597D01*
X79382853Y-82540298D01*
X79248573Y-82339333D01*
X79077667Y-82168427D01*
X78876702Y-82034147D01*
X78653403Y-81941653D01*
X78416349Y-81894500D01*
X78174651Y-81894500D01*
X77937597Y-81941653D01*
X77714298Y-82034147D01*
X77513333Y-82168427D01*
X77342427Y-82339333D01*
X77208147Y-82540298D01*
X77115653Y-82763597D01*
X77068500Y-83000651D01*
X32724824Y-83000651D01*
X32724824Y-82398500D01*
X32717545Y-82324595D01*
X32695988Y-82253530D01*
X32660981Y-82188037D01*
X32613869Y-82130631D01*
X32556463Y-82083519D01*
X32490970Y-82048512D01*
X32419905Y-82026955D01*
X32346000Y-82019676D01*
X30646000Y-82019676D01*
X30572095Y-82026955D01*
X30501030Y-82048512D01*
X30435537Y-82083519D01*
X30378131Y-82130631D01*
X30331019Y-82188037D01*
X30296012Y-82253530D01*
X30274455Y-82324595D01*
X30267176Y-82398500D01*
X29841240Y-82398500D01*
X29738167Y-82295427D01*
X29537202Y-82161147D01*
X29313903Y-82068653D01*
X29076849Y-82021500D01*
X28835151Y-82021500D01*
X28598097Y-82068653D01*
X28374798Y-82161147D01*
X28173833Y-82295427D01*
X28002927Y-82466333D01*
X27868647Y-82667298D01*
X27776153Y-82890597D01*
X27729000Y-83127651D01*
X27643000Y-83127651D01*
X27595847Y-82890597D01*
X27503353Y-82667298D01*
X27369073Y-82466333D01*
X27198167Y-82295427D01*
X26997202Y-82161147D01*
X26773903Y-82068653D01*
X26536849Y-82021500D01*
X26295151Y-82021500D01*
X26058097Y-82068653D01*
X25834798Y-82161147D01*
X25633833Y-82295427D01*
X25462927Y-82466333D01*
X25328647Y-82667298D01*
X25236153Y-82890597D01*
X25189000Y-83127651D01*
X25189000Y-83369349D01*
X25236153Y-83606403D01*
X25328647Y-83829702D01*
X25462927Y-84030667D01*
X25633833Y-84201573D01*
X25834798Y-84335853D01*
X25945188Y-84381578D01*
X25911901Y-84391675D01*
X25649080Y-84516859D01*
X25415731Y-84690912D01*
X25220822Y-84907145D01*
X25071843Y-85157248D01*
X24974519Y-85431609D01*
X18948419Y-85431609D01*
X18948419Y-83243505D01*
X20142400Y-83243505D01*
X20142400Y-83583695D01*
X20208768Y-83917347D01*
X20338953Y-84231641D01*
X20527952Y-84514498D01*
X20768502Y-84755048D01*
X21051359Y-84944047D01*
X21365653Y-85074232D01*
X21699305Y-85140600D01*
X22039495Y-85140600D01*
X22373147Y-85074232D01*
X22687441Y-84944047D01*
X22970298Y-84755048D01*
X23210848Y-84514498D01*
X23399847Y-84231641D01*
X23530032Y-83917347D01*
X23596400Y-83583695D01*
X23596400Y-83243505D01*
X23530032Y-82909853D01*
X23399847Y-82595559D01*
X23210848Y-82312702D01*
X22970298Y-82072152D01*
X22687441Y-81883153D01*
X22373147Y-81752968D01*
X22039495Y-81686600D01*
X21699305Y-81686600D01*
X21365653Y-81752968D01*
X21051359Y-81883153D01*
X20768502Y-82072152D01*
X20527952Y-82312702D01*
X20338953Y-82595559D01*
X20208768Y-82909853D01*
X20142400Y-83243505D01*
X18948419Y-83243505D01*
X18948419Y-79525619D01*
X92791800Y-79525619D01*
X92791801Y-164369000D01*
%TA.AperFunction,Conductor*%
D18*
G36*
X92791801Y-164369000D02*
G01*
X18948419Y-164369000D01*
X18948419Y-160281705D01*
X20142400Y-160281705D01*
X20142400Y-160621895D01*
X20208768Y-160955547D01*
X20338953Y-161269841D01*
X20527952Y-161552698D01*
X20768502Y-161793248D01*
X21051359Y-161982247D01*
X21365653Y-162112432D01*
X21699305Y-162178800D01*
X22039495Y-162178800D01*
X22373147Y-162112432D01*
X22687441Y-161982247D01*
X22970298Y-161793248D01*
X23210848Y-161552698D01*
X23399847Y-161269841D01*
X23530032Y-160955547D01*
X23596400Y-160621895D01*
X23596400Y-160281705D01*
X88138200Y-160281705D01*
X88138200Y-160621895D01*
X88204568Y-160955547D01*
X88334753Y-161269841D01*
X88523752Y-161552698D01*
X88764302Y-161793248D01*
X89047159Y-161982247D01*
X89361453Y-162112432D01*
X89695105Y-162178800D01*
X90035295Y-162178800D01*
X90368947Y-162112432D01*
X90683241Y-161982247D01*
X90966098Y-161793248D01*
X91206648Y-161552698D01*
X91395647Y-161269841D01*
X91525832Y-160955547D01*
X91592200Y-160621895D01*
X91592200Y-160281705D01*
X91525832Y-159948053D01*
X91395647Y-159633759D01*
X91206648Y-159350902D01*
X90966098Y-159110352D01*
X90683241Y-158921353D01*
X90368947Y-158791168D01*
X90035295Y-158724800D01*
X89695105Y-158724800D01*
X89361453Y-158791168D01*
X89047159Y-158921353D01*
X88764302Y-159110352D01*
X88523752Y-159350902D01*
X88334753Y-159633759D01*
X88204568Y-159948053D01*
X88138200Y-160281705D01*
X23596400Y-160281705D01*
X23530032Y-159948053D01*
X23399847Y-159633759D01*
X23210848Y-159350902D01*
X22970298Y-159110352D01*
X22687441Y-158921353D01*
X22373147Y-158791168D01*
X22039495Y-158724800D01*
X21699305Y-158724800D01*
X21365653Y-158791168D01*
X21051359Y-158921353D01*
X20768502Y-159110352D01*
X20527952Y-159350902D01*
X20338953Y-159633759D01*
X20208768Y-159948053D01*
X20142400Y-160281705D01*
X18948419Y-160281705D01*
X18948419Y-156460413D01*
X29333692Y-156460413D01*
X29429456Y-156724814D01*
X29719071Y-156865704D01*
X30030608Y-156947384D01*
X30352095Y-156966718D01*
X30671175Y-156922961D01*
X30975588Y-156817795D01*
X31149544Y-156724814D01*
X31245308Y-156460413D01*
X30289500Y-155504605D01*
X29333692Y-156460413D01*
X18948419Y-156460413D01*
X18948419Y-155387595D01*
X28647782Y-155387595D01*
X28691539Y-155706675D01*
X28796705Y-156011088D01*
X28889686Y-156185044D01*
X29154087Y-156280808D01*
X30109895Y-155325000D01*
X30469105Y-155325000D01*
X31424913Y-156280808D01*
X31689314Y-156185044D01*
X31830204Y-155895429D01*
X31911884Y-155583892D01*
X31931218Y-155262405D01*
X31912425Y-155125358D01*
X55427500Y-155125358D01*
X55427500Y-155524642D01*
X55505396Y-155916254D01*
X55658196Y-156285145D01*
X55880026Y-156617137D01*
X56162363Y-156899474D01*
X56494355Y-157121304D01*
X56863246Y-157274104D01*
X57254858Y-157352000D01*
X57654142Y-157352000D01*
X58045754Y-157274104D01*
X58414645Y-157121304D01*
X58746637Y-156899474D01*
X59028974Y-156617137D01*
X59250804Y-156285145D01*
X59403604Y-155916254D01*
X59481500Y-155524642D01*
X59481500Y-155125358D01*
X59403604Y-154733746D01*
X59250804Y-154364855D01*
X59028974Y-154032863D01*
X58746637Y-153750526D01*
X58414645Y-153528696D01*
X58045754Y-153375896D01*
X57654142Y-153298000D01*
X57254858Y-153298000D01*
X56863246Y-153375896D01*
X56494355Y-153528696D01*
X56162363Y-153750526D01*
X55880026Y-154032863D01*
X55658196Y-154364855D01*
X55505396Y-154733746D01*
X55427500Y-155125358D01*
X31912425Y-155125358D01*
X31887461Y-154943325D01*
X31782295Y-154638912D01*
X31689314Y-154464956D01*
X31424913Y-154369192D01*
X30469105Y-155325000D01*
X30109895Y-155325000D01*
X29154087Y-154369192D01*
X28889686Y-154464956D01*
X28748796Y-154754571D01*
X28667116Y-155066108D01*
X28647782Y-155387595D01*
X18948419Y-155387595D01*
X18948419Y-152820000D01*
X23155176Y-152820000D01*
X23155176Y-154520000D01*
X23162455Y-154593905D01*
X23184012Y-154664970D01*
X23219019Y-154730463D01*
X23266131Y-154787869D01*
X23323537Y-154834981D01*
X23389030Y-154869988D01*
X23460095Y-154891545D01*
X23534000Y-154898824D01*
X25234000Y-154898824D01*
X25307905Y-154891545D01*
X25378970Y-154869988D01*
X25444463Y-154834981D01*
X25501869Y-154787869D01*
X25548981Y-154730463D01*
X25583988Y-154664970D01*
X25605545Y-154593905D01*
X25612824Y-154520000D01*
X25612824Y-154189587D01*
X29333692Y-154189587D01*
X30289500Y-155145395D01*
X31245308Y-154189587D01*
X31149544Y-153925186D01*
X30859929Y-153784296D01*
X30548392Y-153702616D01*
X30226905Y-153683282D01*
X29907825Y-153727039D01*
X29603412Y-153832205D01*
X29429456Y-153925186D01*
X29333692Y-154189587D01*
X25612824Y-154189587D01*
X25612824Y-152820000D01*
X25605545Y-152746095D01*
X25583988Y-152675030D01*
X25548981Y-152609537D01*
X25501869Y-152552131D01*
X25444463Y-152505019D01*
X25378970Y-152470012D01*
X25307905Y-152448455D01*
X25234000Y-152441176D01*
X23534000Y-152441176D01*
X23460095Y-152448455D01*
X23389030Y-152470012D01*
X23323537Y-152505019D01*
X23266131Y-152552131D01*
X23219019Y-152609537D01*
X23184012Y-152675030D01*
X23162455Y-152746095D01*
X23155176Y-152820000D01*
X18948419Y-152820000D01*
X18948419Y-151009151D01*
X23157000Y-151009151D01*
X23157000Y-151250849D01*
X23204153Y-151487903D01*
X23296647Y-151711202D01*
X23430927Y-151912167D01*
X23601833Y-152083073D01*
X23802798Y-152217353D01*
X24026097Y-152309847D01*
X24263151Y-152357000D01*
X24504849Y-152357000D01*
X24741903Y-152309847D01*
X24965202Y-152217353D01*
X25166167Y-152083073D01*
X25337073Y-151912167D01*
X25471353Y-151711202D01*
X25563847Y-151487903D01*
X25611000Y-151250849D01*
X25611000Y-151009151D01*
X25563847Y-150772097D01*
X25471353Y-150548798D01*
X25337073Y-150347833D01*
X25166167Y-150176927D01*
X24965202Y-150042647D01*
X24741903Y-149950153D01*
X24504849Y-149903000D01*
X24263151Y-149903000D01*
X24026097Y-149950153D01*
X23802798Y-150042647D01*
X23601833Y-150176927D01*
X23430927Y-150347833D01*
X23296647Y-150548798D01*
X23204153Y-150772097D01*
X23157000Y-151009151D01*
X18948419Y-151009151D01*
X18948419Y-139335000D01*
X28910676Y-139335000D01*
X28910676Y-141335000D01*
X28917955Y-141408905D01*
X28939512Y-141479970D01*
X28974519Y-141545463D01*
X29021631Y-141602869D01*
X29079037Y-141649981D01*
X29144530Y-141684988D01*
X29215595Y-141706545D01*
X29289500Y-141713824D01*
X31289500Y-141713824D01*
X31363405Y-141706545D01*
X31434470Y-141684988D01*
X31499963Y-141649981D01*
X31557369Y-141602869D01*
X31604481Y-141545463D01*
X31639488Y-141479970D01*
X31661045Y-141408905D01*
X31668324Y-141335000D01*
X31668324Y-140135358D01*
X55427500Y-140135358D01*
X55427500Y-140534642D01*
X55505396Y-140926254D01*
X55658196Y-141295145D01*
X55880026Y-141627137D01*
X56162363Y-141909474D01*
X56494355Y-142131304D01*
X56863246Y-142284104D01*
X57254858Y-142362000D01*
X57654142Y-142362000D01*
X58045754Y-142284104D01*
X58414645Y-142131304D01*
X58746637Y-141909474D01*
X59028974Y-141627137D01*
X59250804Y-141295145D01*
X59403604Y-140926254D01*
X59481500Y-140534642D01*
X59481500Y-140135358D01*
X59403604Y-139743746D01*
X59250804Y-139374855D01*
X59028974Y-139042863D01*
X58746637Y-138760526D01*
X58414645Y-138538696D01*
X58045754Y-138385896D01*
X57654142Y-138308000D01*
X57254858Y-138308000D01*
X56863246Y-138385896D01*
X56494355Y-138538696D01*
X56162363Y-138760526D01*
X55880026Y-139042863D01*
X55658196Y-139374855D01*
X55505396Y-139743746D01*
X55427500Y-140135358D01*
X31668324Y-140135358D01*
X31668324Y-139335000D01*
X31661045Y-139261095D01*
X31639488Y-139190030D01*
X31604481Y-139124537D01*
X31557369Y-139067131D01*
X31499963Y-139020019D01*
X31434470Y-138985012D01*
X31363405Y-138963455D01*
X31289500Y-138956176D01*
X29289500Y-138956176D01*
X29215595Y-138963455D01*
X29144530Y-138985012D01*
X29079037Y-139020019D01*
X29021631Y-139067131D01*
X28974519Y-139124537D01*
X28939512Y-139190030D01*
X28917955Y-139261095D01*
X28910676Y-139335000D01*
X18948419Y-139335000D01*
X18948419Y-128359800D01*
X26888976Y-128359800D01*
X26888976Y-130059800D01*
X26896255Y-130133705D01*
X26917812Y-130204770D01*
X26952819Y-130270263D01*
X26999931Y-130327669D01*
X27057337Y-130374781D01*
X27122830Y-130409788D01*
X27193895Y-130431345D01*
X27267800Y-130438624D01*
X28967800Y-130438624D01*
X29041705Y-130431345D01*
X29112770Y-130409788D01*
X29178263Y-130374781D01*
X29235669Y-130327669D01*
X29282781Y-130270263D01*
X29317788Y-130204770D01*
X29339345Y-130133705D01*
X29346624Y-130059800D01*
X29346624Y-129088951D01*
X29430800Y-129088951D01*
X29430800Y-129330649D01*
X29477953Y-129567703D01*
X29570447Y-129791002D01*
X29704727Y-129991967D01*
X29875633Y-130162873D01*
X30076598Y-130297153D01*
X30299897Y-130389647D01*
X30536951Y-130436800D01*
X30778649Y-130436800D01*
X31015703Y-130389647D01*
X31239002Y-130297153D01*
X31439967Y-130162873D01*
X31610873Y-129991967D01*
X31745153Y-129791002D01*
X31837647Y-129567703D01*
X31884800Y-129330649D01*
X31884800Y-129088951D01*
X31970800Y-129088951D01*
X31970800Y-129330649D01*
X32017953Y-129567703D01*
X32110447Y-129791002D01*
X32244727Y-129991967D01*
X32415633Y-130162873D01*
X32616598Y-130297153D01*
X32839897Y-130389647D01*
X33076951Y-130436800D01*
X33318649Y-130436800D01*
X33555703Y-130389647D01*
X33779002Y-130297153D01*
X33979967Y-130162873D01*
X34150873Y-129991967D01*
X34285153Y-129791002D01*
X34377647Y-129567703D01*
X34424800Y-129330649D01*
X34424800Y-129088951D01*
X34510800Y-129088951D01*
X34510800Y-129330649D01*
X34557953Y-129567703D01*
X34650447Y-129791002D01*
X34784727Y-129991967D01*
X34955633Y-130162873D01*
X35156598Y-130297153D01*
X35379897Y-130389647D01*
X35616951Y-130436800D01*
X35858649Y-130436800D01*
X36095703Y-130389647D01*
X36319002Y-130297153D01*
X36519967Y-130162873D01*
X36690873Y-129991967D01*
X36825153Y-129791002D01*
X36917647Y-129567703D01*
X36964800Y-129330649D01*
X36964800Y-129088951D01*
X37050800Y-129088951D01*
X37050800Y-129330649D01*
X37097953Y-129567703D01*
X37190447Y-129791002D01*
X37324727Y-129991967D01*
X37495633Y-130162873D01*
X37696598Y-130297153D01*
X37919897Y-130389647D01*
X38156951Y-130436800D01*
X38398649Y-130436800D01*
X38635703Y-130389647D01*
X38859002Y-130297153D01*
X39059967Y-130162873D01*
X39230873Y-129991967D01*
X39365153Y-129791002D01*
X39414031Y-129673002D01*
X39473643Y-129841052D01*
X39622622Y-130091155D01*
X39817531Y-130307388D01*
X40050880Y-130481441D01*
X40313701Y-130606625D01*
X40460910Y-130651276D01*
X40690800Y-130529955D01*
X40690800Y-129336800D01*
X40944800Y-129336800D01*
X40944800Y-130529955D01*
X41174690Y-130651276D01*
X41321899Y-130606625D01*
X41584720Y-130481441D01*
X41818069Y-130307388D01*
X42012978Y-130091155D01*
X42161957Y-129841052D01*
X42259281Y-129566691D01*
X42138614Y-129336800D01*
X40944800Y-129336800D01*
X40690800Y-129336800D01*
X40670800Y-129336800D01*
X40670800Y-129082800D01*
X40690800Y-129082800D01*
X40690800Y-127889645D01*
X40944800Y-127889645D01*
X40944800Y-129082800D01*
X42138614Y-129082800D01*
X42259281Y-128852909D01*
X42161957Y-128578548D01*
X42012978Y-128328445D01*
X41818069Y-128112212D01*
X41584720Y-127938159D01*
X41321899Y-127812975D01*
X41174690Y-127768324D01*
X40944800Y-127889645D01*
X40690800Y-127889645D01*
X40460910Y-127768324D01*
X40313701Y-127812975D01*
X40050880Y-127938159D01*
X39817531Y-128112212D01*
X39622622Y-128328445D01*
X39473643Y-128578548D01*
X39414031Y-128746598D01*
X39365153Y-128628598D01*
X39230873Y-128427633D01*
X39059967Y-128256727D01*
X38859002Y-128122447D01*
X38635703Y-128029953D01*
X38398649Y-127982800D01*
X38156951Y-127982800D01*
X37919897Y-128029953D01*
X37696598Y-128122447D01*
X37495633Y-128256727D01*
X37324727Y-128427633D01*
X37190447Y-128628598D01*
X37097953Y-128851897D01*
X37050800Y-129088951D01*
X36964800Y-129088951D01*
X36917647Y-128851897D01*
X36825153Y-128628598D01*
X36690873Y-128427633D01*
X36519967Y-128256727D01*
X36319002Y-128122447D01*
X36095703Y-128029953D01*
X35858649Y-127982800D01*
X35616951Y-127982800D01*
X35379897Y-128029953D01*
X35156598Y-128122447D01*
X34955633Y-128256727D01*
X34784727Y-128427633D01*
X34650447Y-128628598D01*
X34557953Y-128851897D01*
X34510800Y-129088951D01*
X34424800Y-129088951D01*
X34377647Y-128851897D01*
X34285153Y-128628598D01*
X34150873Y-128427633D01*
X33979967Y-128256727D01*
X33779002Y-128122447D01*
X33555703Y-128029953D01*
X33318649Y-127982800D01*
X33076951Y-127982800D01*
X32839897Y-128029953D01*
X32616598Y-128122447D01*
X32415633Y-128256727D01*
X32244727Y-128427633D01*
X32110447Y-128628598D01*
X32017953Y-128851897D01*
X31970800Y-129088951D01*
X31884800Y-129088951D01*
X31837647Y-128851897D01*
X31745153Y-128628598D01*
X31610873Y-128427633D01*
X31439967Y-128256727D01*
X31239002Y-128122447D01*
X31015703Y-128029953D01*
X30778649Y-127982800D01*
X30536951Y-127982800D01*
X30299897Y-128029953D01*
X30076598Y-128122447D01*
X29875633Y-128256727D01*
X29704727Y-128427633D01*
X29570447Y-128628598D01*
X29477953Y-128851897D01*
X29430800Y-129088951D01*
X29346624Y-129088951D01*
X29346624Y-128359800D01*
X29339345Y-128285895D01*
X29317788Y-128214830D01*
X29282781Y-128149337D01*
X29235669Y-128091931D01*
X29178263Y-128044819D01*
X29112770Y-128009812D01*
X29041705Y-127988255D01*
X28967800Y-127980976D01*
X27267800Y-127980976D01*
X27193895Y-127988255D01*
X27122830Y-128009812D01*
X27057337Y-128044819D01*
X26999931Y-128091931D01*
X26952819Y-128149337D01*
X26917812Y-128214830D01*
X26896255Y-128285895D01*
X26888976Y-128359800D01*
X18948419Y-128359800D01*
X18948419Y-127651000D01*
X42796693Y-127651000D01*
X42799000Y-127674423D01*
X42799001Y-130627567D01*
X42796693Y-130651000D01*
X42805903Y-130744508D01*
X42833178Y-130834423D01*
X42877471Y-130917289D01*
X42937079Y-130989921D01*
X43009711Y-131049529D01*
X43092577Y-131093822D01*
X43182492Y-131121097D01*
X43252577Y-131128000D01*
X43252578Y-131128000D01*
X43276000Y-131130307D01*
X43299423Y-131128000D01*
X67802577Y-131128000D01*
X67826000Y-131130307D01*
X67849422Y-131128000D01*
X67849423Y-131128000D01*
X67919508Y-131121097D01*
X68009423Y-131093822D01*
X68092289Y-131049529D01*
X68164921Y-130989921D01*
X68224529Y-130917289D01*
X68268822Y-130834423D01*
X68296097Y-130744508D01*
X68305307Y-130651000D01*
X68303000Y-130627577D01*
X68303000Y-127674423D01*
X68305307Y-127651000D01*
X68296097Y-127557492D01*
X68268822Y-127467577D01*
X68224529Y-127384711D01*
X68164921Y-127312079D01*
X68092289Y-127252471D01*
X68009423Y-127208178D01*
X67919508Y-127180903D01*
X67849423Y-127174000D01*
X67826000Y-127171693D01*
X67802578Y-127174000D01*
X43299422Y-127174000D01*
X43276000Y-127171693D01*
X43252577Y-127174000D01*
X43182492Y-127180903D01*
X43092577Y-127208178D01*
X43009711Y-127252471D01*
X42937079Y-127312079D01*
X42877471Y-127384711D01*
X42833178Y-127467577D01*
X42805903Y-127557492D01*
X42796693Y-127651000D01*
X18948419Y-127651000D01*
X18948419Y-125388391D01*
X76854019Y-125388391D01*
X76951343Y-125662752D01*
X77100322Y-125912855D01*
X77295231Y-126129088D01*
X77528580Y-126303141D01*
X77791401Y-126428325D01*
X77938610Y-126472976D01*
X78168500Y-126351655D01*
X78168500Y-125158500D01*
X76974686Y-125158500D01*
X76854019Y-125388391D01*
X18948419Y-125388391D01*
X18948419Y-124674609D01*
X76854019Y-124674609D01*
X76974686Y-124904500D01*
X78168500Y-124904500D01*
X78168500Y-123711345D01*
X78422500Y-123711345D01*
X78422500Y-124904500D01*
X78442500Y-124904500D01*
X78442500Y-125158500D01*
X78422500Y-125158500D01*
X78422500Y-126351655D01*
X78652390Y-126472976D01*
X78799599Y-126428325D01*
X79062420Y-126303141D01*
X79295769Y-126129088D01*
X79490678Y-125912855D01*
X79639657Y-125662752D01*
X79699269Y-125494702D01*
X79748147Y-125612702D01*
X79882427Y-125813667D01*
X80053333Y-125984573D01*
X80254298Y-126118853D01*
X80477597Y-126211347D01*
X80714651Y-126258500D01*
X80956349Y-126258500D01*
X81193403Y-126211347D01*
X81416702Y-126118853D01*
X81617667Y-125984573D01*
X81788573Y-125813667D01*
X81922853Y-125612702D01*
X82015347Y-125389403D01*
X82062500Y-125152349D01*
X82062500Y-124910651D01*
X82015347Y-124673597D01*
X81922853Y-124450298D01*
X81788573Y-124249333D01*
X81720740Y-124181500D01*
X82146676Y-124181500D01*
X82146676Y-125881500D01*
X82153955Y-125955405D01*
X82175512Y-126026470D01*
X82210519Y-126091963D01*
X82257631Y-126149369D01*
X82315037Y-126196481D01*
X82380530Y-126231488D01*
X82451595Y-126253045D01*
X82525500Y-126260324D01*
X84225500Y-126260324D01*
X84299405Y-126253045D01*
X84370470Y-126231488D01*
X84435963Y-126196481D01*
X84493369Y-126149369D01*
X84540481Y-126091963D01*
X84575488Y-126026470D01*
X84597045Y-125955405D01*
X84604324Y-125881500D01*
X84604324Y-124181500D01*
X84597045Y-124107595D01*
X84575488Y-124036530D01*
X84540481Y-123971037D01*
X84493369Y-123913631D01*
X84435963Y-123866519D01*
X84370470Y-123831512D01*
X84299405Y-123809955D01*
X84225500Y-123802676D01*
X82525500Y-123802676D01*
X82451595Y-123809955D01*
X82380530Y-123831512D01*
X82315037Y-123866519D01*
X82257631Y-123913631D01*
X82210519Y-123971037D01*
X82175512Y-124036530D01*
X82153955Y-124107595D01*
X82146676Y-124181500D01*
X81720740Y-124181500D01*
X81617667Y-124078427D01*
X81416702Y-123944147D01*
X81193403Y-123851653D01*
X80956349Y-123804500D01*
X80714651Y-123804500D01*
X80477597Y-123851653D01*
X80254298Y-123944147D01*
X80053333Y-124078427D01*
X79882427Y-124249333D01*
X79748147Y-124450298D01*
X79699269Y-124568298D01*
X79639657Y-124400248D01*
X79490678Y-124150145D01*
X79295769Y-123933912D01*
X79062420Y-123759859D01*
X78799599Y-123634675D01*
X78652390Y-123590024D01*
X78422500Y-123711345D01*
X78168500Y-123711345D01*
X77938610Y-123590024D01*
X77791401Y-123634675D01*
X77528580Y-123759859D01*
X77295231Y-123933912D01*
X77100322Y-124150145D01*
X76951343Y-124400248D01*
X76854019Y-124674609D01*
X18948419Y-124674609D01*
X18948419Y-119757821D01*
X42693502Y-119757821D01*
X42693502Y-119891179D01*
X42719518Y-120021974D01*
X42770552Y-120145180D01*
X42844642Y-120256063D01*
X42938939Y-120350360D01*
X43049822Y-120424450D01*
X43173028Y-120475484D01*
X43303823Y-120501500D01*
X43437181Y-120501500D01*
X43567976Y-120475484D01*
X43691182Y-120424450D01*
X43748216Y-120386341D01*
X45383353Y-120386341D01*
X45492530Y-120459291D01*
X45615736Y-120510325D01*
X45746531Y-120536341D01*
X45879889Y-120536341D01*
X46010684Y-120510325D01*
X46133890Y-120459291D01*
X46244773Y-120385201D01*
X46339070Y-120290904D01*
X46413160Y-120180021D01*
X46464194Y-120056815D01*
X46490210Y-119926020D01*
X46490210Y-119792662D01*
X46464194Y-119661867D01*
X46413160Y-119538661D01*
X46339070Y-119427778D01*
X46244773Y-119333481D01*
X46133890Y-119259391D01*
X46010684Y-119208357D01*
X45879889Y-119182341D01*
X45746531Y-119182341D01*
X45615736Y-119208357D01*
X45492530Y-119259391D01*
X45383353Y-119332341D01*
X43835766Y-119332341D01*
X43802065Y-119298640D01*
X43691182Y-119224550D01*
X43567976Y-119173516D01*
X43437181Y-119147500D01*
X43303823Y-119147500D01*
X43173028Y-119173516D01*
X43049822Y-119224550D01*
X42938939Y-119298640D01*
X42844642Y-119392937D01*
X42770552Y-119503820D01*
X42719518Y-119627026D01*
X42693502Y-119757821D01*
X18948419Y-119757821D01*
X18948419Y-112038376D01*
X27390000Y-112038376D01*
X27390000Y-112171734D01*
X27416016Y-112302529D01*
X27467050Y-112425735D01*
X27541140Y-112536618D01*
X27635437Y-112630915D01*
X27746320Y-112705005D01*
X27869526Y-112756039D01*
X28000321Y-112782055D01*
X28133679Y-112782055D01*
X28264474Y-112756039D01*
X28387680Y-112705005D01*
X28498563Y-112630915D01*
X28592860Y-112536618D01*
X28666950Y-112425735D01*
X28717984Y-112302529D01*
X28744000Y-112171734D01*
X28744000Y-112038376D01*
X28717984Y-111907581D01*
X28666950Y-111784375D01*
X28592860Y-111673492D01*
X28519000Y-111599632D01*
X28519000Y-111053123D01*
X28640802Y-110931321D01*
X34629000Y-110931321D01*
X34629000Y-111064679D01*
X34655016Y-111195474D01*
X34706050Y-111318680D01*
X34780140Y-111429563D01*
X34874437Y-111523860D01*
X34985320Y-111597950D01*
X35108526Y-111648984D01*
X35239321Y-111675000D01*
X35372679Y-111675000D01*
X35503474Y-111648984D01*
X35626680Y-111597950D01*
X35737563Y-111523860D01*
X35831860Y-111429563D01*
X35905950Y-111318680D01*
X35956984Y-111195474D01*
X35983000Y-111064679D01*
X35983000Y-110931321D01*
X35956984Y-110800526D01*
X35905950Y-110677320D01*
X35831860Y-110566437D01*
X35758000Y-110492577D01*
X35758000Y-110344651D01*
X42663000Y-110344651D01*
X42663000Y-110586349D01*
X42710153Y-110823403D01*
X42802647Y-111046702D01*
X42936927Y-111247667D01*
X43107833Y-111418573D01*
X43308798Y-111552853D01*
X43532097Y-111645347D01*
X43769151Y-111692500D01*
X44010849Y-111692500D01*
X44247903Y-111645347D01*
X44471202Y-111552853D01*
X44672167Y-111418573D01*
X44843073Y-111247667D01*
X44977353Y-111046702D01*
X45069847Y-110823403D01*
X45117000Y-110586349D01*
X45117000Y-110344651D01*
X45069847Y-110107597D01*
X44977353Y-109884298D01*
X44843073Y-109683333D01*
X44672167Y-109512427D01*
X44471202Y-109378147D01*
X44247903Y-109285653D01*
X44010849Y-109238500D01*
X43769151Y-109238500D01*
X43532097Y-109285653D01*
X43308798Y-109378147D01*
X43107833Y-109512427D01*
X42936927Y-109683333D01*
X42802647Y-109884298D01*
X42710153Y-110107597D01*
X42663000Y-110344651D01*
X35758000Y-110344651D01*
X35758000Y-109089724D01*
X35839724Y-109008000D01*
X35880679Y-109008000D01*
X36011474Y-108981984D01*
X36134680Y-108930950D01*
X36245563Y-108856860D01*
X36339860Y-108762563D01*
X36413950Y-108651680D01*
X36464984Y-108528474D01*
X36491000Y-108397679D01*
X36491000Y-108264321D01*
X36464984Y-108133526D01*
X36413952Y-108010324D01*
X37677003Y-108010324D01*
X37677003Y-108143682D01*
X37703019Y-108274477D01*
X37754053Y-108397683D01*
X37828143Y-108508566D01*
X37922440Y-108602863D01*
X38033323Y-108676953D01*
X38156529Y-108727987D01*
X38287324Y-108754003D01*
X38420682Y-108754003D01*
X38551477Y-108727987D01*
X38674683Y-108676953D01*
X38785566Y-108602863D01*
X38879863Y-108508566D01*
X38953953Y-108397683D01*
X38966731Y-108366834D01*
X40571718Y-108366834D01*
X40610521Y-108460513D01*
X40684611Y-108571396D01*
X40778908Y-108665693D01*
X40889791Y-108739783D01*
X41012997Y-108790817D01*
X41143792Y-108816833D01*
X41277150Y-108816833D01*
X41407945Y-108790817D01*
X41531151Y-108739783D01*
X41642034Y-108665693D01*
X41736331Y-108571396D01*
X41810421Y-108460513D01*
X41861455Y-108337307D01*
X41887471Y-108206512D01*
X41887471Y-108073154D01*
X41861455Y-107942359D01*
X41810421Y-107819153D01*
X41800732Y-107804651D01*
X42663000Y-107804651D01*
X42663000Y-108046349D01*
X42710153Y-108283403D01*
X42802647Y-108506702D01*
X42936927Y-108707667D01*
X43107833Y-108878573D01*
X43308798Y-109012853D01*
X43532097Y-109105347D01*
X43769151Y-109152500D01*
X44010849Y-109152500D01*
X44247903Y-109105347D01*
X44377106Y-109051829D01*
X44629682Y-109304406D01*
X44643842Y-109321660D01*
X44712668Y-109378144D01*
X44762982Y-109405037D01*
X44791191Y-109420115D01*
X44876393Y-109445961D01*
X44965001Y-109454688D01*
X44987206Y-109452501D01*
X45239649Y-109452501D01*
X45230012Y-109470530D01*
X45208455Y-109541595D01*
X45201176Y-109615500D01*
X45201176Y-111315500D01*
X45208455Y-111389405D01*
X45230012Y-111460470D01*
X45265019Y-111525963D01*
X45312131Y-111583369D01*
X45369537Y-111630481D01*
X45435030Y-111665488D01*
X45506095Y-111687045D01*
X45580000Y-111694324D01*
X47280000Y-111694324D01*
X47353905Y-111687045D01*
X47424970Y-111665488D01*
X47490463Y-111630481D01*
X47547869Y-111583369D01*
X47594981Y-111525963D01*
X47629988Y-111460470D01*
X47651545Y-111389405D01*
X47658824Y-111315500D01*
X47658824Y-109668400D01*
X47767879Y-109668400D01*
X47898674Y-109642384D01*
X48021880Y-109591350D01*
X48132763Y-109517260D01*
X48227060Y-109422963D01*
X48301150Y-109312080D01*
X48352184Y-109188874D01*
X48378200Y-109058079D01*
X48378200Y-108924721D01*
X48352184Y-108793926D01*
X48301150Y-108670720D01*
X48227060Y-108559837D01*
X48132763Y-108465540D01*
X48021880Y-108391450D01*
X47898674Y-108340416D01*
X47856425Y-108332012D01*
X47871476Y-108282390D01*
X47750155Y-108052500D01*
X46557000Y-108052500D01*
X46557000Y-108072500D01*
X46303000Y-108072500D01*
X46303000Y-108052500D01*
X46283000Y-108052500D01*
X46283000Y-107798500D01*
X46303000Y-107798500D01*
X46303000Y-107778500D01*
X46557000Y-107778500D01*
X46557000Y-107798500D01*
X47750155Y-107798500D01*
X47871476Y-107568610D01*
X47826825Y-107421401D01*
X47701641Y-107158580D01*
X47527588Y-106925231D01*
X47311355Y-106730322D01*
X47061252Y-106581343D01*
X46893202Y-106521731D01*
X47011202Y-106472853D01*
X47212167Y-106338573D01*
X47383073Y-106167667D01*
X47517353Y-105966702D01*
X47609847Y-105743403D01*
X47657000Y-105506349D01*
X47657000Y-105264651D01*
X47609847Y-105027597D01*
X47517353Y-104804298D01*
X47383073Y-104603333D01*
X47212167Y-104432427D01*
X47011202Y-104298147D01*
X46787903Y-104205653D01*
X46550849Y-104158500D01*
X46309151Y-104158500D01*
X46072097Y-104205653D01*
X45848798Y-104298147D01*
X45647833Y-104432427D01*
X45476927Y-104603333D01*
X45342647Y-104804298D01*
X45250153Y-105027597D01*
X45203000Y-105264651D01*
X45203000Y-105506349D01*
X45250153Y-105743403D01*
X45342647Y-105966702D01*
X45476927Y-106167667D01*
X45647833Y-106338573D01*
X45848798Y-106472853D01*
X45966798Y-106521731D01*
X45798748Y-106581343D01*
X45548645Y-106730322D01*
X45332412Y-106925231D01*
X45158359Y-107158580D01*
X45033175Y-107421401D01*
X45023078Y-107454688D01*
X44977353Y-107344298D01*
X44843073Y-107143333D01*
X44672167Y-106972427D01*
X44471202Y-106838147D01*
X44247903Y-106745653D01*
X44010849Y-106698500D01*
X43769151Y-106698500D01*
X43532097Y-106745653D01*
X43308798Y-106838147D01*
X43107833Y-106972427D01*
X42936927Y-107143333D01*
X42802647Y-107344298D01*
X42710153Y-107567597D01*
X42663000Y-107804651D01*
X41800732Y-107804651D01*
X41736331Y-107708270D01*
X41642034Y-107613973D01*
X41531151Y-107539883D01*
X41407945Y-107488849D01*
X41283300Y-107464056D01*
X41204674Y-107399530D01*
X41113122Y-107350595D01*
X41013782Y-107320460D01*
X40936353Y-107312834D01*
X40910472Y-107310285D01*
X40884591Y-107312834D01*
X38617053Y-107312834D01*
X38591172Y-107310285D01*
X38565291Y-107312834D01*
X38487862Y-107320460D01*
X38388522Y-107350595D01*
X38296970Y-107399530D01*
X38296394Y-107400003D01*
X38287324Y-107400003D01*
X38156529Y-107426019D01*
X38033323Y-107477053D01*
X37922440Y-107551143D01*
X37828143Y-107645440D01*
X37754053Y-107756323D01*
X37703019Y-107879529D01*
X37677003Y-108010324D01*
X36413952Y-108010324D01*
X36413950Y-108010320D01*
X36339860Y-107899437D01*
X36245563Y-107805140D01*
X36134680Y-107731050D01*
X36011474Y-107680016D01*
X35880679Y-107654000D01*
X35747321Y-107654000D01*
X35616526Y-107680016D01*
X35493320Y-107731050D01*
X35382437Y-107805140D01*
X35288140Y-107899437D01*
X35214050Y-108010320D01*
X35163016Y-108133526D01*
X35137000Y-108264321D01*
X35137000Y-108397679D01*
X35142740Y-108426536D01*
X35002100Y-108567177D01*
X34984841Y-108581341D01*
X34928357Y-108650168D01*
X34890959Y-108720135D01*
X34886386Y-108728691D01*
X34860540Y-108813893D01*
X34851813Y-108902500D01*
X34854000Y-108924705D01*
X34854001Y-110492576D01*
X34780140Y-110566437D01*
X34706050Y-110677320D01*
X34655016Y-110800526D01*
X34629000Y-110931321D01*
X28640802Y-110931321D01*
X29053359Y-110518765D01*
X29157814Y-110518765D01*
X29288609Y-110492749D01*
X29411815Y-110441715D01*
X29522698Y-110367625D01*
X29616995Y-110273328D01*
X29691085Y-110162445D01*
X29742119Y-110039239D01*
X29768135Y-109908444D01*
X29768135Y-109775086D01*
X29742119Y-109644291D01*
X29691085Y-109521085D01*
X29616995Y-109410202D01*
X29522698Y-109315905D01*
X29411815Y-109241815D01*
X29288609Y-109190781D01*
X29157814Y-109164765D01*
X29024456Y-109164765D01*
X28893661Y-109190781D01*
X28770455Y-109241815D01*
X28659572Y-109315905D01*
X28565275Y-109410202D01*
X28491185Y-109521085D01*
X28440151Y-109644291D01*
X28414135Y-109775086D01*
X28414135Y-109879541D01*
X27763100Y-110530577D01*
X27745841Y-110544741D01*
X27689357Y-110613568D01*
X27660422Y-110667702D01*
X27647386Y-110692091D01*
X27621540Y-110777293D01*
X27612813Y-110865900D01*
X27615000Y-110888105D01*
X27615001Y-111599631D01*
X27541140Y-111673492D01*
X27467050Y-111784375D01*
X27416016Y-111907581D01*
X27390000Y-112038376D01*
X18948419Y-112038376D01*
X18948419Y-111252007D01*
X24846814Y-111252007D01*
X24846814Y-111385365D01*
X24872830Y-111516160D01*
X24923864Y-111639366D01*
X24997954Y-111750249D01*
X25092251Y-111844546D01*
X25203134Y-111918636D01*
X25326340Y-111969670D01*
X25457135Y-111995686D01*
X25590493Y-111995686D01*
X25721288Y-111969670D01*
X25844494Y-111918636D01*
X25955377Y-111844546D01*
X26049674Y-111750249D01*
X26123764Y-111639366D01*
X26174798Y-111516160D01*
X26200814Y-111385365D01*
X26200814Y-111252007D01*
X26174798Y-111121212D01*
X26123764Y-110998006D01*
X26049674Y-110887123D01*
X26036387Y-110873836D01*
X27013225Y-109897000D01*
X27117679Y-109897000D01*
X27248474Y-109870984D01*
X27371680Y-109819950D01*
X27482563Y-109745860D01*
X27576860Y-109651563D01*
X27650950Y-109540680D01*
X27701984Y-109417474D01*
X27728000Y-109286679D01*
X27728000Y-109153321D01*
X27701984Y-109022526D01*
X27650950Y-108899320D01*
X27576860Y-108788437D01*
X27482563Y-108694140D01*
X27371680Y-108620050D01*
X27248474Y-108569016D01*
X27117679Y-108543000D01*
X26984321Y-108543000D01*
X26853526Y-108569016D01*
X26730320Y-108620050D01*
X26619437Y-108694140D01*
X26525140Y-108788437D01*
X26451050Y-108899320D01*
X26400016Y-109022526D01*
X26374000Y-109153321D01*
X26374000Y-109257775D01*
X25219910Y-110411867D01*
X25202656Y-110426027D01*
X25164812Y-110472140D01*
X25146172Y-110494853D01*
X25104200Y-110573377D01*
X25078354Y-110658579D01*
X25069627Y-110747186D01*
X25071815Y-110769400D01*
X25071815Y-110813262D01*
X24997954Y-110887123D01*
X24923864Y-110998006D01*
X24872830Y-111121212D01*
X24846814Y-111252007D01*
X18948419Y-111252007D01*
X18948419Y-108479647D01*
X21650175Y-108479647D01*
X21650175Y-108613005D01*
X21676191Y-108743800D01*
X21727225Y-108867006D01*
X21801315Y-108977889D01*
X21895612Y-109072186D01*
X22006495Y-109146276D01*
X22129701Y-109197310D01*
X22260496Y-109223326D01*
X22393854Y-109223326D01*
X22524649Y-109197310D01*
X22647855Y-109146276D01*
X22758738Y-109072186D01*
X22853035Y-108977889D01*
X22927125Y-108867006D01*
X22978159Y-108743800D01*
X23004175Y-108613005D01*
X23004175Y-108537692D01*
X24794013Y-106747856D01*
X24898467Y-106747856D01*
X25029262Y-106721840D01*
X25152468Y-106670806D01*
X25263351Y-106596716D01*
X25357648Y-106502419D01*
X25431738Y-106391536D01*
X25482772Y-106268330D01*
X25508788Y-106137535D01*
X25508788Y-106004177D01*
X25482772Y-105873382D01*
X25431738Y-105750176D01*
X25357648Y-105639293D01*
X25263351Y-105544996D01*
X25152468Y-105470906D01*
X25029262Y-105419872D01*
X24898467Y-105393856D01*
X24765109Y-105393856D01*
X24634314Y-105419872D01*
X24511108Y-105470906D01*
X24400225Y-105544996D01*
X24305928Y-105639293D01*
X24231838Y-105750176D01*
X24180804Y-105873382D01*
X24154788Y-106004177D01*
X24154788Y-106108631D01*
X22394055Y-107869366D01*
X22393854Y-107869326D01*
X22260496Y-107869326D01*
X22129701Y-107895342D01*
X22006495Y-107946376D01*
X21895612Y-108020466D01*
X21801315Y-108114763D01*
X21727225Y-108225646D01*
X21676191Y-108348852D01*
X21650175Y-108479647D01*
X18948419Y-108479647D01*
X18948419Y-105264651D01*
X42663000Y-105264651D01*
X42663000Y-105506349D01*
X42710153Y-105743403D01*
X42802647Y-105966702D01*
X42936927Y-106167667D01*
X43107833Y-106338573D01*
X43308798Y-106472853D01*
X43532097Y-106565347D01*
X43769151Y-106612500D01*
X44010849Y-106612500D01*
X44247903Y-106565347D01*
X44471202Y-106472853D01*
X44672167Y-106338573D01*
X44843073Y-106167667D01*
X44977353Y-105966702D01*
X45069847Y-105743403D01*
X45117000Y-105506349D01*
X45117000Y-105264651D01*
X45069847Y-105027597D01*
X44977353Y-104804298D01*
X44843073Y-104603333D01*
X44672167Y-104432427D01*
X44471202Y-104298147D01*
X44247903Y-104205653D01*
X44010849Y-104158500D01*
X43769151Y-104158500D01*
X43532097Y-104205653D01*
X43308798Y-104298147D01*
X43107833Y-104432427D01*
X42936927Y-104603333D01*
X42802647Y-104804298D01*
X42710153Y-105027597D01*
X42663000Y-105264651D01*
X18948419Y-105264651D01*
X18948419Y-98972390D01*
X42881524Y-98972390D01*
X42926175Y-99119599D01*
X43051359Y-99382420D01*
X43225412Y-99615769D01*
X43441645Y-99810678D01*
X43636380Y-99926676D01*
X43473000Y-99926676D01*
X43399095Y-99933955D01*
X43328030Y-99955512D01*
X43262537Y-99990519D01*
X43205131Y-100037631D01*
X43158019Y-100095037D01*
X43123012Y-100160530D01*
X43101455Y-100231595D01*
X43094176Y-100305500D01*
X43094176Y-102005500D01*
X43101455Y-102079405D01*
X43123012Y-102150470D01*
X43158019Y-102215963D01*
X43205131Y-102273369D01*
X43262537Y-102320481D01*
X43328030Y-102355488D01*
X43399095Y-102377045D01*
X43473000Y-102384324D01*
X45173000Y-102384324D01*
X45246905Y-102377045D01*
X45317970Y-102355488D01*
X45383463Y-102320481D01*
X45440869Y-102273369D01*
X45487981Y-102215963D01*
X45522988Y-102150470D01*
X45544545Y-102079405D01*
X45551824Y-102005500D01*
X45551824Y-100305500D01*
X45544545Y-100231595D01*
X45522988Y-100160530D01*
X45487981Y-100095037D01*
X45440869Y-100037631D01*
X45383463Y-99990519D01*
X45317970Y-99955512D01*
X45246905Y-99933955D01*
X45173000Y-99926676D01*
X45009620Y-99926676D01*
X45204355Y-99810678D01*
X45420588Y-99615769D01*
X45594641Y-99382420D01*
X45719825Y-99119599D01*
X45764476Y-98972390D01*
X45643155Y-98742500D01*
X44450000Y-98742500D01*
X44450000Y-98762500D01*
X44196000Y-98762500D01*
X44196000Y-98742500D01*
X43002845Y-98742500D01*
X42881524Y-98972390D01*
X18948419Y-98972390D01*
X18948419Y-98258610D01*
X42881524Y-98258610D01*
X43002845Y-98488500D01*
X44196000Y-98488500D01*
X44196000Y-97294686D01*
X44450000Y-97294686D01*
X44450000Y-98488500D01*
X45643155Y-98488500D01*
X45764476Y-98258610D01*
X45719825Y-98111401D01*
X45594641Y-97848580D01*
X45420588Y-97615231D01*
X45204355Y-97420322D01*
X44954252Y-97271343D01*
X44679891Y-97174019D01*
X44450000Y-97294686D01*
X44196000Y-97294686D01*
X43966109Y-97174019D01*
X43691748Y-97271343D01*
X43441645Y-97420322D01*
X43225412Y-97615231D01*
X43051359Y-97848580D01*
X42926175Y-98111401D01*
X42881524Y-98258610D01*
X18948419Y-98258610D01*
X18948419Y-94146390D01*
X42881524Y-94146390D01*
X42926175Y-94293599D01*
X43051359Y-94556420D01*
X43225412Y-94789769D01*
X43441645Y-94984678D01*
X43691748Y-95133657D01*
X43966109Y-95230981D01*
X44196000Y-95110314D01*
X44196000Y-93916500D01*
X44450000Y-93916500D01*
X44450000Y-95110314D01*
X44679891Y-95230981D01*
X44954252Y-95133657D01*
X45204355Y-94984678D01*
X45420588Y-94789769D01*
X45594641Y-94556420D01*
X45719825Y-94293599D01*
X45764476Y-94146390D01*
X45643155Y-93916500D01*
X44450000Y-93916500D01*
X44196000Y-93916500D01*
X43002845Y-93916500D01*
X42881524Y-94146390D01*
X18948419Y-94146390D01*
X18948419Y-93432610D01*
X42881524Y-93432610D01*
X43002845Y-93662500D01*
X44196000Y-93662500D01*
X44196000Y-93642500D01*
X44450000Y-93642500D01*
X44450000Y-93662500D01*
X45643155Y-93662500D01*
X45764476Y-93432610D01*
X45719825Y-93285401D01*
X45594641Y-93022580D01*
X45420588Y-92789231D01*
X45204355Y-92594322D01*
X45009620Y-92478324D01*
X45173000Y-92478324D01*
X45246905Y-92471045D01*
X45317970Y-92449488D01*
X45383463Y-92414481D01*
X45440869Y-92367369D01*
X45487981Y-92309963D01*
X45522988Y-92244470D01*
X45544545Y-92173405D01*
X45551824Y-92099500D01*
X45551824Y-90399500D01*
X45544545Y-90325595D01*
X45522988Y-90254530D01*
X45487981Y-90189037D01*
X45440869Y-90131631D01*
X45383463Y-90084519D01*
X45317970Y-90049512D01*
X45246905Y-90027955D01*
X45173000Y-90020676D01*
X43473000Y-90020676D01*
X43399095Y-90027955D01*
X43328030Y-90049512D01*
X43262537Y-90084519D01*
X43205131Y-90131631D01*
X43158019Y-90189037D01*
X43123012Y-90254530D01*
X43101455Y-90325595D01*
X43094176Y-90399500D01*
X43094176Y-92099500D01*
X43101455Y-92173405D01*
X43123012Y-92244470D01*
X43158019Y-92309963D01*
X43205131Y-92367369D01*
X43262537Y-92414481D01*
X43328030Y-92449488D01*
X43399095Y-92471045D01*
X43473000Y-92478324D01*
X43636380Y-92478324D01*
X43441645Y-92594322D01*
X43225412Y-92789231D01*
X43051359Y-93022580D01*
X42926175Y-93285401D01*
X42881524Y-93432610D01*
X18948419Y-93432610D01*
X18948419Y-86145391D01*
X24974519Y-86145391D01*
X25071843Y-86419752D01*
X25220822Y-86669855D01*
X25415731Y-86886088D01*
X25649080Y-87060141D01*
X25911901Y-87185325D01*
X26059110Y-87229976D01*
X26289000Y-87108655D01*
X26289000Y-85915500D01*
X25095186Y-85915500D01*
X24974519Y-86145391D01*
X18948419Y-86145391D01*
X18948419Y-85431609D01*
X24974519Y-85431609D01*
X25095186Y-85661500D01*
X26289000Y-85661500D01*
X26289000Y-85641500D01*
X26543000Y-85641500D01*
X26543000Y-85661500D01*
X26563000Y-85661500D01*
X26563000Y-85915500D01*
X26543000Y-85915500D01*
X26543000Y-87108655D01*
X26772890Y-87229976D01*
X26920099Y-87185325D01*
X27182920Y-87060141D01*
X27416269Y-86886088D01*
X27611178Y-86669855D01*
X27760157Y-86419752D01*
X27819769Y-86251702D01*
X27868647Y-86369702D01*
X28002927Y-86570667D01*
X28173833Y-86741573D01*
X28374798Y-86875853D01*
X28598097Y-86968347D01*
X28835151Y-87015500D01*
X29076849Y-87015500D01*
X29313903Y-86968347D01*
X29537202Y-86875853D01*
X29738167Y-86741573D01*
X29909073Y-86570667D01*
X30043353Y-86369702D01*
X30135847Y-86146403D01*
X30183000Y-85909349D01*
X30183000Y-85667651D01*
X30269000Y-85667651D01*
X30269000Y-85909349D01*
X30316153Y-86146403D01*
X30408647Y-86369702D01*
X30542927Y-86570667D01*
X30713833Y-86741573D01*
X30914798Y-86875853D01*
X31138097Y-86968347D01*
X31375151Y-87015500D01*
X31616849Y-87015500D01*
X31853903Y-86968347D01*
X32077202Y-86875853D01*
X32278167Y-86741573D01*
X32449073Y-86570667D01*
X32583353Y-86369702D01*
X32675847Y-86146403D01*
X32723000Y-85909349D01*
X32723000Y-85667651D01*
X32675847Y-85430597D01*
X32583353Y-85207298D01*
X32449073Y-85006333D01*
X32278167Y-84835427D01*
X32077202Y-84701147D01*
X31853903Y-84608653D01*
X31616849Y-84561500D01*
X31375151Y-84561500D01*
X31138097Y-84608653D01*
X30914798Y-84701147D01*
X30713833Y-84835427D01*
X30542927Y-85006333D01*
X30408647Y-85207298D01*
X30316153Y-85430597D01*
X30269000Y-85667651D01*
X30183000Y-85667651D01*
X30135847Y-85430597D01*
X30043353Y-85207298D01*
X29909073Y-85006333D01*
X29738167Y-84835427D01*
X29537202Y-84701147D01*
X29313903Y-84608653D01*
X29076849Y-84561500D01*
X28835151Y-84561500D01*
X28598097Y-84608653D01*
X28374798Y-84701147D01*
X28173833Y-84835427D01*
X28002927Y-85006333D01*
X27868647Y-85207298D01*
X27819769Y-85325298D01*
X27760157Y-85157248D01*
X27611178Y-84907145D01*
X27416269Y-84690912D01*
X27182920Y-84516859D01*
X26920099Y-84391675D01*
X26886812Y-84381578D01*
X26997202Y-84335853D01*
X27198167Y-84201573D01*
X27369073Y-84030667D01*
X27503353Y-83829702D01*
X27595847Y-83606403D01*
X27643000Y-83369349D01*
X27643000Y-83127651D01*
X27729000Y-83127651D01*
X27729000Y-83369349D01*
X27776153Y-83606403D01*
X27868647Y-83829702D01*
X28002927Y-84030667D01*
X28173833Y-84201573D01*
X28374798Y-84335853D01*
X28598097Y-84428347D01*
X28835151Y-84475500D01*
X29076849Y-84475500D01*
X29313903Y-84428347D01*
X29537202Y-84335853D01*
X29738167Y-84201573D01*
X29909073Y-84030667D01*
X30043353Y-83829702D01*
X30135847Y-83606403D01*
X30183000Y-83369349D01*
X30183000Y-83127651D01*
X30135847Y-82890597D01*
X30043353Y-82667298D01*
X29909073Y-82466333D01*
X29841240Y-82398500D01*
X30267176Y-82398500D01*
X30267176Y-84098500D01*
X30274455Y-84172405D01*
X30296012Y-84243470D01*
X30331019Y-84308963D01*
X30378131Y-84366369D01*
X30435537Y-84413481D01*
X30501030Y-84448488D01*
X30572095Y-84470045D01*
X30646000Y-84477324D01*
X32346000Y-84477324D01*
X32419905Y-84470045D01*
X32490970Y-84448488D01*
X32556463Y-84413481D01*
X32613869Y-84366369D01*
X32660981Y-84308963D01*
X32695988Y-84243470D01*
X32717545Y-84172405D01*
X32724824Y-84098500D01*
X32724824Y-83000651D01*
X77068500Y-83000651D01*
X77068500Y-83242349D01*
X77115653Y-83479403D01*
X77208147Y-83702702D01*
X77342427Y-83903667D01*
X77513333Y-84074573D01*
X77714298Y-84208853D01*
X77937597Y-84301347D01*
X78174651Y-84348500D01*
X78416349Y-84348500D01*
X78653403Y-84301347D01*
X78876702Y-84208853D01*
X79077667Y-84074573D01*
X79248573Y-83903667D01*
X79382853Y-83702702D01*
X79475347Y-83479403D01*
X79522500Y-83242349D01*
X79522500Y-83000651D01*
X79608500Y-83000651D01*
X79608500Y-83242349D01*
X79655653Y-83479403D01*
X79748147Y-83702702D01*
X79882427Y-83903667D01*
X80053333Y-84074573D01*
X80254298Y-84208853D01*
X80477597Y-84301347D01*
X80714651Y-84348500D01*
X80956349Y-84348500D01*
X81193403Y-84301347D01*
X81416702Y-84208853D01*
X81617667Y-84074573D01*
X81788573Y-83903667D01*
X81922853Y-83702702D01*
X82015347Y-83479403D01*
X82062500Y-83242349D01*
X82062500Y-83000651D01*
X82015347Y-82763597D01*
X81922853Y-82540298D01*
X81788573Y-82339333D01*
X81720740Y-82271500D01*
X82146676Y-82271500D01*
X82146676Y-83971500D01*
X82153955Y-84045405D01*
X82175512Y-84116470D01*
X82210519Y-84181963D01*
X82257631Y-84239369D01*
X82315037Y-84286481D01*
X82380530Y-84321488D01*
X82451595Y-84343045D01*
X82525500Y-84350324D01*
X84225500Y-84350324D01*
X84299405Y-84343045D01*
X84370470Y-84321488D01*
X84435963Y-84286481D01*
X84493369Y-84239369D01*
X84540481Y-84181963D01*
X84575488Y-84116470D01*
X84597045Y-84045405D01*
X84604324Y-83971500D01*
X84604324Y-83268905D01*
X88138200Y-83268905D01*
X88138200Y-83609095D01*
X88204568Y-83942747D01*
X88334753Y-84257041D01*
X88523752Y-84539898D01*
X88764302Y-84780448D01*
X89047159Y-84969447D01*
X89361453Y-85099632D01*
X89695105Y-85166000D01*
X90035295Y-85166000D01*
X90368947Y-85099632D01*
X90683241Y-84969447D01*
X90966098Y-84780448D01*
X91206648Y-84539898D01*
X91395647Y-84257041D01*
X91525832Y-83942747D01*
X91592200Y-83609095D01*
X91592200Y-83268905D01*
X91525832Y-82935253D01*
X91395647Y-82620959D01*
X91206648Y-82338102D01*
X90966098Y-82097552D01*
X90683241Y-81908553D01*
X90368947Y-81778368D01*
X90035295Y-81712000D01*
X89695105Y-81712000D01*
X89361453Y-81778368D01*
X89047159Y-81908553D01*
X88764302Y-82097552D01*
X88523752Y-82338102D01*
X88334753Y-82620959D01*
X88204568Y-82935253D01*
X88138200Y-83268905D01*
X84604324Y-83268905D01*
X84604324Y-82271500D01*
X84597045Y-82197595D01*
X84575488Y-82126530D01*
X84540481Y-82061037D01*
X84493369Y-82003631D01*
X84435963Y-81956519D01*
X84370470Y-81921512D01*
X84299405Y-81899955D01*
X84225500Y-81892676D01*
X82525500Y-81892676D01*
X82451595Y-81899955D01*
X82380530Y-81921512D01*
X82315037Y-81956519D01*
X82257631Y-82003631D01*
X82210519Y-82061037D01*
X82175512Y-82126530D01*
X82153955Y-82197595D01*
X82146676Y-82271500D01*
X81720740Y-82271500D01*
X81617667Y-82168427D01*
X81416702Y-82034147D01*
X81193403Y-81941653D01*
X80956349Y-81894500D01*
X80714651Y-81894500D01*
X80477597Y-81941653D01*
X80254298Y-82034147D01*
X80053333Y-82168427D01*
X79882427Y-82339333D01*
X79748147Y-82540298D01*
X79655653Y-82763597D01*
X79608500Y-83000651D01*
X79522500Y-83000651D01*
X79475347Y-82763597D01*
X79382853Y-82540298D01*
X79248573Y-82339333D01*
X79077667Y-82168427D01*
X78876702Y-82034147D01*
X78653403Y-81941653D01*
X78416349Y-81894500D01*
X78174651Y-81894500D01*
X77937597Y-81941653D01*
X77714298Y-82034147D01*
X77513333Y-82168427D01*
X77342427Y-82339333D01*
X77208147Y-82540298D01*
X77115653Y-82763597D01*
X77068500Y-83000651D01*
X32724824Y-83000651D01*
X32724824Y-82398500D01*
X32717545Y-82324595D01*
X32695988Y-82253530D01*
X32660981Y-82188037D01*
X32613869Y-82130631D01*
X32556463Y-82083519D01*
X32490970Y-82048512D01*
X32419905Y-82026955D01*
X32346000Y-82019676D01*
X30646000Y-82019676D01*
X30572095Y-82026955D01*
X30501030Y-82048512D01*
X30435537Y-82083519D01*
X30378131Y-82130631D01*
X30331019Y-82188037D01*
X30296012Y-82253530D01*
X30274455Y-82324595D01*
X30267176Y-82398500D01*
X29841240Y-82398500D01*
X29738167Y-82295427D01*
X29537202Y-82161147D01*
X29313903Y-82068653D01*
X29076849Y-82021500D01*
X28835151Y-82021500D01*
X28598097Y-82068653D01*
X28374798Y-82161147D01*
X28173833Y-82295427D01*
X28002927Y-82466333D01*
X27868647Y-82667298D01*
X27776153Y-82890597D01*
X27729000Y-83127651D01*
X27643000Y-83127651D01*
X27595847Y-82890597D01*
X27503353Y-82667298D01*
X27369073Y-82466333D01*
X27198167Y-82295427D01*
X26997202Y-82161147D01*
X26773903Y-82068653D01*
X26536849Y-82021500D01*
X26295151Y-82021500D01*
X26058097Y-82068653D01*
X25834798Y-82161147D01*
X25633833Y-82295427D01*
X25462927Y-82466333D01*
X25328647Y-82667298D01*
X25236153Y-82890597D01*
X25189000Y-83127651D01*
X25189000Y-83369349D01*
X25236153Y-83606403D01*
X25328647Y-83829702D01*
X25462927Y-84030667D01*
X25633833Y-84201573D01*
X25834798Y-84335853D01*
X25945188Y-84381578D01*
X25911901Y-84391675D01*
X25649080Y-84516859D01*
X25415731Y-84690912D01*
X25220822Y-84907145D01*
X25071843Y-85157248D01*
X24974519Y-85431609D01*
X18948419Y-85431609D01*
X18948419Y-83243505D01*
X20142400Y-83243505D01*
X20142400Y-83583695D01*
X20208768Y-83917347D01*
X20338953Y-84231641D01*
X20527952Y-84514498D01*
X20768502Y-84755048D01*
X21051359Y-84944047D01*
X21365653Y-85074232D01*
X21699305Y-85140600D01*
X22039495Y-85140600D01*
X22373147Y-85074232D01*
X22687441Y-84944047D01*
X22970298Y-84755048D01*
X23210848Y-84514498D01*
X23399847Y-84231641D01*
X23530032Y-83917347D01*
X23596400Y-83583695D01*
X23596400Y-83243505D01*
X23530032Y-82909853D01*
X23399847Y-82595559D01*
X23210848Y-82312702D01*
X22970298Y-82072152D01*
X22687441Y-81883153D01*
X22373147Y-81752968D01*
X22039495Y-81686600D01*
X21699305Y-81686600D01*
X21365653Y-81752968D01*
X21051359Y-81883153D01*
X20768502Y-82072152D01*
X20527952Y-82312702D01*
X20338953Y-82595559D01*
X20208768Y-82909853D01*
X20142400Y-83243505D01*
X18948419Y-83243505D01*
X18948419Y-79525619D01*
X92791800Y-79525619D01*
X92791801Y-164369000D01*
G37*
%TD.AperFunction*%
%TD*%
M02*
