%TF.GenerationSoftware,KiCad,Pcbnew,(5.1.9-0-10_14)*%
%TF.CreationDate,2021-05-05T21:44:08+02:00*%
%TF.ProjectId,mfm-v3-smd,6d666d2d-7633-42d7-936d-642e6b696361,rev?*%
%TF.SameCoordinates,Original*%
%TF.FileFunction,Legend,Top*%
%TF.FilePolarity,Positive*%
%FSLAX46Y46*%
G04 Gerber Fmt 4.6, Leading zero omitted, Abs format (unit mm)*
G04 Created by KiCad (PCBNEW (5.1.9-0-10_14)) date 2021-05-05 21:44:08*
%MOMM*%
%LPD*%
G01*
G04 APERTURE LIST*
%ADD10C,0.100000*%
%ADD11C,0.300000*%
%ADD12C,0.150000*%
%ADD13C,0.120000*%
G04 APERTURE END LIST*
D10*
X29809714Y-117953285D02*
X29809714Y-118489000D01*
X29774000Y-118596142D01*
X29702571Y-118667571D01*
X29595428Y-118703285D01*
X29524000Y-118703285D01*
X30524000Y-118703285D02*
X30166857Y-118703285D01*
X30166857Y-117953285D01*
X31202571Y-118631857D02*
X31166857Y-118667571D01*
X31059714Y-118703285D01*
X30988285Y-118703285D01*
X30881142Y-118667571D01*
X30809714Y-118596142D01*
X30774000Y-118524714D01*
X30738285Y-118381857D01*
X30738285Y-118274714D01*
X30774000Y-118131857D01*
X30809714Y-118060428D01*
X30881142Y-117989000D01*
X30988285Y-117953285D01*
X31059714Y-117953285D01*
X31166857Y-117989000D01*
X31202571Y-118024714D01*
X31738285Y-117953285D02*
X31738285Y-118489000D01*
X31702571Y-118596142D01*
X31631142Y-118667571D01*
X31524000Y-118703285D01*
X31452571Y-118703285D01*
X32452571Y-118703285D02*
X32095428Y-118703285D01*
X32095428Y-117953285D01*
X33131142Y-118631857D02*
X33095428Y-118667571D01*
X32988285Y-118703285D01*
X32916857Y-118703285D01*
X32809714Y-118667571D01*
X32738285Y-118596142D01*
X32702571Y-118524714D01*
X32666857Y-118381857D01*
X32666857Y-118274714D01*
X32702571Y-118131857D01*
X32738285Y-118060428D01*
X32809714Y-117989000D01*
X32916857Y-117953285D01*
X32988285Y-117953285D01*
X33095428Y-117989000D01*
X33131142Y-118024714D01*
X33666857Y-117953285D02*
X33666857Y-118489000D01*
X33631142Y-118596142D01*
X33559714Y-118667571D01*
X33452571Y-118703285D01*
X33381142Y-118703285D01*
X34381142Y-118703285D02*
X34024000Y-118703285D01*
X34024000Y-117953285D01*
X35059714Y-118631857D02*
X35024000Y-118667571D01*
X34916857Y-118703285D01*
X34845428Y-118703285D01*
X34738285Y-118667571D01*
X34666857Y-118596142D01*
X34631142Y-118524714D01*
X34595428Y-118381857D01*
X34595428Y-118274714D01*
X34631142Y-118131857D01*
X34666857Y-118060428D01*
X34738285Y-117989000D01*
X34845428Y-117953285D01*
X34916857Y-117953285D01*
X35024000Y-117989000D01*
X35059714Y-118024714D01*
X35595428Y-117953285D02*
X35595428Y-118489000D01*
X35559714Y-118596142D01*
X35488285Y-118667571D01*
X35381142Y-118703285D01*
X35309714Y-118703285D01*
X36309714Y-118703285D02*
X35952571Y-118703285D01*
X35952571Y-117953285D01*
X36988285Y-118631857D02*
X36952571Y-118667571D01*
X36845428Y-118703285D01*
X36774000Y-118703285D01*
X36666857Y-118667571D01*
X36595428Y-118596142D01*
X36559714Y-118524714D01*
X36524000Y-118381857D01*
X36524000Y-118274714D01*
X36559714Y-118131857D01*
X36595428Y-118060428D01*
X36666857Y-117989000D01*
X36774000Y-117953285D01*
X36845428Y-117953285D01*
X36952571Y-117989000D01*
X36988285Y-118024714D01*
D11*
X21542238Y-146780880D02*
X21542238Y-147161833D01*
X21447000Y-147352309D01*
X21256523Y-147542785D01*
X20875571Y-147638023D01*
X20208904Y-147638023D01*
X19827952Y-147542785D01*
X19637476Y-147352309D01*
X19542238Y-147161833D01*
X19542238Y-146780880D01*
X19637476Y-146590404D01*
X19827952Y-146399928D01*
X20208904Y-146304690D01*
X20875571Y-146304690D01*
X21256523Y-146399928D01*
X21447000Y-146590404D01*
X21542238Y-146780880D01*
X19542238Y-148495166D02*
X21542238Y-148495166D01*
X19542238Y-149638023D01*
X21542238Y-149638023D01*
X21637476Y-152018976D02*
X19066047Y-150304690D01*
X21542238Y-153066595D02*
X21542238Y-153447547D01*
X21447000Y-153638023D01*
X21256523Y-153828500D01*
X20875571Y-153923738D01*
X20208904Y-153923738D01*
X19827952Y-153828500D01*
X19637476Y-153638023D01*
X19542238Y-153447547D01*
X19542238Y-153066595D01*
X19637476Y-152876119D01*
X19827952Y-152685642D01*
X20208904Y-152590404D01*
X20875571Y-152590404D01*
X21256523Y-152685642D01*
X21447000Y-152876119D01*
X21542238Y-153066595D01*
X20589857Y-155447547D02*
X20589857Y-154780880D01*
X19542238Y-154780880D02*
X21542238Y-154780880D01*
X21542238Y-155733261D01*
X20589857Y-157161833D02*
X20589857Y-156495166D01*
X19542238Y-156495166D02*
X21542238Y-156495166D01*
X21542238Y-157447547D01*
D12*
X48439380Y-92725333D02*
X47439380Y-92725333D01*
X47439380Y-92344380D01*
X47487000Y-92249142D01*
X47534619Y-92201523D01*
X47629857Y-92153904D01*
X47772714Y-92153904D01*
X47867952Y-92201523D01*
X47915571Y-92249142D01*
X47963190Y-92344380D01*
X47963190Y-92725333D01*
X47439380Y-91820571D02*
X48439380Y-91582476D01*
X47725095Y-91392000D01*
X48439380Y-91201523D01*
X47439380Y-90963428D01*
X48439380Y-90011047D02*
X47963190Y-90344380D01*
X48439380Y-90582476D02*
X47439380Y-90582476D01*
X47439380Y-90201523D01*
X47487000Y-90106285D01*
X47534619Y-90058666D01*
X47629857Y-90011047D01*
X47772714Y-90011047D01*
X47867952Y-90058666D01*
X47915571Y-90106285D01*
X47963190Y-90201523D01*
X47963190Y-90582476D01*
X48537761Y-102615690D02*
X48585380Y-102472833D01*
X48585380Y-102234738D01*
X48537761Y-102139500D01*
X48490142Y-102091880D01*
X48394904Y-102044261D01*
X48299666Y-102044261D01*
X48204428Y-102091880D01*
X48156809Y-102139500D01*
X48109190Y-102234738D01*
X48061571Y-102425214D01*
X48013952Y-102520452D01*
X47966333Y-102568071D01*
X47871095Y-102615690D01*
X47775857Y-102615690D01*
X47680619Y-102568071D01*
X47633000Y-102520452D01*
X47585380Y-102425214D01*
X47585380Y-102187119D01*
X47633000Y-102044261D01*
X47585380Y-101758547D02*
X47585380Y-101187119D01*
X48585380Y-101472833D02*
X47585380Y-101472833D01*
X48299666Y-100901404D02*
X48299666Y-100425214D01*
X48585380Y-100996642D02*
X47585380Y-100663309D01*
X48585380Y-100329976D01*
X47585380Y-100139500D02*
X47585380Y-99568071D01*
X48585380Y-99853785D02*
X47585380Y-99853785D01*
X47585380Y-99234738D02*
X48394904Y-99234738D01*
X48490142Y-99187119D01*
X48537761Y-99139500D01*
X48585380Y-99044261D01*
X48585380Y-98853785D01*
X48537761Y-98758547D01*
X48490142Y-98710928D01*
X48394904Y-98663309D01*
X47585380Y-98663309D01*
X48537761Y-98234738D02*
X48585380Y-98091880D01*
X48585380Y-97853785D01*
X48537761Y-97758547D01*
X48490142Y-97710928D01*
X48394904Y-97663309D01*
X48299666Y-97663309D01*
X48204428Y-97710928D01*
X48156809Y-97758547D01*
X48109190Y-97853785D01*
X48061571Y-98044261D01*
X48013952Y-98139500D01*
X47966333Y-98187119D01*
X47871095Y-98234738D01*
X47775857Y-98234738D01*
X47680619Y-98187119D01*
X47633000Y-98139500D01*
X47585380Y-98044261D01*
X47585380Y-97806166D01*
X47633000Y-97663309D01*
D13*
X31450000Y-80100000D02*
X31450000Y-81975000D01*
X27925000Y-80100000D02*
X31450000Y-80100000D01*
X27925000Y-82000000D02*
X27925000Y-80100000D01*
D12*
X28248809Y-81402380D02*
X28248809Y-80402380D01*
X29296428Y-81307142D02*
X29248809Y-81354761D01*
X29105952Y-81402380D01*
X29010714Y-81402380D01*
X28867857Y-81354761D01*
X28772619Y-81259523D01*
X28725000Y-81164285D01*
X28677380Y-80973809D01*
X28677380Y-80830952D01*
X28725000Y-80640476D01*
X28772619Y-80545238D01*
X28867857Y-80450000D01*
X29010714Y-80402380D01*
X29105952Y-80402380D01*
X29248809Y-80450000D01*
X29296428Y-80497619D01*
X29677380Y-81354761D02*
X29820238Y-81402380D01*
X30058333Y-81402380D01*
X30153571Y-81354761D01*
X30201190Y-81307142D01*
X30248809Y-81211904D01*
X30248809Y-81116666D01*
X30201190Y-81021428D01*
X30153571Y-80973809D01*
X30058333Y-80926190D01*
X29867857Y-80878571D01*
X29772619Y-80830952D01*
X29725000Y-80783333D01*
X29677380Y-80688095D01*
X29677380Y-80592857D01*
X29725000Y-80497619D01*
X29772619Y-80450000D01*
X29867857Y-80402380D01*
X30105952Y-80402380D01*
X30248809Y-80450000D01*
X30677380Y-81402380D02*
X30677380Y-80402380D01*
X31058333Y-80402380D01*
X31153571Y-80450000D01*
X31201190Y-80497619D01*
X31248809Y-80592857D01*
X31248809Y-80735714D01*
X31201190Y-80830952D01*
X31153571Y-80878571D01*
X31058333Y-80926190D01*
X30677380Y-80926190D01*
X89900807Y-150284488D02*
X90662712Y-150284488D01*
X90281760Y-150665440D02*
X90281760Y-149903536D01*
X91105952Y-134203571D02*
X90344047Y-134203571D01*
X23645761Y-100583666D02*
X23693380Y-100440809D01*
X23693380Y-100202714D01*
X23645761Y-100107476D01*
X23598142Y-100059857D01*
X23502904Y-100012238D01*
X23407666Y-100012238D01*
X23312428Y-100059857D01*
X23264809Y-100107476D01*
X23217190Y-100202714D01*
X23169571Y-100393190D01*
X23121952Y-100488428D01*
X23074333Y-100536047D01*
X22979095Y-100583666D01*
X22883857Y-100583666D01*
X22788619Y-100536047D01*
X22741000Y-100488428D01*
X22693380Y-100393190D01*
X22693380Y-100155095D01*
X22741000Y-100012238D01*
X22693380Y-99678904D02*
X23693380Y-99012238D01*
X22693380Y-99012238D02*
X23693380Y-99678904D01*
X23693380Y-98107476D02*
X23693380Y-98678904D01*
X23693380Y-98393190D02*
X22693380Y-98393190D01*
X22836238Y-98488428D01*
X22931476Y-98583666D01*
X22979095Y-98678904D01*
X22788619Y-97726523D02*
X22741000Y-97678904D01*
X22693380Y-97583666D01*
X22693380Y-97345571D01*
X22741000Y-97250333D01*
X22788619Y-97202714D01*
X22883857Y-97155095D01*
X22979095Y-97155095D01*
X23121952Y-97202714D01*
X23693380Y-97774142D01*
X23693380Y-97155095D01*
X22693380Y-96821761D02*
X22693380Y-96155095D01*
X23693380Y-96583666D01*
X22693380Y-95345571D02*
X22693380Y-95536047D01*
X22741000Y-95631285D01*
X22788619Y-95678904D01*
X22931476Y-95774142D01*
X23121952Y-95821761D01*
X23502904Y-95821761D01*
X23598142Y-95774142D01*
X23645761Y-95726523D01*
X23693380Y-95631285D01*
X23693380Y-95440809D01*
X23645761Y-95345571D01*
X23598142Y-95297952D01*
X23502904Y-95250333D01*
X23264809Y-95250333D01*
X23169571Y-95297952D01*
X23121952Y-95345571D01*
X23074333Y-95440809D01*
X23074333Y-95631285D01*
X23121952Y-95726523D01*
X23169571Y-95774142D01*
X23264809Y-95821761D01*
X38432142Y-80266666D02*
X38908333Y-80266666D01*
X38336904Y-80552380D02*
X38670238Y-79552380D01*
X39003571Y-80552380D01*
X39336904Y-80552380D02*
X39336904Y-79552380D01*
X39908333Y-80552380D01*
X39908333Y-79552380D01*
X40241666Y-79552380D02*
X40813095Y-79552380D01*
X40527380Y-80552380D02*
X40527380Y-79552380D01*
D13*
%TO.C,BT1*%
X87309500Y-164390000D02*
X87309500Y-131270000D01*
X27599500Y-164390000D02*
X87309500Y-164390000D01*
X27599500Y-131270000D02*
X27599500Y-164390000D01*
X87309500Y-131270000D02*
X27599500Y-131270000D01*
X47914500Y-157865000D02*
X47914500Y-152785000D01*
X47914500Y-152785000D02*
X65694500Y-152785000D01*
X65694500Y-152785000D02*
X65694500Y-154055000D01*
X65694500Y-154055000D02*
X66964500Y-154055000D01*
X66964500Y-154055000D02*
X66964500Y-156595000D01*
X66964500Y-156595000D02*
X65694500Y-156595000D01*
X65694500Y-156595000D02*
X65694500Y-157865000D01*
X65694500Y-157865000D02*
X47914500Y-157865000D01*
X66964500Y-139065000D02*
X66964500Y-142875000D01*
X66964500Y-142875000D02*
X49184500Y-142875000D01*
X49184500Y-142875000D02*
X49184500Y-141605000D01*
X49184500Y-141605000D02*
X47914500Y-141605000D01*
X47914500Y-141605000D02*
X47914500Y-139065000D01*
X47914500Y-139065000D02*
X49184500Y-139065000D01*
X49184500Y-139065000D02*
X49184500Y-137795000D01*
X49184500Y-137795000D02*
X66964500Y-137795000D01*
X66964500Y-137795000D02*
X66964500Y-139065000D01*
X28869500Y-147576000D02*
X86039500Y-147576000D01*
X86039500Y-148084000D02*
X28869500Y-148084000D01*
X47914500Y-160580000D02*
X47914500Y-163120000D01*
X47914500Y-163120000D02*
X66964500Y-163120000D01*
X66964500Y-163120000D02*
X66964500Y-160580000D01*
X79664500Y-135080000D02*
X66964500Y-135080000D01*
X66964500Y-135080000D02*
X66964500Y-132540000D01*
X66964500Y-132540000D02*
X47914500Y-132540000D01*
X47914500Y-132540000D02*
X47914500Y-135080000D01*
X79664500Y-160580000D02*
X66964500Y-160580000D01*
X35214500Y-135080000D02*
X47914500Y-135080000D01*
X35214500Y-135080000D02*
X35214500Y-132540000D01*
X35214500Y-132540000D02*
X28869500Y-132540000D01*
X28869500Y-132540000D02*
X28869500Y-163120000D01*
X28869500Y-163120000D02*
X35214500Y-163120000D01*
X35214500Y-163120000D02*
X35214500Y-160580000D01*
X35214500Y-160580000D02*
X47914500Y-160580000D01*
X86039500Y-132540000D02*
X79664500Y-132540000D01*
X79664500Y-132540000D02*
X79664500Y-135080000D01*
X86039500Y-132540000D02*
X86039500Y-163120000D01*
X86039500Y-163120000D02*
X79664500Y-163120000D01*
X79664500Y-163120000D02*
X79664500Y-160580000D01*
%TO.C,J5*%
X84642000Y-83121500D02*
X84642000Y-84451500D01*
X84642000Y-84451500D02*
X83312000Y-84451500D01*
X82042000Y-84451500D02*
X76902000Y-84451500D01*
X76902000Y-81791500D02*
X76902000Y-84451500D01*
X82042000Y-81791500D02*
X76902000Y-81791500D01*
X82042000Y-81791500D02*
X82042000Y-84451500D01*
X82042000Y-123701500D02*
X82042000Y-126361500D01*
X84642000Y-125031500D02*
X84642000Y-126361500D01*
X84642000Y-126361500D02*
X83312000Y-126361500D01*
X82042000Y-126361500D02*
X76902000Y-126361500D01*
X76902000Y-123701500D02*
X76902000Y-126361500D01*
X82042000Y-123701500D02*
X76902000Y-123701500D01*
%TO.C,Q1*%
X20848200Y-132560600D02*
X21778200Y-132560600D01*
X24008200Y-132560600D02*
X23078200Y-132560600D01*
X24008200Y-132560600D02*
X24008200Y-130400600D01*
X20848200Y-132560600D02*
X20848200Y-131100600D01*
%TO.C,U4*%
X30749800Y-102594200D02*
X25669800Y-102594200D01*
X30749800Y-97958700D02*
X30749800Y-102594200D01*
X25669800Y-97958700D02*
X30749800Y-97958700D01*
X25669800Y-102594200D02*
X25669800Y-97958700D01*
X24072200Y-100639633D02*
X24072200Y-106306300D01*
X24432200Y-100639633D02*
X24072200Y-100639633D01*
X24432200Y-94972967D02*
X24432200Y-100639633D01*
X24072200Y-94972967D02*
X24432200Y-94972967D01*
X24072201Y-89306300D02*
X24072200Y-94972967D01*
X40272200Y-89306300D02*
X24072201Y-89306300D01*
X40272199Y-106306300D02*
X40272200Y-89306300D01*
X24072200Y-106306300D02*
X40272199Y-106306300D01*
%TO.C,C7*%
X21898420Y-123703000D02*
X22179580Y-123703000D01*
X21898420Y-124723000D02*
X22179580Y-124723000D01*
D12*
%TO.C,U5*%
X27865000Y-113420000D02*
X26590000Y-113420000D01*
X38215000Y-112845000D02*
X37540000Y-112845000D01*
X38215000Y-123195000D02*
X37540000Y-123195000D01*
X27865000Y-123195000D02*
X28540000Y-123195000D01*
X27865000Y-112845000D02*
X28540000Y-112845000D01*
X27865000Y-123195000D02*
X27865000Y-122520000D01*
X38215000Y-123195000D02*
X38215000Y-122520000D01*
X38215000Y-112845000D02*
X38215000Y-113520000D01*
X27865000Y-112845000D02*
X27865000Y-113420000D01*
D13*
%TO.C,U1*%
X20870000Y-128760000D02*
X21800000Y-128760000D01*
X24030000Y-128760000D02*
X23100000Y-128760000D01*
X24030000Y-128760000D02*
X24030000Y-126600000D01*
X20870000Y-128760000D02*
X20870000Y-127300000D01*
%TO.C,SW4*%
X44642000Y-96997000D02*
X41982000Y-96997000D01*
X44642000Y-99597000D02*
X44642000Y-96997000D01*
X41982000Y-99597000D02*
X41982000Y-96997000D01*
X44642000Y-99597000D02*
X41982000Y-99597000D01*
X44642000Y-100867000D02*
X44642000Y-102197000D01*
X44642000Y-102197000D02*
X43312000Y-102197000D01*
%TO.C,SW3*%
X41982000Y-95422000D02*
X44642000Y-95422000D01*
X41982000Y-92822000D02*
X41982000Y-95422000D01*
X44642000Y-92822000D02*
X44642000Y-95422000D01*
X41982000Y-92822000D02*
X44642000Y-92822000D01*
X41982000Y-91552000D02*
X41982000Y-90222000D01*
X41982000Y-90222000D02*
X43312000Y-90222000D01*
%TO.C,SW2*%
X24115000Y-113423000D02*
X24115000Y-113053000D01*
X24115000Y-113423000D02*
X20115000Y-113423000D01*
X20115000Y-113423000D02*
X20115000Y-113053000D01*
X24115000Y-110523000D02*
X20115000Y-110523000D01*
X24115000Y-110893000D02*
X24115000Y-110523000D01*
X20115000Y-110893000D02*
X20115000Y-110523000D01*
%TO.C,SW1*%
X25714000Y-149800000D02*
X23054000Y-149800000D01*
X25714000Y-152400000D02*
X25714000Y-149800000D01*
X23054000Y-152400000D02*
X23054000Y-149800000D01*
X25714000Y-152400000D02*
X23054000Y-152400000D01*
X25714000Y-153670000D02*
X25714000Y-155000000D01*
X25714000Y-155000000D02*
X24384000Y-155000000D01*
%TO.C,R16*%
X46484500Y-97504742D02*
X46484500Y-97979258D01*
X45439500Y-97504742D02*
X45439500Y-97979258D01*
%TO.C,R15*%
X45439500Y-94979258D02*
X45439500Y-94504742D01*
X46484500Y-94979258D02*
X46484500Y-94504742D01*
%TO.C,R13*%
X48917500Y-106441742D02*
X48917500Y-106916258D01*
X47872500Y-106441742D02*
X47872500Y-106916258D01*
%TO.C,R12*%
X48917500Y-109466742D02*
X48917500Y-109941258D01*
X47872500Y-109466742D02*
X47872500Y-109941258D01*
%TO.C,R10*%
X20837258Y-109697500D02*
X20362742Y-109697500D01*
X20837258Y-108652500D02*
X20362742Y-108652500D01*
%TO.C,R1*%
X30496742Y-125398000D02*
X30971258Y-125398000D01*
X30496742Y-126443000D02*
X30971258Y-126443000D01*
%TO.C,J10*%
X25865000Y-82020000D02*
X25865000Y-87220000D01*
X31005000Y-82020000D02*
X25865000Y-82020000D01*
X33605000Y-87220000D02*
X25865000Y-87220000D01*
X31005000Y-82020000D02*
X31005000Y-84620000D01*
X31005000Y-84620000D02*
X33605000Y-84620000D01*
X33605000Y-84620000D02*
X33605000Y-87220000D01*
X32275000Y-82020000D02*
X33605000Y-82020000D01*
X33605000Y-82020000D02*
X33605000Y-83350000D01*
%TO.C,J8*%
X48372000Y-113683000D02*
X42402000Y-113683000D01*
X42402000Y-113683000D02*
X42402000Y-123803000D01*
X42402000Y-123803000D02*
X48372000Y-123803000D01*
X48372000Y-123803000D02*
X48372000Y-113683000D01*
X48362000Y-116993000D02*
X47612000Y-116993000D01*
X47612000Y-116993000D02*
X47612000Y-120493000D01*
X47612000Y-120493000D02*
X48362000Y-120493000D01*
X48362000Y-120493000D02*
X48362000Y-116993000D01*
X48362000Y-113693000D02*
X47612000Y-113693000D01*
X47612000Y-113693000D02*
X47612000Y-115493000D01*
X47612000Y-115493000D02*
X48362000Y-115493000D01*
X48362000Y-115493000D02*
X48362000Y-113693000D01*
X48362000Y-121993000D02*
X47612000Y-121993000D01*
X47612000Y-121993000D02*
X47612000Y-123793000D01*
X47612000Y-123793000D02*
X48362000Y-123793000D01*
X48362000Y-123793000D02*
X48362000Y-121993000D01*
X46112000Y-113693000D02*
X46112000Y-114443000D01*
X46112000Y-114443000D02*
X43162000Y-114443000D01*
X43162000Y-114443000D02*
X43162000Y-118743000D01*
X46112000Y-123793000D02*
X46112000Y-123043000D01*
X46112000Y-123043000D02*
X43162000Y-123043000D01*
X43162000Y-123043000D02*
X43162000Y-118743000D01*
X48662000Y-114643000D02*
X48662000Y-113393000D01*
X48662000Y-113393000D02*
X47412000Y-113393000D01*
%TO.C,J7*%
X47125000Y-104119000D02*
X41925000Y-104119000D01*
X47125000Y-109259000D02*
X47125000Y-104119000D01*
X41925000Y-111859000D02*
X41925000Y-104119000D01*
X47125000Y-109259000D02*
X44525000Y-109259000D01*
X44525000Y-109259000D02*
X44525000Y-111859000D01*
X44525000Y-111859000D02*
X41925000Y-111859000D01*
X47125000Y-110529000D02*
X47125000Y-111859000D01*
X47125000Y-111859000D02*
X45795000Y-111859000D01*
%TO.C,D2*%
X45227000Y-99979500D02*
X45227000Y-102664500D01*
X45227000Y-102664500D02*
X47147000Y-102664500D01*
X47147000Y-102664500D02*
X47147000Y-99979500D01*
%TO.C,D1*%
X47147000Y-92479500D02*
X47147000Y-89794500D01*
X47147000Y-89794500D02*
X45227000Y-89794500D01*
X45227000Y-89794500D02*
X45227000Y-92479500D01*
%TO.C,C11*%
X41327500Y-117615580D02*
X41327500Y-117334420D01*
X40307500Y-117615580D02*
X40307500Y-117334420D01*
%TO.C,C10*%
X36943420Y-126430500D02*
X37224580Y-126430500D01*
X36943420Y-125410500D02*
X37224580Y-125410500D01*
%TO.C,C9*%
X33168920Y-109399500D02*
X33450080Y-109399500D01*
X33168920Y-110419500D02*
X33450080Y-110419500D01*
%TO.C,C8*%
X21845920Y-115431000D02*
X22127080Y-115431000D01*
X21845920Y-116451000D02*
X22127080Y-116451000D01*
%TO.C,C2*%
X25510000Y-127634420D02*
X25510000Y-127915580D01*
X24490000Y-127634420D02*
X24490000Y-127915580D01*
%TO.C,C1*%
X20410000Y-127634420D02*
X20410000Y-127915580D01*
X19390000Y-127634420D02*
X19390000Y-127915580D01*
%TO.C,J12*%
X28970000Y-129917500D02*
X28970000Y-127257500D01*
X28970000Y-129917500D02*
X41730000Y-129917500D01*
X41730000Y-129917500D02*
X41730000Y-127257500D01*
X28970000Y-127257500D02*
X41730000Y-127257500D01*
X26370000Y-127257500D02*
X27700000Y-127257500D01*
X26370000Y-128587500D02*
X26370000Y-127257500D01*
%TO.C,R11*%
X36462742Y-106602500D02*
X36937258Y-106602500D01*
X36462742Y-107647500D02*
X36937258Y-107647500D01*
%TO.C,R7*%
X30462742Y-107647500D02*
X30937258Y-107647500D01*
X30462742Y-106602500D02*
X30937258Y-106602500D01*
%TO.C,C5*%
X36489480Y-109398000D02*
X36208320Y-109398000D01*
X36489480Y-110418000D02*
X36208320Y-110418000D01*
%TO.C,R8*%
X27912258Y-106602500D02*
X27437742Y-106602500D01*
X27912258Y-107647500D02*
X27437742Y-107647500D01*
%TO.C,R5*%
X33462742Y-107647500D02*
X33937258Y-107647500D01*
X33462742Y-106602500D02*
X33937258Y-106602500D01*
%TO.C,J13*%
X42527200Y-86350000D02*
X42527200Y-83450000D01*
X35817200Y-86350000D02*
X35817200Y-83450000D01*
X40622200Y-81545000D02*
X37722200Y-81545000D01*
X40622200Y-88255000D02*
X37722200Y-88255000D01*
%TO.C,C3*%
X34049580Y-125410500D02*
X33768420Y-125410500D01*
X34049580Y-126430500D02*
X33768420Y-126430500D01*
%TO.C,C4*%
X24890000Y-117234580D02*
X24890000Y-116953420D01*
X25910000Y-117234580D02*
X25910000Y-116953420D01*
%TO.C,C6*%
X41340500Y-120790580D02*
X41340500Y-120509420D01*
X40320500Y-120790580D02*
X40320500Y-120509420D01*
%TO.C,C12*%
X19727937Y-135757500D02*
X18663500Y-136821937D01*
X26119063Y-135757500D02*
X27183500Y-136821937D01*
X26119063Y-135757500D02*
X24233500Y-135757500D01*
X19727937Y-135757500D02*
X21613500Y-135757500D01*
X18663500Y-136821937D02*
X18663500Y-144277500D01*
X27183500Y-136821937D02*
X27183500Y-144277500D01*
X27183500Y-144277500D02*
X24233500Y-144277500D01*
X18663500Y-144277500D02*
X21613500Y-144277500D01*
%TO.C,Y1*%
X20044000Y-117378500D02*
X20044000Y-123128500D01*
X20044000Y-123128500D02*
X23644000Y-123128500D01*
X23644000Y-123128500D02*
X23644000Y-117378500D01*
%TO.C,BT1*%
D12*
X25668071Y-156142142D02*
X26810928Y-156142142D01*
X25243071Y-140492142D02*
X26385928Y-140492142D01*
X25814500Y-141063571D02*
X25814500Y-139920714D01*
X46073071Y-155432142D02*
X47215928Y-155432142D01*
X67663071Y-155432142D02*
X68805928Y-155432142D01*
X68234500Y-156003571D02*
X68234500Y-154860714D01*
X46073071Y-140442142D02*
X47215928Y-140442142D01*
X46644500Y-141013571D02*
X46644500Y-139870714D01*
X67663071Y-140442142D02*
X68805928Y-140442142D01*
%TD*%
M02*
